<svg id="Layer_1" data-name="Layer 1" xmlns="http://www.w3.org/2000/svg" xmlns:xlink="http://www.w3.org/1999/xlink" viewBox="0 0 583.57 343.05"><defs><style>.cls-1,.cls-10,.cls-11,.cls-2,.cls-3,.cls-4,.cls-5,.cls-6,.cls-7,.cls-8,.cls-9{stroke:#4c4c4c;stroke-miterlimit:2.28;stroke-width:0.14px;}.cls-1{fill:url(#linear-gradient);}.cls-2{fill:url(#linear-gradient-2);}.cls-3{fill:lime;}.cls-4{fill:url(#linear-gradient-3);}.cls-5{fill:url(#linear-gradient-4);}.cls-6{fill:url(#linear-gradient-5);}.cls-7{fill:url(#linear-gradient-6);}.cls-8{fill:url(#linear-gradient-7);}.cls-9{fill:url(#linear-gradient-8);}.cls-10{fill:url(#linear-gradient-9);}.cls-11{fill:url(#linear-gradient-10);}</style><linearGradient id="linear-gradient" x1="265.38" y1="1471.36" x2="265.38" y2="1114.08" gradientTransform="translate(0.43 -563.49) scale(0.57)" gradientUnits="userSpaceOnUse"><stop offset="0" stop-color="lime"/><stop offset="0.49" stop-color="lime"/><stop offset="0.99" stop-color="lime"/></linearGradient><linearGradient id="linear-gradient-2" x1="77" y1="1444.2" x2="77" y2="1141.24" xlink:href="#linear-gradient"/><linearGradient id="linear-gradient-3" x1="535.37" y1="1279.14" x2="535.37" y2="1197.65" xlink:href="#linear-gradient"/><linearGradient id="linear-gradient-4" x1="758.15" y1="1375.26" x2="758.15" y2="1175.72" xlink:href="#linear-gradient"/><linearGradient id="linear-gradient-5" x1="738.65" y1="1465.1" x2="792.02" y2="1465.1" xlink:href="#linear-gradient"/><linearGradient id="linear-gradient-6" x1="913.15" y1="1019.54" x2="1048.66" y2="1019.54" xlink:href="#linear-gradient"/><linearGradient id="linear-gradient-7" x1="954.22" y1="1293.77" x2="1007.6" y2="1293.77" xlink:href="#linear-gradient"/><linearGradient id="linear-gradient-8" x1="143.22" y1="1513.15" x2="196.6" y2="1513.15" xlink:href="#linear-gradient"/><linearGradient id="linear-gradient-9" x1="278.72" y1="1513.15" x2="332.1" y2="1513.15" xlink:href="#linear-gradient"/><linearGradient id="linear-gradient-10" x1="467.61" y1="1506.87" x2="494.3" y2="1506.87" xlink:href="#linear-gradient"/></defs><g id="Group_Volute_Chamber" data-name="Group Volute Chamber"><path class="cls-1" d="M227.91,227.2V117.85l-5.26-16.64-9.93-13.08L201,74.46l-1.74-2.37-1.76-1.79H74.89V273.56H197.54l12.85-13.67,9.93-13.08,7.59-16.64Z" transform="translate(-13.5 -9.02)"/><path class="cls-2" d="M74.89,85.75H44.53l-7.6.6-7,1.19-5.26,2.37-4.67,3-2.92,4.76L14.74,103l-1.16,7.13v125.4l1.16,6.54,2.34,5.35,5.25,5.94L27,255.72l5.84,1.79,7,.59H74.9V85.75" transform="translate(-13.5 -9.02)"/></g><g id="Group_Heat_Sink" data-name="Group Heat Sink"><path class="cls-3" d="M74.89,277.12H209.22V266.43H74.89Z" transform="translate(-13.5 -9.02)"/><path class="cls-3" d="M74.89,261.67h146V249.78h-146Z" transform="translate(-13.5 -9.02)"/><path class="cls-3" d="M74.89,176.09H236.08v8.32H74.89Z" transform="translate(-13.5 -9.02)"/><path class="cls-3" d="M74.89,160.64H236.08v7.14H74.89Z" transform="translate(-13.5 -9.02)"/><path class="cls-3" d="M74.89,144H236.08v8.32H74.89Z" transform="translate(-13.5 -9.02)"/><path class="cls-3" d="M74.89,128.54H232.57v8.32H74.89Z" transform="translate(-13.5 -9.02)"/><path class="cls-3" d="M74.89,113.1H232.57v8.31H74.89Z" transform="translate(-13.5 -9.02)"/><path class="cls-3" d="M74.89,97.64h153V106h-153Z" transform="translate(-13.5 -9.02)"/><path class="cls-3" d="M74.89,191.54H236.08v8.32H74.89Z" transform="translate(-13.5 -9.02)"/><path class="cls-3" d="M74.89,207H232.57v8.31H74.89Z" transform="translate(-13.5 -9.02)"/><path class="cls-3" d="M74.89,222.44H232.57v8.32H74.89Z" transform="translate(-13.5 -9.02)"/><path class="cls-3" d="M74.89,237.9h153v8.31h-153Z" transform="translate(-13.5 -9.02)"/><path class="cls-3" d="M74.89,82.19h146V94.08h-146Z" transform="translate(-13.5 -9.02)"/><path class="cls-3" d="M74.89,66.74H209.22V78.62H74.89Z" transform="translate(-13.5 -9.02)"/></g><g id="Group_MakeUp_Tank" data-name="Group MakeUp Tank"><path class="cls-3" d="M382.09,164.2H227.91V266.42H382.08V164.2Z" transform="translate(-13.5 -9.02)"/><path class="cls-4" d="M382.09,117.85H227.91V164.2H382.08V117.85Z" transform="translate(-13.5 -9.02)"/></g><g id="Group_Drivershaft_Flange" data-name="Group Drivershaft Flange"><path class="cls-5" d="M481.37,105.37H382.09V218.88h99.29V105.37Z" transform="translate(-13.5 -9.02)"/><path class="cls-6" d="M451,218.88H420.64V321.1H451Z" transform="translate(-13.5 -9.02)"/></g><g id="Group_Upstream_Pipe_Flange" data-name="Group Upstream Pipe Flange"><ellipse class="cls-3" cx="544.94" cy="162.91" rx="38.55" ry="62.4"/><path class="cls-7" d="M597,9.09H519.91V24H597Z" transform="translate(-13.5 -9.02)"/><path class="cls-8" d="M573.64,24H543.28V321.1h30.36Z" transform="translate(-13.5 -9.02)"/><path class="cls-3" d="M581.82,85.75H535.09V258.1h46.73Z" transform="translate(-13.5 -9.02)"/><path class="cls-3" d="M543.28,234.33V218.87H497.72V125h45.56V109.53H481.37v124.8Z" transform="translate(-13.5 -9.02)"/></g><g id="Group_Support" data-name="Group Support"><path class="cls-9" d="M112.28,273.56H81.91V321.1h30.37Z" transform="translate(-13.5 -9.02)"/><path class="cls-10" d="M189.36,273.56H159V321.1h30.37Z" transform="translate(-13.5 -9.02)"/><path class="cls-11" d="M281.63,266.42H266.45v54.67h15.18Z" transform="translate(-13.5 -9.02)"/><path class="cls-3" d="M597,352V321.1H13.58V352Z" transform="translate(-13.5 -9.02)"/></g></svg>