<?xml version="1.0" encoding="utf-8"?>
<!-- Generator: Adobe Illustrator 27.1.1, SVG Export Plug-In . SVG Version: 6.00 Build 0)  -->
<svg version="1.1" id="Layer_1" xmlns="http://www.w3.org/2000/svg" xmlns:xlink="http://www.w3.org/1999/xlink" x="0px" y="0px"
	 viewBox="0 0 692 293" style="enable-background:new 0 0 692 293;" xml:space="preserve">
<style type="text/css">
	.st0{fill:#212830;}
	.st1{font-family:'ArialMT';}
	.st2{font-size:21px;}
	.st3{fill:none;stroke:#212830;stroke-linecap:square;stroke-miterlimit:10;}
	.st4{fill:none;stroke:#FF0000;stroke-linecap:square;stroke-miterlimit:10;}
	.st5{fill:#E6E6E6;stroke:#FF0000;stroke-miterlimit:10;}
	.st6{fill:#FF00FF;}
	.st7{fill:#FF0000;}
	.st8{fill:#FF0000;stroke:#FF0000;stroke-linecap:square;stroke-miterlimit:10;}
	.st9{font-size:12px;}
	.st10{font-size:14px;}
</style>
<text transform="matrix(0.7128 0 0 1 305.5436 27.4981)" class="st0 st1 st2">TRẠM RP1</text>
<rect x="116.87" y="214.72" class="st3" width="90" height="43.05"/>
<line class="st4" x1="144.3" y1="141.35" x2="144.3" y2="134.26"/>
<g>
	<line class="st4" x1="134.21" y1="169.95" x2="154.12" y2="169.95"/>
	<line class="st4" x1="134.24" y1="169.64" x2="144.19" y2="149.49"/>
	<line class="st4" x1="144.42" y1="149.49" x2="154.38" y2="169.64"/>
	<g>
		<rect x="142.34" y="165.96" class="st5" width="2.75" height="7.73"/>
		<g>
			<line class="st4" x1="142.6" y1="166.16" x2="142.6" y2="173.57"/>
			<line class="st4" x1="145.19" y1="166.16" x2="145.19" y2="173.57"/>
		</g>
	</g>
	<g>
		<polygon class="st5" points="142.66,158.88 141.27,161.65 135.57,157.73 136.97,154.95 		"/>
		<g>
			<line class="st4" x1="135.85" y1="157.58" x2="141.31" y2="161.34"/>
			<line class="st4" x1="137.17" y1="154.96" x2="142.63" y2="158.72"/>
		</g>
	</g>
	<g>
		<polygon class="st5" points="151.44,155.88 152.86,158.64 147.2,162.63 145.78,159.87 		"/>
		<g>
			<line class="st4" x1="147.22" y1="162.27" x2="152.65" y2="158.45"/>
			<line class="st4" x1="145.88" y1="159.67" x2="151.31" y2="155.85"/>
		</g>
	</g>
</g>
<line class="st4" x1="144.3" y1="124.18" x2="144.3" y2="149.18"/>
<g>
	<g>
		<path class="st6" d="M144.29,111.41c-4.81,0-8.05-1.75-8.05-3.38s3.23-3.38,8.05-3.38s8.05,1.75,8.05,3.38
			S149.11,111.41,144.29,111.41z"/>
		<path class="st6" d="M144.3,105.15c4.61,0,7.55,1.7,7.55,2.88s-2.94,2.88-7.55,2.88c-4.61,0-7.55-1.7-7.55-2.88
			S139.69,105.15,144.3,105.15 M144.3,104.15c-4.72,0-8.55,1.74-8.55,3.88c0,2.14,3.83,3.88,8.55,3.88s8.55-1.74,8.55-3.88
			C152.84,105.89,149.01,104.15,144.3,104.15L144.3,104.15z"/>
	</g>
	<g>
		<path class="st6" d="M143.44,107.96c-3.14,0-5.48-1.1-5.48-2.08c0-0.98,2.34-2.08,5.48-2.08s5.48,1.1,5.48,2.08
			C148.92,106.86,146.58,107.96,143.44,107.96z"/>
		<path class="st6" d="M143.44,104.29c3.24,0,4.98,1.12,4.98,1.58s-1.75,1.58-4.98,1.58c-3.24,0-4.98-1.12-4.98-1.58
			S140.2,104.29,143.44,104.29 M143.44,103.29c-3.3,0-5.98,1.16-5.98,2.58c0,1.43,2.68,2.58,5.98,2.58c3.3,0,5.98-1.16,5.98-2.58
			C149.42,104.45,146.74,103.29,143.44,103.29L143.44,103.29z"/>
	</g>
	<g>
		<path class="st6" d="M144.29,112.27c-3.14,0-5.48-1.1-5.48-2.08s2.34-2.08,5.48-2.08s5.48,1.1,5.48,2.08
			S147.43,112.27,144.29,112.27z"/>
		<path class="st6" d="M144.3,108.6c3.24,0,4.98,1.12,4.98,1.58c0,0.46-1.75,1.58-4.98,1.58c-3.24,0-4.98-1.12-4.98-1.58
			C139.31,109.72,141.06,108.6,144.3,108.6 M144.3,107.6c-3.3,0-5.98,1.16-5.98,2.58s2.68,2.58,5.98,2.58c3.3,0,5.98-1.16,5.98-2.58
			S147.6,107.6,144.3,107.6L144.3,107.6z"/>
	</g>
</g>
<g>
	<path class="st7" d="M144.3,91.82c5.51,0,10,4.49,10,10s-4.49,10-10,10c-5.51,0-10-4.49-10-10S138.78,91.82,144.3,91.82
		 M144.3,90.82c-6.08,0-11,4.92-11,11c0,6.08,4.92,11,11,11c6.08,0,11-4.92,11-11C155.3,95.75,150.37,90.82,144.3,90.82L144.3,90.82
		z"/>
</g>
<g>
	<path class="st7" d="M144.3,103.77c5.51,0,10,4.49,10,10s-4.49,10-10,10c-5.51,0-10-4.49-10-10S138.78,103.77,144.3,103.77
		 M144.3,102.77c-6.08,0-11,4.92-11,11s4.92,11,11,11c6.08,0,11-4.92,11-11S150.37,102.77,144.3,102.77L144.3,102.77z"/>
</g>
<line class="st4" x1="155.3" y1="138.1" x2="133.3" y2="138.1"/>
<line class="st4" x1="155.96" y1="141.57" x2="155.96" y2="134.48"/>
<line class="st4" x1="179.45" y1="141.35" x2="179.45" y2="134.26"/>
<g>
	<line class="st4" x1="169.37" y1="169.95" x2="189.27" y2="169.95"/>
	<line class="st4" x1="169.39" y1="169.64" x2="179.34" y2="149.49"/>
	<line class="st4" x1="179.58" y1="149.49" x2="189.53" y2="169.64"/>
	<g>
		<rect x="177.5" y="165.96" class="st5" width="2.75" height="7.73"/>
		<g>
			<line class="st4" x1="177.75" y1="166.16" x2="177.75" y2="173.57"/>
			<line class="st4" x1="180.34" y1="166.16" x2="180.34" y2="173.57"/>
		</g>
	</g>
	<g>
		<polygon class="st5" points="177.82,158.88 176.42,161.65 170.73,157.73 172.13,154.95 		"/>
		<g>
			<line class="st4" x1="171.01" y1="157.58" x2="176.46" y2="161.34"/>
			<line class="st4" x1="172.33" y1="154.96" x2="177.78" y2="158.72"/>
		</g>
	</g>
	<g>
		<polygon class="st5" points="186.59,155.88 188.02,158.64 182.36,162.63 180.94,159.87 		"/>
		<g>
			<line class="st4" x1="182.38" y1="162.27" x2="187.8" y2="158.45"/>
			<line class="st4" x1="181.04" y1="159.67" x2="186.46" y2="155.85"/>
		</g>
	</g>
</g>
<line class="st4" x1="179.45" y1="124.18" x2="179.45" y2="149.18"/>
<g>
	<g>
		<path class="st6" d="M179.45,111.41c-4.81,0-8.05-1.75-8.05-3.38s3.23-3.38,8.05-3.38s8.05,1.75,8.05,3.38
			S184.26,111.41,179.45,111.41z"/>
		<path class="st6" d="M179.45,105.15c4.61,0,7.55,1.7,7.55,2.88s-2.94,2.88-7.55,2.88c-4.61,0-7.55-1.7-7.55-2.88
			S174.84,105.15,179.45,105.15 M179.45,104.15c-4.72,0-8.55,1.74-8.55,3.88c0,2.14,3.83,3.88,8.55,3.88s8.55-1.74,8.55-3.88
			C188,105.89,184.17,104.15,179.45,104.15L179.45,104.15z"/>
	</g>
	<g>
		<path class="st6" d="M178.59,107.96c-3.14,0-5.48-1.1-5.48-2.08c0-0.98,2.34-2.08,5.48-2.08s5.48,1.1,5.48,2.08
			C184.08,106.86,181.73,107.96,178.59,107.96z"/>
		<path class="st6" d="M178.59,104.29c3.24,0,4.98,1.12,4.98,1.58s-1.75,1.58-4.98,1.58c-3.24,0-4.98-1.12-4.98-1.58
			S175.36,104.29,178.59,104.29 M178.59,103.29c-3.3,0-5.98,1.16-5.98,2.58c0,1.43,2.68,2.58,5.98,2.58c3.3,0,5.98-1.16,5.98-2.58
			C184.58,104.45,181.9,103.29,178.59,103.29L178.59,103.29z"/>
	</g>
	<g>
		<ellipse class="st6" cx="179.45" cy="110.18" rx="5.48" ry="2.08"/>
		<path class="st6" d="M179.45,108.6c3.24,0,4.98,1.12,4.98,1.58c0,0.46-1.75,1.58-4.98,1.58c-3.24,0-4.98-1.12-4.98-1.58
			C174.47,109.72,176.21,108.6,179.45,108.6 M179.45,107.6c-3.3,0-5.98,1.16-5.98,2.58s2.68,2.58,5.98,2.58
			c3.3,0,5.98-1.16,5.98-2.58S182.75,107.6,179.45,107.6L179.45,107.6z"/>
	</g>
</g>
<g>
	<path class="st7" d="M179.45,91.82c5.51,0,10,4.49,10,10s-4.49,10-10,10c-5.51,0-10-4.49-10-10S173.94,91.82,179.45,91.82
		 M179.45,90.82c-6.08,0-11,4.92-11,11c0,6.08,4.92,11,11,11c6.08,0,11-4.92,11-11C190.45,95.75,185.52,90.82,179.45,90.82
		L179.45,90.82z"/>
</g>
<g>
	<path class="st7" d="M179.45,103.77c5.51,0,10,4.49,10,10s-4.49,10-10,10c-5.51,0-10-4.49-10-10S173.94,103.77,179.45,103.77
		 M179.45,102.77c-6.08,0-11,4.92-11,11s4.92,11,11,11c6.08,0,11-4.92,11-11S185.52,102.77,179.45,102.77L179.45,102.77z"/>
</g>
<line class="st4" x1="190.45" y1="138.1" x2="168.45" y2="138.1"/>
<line class="st4" x1="179.45" y1="141.57" x2="179.45" y2="134.48"/>
<g>
	<g>
		<polyline class="st8" points="148,70.51 144.47,61.96 140.59,70.54 		"/>
	</g>
	<line class="st8" x1="144.3" y1="70.49" x2="144.3" y2="91.28"/>
	<line class="st8" x1="140.55" y1="70.89" x2="148.05" y2="70.89"/>
</g>
<g>
	<g>
		<polyline class="st8" points="183.16,70.51 179.62,61.96 175.74,70.54 		"/>
	</g>
	<line class="st8" x1="179.45" y1="70.49" x2="179.45" y2="91.28"/>
	<line class="st8" x1="175.7" y1="70.89" x2="183.2" y2="70.89"/>
</g>
<text transform="matrix(0.6726 0 0 1 142.0508 54.4397)" class="st0 st1 st9">4</text>
<text transform="matrix(0.6726 0 0 1 174.9606 54.4397)" class="st0 st1 st9">33</text>
<text transform="matrix(0.6558 0 0 1 137.7295 191.2396)"><tspan x="0" y="0" class="st0 st1 st9">270</tspan><tspan x="-6.33" y="14.4" class="st0 st1 st9">KVAR</tspan></text>
<text transform="matrix(0.6558 0 0 1 172.8837 191.2396)"><tspan x="0" y="0" class="st0 st1 st9">270</tspan><tspan x="-6.33" y="14.4" class="st0 st1 st9">KVAR</tspan></text>
<line class="st4" x1="133.4" y1="141.78" x2="133.4" y2="134.69"/>
<line class="st4" x1="168.4" y1="141.78" x2="168.4" y2="134.69"/>
<line class="st4" x1="190.4" y1="141.78" x2="190.4" y2="134.69"/>
<text transform="matrix(0.6558 0 0 1 146.3455 231.2396)"><tspan x="0" y="0" class="st0 st1 st9">KTP: 1-1</tspan><tspan x="-10.68" y="14.4" class="st0 st1 st9">2X1000 KVA</tspan></text>
<rect x="206.4" y="214.72" class="st3" width="90" height="43.05"/>
<line class="st4" x1="233.82" y1="141.35" x2="233.82" y2="134.26"/>
<g>
	<line class="st4" x1="223.74" y1="169.95" x2="243.65" y2="169.95"/>
	<line class="st4" x1="223.76" y1="169.64" x2="233.72" y2="149.49"/>
	<line class="st4" x1="233.95" y1="149.49" x2="243.9" y2="169.64"/>
	<g>
		<rect x="231.87" y="165.96" class="st5" width="2.75" height="7.73"/>
		<g>
			<line class="st4" x1="232.12" y1="166.16" x2="232.12" y2="173.57"/>
			<line class="st4" x1="234.72" y1="166.16" x2="234.72" y2="173.57"/>
		</g>
	</g>
	<g>
		<polygon class="st5" points="232.19,158.88 230.79,161.65 225.1,157.73 226.5,154.95 		"/>
		<g>
			<line class="st4" x1="225.38" y1="157.58" x2="230.84" y2="161.34"/>
			<line class="st4" x1="226.7" y1="154.96" x2="232.15" y2="158.72"/>
		</g>
	</g>
	<g>
		<polygon class="st5" points="240.97,155.88 242.39,158.64 236.73,162.63 235.31,159.87 		"/>
		<g>
			<line class="st4" x1="236.75" y1="162.27" x2="242.17" y2="158.45"/>
			<line class="st4" x1="235.41" y1="159.67" x2="240.83" y2="155.85"/>
		</g>
	</g>
</g>
<line class="st4" x1="233.82" y1="124.18" x2="233.82" y2="149.18"/>
<g>
	<g>
		<path class="st6" d="M233.82,111.41c-4.81,0-8.05-1.75-8.05-3.38s3.23-3.38,8.05-3.38s8.05,1.75,8.05,3.38
			S238.63,111.41,233.82,111.41z"/>
		<path class="st6" d="M233.82,105.15c4.61,0,7.55,1.7,7.55,2.88s-2.94,2.88-7.55,2.88c-4.61,0-7.55-1.7-7.55-2.88
			S229.22,105.15,233.82,105.15 M233.82,104.15c-4.72,0-8.55,1.74-8.55,3.88c0,2.14,3.83,3.88,8.55,3.88s8.55-1.74,8.55-3.88
			C242.37,105.89,238.54,104.15,233.82,104.15L233.82,104.15z"/>
	</g>
	<g>
		<path class="st6" d="M232.97,107.96c-3.14,0-5.48-1.1-5.48-2.08c0-0.98,2.34-2.08,5.48-2.08s5.48,1.1,5.48,2.08
			C238.45,106.86,236.1,107.96,232.97,107.96z"/>
		<path class="st6" d="M232.97,104.29c3.24,0,4.98,1.12,4.98,1.58s-1.75,1.58-4.98,1.58c-3.24,0-4.98-1.12-4.98-1.58
			S229.73,104.29,232.97,104.29 M232.97,103.29c-3.3,0-5.98,1.16-5.98,2.58c0,1.43,2.68,2.58,5.98,2.58c3.3,0,5.98-1.16,5.98-2.58
			C238.95,104.45,236.27,103.29,232.97,103.29L232.97,103.29z"/>
	</g>
	<g>
		<ellipse class="st6" cx="233.82" cy="110.18" rx="5.48" ry="2.08"/>
		<path class="st6" d="M233.82,108.6c3.24,0,4.98,1.12,4.98,1.58s-1.75,1.58-4.98,1.58c-3.24,0-4.98-1.12-4.98-1.58
			S230.59,108.6,233.82,108.6 M233.82,107.6c-3.3,0-5.98,1.16-5.98,2.58s2.68,2.58,5.98,2.58s5.98-1.16,5.98-2.58
			S237.13,107.6,233.82,107.6L233.82,107.6z"/>
	</g>
</g>
<g>
	<path class="st7" d="M233.82,91.82c5.51,0,10,4.49,10,10s-4.49,10-10,10s-10-4.49-10-10S228.31,91.82,233.82,91.82 M233.82,90.82
		c-6.08,0-11,4.92-11,11c0,6.08,4.92,11,11,11s11-4.92,11-11C244.82,95.75,239.9,90.82,233.82,90.82L233.82,90.82z"/>
</g>
<g>
	<path class="st7" d="M233.82,103.77c5.51,0,10,4.49,10,10s-4.49,10-10,10s-10-4.49-10-10S228.31,103.77,233.82,103.77
		 M233.82,102.77c-6.08,0-11,4.92-11,11s4.92,11,11,11s11-4.92,11-11S239.9,102.77,233.82,102.77L233.82,102.77z"/>
</g>
<line class="st4" x1="244.82" y1="138.1" x2="222.82" y2="138.1"/>
<line class="st4" x1="245.48" y1="141.57" x2="245.48" y2="134.48"/>
<line class="st4" x1="268.98" y1="141.35" x2="268.98" y2="134.26"/>
<g>
	<line class="st4" x1="258.9" y1="169.95" x2="278.8" y2="169.95"/>
	<line class="st4" x1="258.92" y1="169.64" x2="268.87" y2="149.49"/>
	<line class="st4" x1="269.1" y1="149.49" x2="279.06" y2="169.64"/>
	<g>
		<rect x="267.02" y="165.96" class="st5" width="2.75" height="7.73"/>
		<g>
			<line class="st4" x1="267.28" y1="166.16" x2="267.28" y2="173.57"/>
			<line class="st4" x1="269.87" y1="166.16" x2="269.87" y2="173.57"/>
		</g>
	</g>
	<g>
		<polygon class="st5" points="267.35,158.88 265.95,161.65 260.26,157.73 261.65,154.95 		"/>
		<g>
			<line class="st4" x1="260.53" y1="157.58" x2="265.99" y2="161.34"/>
			<line class="st4" x1="261.85" y1="154.96" x2="267.31" y2="158.72"/>
		</g>
	</g>
	<g>
		<polygon class="st5" points="276.12,155.88 277.54,158.64 271.88,162.63 270.46,159.87 		"/>
		<g>
			<line class="st4" x1="271.9" y1="162.27" x2="277.33" y2="158.45"/>
			<line class="st4" x1="270.56" y1="159.67" x2="275.99" y2="155.85"/>
		</g>
	</g>
</g>
<line class="st4" x1="268.98" y1="124.18" x2="268.98" y2="149.18"/>
<g>
	<g>
		<path class="st6" d="M268.98,111.41c-4.81,0-8.05-1.75-8.05-3.38s3.23-3.38,8.05-3.38s8.05,1.75,8.05,3.38
			S273.79,111.41,268.98,111.41z"/>
		<path class="st6" d="M268.98,105.15c4.61,0,7.55,1.7,7.55,2.88s-2.94,2.88-7.55,2.88c-4.61,0-7.55-1.7-7.55-2.88
			S264.37,105.15,268.98,105.15 M268.98,104.15c-4.72,0-8.55,1.74-8.55,3.88c0,2.14,3.83,3.88,8.55,3.88c4.72,0,8.55-1.74,8.55-3.88
			C277.52,105.89,273.7,104.15,268.98,104.15L268.98,104.15z"/>
	</g>
	<g>
		<path class="st6" d="M268.12,107.96c-3.14,0-5.48-1.1-5.48-2.08c0-0.98,2.34-2.08,5.48-2.08s5.48,1.1,5.48,2.08
			C273.6,106.86,271.26,107.96,268.12,107.96z"/>
		<path class="st6" d="M268.12,104.29c3.24,0,4.98,1.12,4.98,1.58s-1.75,1.58-4.98,1.58c-3.24,0-4.98-1.12-4.98-1.58
			S264.89,104.29,268.12,104.29 M268.12,103.29c-3.3,0-5.98,1.16-5.98,2.58c0,1.43,2.68,2.58,5.98,2.58s5.98-1.16,5.98-2.58
			C274.1,104.45,271.43,103.29,268.12,103.29L268.12,103.29z"/>
	</g>
	<g>
		<ellipse class="st6" cx="268.98" cy="110.18" rx="5.48" ry="2.08"/>
		<path class="st6" d="M268.98,108.6c3.24,0,4.98,1.12,4.98,1.58s-1.75,1.58-4.98,1.58s-4.98-1.12-4.98-1.58
			S265.74,108.6,268.98,108.6 M268.98,107.6c-3.3,0-5.98,1.16-5.98,2.58s2.68,2.58,5.98,2.58c3.3,0,5.98-1.16,5.98-2.58
			S272.28,107.6,268.98,107.6L268.98,107.6z"/>
	</g>
</g>
<g>
	<path class="st7" d="M268.98,91.82c5.51,0,10,4.49,10,10s-4.49,10-10,10c-5.51,0-10-4.49-10-10S263.46,91.82,268.98,91.82
		 M268.98,90.82c-6.08,0-11,4.92-11,11c0,6.08,4.92,11,11,11c6.08,0,11-4.92,11-11C279.98,95.75,275.05,90.82,268.98,90.82
		L268.98,90.82z"/>
</g>
<g>
	<path class="st7" d="M268.98,103.77c5.51,0,10,4.49,10,10s-4.49,10-10,10c-5.51,0-10-4.49-10-10S263.46,103.77,268.98,103.77
		 M268.98,102.77c-6.08,0-11,4.92-11,11s4.92,11,11,11c6.08,0,11-4.92,11-11S275.05,102.77,268.98,102.77L268.98,102.77z"/>
</g>
<line class="st4" x1="279.98" y1="138.1" x2="257.98" y2="138.1"/>
<line class="st4" x1="268.98" y1="141.57" x2="268.98" y2="134.48"/>
<g>
	<g>
		<polyline class="st8" points="237.53,70.51 233.99,61.96 230.11,70.54 		"/>
	</g>
	<line class="st8" x1="233.82" y1="70.49" x2="233.82" y2="91.28"/>
	<line class="st8" x1="230.07" y1="70.89" x2="237.57" y2="70.89"/>
</g>
<g>
	<g>
		<polyline class="st8" points="272.68,70.51 269.15,61.96 265.27,70.54 		"/>
	</g>
	<line class="st8" x1="268.98" y1="70.49" x2="268.98" y2="91.28"/>
	<line class="st8" x1="265.23" y1="70.89" x2="272.73" y2="70.89"/>
</g>
<text transform="matrix(0.6726 0 0 1 231.5776 54.4397)" class="st0 st1 st9">3</text>
<text transform="matrix(0.6726 0 0 1 264.4874 54.4397)" class="st0 st1 st9">34</text>
<text transform="matrix(0.6558 0 0 1 227.2563 191.2396)"><tspan x="0" y="0" class="st0 st1 st9">270</tspan><tspan x="-6.33" y="14.4" class="st0 st1 st9">KVAR</tspan></text>
<text transform="matrix(0.6558 0 0 1 262.4105 191.2396)"><tspan x="0" y="0" class="st0 st1 st9">270</tspan><tspan x="-6.33" y="14.4" class="st0 st1 st9">KVAR</tspan></text>
<line class="st4" x1="222.93" y1="141.78" x2="222.93" y2="134.69"/>
<line class="st4" x1="257.93" y1="141.78" x2="257.93" y2="134.69"/>
<line class="st4" x1="279.93" y1="141.78" x2="279.93" y2="134.69"/>
<text transform="matrix(0.6558 0 0 1 235.8722 231.2396)"><tspan x="0" y="0" class="st0 st1 st9">KTP: 1-2</tspan><tspan x="-10.68" y="14.4" class="st0 st1 st9">2X1000 KVA</tspan></text>
<rect x="296.4" y="214.72" class="st3" width="90" height="43.05"/>
<line class="st4" x1="323.82" y1="141.35" x2="323.82" y2="134.26"/>
<g>
	<line class="st4" x1="313.74" y1="169.95" x2="333.65" y2="169.95"/>
	<line class="st4" x1="313.76" y1="169.64" x2="323.72" y2="149.49"/>
	<line class="st4" x1="323.95" y1="149.49" x2="333.9" y2="169.64"/>
	<g>
		<rect x="321.87" y="165.96" class="st5" width="2.75" height="7.73"/>
		<g>
			<line class="st4" x1="322.12" y1="166.16" x2="322.12" y2="173.57"/>
			<line class="st4" x1="324.72" y1="166.16" x2="324.72" y2="173.57"/>
		</g>
	</g>
	<g>
		<polygon class="st5" points="322.19,158.88 320.79,161.65 315.1,157.73 316.5,154.95 		"/>
		<g>
			<line class="st4" x1="315.38" y1="157.58" x2="320.84" y2="161.34"/>
			<line class="st4" x1="316.7" y1="154.96" x2="322.15" y2="158.72"/>
		</g>
	</g>
	<g>
		<polygon class="st5" points="330.97,155.88 332.39,158.64 326.73,162.63 325.31,159.87 		"/>
		<g>
			<line class="st4" x1="326.75" y1="162.27" x2="332.17" y2="158.45"/>
			<line class="st4" x1="325.41" y1="159.67" x2="330.83" y2="155.85"/>
		</g>
	</g>
</g>
<line class="st4" x1="323.82" y1="124.18" x2="323.82" y2="149.18"/>
<g>
	<g>
		<path class="st6" d="M323.82,111.41c-4.81,0-8.05-1.75-8.05-3.38s3.23-3.38,8.05-3.38s8.05,1.75,8.05,3.38
			S328.63,111.41,323.82,111.41z"/>
		<path class="st6" d="M323.82,105.15c4.61,0,7.55,1.7,7.55,2.88s-2.94,2.88-7.55,2.88c-4.61,0-7.55-1.7-7.55-2.88
			S319.22,105.15,323.82,105.15 M323.82,104.15c-4.72,0-8.55,1.74-8.55,3.88c0,2.14,3.83,3.88,8.55,3.88s8.55-1.74,8.55-3.88
			C332.37,105.89,328.54,104.15,323.82,104.15L323.82,104.15z"/>
	</g>
	<g>
		<path class="st6" d="M322.97,107.96c-3.14,0-5.48-1.1-5.48-2.08c0-0.98,2.34-2.08,5.48-2.08s5.48,1.1,5.48,2.08
			C328.45,106.86,326.1,107.96,322.97,107.96z"/>
		<path class="st6" d="M322.97,104.29c3.24,0,4.98,1.12,4.98,1.58s-1.75,1.58-4.98,1.58s-4.98-1.12-4.98-1.58
			S319.73,104.29,322.97,104.29 M322.97,103.29c-3.3,0-5.98,1.16-5.98,2.58c0,1.43,2.68,2.58,5.98,2.58c3.3,0,5.98-1.16,5.98-2.58
			C328.95,104.45,326.27,103.29,322.97,103.29L322.97,103.29z"/>
	</g>
	<g>
		<ellipse class="st6" cx="323.82" cy="110.18" rx="5.48" ry="2.08"/>
		<path class="st6" d="M323.82,108.6c3.24,0,4.98,1.12,4.98,1.58s-1.75,1.58-4.98,1.58s-4.98-1.12-4.98-1.58
			S320.59,108.6,323.82,108.6 M323.82,107.6c-3.3,0-5.98,1.16-5.98,2.58s2.68,2.58,5.98,2.58c3.3,0,5.98-1.16,5.98-2.58
			S327.13,107.6,323.82,107.6L323.82,107.6z"/>
	</g>
</g>
<g>
	<path class="st7" d="M323.82,91.82c5.51,0,10,4.49,10,10s-4.49,10-10,10c-5.51,0-10-4.49-10-10S318.31,91.82,323.82,91.82
		 M323.82,90.82c-6.08,0-11,4.92-11,11c0,6.08,4.92,11,11,11s11-4.92,11-11C334.82,95.75,329.9,90.82,323.82,90.82L323.82,90.82z"/>
</g>
<g>
	<path class="st7" d="M323.82,103.77c5.51,0,10,4.49,10,10s-4.49,10-10,10c-5.51,0-10-4.49-10-10S318.31,103.77,323.82,103.77
		 M323.82,102.77c-6.08,0-11,4.92-11,11s4.92,11,11,11s11-4.92,11-11S329.9,102.77,323.82,102.77L323.82,102.77z"/>
</g>
<line class="st4" x1="334.82" y1="138.1" x2="312.82" y2="138.1"/>
<line class="st4" x1="335.48" y1="141.57" x2="335.48" y2="134.48"/>
<line class="st4" x1="358.98" y1="141.35" x2="358.98" y2="134.26"/>
<g>
	<line class="st4" x1="348.9" y1="169.95" x2="368.8" y2="169.95"/>
	<line class="st4" x1="348.92" y1="169.64" x2="358.87" y2="149.49"/>
	<line class="st4" x1="359.1" y1="149.49" x2="369.06" y2="169.64"/>
	<g>
		<rect x="357.02" y="165.96" class="st5" width="2.75" height="7.73"/>
		<g>
			<line class="st4" x1="357.28" y1="166.16" x2="357.28" y2="173.57"/>
			<line class="st4" x1="359.87" y1="166.16" x2="359.87" y2="173.57"/>
		</g>
	</g>
	<g>
		<polygon class="st5" points="357.35,158.88 355.95,161.65 350.26,157.73 351.65,154.95 		"/>
		<g>
			<line class="st4" x1="350.53" y1="157.58" x2="355.99" y2="161.34"/>
			<line class="st4" x1="351.85" y1="154.96" x2="357.31" y2="158.72"/>
		</g>
	</g>
	<g>
		<polygon class="st5" points="366.12,155.88 367.54,158.64 361.88,162.63 360.46,159.87 		"/>
		<g>
			<line class="st4" x1="361.9" y1="162.27" x2="367.33" y2="158.45"/>
			<line class="st4" x1="360.56" y1="159.67" x2="365.99" y2="155.85"/>
		</g>
	</g>
</g>
<line class="st4" x1="358.98" y1="124.18" x2="358.98" y2="149.18"/>
<g>
	<g>
		<path class="st6" d="M358.98,111.41c-4.81,0-8.05-1.75-8.05-3.38s3.23-3.38,8.05-3.38s8.05,1.75,8.05,3.38
			S363.79,111.41,358.98,111.41z"/>
		<path class="st6" d="M358.98,105.15c4.61,0,7.55,1.7,7.55,2.88s-2.94,2.88-7.55,2.88s-7.55-1.7-7.55-2.88
			S354.37,105.15,358.98,105.15 M358.98,104.15c-4.72,0-8.55,1.74-8.55,3.88c0,2.14,3.83,3.88,8.55,3.88s8.55-1.74,8.55-3.88
			C367.52,105.89,363.7,104.15,358.98,104.15L358.98,104.15z"/>
	</g>
	<g>
		<path class="st6" d="M358.12,107.96c-3.14,0-5.48-1.1-5.48-2.08c0-0.98,2.34-2.08,5.48-2.08s5.48,1.1,5.48,2.08
			C363.6,106.86,361.26,107.96,358.12,107.96z"/>
		<path class="st6" d="M358.12,104.29c3.24,0,4.98,1.12,4.98,1.58s-1.75,1.58-4.98,1.58s-4.98-1.12-4.98-1.58
			S354.89,104.29,358.12,104.29 M358.12,103.29c-3.3,0-5.98,1.16-5.98,2.58c0,1.43,2.68,2.58,5.98,2.58c3.3,0,5.98-1.16,5.98-2.58
			C364.1,104.45,361.43,103.29,358.12,103.29L358.12,103.29z"/>
	</g>
	<g>
		<ellipse class="st6" cx="358.98" cy="110.18" rx="5.48" ry="2.08"/>
		<path class="st6" d="M358.98,108.6c3.24,0,4.98,1.12,4.98,1.58s-1.75,1.58-4.98,1.58s-4.98-1.12-4.98-1.58
			S355.74,108.6,358.98,108.6 M358.98,107.6c-3.3,0-5.98,1.16-5.98,2.58s2.68,2.58,5.98,2.58c3.3,0,5.98-1.16,5.98-2.58
			S362.28,107.6,358.98,107.6L358.98,107.6z"/>
	</g>
</g>
<g>
	<path class="st7" d="M358.98,91.82c5.51,0,10,4.49,10,10s-4.49,10-10,10s-10-4.49-10-10S353.46,91.82,358.98,91.82 M358.98,90.82
		c-6.08,0-11,4.92-11,11c0,6.08,4.92,11,11,11s11-4.92,11-11C369.98,95.75,365.05,90.82,358.98,90.82L358.98,90.82z"/>
</g>
<g>
	<path class="st7" d="M358.98,103.77c5.51,0,10,4.49,10,10s-4.49,10-10,10s-10-4.49-10-10S353.46,103.77,358.98,103.77
		 M358.98,102.77c-6.08,0-11,4.92-11,11s4.92,11,11,11s11-4.92,11-11S365.05,102.77,358.98,102.77L358.98,102.77z"/>
</g>
<line class="st4" x1="369.98" y1="138.1" x2="347.98" y2="138.1"/>
<line class="st4" x1="358.98" y1="141.57" x2="358.98" y2="134.48"/>
<g>
	<g>
		<polyline class="st8" points="327.53,70.51 323.99,61.96 320.11,70.54 		"/>
	</g>
	<line class="st8" x1="323.82" y1="70.49" x2="323.82" y2="91.28"/>
	<line class="st8" x1="320.07" y1="70.89" x2="327.57" y2="70.89"/>
</g>
<g>
	<g>
		<polyline class="st8" points="362.68,70.51 359.15,61.96 355.27,70.54 		"/>
	</g>
	<line class="st8" x1="358.98" y1="70.49" x2="358.98" y2="91.28"/>
	<line class="st8" x1="355.23" y1="70.89" x2="362.73" y2="70.89"/>
</g>
<text transform="matrix(0.6726 0 0 1 321.5776 54.4397)" class="st0 st1 st9">2</text>
<text transform="matrix(0.6726 0 0 1 354.4874 54.4397)" class="st0 st1 st9">35</text>
<text transform="matrix(0.6558 0 0 1 317.2563 191.2396)"><tspan x="0" y="0" class="st0 st1 st9">270</tspan><tspan x="-6.33" y="14.4" class="st0 st1 st9">KVAR</tspan></text>
<text transform="matrix(0.6558 0 0 1 352.4105 191.2396)"><tspan x="0" y="0" class="st0 st1 st9">270</tspan><tspan x="-6.33" y="14.4" class="st0 st1 st9">KVAR</tspan></text>
<line class="st4" x1="312.93" y1="141.78" x2="312.93" y2="134.69"/>
<line class="st4" x1="347.93" y1="141.78" x2="347.93" y2="134.69"/>
<line class="st4" x1="369.93" y1="141.78" x2="369.93" y2="134.69"/>
<text transform="matrix(0.6558 0 0 1 325.8722 231.2396)"><tspan x="0" y="0" class="st0 st1 st9">KTP: 1-3</tspan><tspan x="-10.68" y="14.4" class="st0 st1 st9">2X1000 KVA</tspan></text>
<rect x="386.4" y="214.72" class="st3" width="90" height="43.05"/>
<line class="st4" x1="413.82" y1="141.35" x2="413.82" y2="134.26"/>
<g>
	<line class="st4" x1="403.74" y1="169.95" x2="423.65" y2="169.95"/>
	<line class="st4" x1="403.76" y1="169.64" x2="413.72" y2="149.49"/>
	<line class="st4" x1="413.95" y1="149.49" x2="423.9" y2="169.64"/>
	<g>
		<rect x="411.87" y="165.96" class="st5" width="2.75" height="7.73"/>
		<g>
			<line class="st4" x1="412.12" y1="166.16" x2="412.12" y2="173.57"/>
			<line class="st4" x1="414.72" y1="166.16" x2="414.72" y2="173.57"/>
		</g>
	</g>
	<g>
		<polygon class="st5" points="412.19,158.88 410.79,161.65 405.1,157.73 406.5,154.95 		"/>
		<g>
			<line class="st4" x1="405.38" y1="157.58" x2="410.84" y2="161.34"/>
			<line class="st4" x1="406.7" y1="154.96" x2="412.15" y2="158.72"/>
		</g>
	</g>
	<g>
		<polygon class="st5" points="420.97,155.88 422.39,158.64 416.73,162.63 415.31,159.87 		"/>
		<g>
			<line class="st4" x1="416.75" y1="162.27" x2="422.17" y2="158.45"/>
			<line class="st4" x1="415.41" y1="159.67" x2="420.83" y2="155.85"/>
		</g>
	</g>
</g>
<line class="st4" x1="413.82" y1="124.18" x2="413.82" y2="149.18"/>
<g>
	<g>
		<path class="st6" d="M413.82,111.41c-4.81,0-8.05-1.75-8.05-3.38s3.23-3.38,8.05-3.38s8.05,1.75,8.05,3.38
			S418.63,111.41,413.82,111.41z"/>
		<path class="st6" d="M413.82,105.15c4.61,0,7.55,1.7,7.55,2.88s-2.94,2.88-7.55,2.88s-7.55-1.7-7.55-2.88
			S409.22,105.15,413.82,105.15 M413.82,104.15c-4.72,0-8.55,1.74-8.55,3.88c0,2.14,3.83,3.88,8.55,3.88s8.55-1.74,8.55-3.88
			C422.37,105.89,418.54,104.15,413.82,104.15L413.82,104.15z"/>
	</g>
	<g>
		<path class="st6" d="M412.97,107.96c-3.14,0-5.48-1.1-5.48-2.08c0-0.98,2.34-2.08,5.48-2.08s5.48,1.1,5.48,2.08
			C418.45,106.86,416.1,107.96,412.97,107.96z"/>
		<path class="st6" d="M412.97,104.29c3.24,0,4.98,1.12,4.98,1.58s-1.75,1.58-4.98,1.58s-4.98-1.12-4.98-1.58
			S409.73,104.29,412.97,104.29 M412.97,103.29c-3.3,0-5.98,1.16-5.98,2.58c0,1.43,2.68,2.58,5.98,2.58c3.3,0,5.98-1.16,5.98-2.58
			C418.95,104.45,416.27,103.29,412.97,103.29L412.97,103.29z"/>
	</g>
	<g>
		<ellipse class="st6" cx="413.82" cy="110.18" rx="5.48" ry="2.08"/>
		<path class="st6" d="M413.82,108.6c3.24,0,4.98,1.12,4.98,1.58s-1.75,1.58-4.98,1.58s-4.98-1.12-4.98-1.58
			S410.59,108.6,413.82,108.6 M413.82,107.6c-3.3,0-5.98,1.16-5.98,2.58s2.68,2.58,5.98,2.58c3.3,0,5.98-1.16,5.98-2.58
			S417.13,107.6,413.82,107.6L413.82,107.6z"/>
	</g>
</g>
<g>
	<path class="st7" d="M413.82,91.82c5.51,0,10,4.49,10,10s-4.49,10-10,10s-10-4.49-10-10S408.31,91.82,413.82,91.82 M413.82,90.82
		c-6.08,0-11,4.92-11,11c0,6.08,4.92,11,11,11s11-4.92,11-11C424.82,95.75,419.9,90.82,413.82,90.82L413.82,90.82z"/>
</g>
<g>
	<path class="st7" d="M413.82,103.77c5.51,0,10,4.49,10,10s-4.49,10-10,10s-10-4.49-10-10S408.31,103.77,413.82,103.77
		 M413.82,102.77c-6.08,0-11,4.92-11,11s4.92,11,11,11s11-4.92,11-11S419.9,102.77,413.82,102.77L413.82,102.77z"/>
</g>
<line class="st4" x1="424.82" y1="138.1" x2="402.82" y2="138.1"/>
<line class="st4" x1="425.48" y1="141.57" x2="425.48" y2="134.48"/>
<line class="st4" x1="448.98" y1="141.35" x2="448.98" y2="134.26"/>
<g>
	<line class="st4" x1="438.9" y1="169.95" x2="458.8" y2="169.95"/>
	<line class="st4" x1="438.92" y1="169.64" x2="448.87" y2="149.49"/>
	<line class="st4" x1="449.1" y1="149.49" x2="459.06" y2="169.64"/>
	<g>
		<rect x="447.02" y="165.96" class="st5" width="2.75" height="7.73"/>
		<g>
			<line class="st4" x1="447.28" y1="166.16" x2="447.28" y2="173.57"/>
			<line class="st4" x1="449.87" y1="166.16" x2="449.87" y2="173.57"/>
		</g>
	</g>
	<g>
		<polygon class="st5" points="447.35,158.88 445.95,161.65 440.26,157.73 441.65,154.95 		"/>
		<g>
			<line class="st4" x1="440.53" y1="157.58" x2="445.99" y2="161.34"/>
			<line class="st4" x1="441.85" y1="154.96" x2="447.31" y2="158.72"/>
		</g>
	</g>
	<g>
		<polygon class="st5" points="456.12,155.88 457.54,158.64 451.88,162.63 450.46,159.87 		"/>
		<g>
			<line class="st4" x1="451.9" y1="162.27" x2="457.33" y2="158.45"/>
			<line class="st4" x1="450.56" y1="159.67" x2="455.99" y2="155.85"/>
		</g>
	</g>
</g>
<line class="st4" x1="448.98" y1="124.18" x2="448.98" y2="149.18"/>
<g>
	<g>
		<path class="st6" d="M448.98,111.41c-4.81,0-8.05-1.75-8.05-3.38s3.23-3.38,8.05-3.38s8.05,1.75,8.05,3.38
			S453.79,111.41,448.98,111.41z"/>
		<path class="st6" d="M448.98,105.15c4.61,0,7.55,1.7,7.55,2.88s-2.94,2.88-7.55,2.88s-7.55-1.7-7.55-2.88
			S444.37,105.15,448.98,105.15 M448.98,104.15c-4.72,0-8.55,1.74-8.55,3.88c0,2.14,3.83,3.88,8.55,3.88s8.55-1.74,8.55-3.88
			C457.52,105.89,453.7,104.15,448.98,104.15L448.98,104.15z"/>
	</g>
	<g>
		<path class="st6" d="M448.12,107.96c-3.14,0-5.48-1.1-5.48-2.08c0-0.98,2.34-2.08,5.48-2.08s5.48,1.1,5.48,2.08
			C453.6,106.86,451.26,107.96,448.12,107.96z"/>
		<path class="st6" d="M448.12,104.29c3.24,0,4.98,1.12,4.98,1.58s-1.75,1.58-4.98,1.58s-4.98-1.12-4.98-1.58
			S444.89,104.29,448.12,104.29 M448.12,103.29c-3.3,0-5.98,1.16-5.98,2.58c0,1.43,2.68,2.58,5.98,2.58c3.3,0,5.98-1.16,5.98-2.58
			C454.1,104.45,451.43,103.29,448.12,103.29L448.12,103.29z"/>
	</g>
	<g>
		<ellipse class="st6" cx="448.98" cy="110.18" rx="5.48" ry="2.08"/>
		<path class="st6" d="M448.98,108.6c3.24,0,4.98,1.12,4.98,1.58s-1.75,1.58-4.98,1.58s-4.98-1.12-4.98-1.58
			S445.74,108.6,448.98,108.6 M448.98,107.6c-3.3,0-5.98,1.16-5.98,2.58s2.68,2.58,5.98,2.58c3.3,0,5.98-1.16,5.98-2.58
			S452.28,107.6,448.98,107.6L448.98,107.6z"/>
	</g>
</g>
<g>
	<path class="st7" d="M448.98,91.82c5.51,0,10,4.49,10,10s-4.49,10-10,10s-10-4.49-10-10S443.46,91.82,448.98,91.82 M448.98,90.82
		c-6.08,0-11,4.92-11,11c0,6.08,4.92,11,11,11s11-4.92,11-11C459.98,95.75,455.05,90.82,448.98,90.82L448.98,90.82z"/>
</g>
<g>
	<path class="st7" d="M448.98,103.77c5.51,0,10,4.49,10,10s-4.49,10-10,10s-10-4.49-10-10S443.46,103.77,448.98,103.77
		 M448.98,102.77c-6.08,0-11,4.92-11,11s4.92,11,11,11s11-4.92,11-11S455.05,102.77,448.98,102.77L448.98,102.77z"/>
</g>
<line class="st4" x1="459.98" y1="138.1" x2="437.98" y2="138.1"/>
<line class="st4" x1="448.98" y1="141.57" x2="448.98" y2="134.48"/>
<g>
	<g>
		<polyline class="st8" points="417.53,70.51 413.99,61.96 410.11,70.54 		"/>
	</g>
	<line class="st8" x1="413.82" y1="70.49" x2="413.82" y2="91.28"/>
	<line class="st8" x1="410.07" y1="70.89" x2="417.57" y2="70.89"/>
</g>
<g>
	<g>
		<polyline class="st8" points="452.68,70.51 449.15,61.96 445.27,70.54 		"/>
	</g>
	<line class="st8" x1="448.98" y1="70.49" x2="448.98" y2="91.28"/>
	<line class="st8" x1="445.23" y1="70.89" x2="452.73" y2="70.89"/>
</g>
<text transform="matrix(0.6726 0 0 1 411.5776 54.4397)" class="st0 st1 st9">5</text>
<text transform="matrix(0.6726 0 0 1 444.4874 54.4397)" class="st0 st1 st9">32</text>
<text transform="matrix(0.6558 0 0 1 407.2563 191.2396)"><tspan x="0" y="0" class="st0 st1 st9">135</tspan><tspan x="-6.33" y="14.4" class="st0 st1 st9">KVAR</tspan></text>
<text transform="matrix(0.6558 0 0 1 442.4105 191.2396)"><tspan x="0" y="0" class="st0 st1 st9">135</tspan><tspan x="-6.33" y="14.4" class="st0 st1 st9">KVAR</tspan></text>
<line class="st4" x1="402.93" y1="141.78" x2="402.93" y2="134.69"/>
<line class="st4" x1="437.93" y1="141.78" x2="437.93" y2="134.69"/>
<line class="st4" x1="459.93" y1="141.78" x2="459.93" y2="134.69"/>
<text transform="matrix(0.6558 0 0 1 415.8723 231.2396)"><tspan x="0" y="0" class="st0 st1 st9">KTP: 1-4</tspan><tspan x="-10.68" y="14.4" class="st0 st1 st9">2X1000 KVA</tspan></text>
<rect x="476.4" y="214.72" class="st3" width="90" height="43.05"/>
<line class="st4" x1="503.82" y1="141.35" x2="503.82" y2="134.26"/>
<g>
	<line class="st4" x1="493.74" y1="169.95" x2="513.65" y2="169.95"/>
	<line class="st4" x1="493.76" y1="169.64" x2="503.72" y2="149.49"/>
	<line class="st4" x1="503.95" y1="149.49" x2="513.9" y2="169.64"/>
	<g>
		<rect x="501.87" y="165.96" class="st5" width="2.75" height="7.73"/>
		<g>
			<line class="st4" x1="502.12" y1="166.16" x2="502.12" y2="173.57"/>
			<line class="st4" x1="504.72" y1="166.16" x2="504.72" y2="173.57"/>
		</g>
	</g>
	<g>
		<polygon class="st5" points="502.19,158.88 500.79,161.65 495.1,157.73 496.5,154.95 		"/>
		<g>
			<line class="st4" x1="495.38" y1="157.58" x2="500.84" y2="161.34"/>
			<line class="st4" x1="496.7" y1="154.96" x2="502.15" y2="158.72"/>
		</g>
	</g>
	<g>
		<polygon class="st5" points="510.97,155.88 512.39,158.64 506.73,162.63 505.31,159.87 		"/>
		<g>
			<line class="st4" x1="506.75" y1="162.27" x2="512.17" y2="158.45"/>
			<line class="st4" x1="505.41" y1="159.67" x2="510.83" y2="155.85"/>
		</g>
	</g>
</g>
<line class="st4" x1="503.82" y1="124.18" x2="503.82" y2="149.18"/>
<g>
	<g>
		<path class="st6" d="M503.82,111.41c-4.81,0-8.05-1.75-8.05-3.38s3.23-3.38,8.05-3.38s8.05,1.75,8.05,3.38
			S508.63,111.41,503.82,111.41z"/>
		<path class="st6" d="M503.82,105.15c4.61,0,7.55,1.7,7.55,2.88s-2.94,2.88-7.55,2.88s-7.55-1.7-7.55-2.88
			S499.22,105.15,503.82,105.15 M503.82,104.15c-4.72,0-8.55,1.74-8.55,3.88c0,2.14,3.83,3.88,8.55,3.88s8.55-1.74,8.55-3.88
			C512.37,105.89,508.54,104.15,503.82,104.15L503.82,104.15z"/>
	</g>
	<g>
		<path class="st6" d="M502.97,107.96c-3.14,0-5.48-1.1-5.48-2.08c0-0.98,2.34-2.08,5.48-2.08s5.48,1.1,5.48,2.08
			C508.45,106.86,506.1,107.96,502.97,107.96z"/>
		<path class="st6" d="M502.97,104.29c3.24,0,4.98,1.12,4.98,1.58s-1.75,1.58-4.98,1.58s-4.98-1.12-4.98-1.58
			S499.73,104.29,502.97,104.29 M502.97,103.29c-3.3,0-5.98,1.16-5.98,2.58c0,1.43,2.68,2.58,5.98,2.58c3.3,0,5.98-1.16,5.98-2.58
			C508.95,104.45,506.27,103.29,502.97,103.29L502.97,103.29z"/>
	</g>
	<g>
		<ellipse class="st6" cx="503.82" cy="110.18" rx="5.48" ry="2.08"/>
		<path class="st6" d="M503.82,108.6c3.24,0,4.98,1.12,4.98,1.58s-1.75,1.58-4.98,1.58s-4.98-1.12-4.98-1.58
			S500.59,108.6,503.82,108.6 M503.82,107.6c-3.3,0-5.98,1.16-5.98,2.58s2.68,2.58,5.98,2.58c3.3,0,5.98-1.16,5.98-2.58
			S507.13,107.6,503.82,107.6L503.82,107.6z"/>
	</g>
</g>
<g>
	<path class="st7" d="M503.82,91.82c5.51,0,10,4.49,10,10s-4.49,10-10,10s-10-4.49-10-10S498.31,91.82,503.82,91.82 M503.82,90.82
		c-6.08,0-11,4.92-11,11c0,6.08,4.92,11,11,11s11-4.92,11-11C514.82,95.75,509.9,90.82,503.82,90.82L503.82,90.82z"/>
</g>
<g>
	<path class="st7" d="M503.82,103.77c5.51,0,10,4.49,10,10s-4.49,10-10,10s-10-4.49-10-10S498.31,103.77,503.82,103.77
		 M503.82,102.77c-6.08,0-11,4.92-11,11s4.92,11,11,11s11-4.92,11-11S509.9,102.77,503.82,102.77L503.82,102.77z"/>
</g>
<line class="st4" x1="514.82" y1="138.1" x2="492.82" y2="138.1"/>
<line class="st4" x1="515.48" y1="141.57" x2="515.48" y2="134.48"/>
<line class="st4" x1="538.98" y1="141.35" x2="538.98" y2="134.26"/>
<g>
	<line class="st4" x1="528.9" y1="169.95" x2="548.8" y2="169.95"/>
	<line class="st4" x1="528.92" y1="169.64" x2="538.87" y2="149.49"/>
	<line class="st4" x1="539.1" y1="149.49" x2="549.06" y2="169.64"/>
	<g>
		<rect x="537.02" y="165.96" class="st5" width="2.75" height="7.73"/>
		<g>
			<line class="st4" x1="537.28" y1="166.16" x2="537.28" y2="173.57"/>
			<line class="st4" x1="539.87" y1="166.16" x2="539.87" y2="173.57"/>
		</g>
	</g>
	<g>
		<polygon class="st5" points="537.35,158.88 535.95,161.65 530.26,157.73 531.65,154.95 		"/>
		<g>
			<line class="st4" x1="530.53" y1="157.58" x2="535.99" y2="161.34"/>
			<line class="st4" x1="531.85" y1="154.96" x2="537.31" y2="158.72"/>
		</g>
	</g>
	<g>
		<polygon class="st5" points="546.12,155.88 547.54,158.64 541.88,162.63 540.46,159.87 		"/>
		<g>
			<line class="st4" x1="541.9" y1="162.27" x2="547.33" y2="158.45"/>
			<line class="st4" x1="540.56" y1="159.67" x2="545.99" y2="155.85"/>
		</g>
	</g>
</g>
<line class="st4" x1="538.98" y1="124.18" x2="538.98" y2="149.18"/>
<g>
	<g>
		<path class="st6" d="M538.98,111.41c-4.81,0-8.05-1.75-8.05-3.38s3.23-3.38,8.05-3.38s8.05,1.75,8.05,3.38
			S543.79,111.41,538.98,111.41z"/>
		<path class="st6" d="M538.98,105.15c4.61,0,7.55,1.7,7.55,2.88s-2.94,2.88-7.55,2.88c-4.61,0-7.55-1.7-7.55-2.88
			S534.37,105.15,538.98,105.15 M538.98,104.15c-4.72,0-8.55,1.74-8.55,3.88c0,2.14,3.83,3.88,8.55,3.88c4.72,0,8.55-1.74,8.55-3.88
			C547.52,105.89,543.7,104.15,538.98,104.15L538.98,104.15z"/>
	</g>
	<g>
		<path class="st6" d="M538.12,107.96c-3.14,0-5.48-1.1-5.48-2.08c0-0.98,2.34-2.08,5.48-2.08s5.48,1.1,5.48,2.08
			C543.6,106.86,541.26,107.96,538.12,107.96z"/>
		<path class="st6" d="M538.12,104.29c3.24,0,4.98,1.12,4.98,1.58s-1.75,1.58-4.98,1.58c-3.24,0-4.98-1.12-4.98-1.58
			S534.89,104.29,538.12,104.29 M538.12,103.29c-3.3,0-5.98,1.16-5.98,2.58c0,1.43,2.68,2.58,5.98,2.58s5.98-1.16,5.98-2.58
			C544.1,104.45,541.43,103.29,538.12,103.29L538.12,103.29z"/>
	</g>
	<g>
		<ellipse class="st6" cx="538.98" cy="110.18" rx="5.48" ry="2.08"/>
		<path class="st6" d="M538.98,108.6c3.24,0,4.98,1.12,4.98,1.58s-1.75,1.58-4.98,1.58c-3.24,0-4.98-1.12-4.98-1.58
			S535.74,108.6,538.98,108.6 M538.98,107.6c-3.3,0-5.98,1.16-5.98,2.58s2.68,2.58,5.98,2.58s5.98-1.16,5.98-2.58
			S542.28,107.6,538.98,107.6L538.98,107.6z"/>
	</g>
</g>
<g>
	<path class="st7" d="M538.98,91.82c5.51,0,10,4.49,10,10s-4.49,10-10,10c-5.51,0-10-4.49-10-10S533.46,91.82,538.98,91.82
		 M538.98,90.82c-6.08,0-11,4.92-11,11c0,6.08,4.92,11,11,11c6.08,0,11-4.92,11-11C549.98,95.75,545.05,90.82,538.98,90.82
		L538.98,90.82z"/>
</g>
<g>
	<path class="st7" d="M538.98,103.77c5.51,0,10,4.49,10,10s-4.49,10-10,10c-5.51,0-10-4.49-10-10S533.46,103.77,538.98,103.77
		 M538.98,102.77c-6.08,0-11,4.92-11,11s4.92,11,11,11c6.08,0,11-4.92,11-11S545.05,102.77,538.98,102.77L538.98,102.77z"/>
</g>
<line class="st4" x1="549.98" y1="138.1" x2="527.98" y2="138.1"/>
<line class="st4" x1="538.98" y1="141.57" x2="538.98" y2="134.48"/>
<g>
	<g>
		<polyline class="st8" points="507.53,70.51 503.99,61.96 500.11,70.54 		"/>
	</g>
	<line class="st8" x1="503.82" y1="70.49" x2="503.82" y2="91.28"/>
	<line class="st8" x1="500.07" y1="70.89" x2="507.57" y2="70.89"/>
</g>
<g>
	<g>
		<polyline class="st8" points="542.68,70.51 539.15,61.96 535.27,70.54 		"/>
	</g>
	<line class="st8" x1="538.98" y1="70.49" x2="538.98" y2="91.28"/>
	<line class="st8" x1="535.23" y1="70.89" x2="542.73" y2="70.89"/>
</g>
<text transform="matrix(0.6726 0 0 1 501.5776 54.4397)" class="st0 st1 st9">15</text>
<text transform="matrix(0.6726 0 0 1 534.4874 54.4397)" class="st0 st1 st9">22</text>
<text transform="matrix(0.6558 0 0 1 497.2563 191.2396)"><tspan x="0" y="0" class="st0 st1 st9">270</tspan><tspan x="-6.33" y="14.4" class="st0 st1 st9">KVAR</tspan></text>
<text transform="matrix(0.6558 0 0 1 532.4105 191.2396)"><tspan x="0" y="0" class="st0 st1 st9">270</tspan><tspan x="-6.33" y="14.4" class="st0 st1 st9">KVAR</tspan></text>
<line class="st4" x1="492.93" y1="141.78" x2="492.93" y2="134.69"/>
<line class="st4" x1="527.93" y1="141.78" x2="527.93" y2="134.69"/>
<line class="st4" x1="549.93" y1="141.78" x2="549.93" y2="134.69"/>
<text transform="matrix(0.6558 0 0 1 505.8723 231.2396)"><tspan x="0" y="0" class="st0 st1 st9">KTP: 1-5</tspan><tspan x="-7.35" y="14.4" class="st0 st1 st9">2X630 KVA</tspan></text>
<rect x="116.51" y="257.71" class="st3" width="360" height="21.79"/>
<rect x="476.26" y="257.34" class="st3" width="90" height="21.79"/>
<text transform="matrix(0.7128 0 0 1 257.7176 273.8354)" class="st0 st1 st10">XƯỞNG TUYỂN</text>
<text transform="matrix(0.7128 0 0 1 504.061 273.3174)" class="st0 st1 st10">CÔ ĐẶC</text>
</svg>
