<?xml version="1.0" encoding="utf-8"?>
<!-- Generator: Adobe Illustrator 27.1.1, SVG Export Plug-In . SVG Version: 6.00 Build 0)  -->
<svg version="1.1" id="Layer_1" xmlns="http://www.w3.org/2000/svg" xmlns:xlink="http://www.w3.org/1999/xlink" x="0px" y="0px"
	 viewBox="0 0 692 224" style="enable-background:new 0 0 692 224;" xml:space="preserve">
<style type="text/css">
	.st0{fill:#FF00FF;}
	.st1{fill:#FF0000;}
	.st2{fill:#212830;}
	.st3{font-family:'ArialMT';}
	.st4{font-size:12px;}
	.st5{font-size:21px;}
	.st6{fill:none;stroke:#212830;stroke-linecap:square;stroke-miterlimit:10;}
</style>
<g>
	<g>
		<g>
			<path class="st0" d="M78.13,184.42c-4.81,0-8.05-1.75-8.05-3.38s3.23-3.38,8.05-3.38s8.05,1.75,8.05,3.38
				S82.94,184.42,78.13,184.42z"/>
			<path class="st0" d="M78.13,178.17c4.61,0,7.55,1.7,7.55,2.88s-2.94,2.88-7.55,2.88c-4.61,0-7.55-1.7-7.55-2.88
				S73.52,178.17,78.13,178.17 M78.13,177.17c-4.72,0-8.55,1.74-8.55,3.88c0,2.14,3.83,3.88,8.55,3.88s8.55-1.74,8.55-3.88
				C86.68,178.9,82.85,177.17,78.13,177.17L78.13,177.17z"/>
		</g>
		<g>
			<path class="st0" d="M77.28,180.98c-3.14,0-5.48-1.1-5.48-2.08c0-0.98,2.34-2.08,5.48-2.08s5.48,1.1,5.48,2.08
				C82.76,179.88,80.41,180.98,77.28,180.98z"/>
			<path class="st0" d="M77.28,177.31c3.24,0,4.98,1.12,4.98,1.58s-1.75,1.58-4.98,1.58c-3.24,0-4.98-1.12-4.98-1.58
				S74.04,177.31,77.28,177.31 M77.28,176.31c-3.3,0-5.98,1.16-5.98,2.58s2.68,2.58,5.98,2.58s5.98-1.16,5.98-2.58
				S80.58,176.31,77.28,176.31L77.28,176.31z"/>
		</g>
		<g>
			<path class="st0" d="M78.13,185.28c-3.14,0-5.48-1.1-5.48-2.08c0-0.98,2.34-2.08,5.48-2.08s5.48,1.1,5.48,2.08
				C83.61,184.18,81.27,185.28,78.13,185.28z"/>
			<path class="st0" d="M78.13,181.61c3.24,0,4.98,1.12,4.98,1.58s-1.75,1.58-4.98,1.58c-3.24,0-4.98-1.12-4.98-1.58
				S74.89,181.61,78.13,181.61 M78.13,180.61c-3.3,0-5.98,1.16-5.98,2.58s2.68,2.58,5.98,2.58s5.98-1.16,5.98-2.58
				S81.43,180.61,78.13,180.61L78.13,180.61z"/>
		</g>
	</g>
	<g>
		<path class="st1" d="M78.13,164.84c5.51,0,10,4.49,10,10s-4.49,10-10,10s-10-4.49-10-10S72.62,164.84,78.13,164.84 M78.13,163.84
			c-6.08,0-11,4.92-11,11s4.92,11,11,11s11-4.92,11-11S84.21,163.84,78.13,163.84L78.13,163.84z"/>
	</g>
	<g>
		<path class="st1" d="M78.13,176.78c5.51,0,10,4.49,10,10s-4.49,10-10,10s-10-4.49-10-10S72.62,176.78,78.13,176.78 M78.13,175.78
			c-6.08,0-11,4.92-11,11c0,6.08,4.92,11,11,11s11-4.92,11-11C89.13,180.71,84.21,175.78,78.13,175.78L78.13,175.78z"/>
	</g>
</g>
<g>
	<g>
		<path class="st1" d="M78.13,60.1c5.51,0,10,4.49,10,10s-4.49,10-10,10s-10-4.49-10-10S72.62,60.1,78.13,60.1 M78.13,59.1
			c-6.08,0-11,4.92-11,11s4.92,11,11,11s11-4.92,11-11S84.21,59.1,78.13,59.1L78.13,59.1z"/>
	</g>
	<g>
		<path class="st1" d="M78.13,63.6c3.58,0,6.5,2.92,6.5,6.5s-2.92,6.5-6.5,6.5c-3.58,0-6.5-2.92-6.5-6.5S74.55,63.6,78.13,63.6
			 M78.13,62.6c-4.14,0-7.5,3.36-7.5,7.5s3.36,7.5,7.5,7.5c4.14,0,7.5-3.36,7.5-7.5S82.27,62.6,78.13,62.6L78.13,62.6z"/>
	</g>
</g>
<text transform="matrix(0.6558 0 0 1 102.4169 74.5114)" class="st2 st3 st4">Động cơ điện không sử dụng</text>
<g>
	<g>
		<path class="st1" d="M78.13,90.39c5.51,0,10,4.49,10,10c0,5.51-4.49,10-10,10s-10-4.49-10-10C68.13,94.88,72.62,90.39,78.13,90.39
			 M78.13,89.39c-6.08,0-11,4.92-11,11c0,6.08,4.92,11,11,11s11-4.92,11-11C89.13,94.32,84.21,89.39,78.13,89.39L78.13,89.39z"/>
	</g>
	<g>
		<circle class="st0" cx="78.13" cy="100.39" r="7"/>
		<path class="st1" d="M78.13,93.89c3.58,0,6.5,2.92,6.5,6.5s-2.92,6.5-6.5,6.5c-3.58,0-6.5-2.92-6.5-6.5S74.55,93.89,78.13,93.89
			 M78.13,92.89c-4.14,0-7.5,3.36-7.5,7.5s3.36,7.5,7.5,7.5c4.14,0,7.5-3.36,7.5-7.5S82.27,92.89,78.13,92.89L78.13,92.89z"/>
	</g>
</g>
<text transform="matrix(0.7128 0 0 1 286.1857 30.6013)" class="st2 st3 st5">KÝ HIỆU BẢN VẼ</text>
<text transform="matrix(0.6558 0 0 1 102.4171 105.9455)" class="st2 st3 st4">Động cơ điện đang sử dụng</text>
<text transform="matrix(0.6558 0 0 1 102.4014 141.9456)" class="st2 st3 st4">Máy biến áp đã lắp nhưng không vận hành</text>
<text transform="matrix(0.6558 0 0 1 102.4014 185.1483)" class="st2 st3 st4">Máy biến áp đưa vào vận hành</text>
<rect x="95" y="53.5" class="st6" width="180" height="32"/>
<rect x="63" y="53.5" class="st6" width="32" height="32"/>
<rect x="95" y="85.5" class="st6" width="180" height="32"/>
<rect x="63" y="85.5" class="st6" width="32" height="32"/>
<rect x="95" y="117.5" class="st6" width="180" height="42"/>
<rect x="63" y="117.5" class="st6" width="32" height="42"/>
<rect x="95" y="159.5" class="st6" width="180" height="42"/>
<rect x="63" y="159.5" class="st6" width="32" height="42"/>
<g>
	<g>
		<path class="st1" d="M78.13,121.52c5.51,0,10,4.49,10,10s-4.49,10-10,10s-10-4.49-10-10S72.62,121.52,78.13,121.52 M78.13,120.52
			c-6.08,0-11,4.92-11,11c0,6.08,4.92,11,11,11s11-4.92,11-11C89.13,125.44,84.21,120.52,78.13,120.52L78.13,120.52z"/>
	</g>
	<g>
		<path class="st1" d="M78.13,133.46c5.51,0,10,4.49,10,10s-4.49,10-10,10s-10-4.49-10-10S72.62,133.46,78.13,133.46 M78.13,132.46
			c-6.08,0-11,4.92-11,11c0,6.08,4.92,11,11,11s11-4.92,11-11C89.13,137.39,84.21,132.46,78.13,132.46L78.13,132.46z"/>
	</g>
</g>
</svg>
