<?xml version="1.0" encoding="utf-8"?>
<!-- Generator: Adobe Illustrator 27.1.1, SVG Export Plug-In . SVG Version: 6.00 Build 0)  -->
<svg version="1.1" id="Layer_1" xmlns="http://www.w3.org/2000/svg" xmlns:xlink="http://www.w3.org/1999/xlink" x="0px" y="0px"
	 viewBox="0 0 692 293" style="enable-background:new 0 0 692 293;" xml:space="preserve">
<style type="text/css">
	.st0{fill:#212830;}
	.st1{font-family:'ArialMT';}
	.st2{font-size:21px;}
	.st3{fill:none;stroke:#212830;stroke-linecap:square;stroke-miterlimit:10;}
	.st4{fill:none;stroke:#FF0000;stroke-linecap:square;stroke-miterlimit:10;}
	.st5{fill:#E6E6E6;stroke:#FF0000;stroke-miterlimit:10;}
	.st6{fill:#FF00FF;}
	.st7{fill:#FF0000;}
	.st8{fill:#FF0000;stroke:#FF0000;stroke-linecap:square;stroke-miterlimit:10;}
	.st9{font-size:12px;}
	.st10{font-size:14px;}
</style>
<text transform="matrix(0.7128 0 0 1 305.5436 27.4981)" class="st0 st1 st2">TRẠM RP2</text>
<rect x="48.94" y="214.72" class="st3" width="75" height="43.05"/>
<line class="st4" x1="67.3" y1="141.35" x2="67.3" y2="134.26"/>
<g>
	<line class="st4" x1="57.21" y1="169.95" x2="77.12" y2="169.95"/>
	<line class="st4" x1="57.24" y1="169.64" x2="67.19" y2="149.49"/>
	<line class="st4" x1="67.42" y1="149.49" x2="77.38" y2="169.64"/>
	<g>
		<rect x="65.34" y="165.96" class="st5" width="2.75" height="7.73"/>
		<g>
			<line class="st4" x1="65.6" y1="166.16" x2="65.6" y2="173.57"/>
			<line class="st4" x1="68.19" y1="166.16" x2="68.19" y2="173.57"/>
		</g>
	</g>
	<g>
		<polygon class="st5" points="65.66,158.88 64.27,161.65 58.57,157.73 59.97,154.95 		"/>
		<g>
			<line class="st4" x1="58.85" y1="157.58" x2="64.31" y2="161.34"/>
			<line class="st4" x1="60.17" y1="154.96" x2="65.63" y2="158.72"/>
		</g>
	</g>
	<g>
		<polygon class="st5" points="74.44,155.88 75.86,158.64 70.2,162.63 68.78,159.87 		"/>
		<g>
			<line class="st4" x1="70.22" y1="162.27" x2="75.65" y2="158.45"/>
			<line class="st4" x1="68.88" y1="159.67" x2="74.31" y2="155.85"/>
		</g>
	</g>
</g>
<line class="st4" x1="67.3" y1="124.18" x2="67.3" y2="149.18"/>
<g>
	<g>
		<path class="st6" d="M67.29,111.41c-4.81,0-8.05-1.75-8.05-3.38s3.23-3.38,8.05-3.38s8.05,1.75,8.05,3.38
			S72.11,111.41,67.29,111.41z"/>
		<path class="st6" d="M67.3,105.15c4.61,0,7.55,1.7,7.55,2.88s-2.94,2.88-7.55,2.88c-4.61,0-7.55-1.7-7.55-2.88
			S62.69,105.15,67.3,105.15 M67.3,104.15c-4.72,0-8.55,1.74-8.55,3.88c0,2.14,3.83,3.88,8.55,3.88s8.55-1.74,8.55-3.88
			C75.84,105.89,72.01,104.15,67.3,104.15L67.3,104.15z"/>
	</g>
	<g>
		<path class="st6" d="M66.44,107.96c-3.14,0-5.48-1.1-5.48-2.08c0-0.98,2.34-2.08,5.48-2.08s5.48,1.1,5.48,2.08
			C71.92,106.86,69.58,107.96,66.44,107.96z"/>
		<path class="st6" d="M66.44,104.29c3.24,0,4.98,1.12,4.98,1.58s-1.75,1.58-4.98,1.58s-4.98-1.12-4.98-1.58
			S63.2,104.29,66.44,104.29 M66.44,103.29c-3.3,0-5.98,1.16-5.98,2.58c0,1.43,2.68,2.58,5.98,2.58s5.98-1.16,5.98-2.58
			C72.42,104.45,69.74,103.29,66.44,103.29L66.44,103.29z"/>
	</g>
	<g>
		<path class="st6" d="M67.29,112.27c-3.14,0-5.48-1.1-5.48-2.08s2.34-2.08,5.48-2.08s5.48,1.1,5.48,2.08S70.43,112.27,67.29,112.27
			z"/>
		<path class="st6" d="M67.3,108.6c3.24,0,4.98,1.12,4.98,1.58c0,0.46-1.75,1.58-4.98,1.58s-4.98-1.12-4.98-1.58
			C62.31,109.72,64.06,108.6,67.3,108.6 M67.3,107.6c-3.3,0-5.98,1.16-5.98,2.58s2.68,2.58,5.98,2.58s5.98-1.16,5.98-2.58
			S70.6,107.6,67.3,107.6L67.3,107.6z"/>
	</g>
</g>
<g>
	<path class="st7" d="M67.3,91.82c5.51,0,10,4.49,10,10s-4.49,10-10,10s-10-4.49-10-10S61.78,91.82,67.3,91.82 M67.3,90.82
		c-6.08,0-11,4.92-11,11c0,6.08,4.92,11,11,11s11-4.92,11-11C78.3,95.75,73.37,90.82,67.3,90.82L67.3,90.82z"/>
</g>
<g>
	<path class="st7" d="M67.3,103.77c5.51,0,10,4.49,10,10s-4.49,10-10,10s-10-4.49-10-10S61.78,103.77,67.3,103.77 M67.3,102.77
		c-6.08,0-11,4.92-11,11s4.92,11,11,11s11-4.92,11-11S73.37,102.77,67.3,102.77L67.3,102.77z"/>
</g>
<line class="st4" x1="78.3" y1="138.1" x2="56.3" y2="138.1"/>
<line class="st4" x1="78.96" y1="141.57" x2="78.96" y2="134.48"/>
<line class="st4" x1="102.45" y1="141.35" x2="102.45" y2="134.26"/>
<g>
	<line class="st4" x1="92.37" y1="169.95" x2="112.27" y2="169.95"/>
	<line class="st4" x1="92.39" y1="169.64" x2="102.34" y2="149.49"/>
	<line class="st4" x1="102.58" y1="149.49" x2="112.53" y2="169.64"/>
	<g>
		<rect x="100.5" y="165.96" class="st5" width="2.75" height="7.73"/>
		<g>
			<line class="st4" x1="100.75" y1="166.16" x2="100.75" y2="173.57"/>
			<line class="st4" x1="103.34" y1="166.16" x2="103.34" y2="173.57"/>
		</g>
	</g>
	<g>
		<polygon class="st5" points="100.82,158.88 99.42,161.65 93.73,157.73 95.13,154.95 		"/>
		<g>
			<line class="st4" x1="94.01" y1="157.58" x2="99.46" y2="161.34"/>
			<line class="st4" x1="95.33" y1="154.96" x2="100.78" y2="158.72"/>
		</g>
	</g>
	<g>
		<polygon class="st5" points="109.59,155.88 111.02,158.64 105.36,162.63 103.94,159.87 		"/>
		<g>
			<line class="st4" x1="105.38" y1="162.27" x2="110.8" y2="158.45"/>
			<line class="st4" x1="104.04" y1="159.67" x2="109.46" y2="155.85"/>
		</g>
	</g>
</g>
<line class="st4" x1="102.45" y1="124.18" x2="102.45" y2="149.18"/>
<g>
	<g>
		<path class="st6" d="M102.45,111.41c-4.81,0-8.05-1.75-8.05-3.38s3.23-3.38,8.05-3.38s8.05,1.75,8.05,3.38
			S107.26,111.41,102.45,111.41z"/>
		<path class="st6" d="M102.45,105.15c4.61,0,7.55,1.7,7.55,2.88s-2.94,2.88-7.55,2.88c-4.61,0-7.55-1.7-7.55-2.88
			S97.84,105.15,102.45,105.15 M102.45,104.15c-4.72,0-8.55,1.74-8.55,3.88c0,2.14,3.83,3.88,8.55,3.88s8.55-1.74,8.55-3.88
			C111,105.89,107.17,104.15,102.45,104.15L102.45,104.15z"/>
	</g>
	<g>
		<path class="st6" d="M101.59,107.96c-3.14,0-5.48-1.1-5.48-2.08c0-0.98,2.34-2.08,5.48-2.08s5.48,1.1,5.48,2.08
			C107.08,106.86,104.73,107.96,101.59,107.96z"/>
		<path class="st6" d="M101.59,104.29c3.24,0,4.98,1.12,4.98,1.58s-1.75,1.58-4.98,1.58s-4.98-1.12-4.98-1.58
			S98.36,104.29,101.59,104.29 M101.59,103.29c-3.3,0-5.98,1.16-5.98,2.58c0,1.43,2.68,2.58,5.98,2.58c3.3,0,5.98-1.16,5.98-2.58
			C107.58,104.45,104.9,103.29,101.59,103.29L101.59,103.29z"/>
	</g>
	<g>
		<ellipse class="st6" cx="102.45" cy="110.18" rx="5.48" ry="2.08"/>
		<path class="st6" d="M102.45,108.6c3.24,0,4.98,1.12,4.98,1.58c0,0.46-1.75,1.58-4.98,1.58s-4.98-1.12-4.98-1.58
			C97.47,109.72,99.21,108.6,102.45,108.6 M102.45,107.6c-3.3,0-5.98,1.16-5.98,2.58s2.68,2.58,5.98,2.58c3.3,0,5.98-1.16,5.98-2.58
			S105.75,107.6,102.45,107.6L102.45,107.6z"/>
	</g>
</g>
<g>
	<path class="st7" d="M102.45,91.82c5.51,0,10,4.49,10,10s-4.49,10-10,10s-10-4.49-10-10S96.94,91.82,102.45,91.82 M102.45,90.82
		c-6.08,0-11,4.92-11,11c0,6.08,4.92,11,11,11s11-4.92,11-11C113.45,95.75,108.52,90.82,102.45,90.82L102.45,90.82z"/>
</g>
<g>
	<path class="st7" d="M102.45,103.77c5.51,0,10,4.49,10,10s-4.49,10-10,10s-10-4.49-10-10S96.94,103.77,102.45,103.77
		 M102.45,102.77c-6.08,0-11,4.92-11,11s4.92,11,11,11s11-4.92,11-11S108.52,102.77,102.45,102.77L102.45,102.77z"/>
</g>
<line class="st4" x1="113.45" y1="138.1" x2="91.45" y2="138.1"/>
<line class="st4" x1="102.45" y1="141.57" x2="102.45" y2="134.48"/>
<g>
	<g>
		<polyline class="st8" points="71,70.51 67.47,61.96 63.59,70.54 		"/>
	</g>
	<line class="st8" x1="67.3" y1="70.49" x2="67.3" y2="91.28"/>
	<line class="st8" x1="63.55" y1="70.89" x2="71.05" y2="70.89"/>
</g>
<g>
	<g>
		<polyline class="st8" points="106.16,70.51 102.62,61.96 98.74,70.54 		"/>
	</g>
	<line class="st8" x1="102.45" y1="70.49" x2="102.45" y2="91.28"/>
	<line class="st8" x1="98.7" y1="70.89" x2="106.2" y2="70.89"/>
</g>
<text transform="matrix(0.6726 0 0 1 65.0508 54.4397)" class="st0 st1 st9">8</text>
<text transform="matrix(0.6726 0 0 1 97.9606 54.4397)" class="st0 st1 st9">28</text>
<text transform="matrix(0.6558 0 0 1 56.5738 191.2396)"><tspan x="0" y="0" class="st0 st1 st9">4x135</tspan><tspan x="0.01" y="14.4" class="st0 st1 st9">KVAR</tspan></text>
<text transform="matrix(0.6558 0 0 1 95.8837 191.2396)"><tspan x="0" y="0" class="st0 st1 st9">135</tspan><tspan x="-6.33" y="14.4" class="st0 st1 st9">KVAR</tspan></text>
<line class="st4" x1="56.4" y1="141.78" x2="56.4" y2="134.69"/>
<line class="st4" x1="91.4" y1="141.78" x2="91.4" y2="134.69"/>
<line class="st4" x1="113.4" y1="141.78" x2="113.4" y2="134.69"/>
<text transform="matrix(0.6558 0 0 1 70.3455 231.2396)"><tspan x="0" y="0" class="st0 st1 st9">KTP: 2-1</tspan><tspan x="-7.35" y="14.4" class="st0 st1 st9">2X630 KVA</tspan></text>
<rect x="123.9" y="214.72" class="st3" width="75" height="43.05"/>
<line class="st4" x1="144.82" y1="141.35" x2="144.82" y2="134.26"/>
<g>
	<line class="st4" x1="134.74" y1="169.95" x2="154.65" y2="169.95"/>
	<line class="st4" x1="134.76" y1="169.64" x2="144.72" y2="149.49"/>
	<line class="st4" x1="144.95" y1="149.49" x2="154.9" y2="169.64"/>
	<g>
		<rect x="142.87" y="165.96" class="st5" width="2.75" height="7.73"/>
		<g>
			<line class="st4" x1="143.12" y1="166.16" x2="143.12" y2="173.57"/>
			<line class="st4" x1="145.72" y1="166.16" x2="145.72" y2="173.57"/>
		</g>
	</g>
	<g>
		<polygon class="st5" points="143.19,158.88 141.79,161.65 136.1,157.73 137.5,154.95 		"/>
		<g>
			<line class="st4" x1="136.38" y1="157.58" x2="141.84" y2="161.34"/>
			<line class="st4" x1="137.7" y1="154.96" x2="143.15" y2="158.72"/>
		</g>
	</g>
	<g>
		<polygon class="st5" points="151.97,155.88 153.39,158.64 147.73,162.63 146.31,159.87 		"/>
		<g>
			<line class="st4" x1="147.75" y1="162.27" x2="153.17" y2="158.45"/>
			<line class="st4" x1="146.41" y1="159.67" x2="151.83" y2="155.85"/>
		</g>
	</g>
</g>
<line class="st4" x1="144.82" y1="124.18" x2="144.82" y2="149.18"/>
<g>
	<g>
		<path class="st6" d="M144.82,111.41c-4.81,0-8.05-1.75-8.05-3.38s3.23-3.38,8.05-3.38s8.05,1.75,8.05,3.38
			S149.63,111.41,144.82,111.41z"/>
		<path class="st6" d="M144.82,105.15c4.61,0,7.55,1.7,7.55,2.88s-2.94,2.88-7.55,2.88c-4.61,0-7.55-1.7-7.55-2.88
			S140.22,105.15,144.82,105.15 M144.82,104.15c-4.72,0-8.55,1.74-8.55,3.88c0,2.14,3.83,3.88,8.55,3.88s8.55-1.74,8.55-3.88
			C153.37,105.89,149.54,104.15,144.82,104.15L144.82,104.15z"/>
	</g>
	<g>
		<path class="st6" d="M143.97,107.96c-3.14,0-5.48-1.1-5.48-2.08c0-0.98,2.34-2.08,5.48-2.08s5.48,1.1,5.48,2.08
			C149.45,106.86,147.1,107.96,143.97,107.96z"/>
		<path class="st6" d="M143.97,104.29c3.24,0,4.98,1.12,4.98,1.58s-1.75,1.58-4.98,1.58c-3.24,0-4.98-1.12-4.98-1.58
			S140.73,104.29,143.97,104.29 M143.97,103.29c-3.3,0-5.98,1.16-5.98,2.58c0,1.43,2.68,2.58,5.98,2.58c3.3,0,5.98-1.16,5.98-2.58
			C149.95,104.45,147.27,103.29,143.97,103.29L143.97,103.29z"/>
	</g>
	<g>
		<ellipse class="st6" cx="144.82" cy="110.18" rx="5.48" ry="2.08"/>
		<path class="st6" d="M144.82,108.6c3.24,0,4.98,1.12,4.98,1.58s-1.75,1.58-4.98,1.58c-3.24,0-4.98-1.12-4.98-1.58
			S141.59,108.6,144.82,108.6 M144.82,107.6c-3.3,0-5.98,1.16-5.98,2.58s2.68,2.58,5.98,2.58s5.98-1.16,5.98-2.58
			S148.13,107.6,144.82,107.6L144.82,107.6z"/>
	</g>
</g>
<g>
	<path class="st7" d="M144.82,91.82c5.51,0,10,4.49,10,10s-4.49,10-10,10s-10-4.49-10-10S139.31,91.82,144.82,91.82 M144.82,90.82
		c-6.08,0-11,4.92-11,11c0,6.08,4.92,11,11,11s11-4.92,11-11C155.82,95.75,150.9,90.82,144.82,90.82L144.82,90.82z"/>
</g>
<g>
	<path class="st7" d="M144.82,103.77c5.51,0,10,4.49,10,10s-4.49,10-10,10s-10-4.49-10-10S139.31,103.77,144.82,103.77
		 M144.82,102.77c-6.08,0-11,4.92-11,11s4.92,11,11,11s11-4.92,11-11S150.9,102.77,144.82,102.77L144.82,102.77z"/>
</g>
<line class="st4" x1="155.82" y1="138.1" x2="133.82" y2="138.1"/>
<line class="st4" x1="156.48" y1="141.57" x2="156.48" y2="134.48"/>
<line class="st4" x1="179.98" y1="141.35" x2="179.98" y2="134.26"/>
<g>
	<line class="st4" x1="169.9" y1="169.95" x2="189.8" y2="169.95"/>
	<line class="st4" x1="169.92" y1="169.64" x2="179.87" y2="149.49"/>
	<line class="st4" x1="180.1" y1="149.49" x2="190.06" y2="169.64"/>
	<g>
		<rect x="178.02" y="165.96" class="st5" width="2.75" height="7.73"/>
		<g>
			<line class="st4" x1="178.28" y1="166.16" x2="178.28" y2="173.57"/>
			<line class="st4" x1="180.87" y1="166.16" x2="180.87" y2="173.57"/>
		</g>
	</g>
	<g>
		<polygon class="st5" points="178.35,158.88 176.95,161.65 171.26,157.73 172.65,154.95 		"/>
		<g>
			<line class="st4" x1="171.53" y1="157.58" x2="176.99" y2="161.34"/>
			<line class="st4" x1="172.85" y1="154.96" x2="178.31" y2="158.72"/>
		</g>
	</g>
	<g>
		<polygon class="st5" points="187.12,155.88 188.54,158.64 182.88,162.63 181.46,159.87 		"/>
		<g>
			<line class="st4" x1="182.9" y1="162.27" x2="188.33" y2="158.45"/>
			<line class="st4" x1="181.56" y1="159.67" x2="186.99" y2="155.85"/>
		</g>
	</g>
</g>
<line class="st4" x1="179.98" y1="124.18" x2="179.98" y2="149.18"/>
<g>
	<g>
		<path class="st6" d="M179.98,111.41c-4.81,0-8.05-1.75-8.05-3.38s3.23-3.38,8.05-3.38s8.05,1.75,8.05,3.38
			S184.79,111.41,179.98,111.41z"/>
		<path class="st6" d="M179.98,105.15c4.61,0,7.55,1.7,7.55,2.88s-2.94,2.88-7.55,2.88c-4.61,0-7.55-1.7-7.55-2.88
			S175.37,105.15,179.98,105.15 M179.98,104.15c-4.72,0-8.55,1.74-8.55,3.88c0,2.14,3.83,3.88,8.55,3.88c4.72,0,8.55-1.74,8.55-3.88
			C188.52,105.89,184.7,104.15,179.98,104.15L179.98,104.15z"/>
	</g>
	<g>
		<path class="st6" d="M179.12,107.96c-3.14,0-5.48-1.1-5.48-2.08c0-0.98,2.34-2.08,5.48-2.08s5.48,1.1,5.48,2.08
			C184.6,106.86,182.26,107.96,179.12,107.96z"/>
		<path class="st6" d="M179.12,104.29c3.24,0,4.98,1.12,4.98,1.58s-1.75,1.58-4.98,1.58c-3.24,0-4.98-1.12-4.98-1.58
			S175.89,104.29,179.12,104.29 M179.12,103.29c-3.3,0-5.98,1.16-5.98,2.58c0,1.43,2.68,2.58,5.98,2.58c3.3,0,5.98-1.16,5.98-2.58
			C185.1,104.45,182.43,103.29,179.12,103.29L179.12,103.29z"/>
	</g>
	<g>
		<ellipse class="st6" cx="179.98" cy="110.18" rx="5.48" ry="2.08"/>
		<path class="st6" d="M179.98,108.6c3.24,0,4.98,1.12,4.98,1.58s-1.75,1.58-4.98,1.58s-4.98-1.12-4.98-1.58
			S176.74,108.6,179.98,108.6 M179.98,107.6c-3.3,0-5.98,1.16-5.98,2.58s2.68,2.58,5.98,2.58c3.3,0,5.98-1.16,5.98-2.58
			S183.28,107.6,179.98,107.6L179.98,107.6z"/>
	</g>
</g>
<g>
	<path class="st7" d="M179.98,91.82c5.51,0,10,4.49,10,10s-4.49,10-10,10s-10-4.49-10-10S174.46,91.82,179.98,91.82 M179.98,90.82
		c-6.08,0-11,4.92-11,11c0,6.08,4.92,11,11,11c6.08,0,11-4.92,11-11C190.98,95.75,186.05,90.82,179.98,90.82L179.98,90.82z"/>
</g>
<g>
	<path class="st7" d="M179.98,103.77c5.51,0,10,4.49,10,10s-4.49,10-10,10s-10-4.49-10-10S174.46,103.77,179.98,103.77
		 M179.98,102.77c-6.08,0-11,4.92-11,11s4.92,11,11,11c6.08,0,11-4.92,11-11S186.05,102.77,179.98,102.77L179.98,102.77z"/>
</g>
<line class="st4" x1="190.98" y1="138.1" x2="168.98" y2="138.1"/>
<line class="st4" x1="179.98" y1="141.57" x2="179.98" y2="134.48"/>
<g>
	<g>
		<polyline class="st8" points="148.53,70.51 144.99,61.96 141.11,70.54 		"/>
	</g>
	<line class="st8" x1="144.82" y1="70.49" x2="144.82" y2="91.28"/>
	<line class="st8" x1="141.07" y1="70.89" x2="148.57" y2="70.89"/>
</g>
<g>
	<g>
		<polyline class="st8" points="183.68,70.51 180.15,61.96 176.27,70.54 		"/>
	</g>
	<line class="st8" x1="179.98" y1="70.49" x2="179.98" y2="91.28"/>
	<line class="st8" x1="176.23" y1="70.89" x2="183.73" y2="70.89"/>
</g>
<text transform="matrix(0.6726 0 0 1 142.5776 54.4397)" class="st0 st1 st9">9</text>
<text transform="matrix(0.6726 0 0 1 175.4874 54.4397)" class="st0 st1 st9">26</text>
<text transform="matrix(0.6558 0 0 1 138.2563 191.2396)"><tspan x="0" y="0" class="st0 st1 st9">135</tspan><tspan x="-6.33" y="14.4" class="st0 st1 st9">KVAR</tspan></text>
<text transform="matrix(0.6558 0 0 1 173.4105 191.2396)"><tspan x="0" y="0" class="st0 st1 st9">135</tspan><tspan x="-6.33" y="14.4" class="st0 st1 st9">KVAR</tspan></text>
<line class="st4" x1="133.93" y1="141.78" x2="133.93" y2="134.69"/>
<line class="st4" x1="168.93" y1="141.78" x2="168.93" y2="134.69"/>
<line class="st4" x1="190.93" y1="141.78" x2="190.93" y2="134.69"/>
<text transform="matrix(0.6558 0 0 1 145.8722 231.2396)"><tspan x="0" y="0" class="st0 st1 st9">KTP: 2-2</tspan><tspan x="-7.35" y="14.4" class="st0 st1 st9">2X630 KVA</tspan></text>
<rect x="198.9" y="214.72" class="st3" width="75" height="43.05"/>
<line class="st4" x1="218.82" y1="141.35" x2="218.82" y2="134.26"/>
<g>
	<line class="st4" x1="208.74" y1="169.95" x2="228.65" y2="169.95"/>
	<line class="st4" x1="208.76" y1="169.64" x2="218.72" y2="149.49"/>
	<line class="st4" x1="218.95" y1="149.49" x2="228.9" y2="169.64"/>
	<g>
		<rect x="216.87" y="165.96" class="st5" width="2.75" height="7.73"/>
		<g>
			<line class="st4" x1="217.12" y1="166.16" x2="217.12" y2="173.57"/>
			<line class="st4" x1="219.72" y1="166.16" x2="219.72" y2="173.57"/>
		</g>
	</g>
	<g>
		<polygon class="st5" points="217.19,158.88 215.79,161.65 210.1,157.73 211.5,154.95 		"/>
		<g>
			<line class="st4" x1="210.38" y1="157.58" x2="215.84" y2="161.34"/>
			<line class="st4" x1="211.7" y1="154.96" x2="217.15" y2="158.72"/>
		</g>
	</g>
	<g>
		<polygon class="st5" points="225.97,155.88 227.39,158.64 221.73,162.63 220.31,159.87 		"/>
		<g>
			<line class="st4" x1="221.75" y1="162.27" x2="227.17" y2="158.45"/>
			<line class="st4" x1="220.41" y1="159.67" x2="225.83" y2="155.85"/>
		</g>
	</g>
</g>
<line class="st4" x1="218.82" y1="124.18" x2="218.82" y2="149.18"/>
<g>
	<g>
		<path class="st6" d="M218.82,111.41c-4.81,0-8.05-1.75-8.05-3.38s3.23-3.38,8.05-3.38s8.05,1.75,8.05,3.38
			S223.63,111.41,218.82,111.41z"/>
		<path class="st6" d="M218.82,105.15c4.61,0,7.55,1.7,7.55,2.88s-2.94,2.88-7.55,2.88c-4.61,0-7.55-1.7-7.55-2.88
			S214.22,105.15,218.82,105.15 M218.82,104.15c-4.72,0-8.55,1.74-8.55,3.88c0,2.14,3.83,3.88,8.55,3.88s8.55-1.74,8.55-3.88
			C227.37,105.89,223.54,104.15,218.82,104.15L218.82,104.15z"/>
	</g>
	<g>
		<path class="st6" d="M217.97,107.96c-3.14,0-5.48-1.1-5.48-2.08c0-0.98,2.34-2.08,5.48-2.08s5.48,1.1,5.48,2.08
			C223.45,106.86,221.1,107.96,217.97,107.96z"/>
		<path class="st6" d="M217.97,104.29c3.24,0,4.98,1.12,4.98,1.58s-1.75,1.58-4.98,1.58s-4.98-1.12-4.98-1.58
			S214.73,104.29,217.97,104.29 M217.97,103.29c-3.3,0-5.98,1.16-5.98,2.58c0,1.43,2.68,2.58,5.98,2.58c3.3,0,5.98-1.16,5.98-2.58
			C223.95,104.45,221.27,103.29,217.97,103.29L217.97,103.29z"/>
	</g>
	<g>
		<ellipse class="st6" cx="218.82" cy="110.18" rx="5.48" ry="2.08"/>
		<path class="st6" d="M218.82,108.6c3.24,0,4.98,1.12,4.98,1.58s-1.75,1.58-4.98,1.58s-4.98-1.12-4.98-1.58
			S215.59,108.6,218.82,108.6 M218.82,107.6c-3.3,0-5.98,1.16-5.98,2.58s2.68,2.58,5.98,2.58c3.3,0,5.98-1.16,5.98-2.58
			S222.13,107.6,218.82,107.6L218.82,107.6z"/>
	</g>
</g>
<g>
	<path class="st7" d="M218.82,91.82c5.51,0,10,4.49,10,10s-4.49,10-10,10c-5.51,0-10-4.49-10-10S213.31,91.82,218.82,91.82
		 M218.82,90.82c-6.08,0-11,4.92-11,11c0,6.08,4.92,11,11,11s11-4.92,11-11C229.82,95.75,224.9,90.82,218.82,90.82L218.82,90.82z"/>
</g>
<g>
	<path class="st7" d="M218.82,103.77c5.51,0,10,4.49,10,10s-4.49,10-10,10c-5.51,0-10-4.49-10-10S213.31,103.77,218.82,103.77
		 M218.82,102.77c-6.08,0-11,4.92-11,11s4.92,11,11,11s11-4.92,11-11S224.9,102.77,218.82,102.77L218.82,102.77z"/>
</g>
<line class="st4" x1="229.82" y1="138.1" x2="207.82" y2="138.1"/>
<line class="st4" x1="230.48" y1="141.57" x2="230.48" y2="134.48"/>
<line class="st4" x1="253.98" y1="141.35" x2="253.98" y2="134.26"/>
<g>
	<line class="st4" x1="243.9" y1="169.95" x2="263.8" y2="169.95"/>
	<line class="st4" x1="243.92" y1="169.64" x2="253.87" y2="149.49"/>
	<line class="st4" x1="254.1" y1="149.49" x2="264.06" y2="169.64"/>
	<g>
		<rect x="252.02" y="165.96" class="st5" width="2.75" height="7.73"/>
		<g>
			<line class="st4" x1="252.28" y1="166.16" x2="252.28" y2="173.57"/>
			<line class="st4" x1="254.87" y1="166.16" x2="254.87" y2="173.57"/>
		</g>
	</g>
	<g>
		<polygon class="st5" points="252.35,158.88 250.95,161.65 245.26,157.73 246.65,154.95 		"/>
		<g>
			<line class="st4" x1="245.53" y1="157.58" x2="250.99" y2="161.34"/>
			<line class="st4" x1="246.85" y1="154.96" x2="252.31" y2="158.72"/>
		</g>
	</g>
	<g>
		<polygon class="st5" points="261.12,155.88 262.54,158.64 256.88,162.63 255.46,159.87 		"/>
		<g>
			<line class="st4" x1="256.9" y1="162.27" x2="262.33" y2="158.45"/>
			<line class="st4" x1="255.56" y1="159.67" x2="260.99" y2="155.85"/>
		</g>
	</g>
</g>
<line class="st4" x1="253.98" y1="124.18" x2="253.98" y2="149.18"/>
<g>
	<g>
		<path class="st6" d="M253.98,111.41c-4.81,0-8.05-1.75-8.05-3.38s3.23-3.38,8.05-3.38s8.05,1.75,8.05,3.38
			S258.79,111.41,253.98,111.41z"/>
		<path class="st6" d="M253.98,105.15c4.61,0,7.55,1.7,7.55,2.88s-2.94,2.88-7.55,2.88s-7.55-1.7-7.55-2.88
			S249.37,105.15,253.98,105.15 M253.98,104.15c-4.72,0-8.55,1.74-8.55,3.88c0,2.14,3.83,3.88,8.55,3.88s8.55-1.74,8.55-3.88
			C262.52,105.89,258.7,104.15,253.98,104.15L253.98,104.15z"/>
	</g>
	<g>
		<path class="st6" d="M253.12,107.96c-3.14,0-5.48-1.1-5.48-2.08c0-0.98,2.34-2.08,5.48-2.08s5.48,1.1,5.48,2.08
			C258.6,106.86,256.26,107.96,253.12,107.96z"/>
		<path class="st6" d="M253.12,104.29c3.24,0,4.98,1.12,4.98,1.58s-1.75,1.58-4.98,1.58s-4.98-1.12-4.98-1.58
			S249.89,104.29,253.12,104.29 M253.12,103.29c-3.3,0-5.98,1.16-5.98,2.58c0,1.43,2.68,2.58,5.98,2.58c3.3,0,5.98-1.16,5.98-2.58
			C259.1,104.45,256.43,103.29,253.12,103.29L253.12,103.29z"/>
	</g>
	<g>
		<ellipse class="st6" cx="253.98" cy="110.18" rx="5.48" ry="2.08"/>
		<path class="st6" d="M253.98,108.6c3.24,0,4.98,1.12,4.98,1.58s-1.75,1.58-4.98,1.58s-4.98-1.12-4.98-1.58
			S250.74,108.6,253.98,108.6 M253.98,107.6c-3.3,0-5.98,1.16-5.98,2.58s2.68,2.58,5.98,2.58c3.3,0,5.98-1.16,5.98-2.58
			S257.28,107.6,253.98,107.6L253.98,107.6z"/>
	</g>
</g>
<g>
	<path class="st7" d="M253.98,91.82c5.51,0,10,4.49,10,10s-4.49,10-10,10s-10-4.49-10-10S248.46,91.82,253.98,91.82 M253.98,90.82
		c-6.08,0-11,4.92-11,11c0,6.08,4.92,11,11,11s11-4.92,11-11C264.98,95.75,260.05,90.82,253.98,90.82L253.98,90.82z"/>
</g>
<g>
	<path class="st7" d="M253.98,103.77c5.51,0,10,4.49,10,10s-4.49,10-10,10s-10-4.49-10-10S248.46,103.77,253.98,103.77
		 M253.98,102.77c-6.08,0-11,4.92-11,11s4.92,11,11,11s11-4.92,11-11S260.05,102.77,253.98,102.77L253.98,102.77z"/>
</g>
<line class="st4" x1="264.98" y1="138.1" x2="242.98" y2="138.1"/>
<line class="st4" x1="253.98" y1="141.57" x2="253.98" y2="134.48"/>
<g>
	<g>
		<polyline class="st8" points="222.53,70.51 218.99,61.96 215.11,70.54 		"/>
	</g>
	<line class="st8" x1="218.82" y1="70.49" x2="218.82" y2="91.28"/>
	<line class="st8" x1="215.07" y1="70.89" x2="222.57" y2="70.89"/>
</g>
<g>
	<g>
		<polyline class="st8" points="257.68,70.51 254.15,61.96 250.27,70.54 		"/>
	</g>
	<line class="st8" x1="253.98" y1="70.49" x2="253.98" y2="91.28"/>
	<line class="st8" x1="250.23" y1="70.89" x2="257.73" y2="70.89"/>
</g>
<text transform="matrix(0.6726 0 0 1 216.5776 54.4397)" class="st0 st1 st9">10</text>
<text transform="matrix(0.6726 0 0 1 249.4874 54.4397)" class="st0 st1 st9">27</text>
<text transform="matrix(0.6558 0 0 1 212.2563 191.2396)"><tspan x="0" y="0" class="st0 st1 st9">135</tspan><tspan x="-6.33" y="14.4" class="st0 st1 st9">KVAR</tspan></text>
<text transform="matrix(0.6558 0 0 1 247.4105 191.2396)"><tspan x="0" y="0" class="st0 st1 st9">135</tspan><tspan x="-6.33" y="14.4" class="st0 st1 st9">KVAR</tspan></text>
<line class="st4" x1="207.93" y1="141.78" x2="207.93" y2="134.69"/>
<line class="st4" x1="242.93" y1="141.78" x2="242.93" y2="134.69"/>
<line class="st4" x1="264.93" y1="141.78" x2="264.93" y2="134.69"/>
<text transform="matrix(0.6558 0 0 1 220.8722 231.2396)"><tspan x="0" y="0" class="st0 st1 st9">KTP: 2-3</tspan><tspan x="-7.35" y="14.4" class="st0 st1 st9">2X630 KVA</tspan></text>
<rect x="273.9" y="214.72" class="st3" width="75" height="43.05"/>
<line class="st4" x1="293.82" y1="141.35" x2="293.82" y2="134.26"/>
<g>
	<line class="st4" x1="283.74" y1="169.95" x2="303.65" y2="169.95"/>
	<line class="st4" x1="283.76" y1="169.64" x2="293.72" y2="149.49"/>
	<line class="st4" x1="293.95" y1="149.49" x2="303.9" y2="169.64"/>
	<g>
		<rect x="291.87" y="165.96" class="st5" width="2.75" height="7.73"/>
		<g>
			<line class="st4" x1="292.12" y1="166.16" x2="292.12" y2="173.57"/>
			<line class="st4" x1="294.72" y1="166.16" x2="294.72" y2="173.57"/>
		</g>
	</g>
	<g>
		<polygon class="st5" points="292.19,158.88 290.79,161.65 285.1,157.73 286.5,154.95 		"/>
		<g>
			<line class="st4" x1="285.38" y1="157.58" x2="290.84" y2="161.34"/>
			<line class="st4" x1="286.7" y1="154.96" x2="292.15" y2="158.72"/>
		</g>
	</g>
	<g>
		<polygon class="st5" points="300.97,155.88 302.39,158.64 296.73,162.63 295.31,159.87 		"/>
		<g>
			<line class="st4" x1="296.75" y1="162.27" x2="302.17" y2="158.45"/>
			<line class="st4" x1="295.41" y1="159.67" x2="300.83" y2="155.85"/>
		</g>
	</g>
</g>
<line class="st4" x1="293.82" y1="124.18" x2="293.82" y2="149.18"/>
<g>
	<g>
		<path class="st6" d="M293.82,111.41c-4.81,0-8.05-1.75-8.05-3.38s3.23-3.38,8.05-3.38s8.05,1.75,8.05,3.38
			S298.63,111.41,293.82,111.41z"/>
		<path class="st6" d="M293.82,105.15c4.61,0,7.55,1.7,7.55,2.88s-2.94,2.88-7.55,2.88s-7.55-1.7-7.55-2.88
			S289.22,105.15,293.82,105.15 M293.82,104.15c-4.72,0-8.55,1.74-8.55,3.88c0,2.14,3.83,3.88,8.55,3.88s8.55-1.74,8.55-3.88
			C302.37,105.89,298.54,104.15,293.82,104.15L293.82,104.15z"/>
	</g>
	<g>
		<path class="st6" d="M292.97,107.96c-3.14,0-5.48-1.1-5.48-2.08c0-0.98,2.34-2.08,5.48-2.08s5.48,1.1,5.48,2.08
			C298.45,106.86,296.1,107.96,292.97,107.96z"/>
		<path class="st6" d="M292.97,104.29c3.24,0,4.98,1.12,4.98,1.58s-1.75,1.58-4.98,1.58s-4.98-1.12-4.98-1.58
			S289.73,104.29,292.97,104.29 M292.97,103.29c-3.3,0-5.98,1.16-5.98,2.58c0,1.43,2.68,2.58,5.98,2.58c3.3,0,5.98-1.16,5.98-2.58
			C298.95,104.45,296.27,103.29,292.97,103.29L292.97,103.29z"/>
	</g>
	<g>
		<ellipse class="st6" cx="293.82" cy="110.18" rx="5.48" ry="2.08"/>
		<path class="st6" d="M293.82,108.6c3.24,0,4.98,1.12,4.98,1.58s-1.75,1.58-4.98,1.58s-4.98-1.12-4.98-1.58
			S290.59,108.6,293.82,108.6 M293.82,107.6c-3.3,0-5.98,1.16-5.98,2.58s2.68,2.58,5.98,2.58c3.3,0,5.98-1.16,5.98-2.58
			S297.13,107.6,293.82,107.6L293.82,107.6z"/>
	</g>
</g>
<g>
	<path class="st7" d="M293.82,91.82c5.51,0,10,4.49,10,10s-4.49,10-10,10s-10-4.49-10-10S288.31,91.82,293.82,91.82 M293.82,90.82
		c-6.08,0-11,4.92-11,11c0,6.08,4.92,11,11,11s11-4.92,11-11C304.82,95.75,299.9,90.82,293.82,90.82L293.82,90.82z"/>
</g>
<g>
	<path class="st7" d="M293.82,103.77c5.51,0,10,4.49,10,10s-4.49,10-10,10s-10-4.49-10-10S288.31,103.77,293.82,103.77
		 M293.82,102.77c-6.08,0-11,4.92-11,11s4.92,11,11,11s11-4.92,11-11S299.9,102.77,293.82,102.77L293.82,102.77z"/>
</g>
<line class="st4" x1="304.82" y1="138.1" x2="282.82" y2="138.1"/>
<line class="st4" x1="305.48" y1="141.57" x2="305.48" y2="134.48"/>
<line class="st4" x1="328.98" y1="141.35" x2="328.98" y2="134.26"/>
<g>
	<line class="st4" x1="318.9" y1="169.95" x2="338.8" y2="169.95"/>
	<line class="st4" x1="318.92" y1="169.64" x2="328.87" y2="149.49"/>
	<line class="st4" x1="329.1" y1="149.49" x2="339.06" y2="169.64"/>
	<g>
		<rect x="327.02" y="165.96" class="st5" width="2.75" height="7.73"/>
		<g>
			<line class="st4" x1="327.28" y1="166.16" x2="327.28" y2="173.57"/>
			<line class="st4" x1="329.87" y1="166.16" x2="329.87" y2="173.57"/>
		</g>
	</g>
	<g>
		<polygon class="st5" points="327.35,158.88 325.95,161.65 320.26,157.73 321.65,154.95 		"/>
		<g>
			<line class="st4" x1="320.53" y1="157.58" x2="325.99" y2="161.34"/>
			<line class="st4" x1="321.85" y1="154.96" x2="327.31" y2="158.72"/>
		</g>
	</g>
	<g>
		<polygon class="st5" points="336.12,155.88 337.54,158.64 331.88,162.63 330.46,159.87 		"/>
		<g>
			<line class="st4" x1="331.9" y1="162.27" x2="337.33" y2="158.45"/>
			<line class="st4" x1="330.56" y1="159.67" x2="335.99" y2="155.85"/>
		</g>
	</g>
</g>
<line class="st4" x1="328.98" y1="124.18" x2="328.98" y2="149.18"/>
<g>
	<g>
		<path class="st6" d="M328.98,111.41c-4.81,0-8.05-1.75-8.05-3.38s3.23-3.38,8.05-3.38s8.05,1.75,8.05,3.38
			S333.79,111.41,328.98,111.41z"/>
		<path class="st6" d="M328.98,105.15c4.61,0,7.55,1.7,7.55,2.88s-2.94,2.88-7.55,2.88s-7.55-1.7-7.55-2.88
			S324.37,105.15,328.98,105.15 M328.98,104.15c-4.72,0-8.55,1.74-8.55,3.88c0,2.14,3.83,3.88,8.55,3.88s8.55-1.74,8.55-3.88
			C337.52,105.89,333.7,104.15,328.98,104.15L328.98,104.15z"/>
	</g>
	<g>
		<path class="st6" d="M328.12,107.96c-3.14,0-5.48-1.1-5.48-2.08c0-0.98,2.34-2.08,5.48-2.08s5.48,1.1,5.48,2.08
			C333.6,106.86,331.26,107.96,328.12,107.96z"/>
		<path class="st6" d="M328.12,104.29c3.24,0,4.98,1.12,4.98,1.58s-1.75,1.58-4.98,1.58s-4.98-1.12-4.98-1.58
			S324.89,104.29,328.12,104.29 M328.12,103.29c-3.3,0-5.98,1.16-5.98,2.58c0,1.43,2.68,2.58,5.98,2.58c3.3,0,5.98-1.16,5.98-2.58
			C334.1,104.45,331.43,103.29,328.12,103.29L328.12,103.29z"/>
	</g>
	<g>
		<ellipse class="st6" cx="328.98" cy="110.18" rx="5.48" ry="2.08"/>
		<path class="st6" d="M328.98,108.6c3.24,0,4.98,1.12,4.98,1.58s-1.75,1.58-4.98,1.58s-4.98-1.12-4.98-1.58
			S325.74,108.6,328.98,108.6 M328.98,107.6c-3.3,0-5.98,1.16-5.98,2.58s2.68,2.58,5.98,2.58c3.3,0,5.98-1.16,5.98-2.58
			S332.28,107.6,328.98,107.6L328.98,107.6z"/>
	</g>
</g>
<g>
	<path class="st7" d="M328.98,91.82c5.51,0,10,4.49,10,10s-4.49,10-10,10s-10-4.49-10-10S323.46,91.82,328.98,91.82 M328.98,90.82
		c-6.08,0-11,4.92-11,11c0,6.08,4.92,11,11,11s11-4.92,11-11C339.98,95.75,335.05,90.82,328.98,90.82L328.98,90.82z"/>
</g>
<g>
	<path class="st7" d="M328.98,103.77c5.51,0,10,4.49,10,10s-4.49,10-10,10s-10-4.49-10-10S323.46,103.77,328.98,103.77
		 M328.98,102.77c-6.08,0-11,4.92-11,11s4.92,11,11,11s11-4.92,11-11S335.05,102.77,328.98,102.77L328.98,102.77z"/>
</g>
<line class="st4" x1="339.98" y1="138.1" x2="317.98" y2="138.1"/>
<line class="st4" x1="328.98" y1="141.57" x2="328.98" y2="134.48"/>
<g>
	<g>
		<polyline class="st8" points="297.53,70.51 293.99,61.96 290.11,70.54 		"/>
	</g>
	<line class="st8" x1="293.82" y1="70.49" x2="293.82" y2="91.28"/>
	<line class="st8" x1="290.07" y1="70.89" x2="297.57" y2="70.89"/>
</g>
<g>
	<g>
		<polyline class="st8" points="332.68,70.51 329.15,61.96 325.27,70.54 		"/>
	</g>
	<line class="st8" x1="328.98" y1="70.49" x2="328.98" y2="91.28"/>
	<line class="st8" x1="325.23" y1="70.89" x2="332.73" y2="70.89"/>
</g>
<text transform="matrix(0.6726 0 0 1 291.5776 54.4397)" class="st0 st1 st9">13</text>
<text transform="matrix(0.6726 0 0 1 324.4874 54.4397)" class="st0 st1 st9">29</text>
<text transform="matrix(0.6558 0 0 1 283.1006 191.2396)"><tspan x="0" y="0" class="st0 st1 st9">4x135</tspan><tspan x="0.01" y="14.4" class="st0 st1 st9">KVAR</tspan></text>
<text transform="matrix(0.6558 0 0 1 322.4105 191.2396)"><tspan x="0" y="0" class="st0 st1 st9">135</tspan><tspan x="-6.33" y="14.4" class="st0 st1 st9">KVAR</tspan></text>
<line class="st4" x1="282.93" y1="141.78" x2="282.93" y2="134.69"/>
<line class="st4" x1="317.93" y1="141.78" x2="317.93" y2="134.69"/>
<line class="st4" x1="339.93" y1="141.78" x2="339.93" y2="134.69"/>
<text transform="matrix(0.6558 0 0 1 295.8723 231.2396)"><tspan x="0" y="0" class="st0 st1 st9">KTP: 2-4</tspan><tspan x="-7.35" y="14.4" class="st0 st1 st9">2X630 KVA</tspan></text>
<g>
	<rect x="348.9" y="214.72" class="st3" width="75" height="43.05"/>
	<line class="st4" x1="367.82" y1="141.35" x2="367.82" y2="134.26"/>
	<g>
		<line class="st4" x1="357.74" y1="169.95" x2="377.65" y2="169.95"/>
		<line class="st4" x1="357.76" y1="169.64" x2="367.72" y2="149.49"/>
		<line class="st4" x1="367.95" y1="149.49" x2="377.9" y2="169.64"/>
		<g>
			<rect x="365.87" y="165.96" class="st5" width="2.75" height="7.73"/>
			<g>
				<line class="st4" x1="366.12" y1="166.16" x2="366.12" y2="173.57"/>
				<line class="st4" x1="368.72" y1="166.16" x2="368.72" y2="173.57"/>
			</g>
		</g>
		<g>
			<polygon class="st5" points="366.19,158.88 364.79,161.65 359.1,157.73 360.5,154.95 			"/>
			<g>
				<line class="st4" x1="359.38" y1="157.58" x2="364.84" y2="161.34"/>
				<line class="st4" x1="360.7" y1="154.96" x2="366.15" y2="158.72"/>
			</g>
		</g>
		<g>
			<polygon class="st5" points="374.97,155.88 376.39,158.64 370.73,162.63 369.31,159.87 			"/>
			<g>
				<line class="st4" x1="370.75" y1="162.27" x2="376.17" y2="158.45"/>
				<line class="st4" x1="369.41" y1="159.67" x2="374.83" y2="155.85"/>
			</g>
		</g>
	</g>
	<line class="st4" x1="367.82" y1="124.18" x2="367.82" y2="149.18"/>
	<g>
		<g>
			<path class="st6" d="M367.82,111.41c-4.81,0-8.05-1.75-8.05-3.38s3.23-3.38,8.05-3.38s8.05,1.75,8.05,3.38
				S372.63,111.41,367.82,111.41z"/>
			<path class="st6" d="M367.82,105.15c4.61,0,7.55,1.7,7.55,2.88s-2.94,2.88-7.55,2.88s-7.55-1.7-7.55-2.88
				S363.22,105.15,367.82,105.15 M367.82,104.15c-4.72,0-8.55,1.74-8.55,3.88c0,2.14,3.83,3.88,8.55,3.88s8.55-1.74,8.55-3.88
				C376.37,105.89,372.54,104.15,367.82,104.15L367.82,104.15z"/>
		</g>
		<g>
			<path class="st6" d="M366.97,107.96c-3.14,0-5.48-1.1-5.48-2.08c0-0.98,2.34-2.08,5.48-2.08s5.48,1.1,5.48,2.08
				C372.45,106.86,370.1,107.96,366.97,107.96z"/>
			<path class="st6" d="M366.97,104.29c3.24,0,4.98,1.12,4.98,1.58s-1.75,1.58-4.98,1.58s-4.98-1.12-4.98-1.58
				S363.73,104.29,366.97,104.29 M366.97,103.29c-3.3,0-5.98,1.16-5.98,2.58c0,1.43,2.68,2.58,5.98,2.58c3.3,0,5.98-1.16,5.98-2.58
				C372.95,104.45,370.27,103.29,366.97,103.29L366.97,103.29z"/>
		</g>
		<g>
			<ellipse class="st6" cx="367.82" cy="110.18" rx="5.48" ry="2.08"/>
			<path class="st6" d="M367.82,108.6c3.24,0,4.98,1.12,4.98,1.58s-1.75,1.58-4.98,1.58s-4.98-1.12-4.98-1.58
				S364.59,108.6,367.82,108.6 M367.82,107.6c-3.3,0-5.98,1.16-5.98,2.58s2.68,2.58,5.98,2.58c3.3,0,5.98-1.16,5.98-2.58
				S371.13,107.6,367.82,107.6L367.82,107.6z"/>
		</g>
	</g>
	<g>
		<path class="st7" d="M367.82,91.82c5.51,0,10,4.49,10,10s-4.49,10-10,10s-10-4.49-10-10S362.31,91.82,367.82,91.82 M367.82,90.82
			c-6.08,0-11,4.92-11,11c0,6.08,4.92,11,11,11s11-4.92,11-11C378.82,95.75,373.9,90.82,367.82,90.82L367.82,90.82z"/>
	</g>
	<g>
		<path class="st7" d="M367.82,103.77c5.51,0,10,4.49,10,10s-4.49,10-10,10s-10-4.49-10-10S362.31,103.77,367.82,103.77
			 M367.82,102.77c-6.08,0-11,4.92-11,11s4.92,11,11,11s11-4.92,11-11S373.9,102.77,367.82,102.77L367.82,102.77z"/>
	</g>
	<line class="st4" x1="378.82" y1="138.1" x2="356.82" y2="138.1"/>
	<line class="st4" x1="379.48" y1="141.57" x2="379.48" y2="134.48"/>
	<line class="st4" x1="402.98" y1="141.35" x2="402.98" y2="134.26"/>
	<g>
		<line class="st4" x1="392.9" y1="169.95" x2="412.8" y2="169.95"/>
		<line class="st4" x1="392.92" y1="169.64" x2="402.87" y2="149.49"/>
		<line class="st4" x1="403.1" y1="149.49" x2="413.06" y2="169.64"/>
		<g>
			<rect x="401.02" y="165.96" class="st5" width="2.75" height="7.73"/>
			<g>
				<line class="st4" x1="401.28" y1="166.16" x2="401.28" y2="173.57"/>
				<line class="st4" x1="403.87" y1="166.16" x2="403.87" y2="173.57"/>
			</g>
		</g>
		<g>
			<polygon class="st5" points="401.35,158.88 399.95,161.65 394.26,157.73 395.65,154.95 			"/>
			<g>
				<line class="st4" x1="394.53" y1="157.58" x2="399.99" y2="161.34"/>
				<line class="st4" x1="395.85" y1="154.96" x2="401.31" y2="158.72"/>
			</g>
		</g>
		<g>
			<polygon class="st5" points="410.12,155.88 411.54,158.64 405.88,162.63 404.46,159.87 			"/>
			<g>
				<line class="st4" x1="405.9" y1="162.27" x2="411.33" y2="158.45"/>
				<line class="st4" x1="404.56" y1="159.67" x2="409.99" y2="155.85"/>
			</g>
		</g>
	</g>
	<line class="st4" x1="402.98" y1="124.18" x2="402.98" y2="149.18"/>
	<g>
		<g>
			<path class="st6" d="M402.98,111.41c-4.81,0-8.05-1.75-8.05-3.38s3.23-3.38,8.05-3.38s8.05,1.75,8.05,3.38
				S407.79,111.41,402.98,111.41z"/>
			<path class="st6" d="M402.98,105.15c4.61,0,7.55,1.7,7.55,2.88s-2.94,2.88-7.55,2.88s-7.55-1.7-7.55-2.88
				S398.37,105.15,402.98,105.15 M402.98,104.15c-4.72,0-8.55,1.74-8.55,3.88c0,2.14,3.83,3.88,8.55,3.88s8.55-1.74,8.55-3.88
				C411.52,105.89,407.7,104.15,402.98,104.15L402.98,104.15z"/>
		</g>
		<g>
			<path class="st6" d="M402.12,107.96c-3.14,0-5.48-1.1-5.48-2.08c0-0.98,2.34-2.08,5.48-2.08s5.48,1.1,5.48,2.08
				C407.6,106.86,405.26,107.96,402.12,107.96z"/>
			<path class="st6" d="M402.12,104.29c3.24,0,4.98,1.12,4.98,1.58s-1.75,1.58-4.98,1.58s-4.98-1.12-4.98-1.58
				S398.89,104.29,402.12,104.29 M402.12,103.29c-3.3,0-5.98,1.16-5.98,2.58c0,1.43,2.68,2.58,5.98,2.58c3.3,0,5.98-1.16,5.98-2.58
				C408.1,104.45,405.43,103.29,402.12,103.29L402.12,103.29z"/>
		</g>
		<g>
			<ellipse class="st6" cx="402.98" cy="110.18" rx="5.48" ry="2.08"/>
			<path class="st6" d="M402.98,108.6c3.24,0,4.98,1.12,4.98,1.58s-1.75,1.58-4.98,1.58s-4.98-1.12-4.98-1.58
				S399.74,108.6,402.98,108.6 M402.98,107.6c-3.3,0-5.98,1.16-5.98,2.58s2.68,2.58,5.98,2.58c3.3,0,5.98-1.16,5.98-2.58
				S406.28,107.6,402.98,107.6L402.98,107.6z"/>
		</g>
	</g>
	<g>
		<path class="st7" d="M402.98,91.82c5.51,0,10,4.49,10,10s-4.49,10-10,10s-10-4.49-10-10S397.46,91.82,402.98,91.82 M402.98,90.82
			c-6.08,0-11,4.92-11,11c0,6.08,4.92,11,11,11s11-4.92,11-11C413.98,95.75,409.05,90.82,402.98,90.82L402.98,90.82z"/>
	</g>
	<g>
		<path class="st7" d="M402.98,103.77c5.51,0,10,4.49,10,10s-4.49,10-10,10s-10-4.49-10-10S397.46,103.77,402.98,103.77
			 M402.98,102.77c-6.08,0-11,4.92-11,11s4.92,11,11,11s11-4.92,11-11S409.05,102.77,402.98,102.77L402.98,102.77z"/>
	</g>
	<line class="st4" x1="413.98" y1="138.1" x2="391.98" y2="138.1"/>
	<line class="st4" x1="402.98" y1="141.57" x2="402.98" y2="134.48"/>
	<g>
		<g>
			<polyline class="st8" points="371.53,70.51 367.99,61.96 364.11,70.54 			"/>
		</g>
		<line class="st8" x1="367.82" y1="70.49" x2="367.82" y2="91.28"/>
		<line class="st8" x1="364.07" y1="70.89" x2="371.57" y2="70.89"/>
	</g>
	<g>
		<g>
			<polyline class="st8" points="406.68,70.51 403.15,61.96 399.27,70.54 			"/>
		</g>
		<line class="st8" x1="402.98" y1="70.49" x2="402.98" y2="91.28"/>
		<line class="st8" x1="399.23" y1="70.89" x2="406.73" y2="70.89"/>
	</g>
	<text transform="matrix(0.6726 0 0 1 365.5776 54.4397)" class="st0 st1 st9">14</text>
	<text transform="matrix(0.6726 0 0 1 398.4874 54.4397)" class="st0 st1 st9">30</text>
	<text transform="matrix(0.6558 0 0 1 361.2563 191.2396)"><tspan x="0" y="0" class="st0 st1 st9">135</tspan><tspan x="-6.33" y="14.4" class="st0 st1 st9">KVAR</tspan></text>
	<text transform="matrix(0.6558 0 0 1 392.2547 191.2396)"><tspan x="0" y="0" class="st0 st1 st9">4x135</tspan><tspan x="0.01" y="14.4" class="st0 st1 st9">KVAR</tspan></text>
	<line class="st4" x1="356.93" y1="141.78" x2="356.93" y2="134.69"/>
	<line class="st4" x1="391.93" y1="141.78" x2="391.93" y2="134.69"/>
	<line class="st4" x1="413.93" y1="141.78" x2="413.93" y2="134.69"/>
	<text transform="matrix(0.6558 0 0 1 370.8723 231.2396)"><tspan x="0" y="0" class="st0 st1 st9">KTP: 2-5</tspan><tspan x="-7.35" y="14.4" class="st0 st1 st9">2X630 KVA</tspan></text>
</g>
<rect x="49.19" y="257.71" class="st3" width="599.5" height="21.79"/>
<text transform="matrix(0.7128 0 0 1 310.9105 273.8354)" class="st0 st1 st10">XƯỞNG TUYỂN</text>
<g>
	<rect x="423.53" y="214.5" class="st3" width="75" height="43.05"/>
	<line class="st4" x1="442.45" y1="141.13" x2="442.45" y2="134.04"/>
	<g>
		<line class="st4" x1="432.37" y1="169.73" x2="452.28" y2="169.73"/>
		<line class="st4" x1="432.4" y1="169.43" x2="442.35" y2="149.27"/>
		<line class="st4" x1="442.58" y1="149.27" x2="452.53" y2="169.43"/>
		<g>
			<rect x="440.5" y="165.74" class="st5" width="2.75" height="7.73"/>
			<g>
				<line class="st4" x1="440.75" y1="165.95" x2="440.75" y2="173.35"/>
				<line class="st4" x1="443.35" y1="165.95" x2="443.35" y2="173.35"/>
			</g>
		</g>
		<g>
			<polygon class="st5" points="440.82,158.66 439.43,161.43 433.73,157.51 435.13,154.74 			"/>
			<g>
				<line class="st4" x1="434.01" y1="157.36" x2="439.47" y2="161.12"/>
				<line class="st4" x1="435.33" y1="154.75" x2="440.79" y2="158.51"/>
			</g>
		</g>
		<g>
			<polygon class="st5" points="449.6,155.67 451.02,158.42 445.36,162.41 443.94,159.66 			"/>
			<g>
				<line class="st4" x1="445.38" y1="162.05" x2="450.81" y2="158.23"/>
				<line class="st4" x1="444.04" y1="159.46" x2="449.47" y2="155.63"/>
			</g>
		</g>
	</g>
	<line class="st4" x1="442.45" y1="123.96" x2="442.45" y2="148.96"/>
	<g>
		<g>
			<path class="st6" d="M442.46,111.19c-4.81,0-8.05-1.75-8.05-3.38s3.23-3.38,8.05-3.38s8.05,1.75,8.05,3.38
				S447.27,111.19,442.46,111.19z"/>
			<path class="st6" d="M442.45,104.93c4.61,0,7.55,1.7,7.55,2.88s-2.94,2.88-7.55,2.88s-7.55-1.7-7.55-2.88
				S437.85,104.93,442.45,104.93 M442.45,103.93c-4.72,0-8.55,1.74-8.55,3.88s3.83,3.88,8.55,3.88s8.55-1.74,8.55-3.88
				S447.17,103.93,442.45,103.93L442.45,103.93z"/>
		</g>
		<g>
			<path class="st6" d="M441.6,107.74c-3.14,0-5.48-1.1-5.48-2.08c0-0.98,2.34-2.08,5.48-2.08s5.48,1.1,5.48,2.08
				C447.08,106.64,444.74,107.74,441.6,107.74z"/>
			<path class="st6" d="M441.6,104.07c3.24,0,4.98,1.12,4.98,1.58c0,0.46-1.75,1.58-4.98,1.58s-4.98-1.12-4.98-1.58
				C436.62,105.2,438.36,104.07,441.6,104.07 M441.6,103.07c-3.3,0-5.98,1.16-5.98,2.58s2.68,2.58,5.98,2.58s5.98-1.16,5.98-2.58
				S444.9,103.07,441.6,103.07L441.6,103.07z"/>
		</g>
		<g>
			<path class="st6" d="M442.46,112.05c-3.14,0-5.48-1.1-5.48-2.08s2.34-2.08,5.48-2.08s5.48,1.1,5.48,2.08
				S445.59,112.05,442.46,112.05z"/>
			<path class="st6" d="M442.45,108.38c3.24,0,4.98,1.12,4.98,1.58s-1.75,1.58-4.98,1.58s-4.98-1.12-4.98-1.58
				S439.22,108.38,442.45,108.38 M442.45,107.38c-3.3,0-5.98,1.16-5.98,2.58s2.68,2.58,5.98,2.58s5.98-1.16,5.98-2.58
				S445.76,107.38,442.45,107.38L442.45,107.38z"/>
		</g>
	</g>
	<g>
		<path class="st7" d="M442.45,91.6c5.51,0,10,4.49,10,10s-4.49,10-10,10s-10-4.49-10-10S436.94,91.6,442.45,91.6 M442.45,90.6
			c-6.08,0-11,4.92-11,11s4.92,11,11,11s11-4.92,11-11S448.53,90.6,442.45,90.6L442.45,90.6z"/>
	</g>
	<g>
		<path class="st7" d="M442.45,103.55c5.51,0,10,4.49,10,10s-4.49,10-10,10s-10-4.49-10-10S436.94,103.55,442.45,103.55
			 M442.45,102.55c-6.08,0-11,4.92-11,11s4.92,11,11,11s11-4.92,11-11S448.53,102.55,442.45,102.55L442.45,102.55z"/>
	</g>
	<line class="st4" x1="453.45" y1="137.89" x2="431.45" y2="137.89"/>
	<line class="st4" x1="454.12" y1="141.35" x2="454.12" y2="134.26"/>
	<line class="st4" x1="477.61" y1="141.13" x2="477.61" y2="134.04"/>
	<g>
		<line class="st4" x1="467.53" y1="169.73" x2="487.43" y2="169.73"/>
		<line class="st4" x1="467.55" y1="169.43" x2="477.5" y2="149.27"/>
		<line class="st4" x1="477.74" y1="149.27" x2="487.69" y2="169.43"/>
		<g>
			<rect x="475.66" y="165.74" class="st5" width="2.75" height="7.73"/>
			<g>
				<line class="st4" x1="475.91" y1="165.95" x2="475.91" y2="173.35"/>
				<line class="st4" x1="478.5" y1="165.95" x2="478.5" y2="173.35"/>
			</g>
		</g>
		<g>
			<polygon class="st5" points="475.98,158.66 474.58,161.43 468.89,157.51 470.29,154.74 			"/>
			<g>
				<line class="st4" x1="469.17" y1="157.36" x2="474.62" y2="161.12"/>
				<line class="st4" x1="470.49" y1="154.75" x2="475.94" y2="158.51"/>
			</g>
		</g>
		<g>
			<polygon class="st5" points="484.75,155.67 486.18,158.42 480.52,162.41 479.1,159.66 			"/>
			<g>
				<line class="st4" x1="480.54" y1="162.05" x2="485.96" y2="158.23"/>
				<line class="st4" x1="479.2" y1="159.46" x2="484.62" y2="155.63"/>
			</g>
		</g>
	</g>
	<line class="st4" x1="477.61" y1="123.96" x2="477.61" y2="148.96"/>
	<g>
		<g>
			<path class="st6" d="M477.61,111.19c-4.81,0-8.05-1.75-8.05-3.38s3.23-3.38,8.05-3.38s8.05,1.75,8.05,3.38
				S482.42,111.19,477.61,111.19z"/>
			<path class="st6" d="M477.61,104.93c4.61,0,7.55,1.7,7.55,2.88s-2.94,2.88-7.55,2.88c-4.61,0-7.55-1.7-7.55-2.88
				S473,104.93,477.61,104.93 M477.61,103.93c-4.72,0-8.55,1.74-8.55,3.88s3.83,3.88,8.55,3.88s8.55-1.74,8.55-3.88
				S482.33,103.93,477.61,103.93L477.61,103.93z"/>
		</g>
		<g>
			<path class="st6" d="M476.75,107.74c-3.14,0-5.48-1.1-5.48-2.08c0-0.98,2.34-2.08,5.48-2.08s5.48,1.1,5.48,2.08
				C482.24,106.64,479.89,107.74,476.75,107.74z"/>
			<path class="st6" d="M476.75,104.07c3.24,0,4.98,1.12,4.98,1.58c0,0.46-1.75,1.58-4.98,1.58s-4.98-1.12-4.98-1.58
				C471.77,105.2,473.52,104.07,476.75,104.07 M476.75,103.07c-3.3,0-5.98,1.16-5.98,2.58s2.68,2.58,5.98,2.58
				c3.3,0,5.98-1.16,5.98-2.58S480.06,103.07,476.75,103.07L476.75,103.07z"/>
		</g>
		<g>
			<ellipse class="st6" cx="477.61" cy="109.97" rx="5.48" ry="2.08"/>
			<path class="st6" d="M477.61,108.38c3.24,0,4.98,1.12,4.98,1.58s-1.75,1.58-4.98,1.58s-4.98-1.12-4.98-1.58
				S474.37,108.38,477.61,108.38 M477.61,107.38c-3.3,0-5.98,1.16-5.98,2.58s2.68,2.58,5.98,2.58c3.3,0,5.98-1.16,5.98-2.58
				S480.91,107.38,477.61,107.38L477.61,107.38z"/>
		</g>
	</g>
	<g>
		<path class="st7" d="M477.61,91.6c5.51,0,10,4.49,10,10s-4.49,10-10,10c-5.51,0-10-4.49-10-10S472.09,91.6,477.61,91.6
			 M477.61,90.6c-6.08,0-11,4.92-11,11s4.92,11,11,11s11-4.92,11-11S483.68,90.6,477.61,90.6L477.61,90.6z"/>
	</g>
	<g>
		<path class="st7" d="M477.61,103.55c5.51,0,10,4.49,10,10s-4.49,10-10,10c-5.51,0-10-4.49-10-10S472.09,103.55,477.61,103.55
			 M477.61,102.55c-6.08,0-11,4.92-11,11s4.92,11,11,11s11-4.92,11-11S483.68,102.55,477.61,102.55L477.61,102.55z"/>
	</g>
	<line class="st4" x1="488.61" y1="137.89" x2="466.61" y2="137.89"/>
	<line class="st4" x1="477.61" y1="141.35" x2="477.61" y2="134.26"/>
	<g>
		<g>
			<polyline class="st8" points="446.16,70.29 442.63,61.74 438.75,70.33 			"/>
		</g>
		<line class="st8" x1="442.45" y1="70.27" x2="442.45" y2="91.06"/>
		<line class="st8" x1="438.7" y1="70.67" x2="446.2" y2="70.67"/>
	</g>
	<g>
		<g>
			<polyline class="st8" points="481.32,70.29 477.78,61.74 473.9,70.33 			"/>
		</g>
		<line class="st8" x1="477.61" y1="70.27" x2="477.61" y2="91.06"/>
		<line class="st8" x1="473.86" y1="70.67" x2="481.36" y2="70.67"/>
	</g>
	<text transform="matrix(0.6726 0 0 1 440.2105 54.2229)" class="st0 st1 st9">31</text>
	<text transform="matrix(0.6726 0 0 1 473.1203 54.2229)" class="st0 st1 st9">15</text>
	<text transform="matrix(0.6558 0 0 1 435.8893 191.0228)"><tspan x="0" y="0" class="st0 st1 st9">270</tspan><tspan x="-6.33" y="14.4" class="st0 st1 st9">KVAR</tspan></text>
	<text transform="matrix(0.6558 0 0 1 471.0434 191.0228)"><tspan x="0" y="0" class="st0 st1 st9">270</tspan><tspan x="-6.33" y="14.4" class="st0 st1 st9">KVAR</tspan></text>
	<line class="st4" x1="431.56" y1="141.57" x2="431.56" y2="134.48"/>
	<line class="st4" x1="466.56" y1="141.57" x2="466.56" y2="134.48"/>
	<line class="st4" x1="488.56" y1="141.57" x2="488.56" y2="134.48"/>
	<text transform="matrix(0.6558 0 0 1 445.5052 231.0228)"><tspan x="0" y="0" class="st0 st1 st9">KTP: 2-6</tspan><tspan x="-10.68" y="14.4" class="st0 st1 st9">2X1000 KVA</tspan></text>
</g>
<g>
	<rect x="498.53" y="214.5" class="st3" width="75" height="43.05"/>
	<line class="st4" x1="517.45" y1="141.13" x2="517.45" y2="134.04"/>
	<g>
		<line class="st4" x1="507.37" y1="169.73" x2="527.28" y2="169.73"/>
		<line class="st4" x1="507.4" y1="169.43" x2="517.35" y2="149.27"/>
		<line class="st4" x1="517.58" y1="149.27" x2="527.53" y2="169.43"/>
		<g>
			<rect x="515.5" y="165.74" class="st5" width="2.75" height="7.73"/>
			<g>
				<line class="st4" x1="515.75" y1="165.95" x2="515.75" y2="173.35"/>
				<line class="st4" x1="518.35" y1="165.95" x2="518.35" y2="173.35"/>
			</g>
		</g>
		<g>
			<polygon class="st5" points="515.82,158.66 514.43,161.43 508.73,157.51 510.13,154.74 			"/>
			<g>
				<line class="st4" x1="509.01" y1="157.36" x2="514.47" y2="161.12"/>
				<line class="st4" x1="510.33" y1="154.75" x2="515.79" y2="158.51"/>
			</g>
		</g>
		<g>
			<polygon class="st5" points="524.6,155.67 526.02,158.42 520.36,162.41 518.94,159.66 			"/>
			<g>
				<line class="st4" x1="520.38" y1="162.05" x2="525.81" y2="158.23"/>
				<line class="st4" x1="519.04" y1="159.46" x2="524.47" y2="155.63"/>
			</g>
		</g>
	</g>
	<line class="st4" x1="517.45" y1="123.96" x2="517.45" y2="148.96"/>
	<g>
		<g>
			<path class="st6" d="M517.46,111.19c-4.81,0-8.05-1.75-8.05-3.38s3.23-3.38,8.05-3.38s8.05,1.75,8.05,3.38
				S522.27,111.19,517.46,111.19z"/>
			<path class="st6" d="M517.45,104.93c4.61,0,7.55,1.7,7.55,2.88s-2.94,2.88-7.55,2.88s-7.55-1.7-7.55-2.88
				S512.85,104.93,517.45,104.93 M517.45,103.93c-4.72,0-8.55,1.74-8.55,3.88s3.83,3.88,8.55,3.88s8.55-1.74,8.55-3.88
				S522.17,103.93,517.45,103.93L517.45,103.93z"/>
		</g>
		<g>
			<path class="st6" d="M516.6,107.74c-3.14,0-5.48-1.1-5.48-2.08c0-0.98,2.34-2.08,5.48-2.08s5.48,1.1,5.48,2.08
				C522.08,106.64,519.74,107.74,516.6,107.74z"/>
			<path class="st6" d="M516.6,104.07c3.24,0,4.98,1.12,4.98,1.58c0,0.46-1.75,1.58-4.98,1.58s-4.98-1.12-4.98-1.58
				C511.62,105.2,513.36,104.07,516.6,104.07 M516.6,103.07c-3.3,0-5.98,1.16-5.98,2.58s2.68,2.58,5.98,2.58s5.98-1.16,5.98-2.58
				S519.9,103.07,516.6,103.07L516.6,103.07z"/>
		</g>
		<g>
			<path class="st6" d="M517.46,112.05c-3.14,0-5.48-1.1-5.48-2.08s2.34-2.08,5.48-2.08s5.48,1.1,5.48,2.08
				S520.59,112.05,517.46,112.05z"/>
			<path class="st6" d="M517.45,108.38c3.24,0,4.98,1.12,4.98,1.58s-1.75,1.58-4.98,1.58s-4.98-1.12-4.98-1.58
				S514.22,108.38,517.45,108.38 M517.45,107.38c-3.3,0-5.98,1.16-5.98,2.58s2.68,2.58,5.98,2.58s5.98-1.16,5.98-2.58
				S520.76,107.38,517.45,107.38L517.45,107.38z"/>
		</g>
	</g>
	<g>
		<path class="st7" d="M517.45,91.6c5.51,0,10,4.49,10,10s-4.49,10-10,10s-10-4.49-10-10S511.94,91.6,517.45,91.6 M517.45,90.6
			c-6.08,0-11,4.92-11,11s4.92,11,11,11s11-4.92,11-11S523.53,90.6,517.45,90.6L517.45,90.6z"/>
	</g>
	<g>
		<path class="st7" d="M517.45,103.55c5.51,0,10,4.49,10,10s-4.49,10-10,10s-10-4.49-10-10S511.94,103.55,517.45,103.55
			 M517.45,102.55c-6.08,0-11,4.92-11,11s4.92,11,11,11s11-4.92,11-11S523.53,102.55,517.45,102.55L517.45,102.55z"/>
	</g>
	<line class="st4" x1="528.45" y1="137.89" x2="506.45" y2="137.89"/>
	<line class="st4" x1="529.12" y1="141.35" x2="529.12" y2="134.26"/>
	<line class="st4" x1="552.61" y1="141.13" x2="552.61" y2="134.04"/>
	<g>
		<line class="st4" x1="542.53" y1="169.73" x2="562.43" y2="169.73"/>
		<line class="st4" x1="542.55" y1="169.43" x2="552.5" y2="149.27"/>
		<line class="st4" x1="552.74" y1="149.27" x2="562.69" y2="169.43"/>
		<g>
			<rect x="550.66" y="165.74" class="st5" width="2.75" height="7.73"/>
			<g>
				<line class="st4" x1="550.91" y1="165.95" x2="550.91" y2="173.35"/>
				<line class="st4" x1="553.5" y1="165.95" x2="553.5" y2="173.35"/>
			</g>
		</g>
		<g>
			<polygon class="st5" points="550.98,158.66 549.58,161.43 543.89,157.51 545.29,154.74 			"/>
			<g>
				<line class="st4" x1="544.17" y1="157.36" x2="549.62" y2="161.12"/>
				<line class="st4" x1="545.49" y1="154.75" x2="550.94" y2="158.51"/>
			</g>
		</g>
		<g>
			<polygon class="st5" points="559.75,155.67 561.18,158.42 555.52,162.41 554.1,159.66 			"/>
			<g>
				<line class="st4" x1="555.54" y1="162.05" x2="560.96" y2="158.23"/>
				<line class="st4" x1="554.2" y1="159.46" x2="559.62" y2="155.63"/>
			</g>
		</g>
	</g>
	<line class="st4" x1="552.61" y1="123.96" x2="552.61" y2="148.96"/>
	<g>
		<g>
			<path class="st6" d="M552.61,111.19c-4.81,0-8.05-1.75-8.05-3.38s3.23-3.38,8.05-3.38s8.05,1.75,8.05,3.38
				S557.42,111.19,552.61,111.19z"/>
			<path class="st6" d="M552.61,104.93c4.61,0,7.55,1.7,7.55,2.88s-2.94,2.88-7.55,2.88c-4.61,0-7.55-1.7-7.55-2.88
				S548,104.93,552.61,104.93 M552.61,103.93c-4.72,0-8.55,1.74-8.55,3.88s3.83,3.88,8.55,3.88s8.55-1.74,8.55-3.88
				S557.33,103.93,552.61,103.93L552.61,103.93z"/>
		</g>
		<g>
			<path class="st6" d="M551.75,107.74c-3.14,0-5.48-1.1-5.48-2.08c0-0.98,2.34-2.08,5.48-2.08s5.48,1.1,5.48,2.08
				C557.24,106.64,554.89,107.74,551.75,107.74z"/>
			<path class="st6" d="M551.75,104.07c3.24,0,4.98,1.12,4.98,1.58c0,0.46-1.75,1.58-4.98,1.58s-4.98-1.12-4.98-1.58
				C546.77,105.2,548.52,104.07,551.75,104.07 M551.75,103.07c-3.3,0-5.98,1.16-5.98,2.58s2.68,2.58,5.98,2.58s5.98-1.16,5.98-2.58
				S555.06,103.07,551.75,103.07L551.75,103.07z"/>
		</g>
		<g>
			<ellipse class="st6" cx="552.61" cy="109.97" rx="5.48" ry="2.08"/>
			<path class="st6" d="M552.61,108.38c3.24,0,4.98,1.12,4.98,1.58s-1.75,1.58-4.98,1.58s-4.98-1.12-4.98-1.58
				S549.37,108.38,552.61,108.38 M552.61,107.38c-3.3,0-5.98,1.16-5.98,2.58s2.68,2.58,5.98,2.58s5.98-1.16,5.98-2.58
				S555.91,107.38,552.61,107.38L552.61,107.38z"/>
		</g>
	</g>
	<g>
		<path class="st7" d="M552.61,91.6c5.51,0,10,4.49,10,10s-4.49,10-10,10s-10-4.49-10-10S547.09,91.6,552.61,91.6 M552.61,90.6
			c-6.08,0-11,4.92-11,11s4.92,11,11,11s11-4.92,11-11S558.68,90.6,552.61,90.6L552.61,90.6z"/>
	</g>
	<g>
		<path class="st7" d="M552.61,103.55c5.51,0,10,4.49,10,10s-4.49,10-10,10s-10-4.49-10-10S547.09,103.55,552.61,103.55
			 M552.61,102.55c-6.08,0-11,4.92-11,11s4.92,11,11,11s11-4.92,11-11S558.68,102.55,552.61,102.55L552.61,102.55z"/>
	</g>
	<line class="st4" x1="563.61" y1="137.89" x2="541.61" y2="137.89"/>
	<line class="st4" x1="552.61" y1="141.35" x2="552.61" y2="134.26"/>
	<g>
		<g>
			<polyline class="st8" points="521.16,70.29 517.63,61.74 513.75,70.33 			"/>
		</g>
		<line class="st8" x1="517.45" y1="70.27" x2="517.45" y2="91.06"/>
		<line class="st8" x1="513.7" y1="70.67" x2="521.2" y2="70.67"/>
	</g>
	<g>
		<g>
			<polyline class="st8" points="556.32,70.29 552.78,61.74 548.9,70.33 			"/>
		</g>
		<line class="st8" x1="552.61" y1="70.27" x2="552.61" y2="91.06"/>
		<line class="st8" x1="548.86" y1="70.67" x2="556.36" y2="70.67"/>
	</g>
	<text transform="matrix(0.6726 0 0 1 515.2106 54.2229)" class="st0 st1 st9">16</text>
	<text transform="matrix(0.6726 0 0 1 548.1204 54.2229)" class="st0 st1 st9">32</text>
	<text transform="matrix(0.6558 0 0 1 510.8893 191.0228)"><tspan x="0" y="0" class="st0 st1 st9">270</tspan><tspan x="-6.33" y="14.4" class="st0 st1 st9">KVAR</tspan></text>
	<text transform="matrix(0.6558 0 0 1 546.0435 191.0228)"><tspan x="0" y="0" class="st0 st1 st9">270</tspan><tspan x="-6.33" y="14.4" class="st0 st1 st9">KVAR</tspan></text>
	<line class="st4" x1="506.56" y1="141.57" x2="506.56" y2="134.48"/>
	<line class="st4" x1="541.56" y1="141.57" x2="541.56" y2="134.48"/>
	<line class="st4" x1="563.56" y1="141.57" x2="563.56" y2="134.48"/>
	<text transform="matrix(0.6558 0 0 1 520.5052 231.0228)"><tspan x="0" y="0" class="st0 st1 st9">KTP: 2-7</tspan><tspan x="-10.68" y="14.4" class="st0 st1 st9">2X1000 KVA</tspan></text>
</g>
<g>
	<rect x="573.53" y="214.5" class="st3" width="75" height="43.05"/>
	<line class="st4" x1="592.45" y1="141.13" x2="592.45" y2="134.04"/>
	<g>
		<line class="st4" x1="582.37" y1="169.73" x2="602.28" y2="169.73"/>
		<line class="st4" x1="582.4" y1="169.43" x2="592.35" y2="149.27"/>
		<line class="st4" x1="592.58" y1="149.27" x2="602.53" y2="169.43"/>
		<g>
			<rect x="590.5" y="165.74" class="st5" width="2.75" height="7.73"/>
			<g>
				<line class="st4" x1="590.75" y1="165.95" x2="590.75" y2="173.35"/>
				<line class="st4" x1="593.35" y1="165.95" x2="593.35" y2="173.35"/>
			</g>
		</g>
		<g>
			<polygon class="st5" points="590.82,158.66 589.43,161.43 583.73,157.51 585.13,154.74 			"/>
			<g>
				<line class="st4" x1="584.01" y1="157.36" x2="589.47" y2="161.12"/>
				<line class="st4" x1="585.33" y1="154.75" x2="590.79" y2="158.51"/>
			</g>
		</g>
		<g>
			<polygon class="st5" points="599.6,155.67 601.02,158.42 595.36,162.41 593.94,159.66 			"/>
			<g>
				<line class="st4" x1="595.38" y1="162.05" x2="600.81" y2="158.23"/>
				<line class="st4" x1="594.04" y1="159.46" x2="599.47" y2="155.63"/>
			</g>
		</g>
	</g>
	<line class="st4" x1="592.45" y1="123.96" x2="592.45" y2="148.96"/>
	<g>
		<g>
			<path class="st6" d="M592.46,111.19c-4.81,0-8.05-1.75-8.05-3.38s3.23-3.38,8.05-3.38s8.05,1.75,8.05,3.38
				S597.27,111.19,592.46,111.19z"/>
			<path class="st6" d="M592.45,104.93c4.61,0,7.55,1.7,7.55,2.88s-2.94,2.88-7.55,2.88s-7.55-1.7-7.55-2.88
				S587.85,104.93,592.45,104.93 M592.45,103.93c-4.72,0-8.55,1.74-8.55,3.88s3.83,3.88,8.55,3.88s8.55-1.74,8.55-3.88
				S597.17,103.93,592.45,103.93L592.45,103.93z"/>
		</g>
		<g>
			<path class="st6" d="M591.6,107.74c-3.14,0-5.48-1.1-5.48-2.08c0-0.98,2.34-2.08,5.48-2.08s5.48,1.1,5.48,2.08
				C597.08,106.64,594.74,107.74,591.6,107.74z"/>
			<path class="st6" d="M591.6,104.07c3.24,0,4.98,1.12,4.98,1.58c0,0.46-1.75,1.58-4.98,1.58s-4.98-1.12-4.98-1.58
				C586.62,105.2,588.36,104.07,591.6,104.07 M591.6,103.07c-3.3,0-5.98,1.16-5.98,2.58s2.68,2.58,5.98,2.58s5.98-1.16,5.98-2.58
				S594.9,103.07,591.6,103.07L591.6,103.07z"/>
		</g>
		<g>
			<path class="st6" d="M592.46,112.05c-3.14,0-5.48-1.1-5.48-2.08s2.34-2.08,5.48-2.08s5.48,1.1,5.48,2.08
				S595.59,112.05,592.46,112.05z"/>
			<path class="st6" d="M592.45,108.38c3.24,0,4.98,1.12,4.98,1.58s-1.75,1.58-4.98,1.58s-4.98-1.12-4.98-1.58
				S589.22,108.38,592.45,108.38 M592.45,107.38c-3.3,0-5.98,1.16-5.98,2.58s2.68,2.58,5.98,2.58s5.98-1.16,5.98-2.58
				S595.76,107.38,592.45,107.38L592.45,107.38z"/>
		</g>
	</g>
	<g>
		<path class="st7" d="M592.45,91.6c5.51,0,10,4.49,10,10s-4.49,10-10,10s-10-4.49-10-10S586.94,91.6,592.45,91.6 M592.45,90.6
			c-6.08,0-11,4.92-11,11s4.92,11,11,11s11-4.92,11-11S598.53,90.6,592.45,90.6L592.45,90.6z"/>
	</g>
	<g>
		<path class="st7" d="M592.45,103.55c5.51,0,10,4.49,10,10s-4.49,10-10,10s-10-4.49-10-10S586.94,103.55,592.45,103.55
			 M592.45,102.55c-6.08,0-11,4.92-11,11s4.92,11,11,11s11-4.92,11-11S598.53,102.55,592.45,102.55L592.45,102.55z"/>
	</g>
	<line class="st4" x1="603.45" y1="137.89" x2="581.45" y2="137.89"/>
	<line class="st4" x1="604.12" y1="141.35" x2="604.12" y2="134.26"/>
	<line class="st4" x1="627.61" y1="141.13" x2="627.61" y2="134.04"/>
	<g>
		<line class="st4" x1="617.53" y1="169.73" x2="637.43" y2="169.73"/>
		<line class="st4" x1="617.55" y1="169.43" x2="627.5" y2="149.27"/>
		<line class="st4" x1="627.74" y1="149.27" x2="637.69" y2="169.43"/>
		<g>
			<rect x="625.66" y="165.74" class="st5" width="2.75" height="7.73"/>
			<g>
				<line class="st4" x1="625.91" y1="165.95" x2="625.91" y2="173.35"/>
				<line class="st4" x1="628.5" y1="165.95" x2="628.5" y2="173.35"/>
			</g>
		</g>
		<g>
			<polygon class="st5" points="625.98,158.66 624.58,161.43 618.89,157.51 620.29,154.74 			"/>
			<g>
				<line class="st4" x1="619.17" y1="157.36" x2="624.62" y2="161.12"/>
				<line class="st4" x1="620.49" y1="154.75" x2="625.94" y2="158.51"/>
			</g>
		</g>
		<g>
			<polygon class="st5" points="634.75,155.67 636.18,158.42 630.52,162.41 629.1,159.66 			"/>
			<g>
				<line class="st4" x1="630.54" y1="162.05" x2="635.96" y2="158.23"/>
				<line class="st4" x1="629.2" y1="159.46" x2="634.62" y2="155.63"/>
			</g>
		</g>
	</g>
	<line class="st4" x1="627.61" y1="123.96" x2="627.61" y2="148.96"/>
	<g>
		<g>
			<path class="st6" d="M627.61,111.19c-4.81,0-8.05-1.75-8.05-3.38s3.23-3.38,8.05-3.38s8.05,1.75,8.05,3.38
				S632.42,111.19,627.61,111.19z"/>
			<path class="st6" d="M627.61,104.93c4.61,0,7.55,1.7,7.55,2.88s-2.94,2.88-7.55,2.88c-4.61,0-7.55-1.7-7.55-2.88
				S623,104.93,627.61,104.93 M627.61,103.93c-4.72,0-8.55,1.74-8.55,3.88s3.83,3.88,8.55,3.88s8.55-1.74,8.55-3.88
				S632.33,103.93,627.61,103.93L627.61,103.93z"/>
		</g>
		<g>
			<path class="st6" d="M626.75,107.74c-3.14,0-5.48-1.1-5.48-2.08c0-0.98,2.34-2.08,5.48-2.08s5.48,1.1,5.48,2.08
				C632.24,106.64,629.89,107.74,626.75,107.74z"/>
			<path class="st6" d="M626.75,104.07c3.24,0,4.98,1.12,4.98,1.58c0,0.46-1.75,1.58-4.98,1.58s-4.98-1.12-4.98-1.58
				C621.77,105.2,623.52,104.07,626.75,104.07 M626.75,103.07c-3.3,0-5.98,1.16-5.98,2.58s2.68,2.58,5.98,2.58s5.98-1.16,5.98-2.58
				S630.06,103.07,626.75,103.07L626.75,103.07z"/>
		</g>
		<g>
			<ellipse class="st6" cx="627.61" cy="109.97" rx="5.48" ry="2.08"/>
			<path class="st6" d="M627.61,108.38c3.24,0,4.98,1.12,4.98,1.58s-1.75,1.58-4.98,1.58s-4.98-1.12-4.98-1.58
				S624.37,108.38,627.61,108.38 M627.61,107.38c-3.3,0-5.98,1.16-5.98,2.58s2.68,2.58,5.98,2.58s5.98-1.16,5.98-2.58
				S630.91,107.38,627.61,107.38L627.61,107.38z"/>
		</g>
	</g>
	<g>
		<path class="st7" d="M627.61,91.6c5.51,0,10,4.49,10,10s-4.49,10-10,10s-10-4.49-10-10S622.09,91.6,627.61,91.6 M627.61,90.6
			c-6.08,0-11,4.92-11,11s4.92,11,11,11s11-4.92,11-11S633.68,90.6,627.61,90.6L627.61,90.6z"/>
	</g>
	<g>
		<path class="st7" d="M627.61,103.55c5.51,0,10,4.49,10,10s-4.49,10-10,10s-10-4.49-10-10S622.09,103.55,627.61,103.55
			 M627.61,102.55c-6.08,0-11,4.92-11,11s4.92,11,11,11s11-4.92,11-11S633.68,102.55,627.61,102.55L627.61,102.55z"/>
	</g>
	<line class="st4" x1="638.61" y1="137.89" x2="616.61" y2="137.89"/>
	<line class="st4" x1="627.61" y1="141.35" x2="627.61" y2="134.26"/>
	<g>
		<g>
			<polyline class="st8" points="596.16,70.29 592.63,61.74 588.75,70.33 			"/>
		</g>
		<line class="st8" x1="592.45" y1="70.27" x2="592.45" y2="91.06"/>
		<line class="st8" x1="588.7" y1="70.67" x2="596.2" y2="70.67"/>
	</g>
	<g>
		<g>
			<polyline class="st8" points="631.32,70.29 627.78,61.74 623.9,70.33 			"/>
		</g>
		<line class="st8" x1="627.61" y1="70.27" x2="627.61" y2="91.06"/>
		<line class="st8" x1="623.86" y1="70.67" x2="631.36" y2="70.67"/>
	</g>
	<text transform="matrix(0.6726 0 0 1 590.2106 54.2229)" class="st0 st1 st9">17</text>
	<text transform="matrix(0.6726 0 0 1 623.1204 54.2229)" class="st0 st1 st9">33</text>
	<text transform="matrix(0.6558 0 0 1 585.8893 191.0228)"><tspan x="0" y="0" class="st0 st1 st9">270</tspan><tspan x="-6.33" y="14.4" class="st0 st1 st9">KVAR</tspan></text>
	<text transform="matrix(0.6558 0 0 1 621.0435 191.0228)"><tspan x="0" y="0" class="st0 st1 st9">270</tspan><tspan x="-6.33" y="14.4" class="st0 st1 st9">KVAR</tspan></text>
	<line class="st4" x1="581.56" y1="141.57" x2="581.56" y2="134.48"/>
	<line class="st4" x1="616.56" y1="141.57" x2="616.56" y2="134.48"/>
	<line class="st4" x1="638.56" y1="141.57" x2="638.56" y2="134.48"/>
	<text transform="matrix(0.6558 0 0 1 595.5052 231.0228)"><tspan x="0" y="0" class="st0 st1 st9">KTP: 2-8</tspan><tspan x="-10.68" y="14.4" class="st0 st1 st9">2X1000 KVA</tspan></text>
</g>
</svg>
