<?xml version="1.0" encoding="utf-8"?>
<!-- Generator: Adobe Illustrator 27.1.1, SVG Export Plug-In . SVG Version: 6.00 Build 0)  -->
<svg version="1.1" id="Layer_1" xmlns="http://www.w3.org/2000/svg" xmlns:xlink="http://www.w3.org/1999/xlink" x="0px" y="0px"
	 viewBox="0 0 692 298" style="enable-background:new 0 0 692 298;" xml:space="preserve">
<style type="text/css">
	.st0{fill:#212830;}
	.st1{font-family:'ArialMT';}
	.st2{font-size:21px;}
	.st3{fill:none;stroke:#212830;stroke-linecap:square;stroke-miterlimit:10;}
	.st4{fill:none;stroke:#FF0000;stroke-linecap:square;stroke-miterlimit:10;}
	.st5{fill:#E6E6E6;stroke:#FF0000;stroke-miterlimit:10;}
	.st6{fill:#FF00FF;}
	.st7{fill:#FF0000;}
	.st8{fill:#FF0000;stroke:#FF0000;stroke-linecap:square;stroke-miterlimit:10;}
	.st9{font-size:12px;}
	.st10{font-size:14px;}
	.st11{font-family:'Arial-ItalicMT';}
</style>
<text transform="matrix(0.7128 0 0 1 264.5436 27.4981)" class="st0 st1 st2">TRẠM KTP7</text>
<rect x="228.07" y="216.25" class="st3" width="150" height="52"/>
<line class="st4" x1="288.3" y1="144.35" x2="288.3" y2="137.26"/>
<g>
	<line class="st4" x1="278.21" y1="172.95" x2="298.12" y2="172.95"/>
	<line class="st4" x1="278.24" y1="172.64" x2="288.19" y2="152.49"/>
	<line class="st4" x1="288.42" y1="152.49" x2="298.38" y2="172.64"/>
	<g>
		<rect x="286.34" y="168.96" class="st5" width="2.75" height="7.73"/>
		<g>
			<line class="st4" x1="286.6" y1="169.16" x2="286.6" y2="176.57"/>
			<line class="st4" x1="289.19" y1="169.16" x2="289.19" y2="176.57"/>
		</g>
	</g>
	<g>
		<polygon class="st5" points="286.66,161.88 285.27,164.65 279.57,160.73 280.97,157.95 		"/>
		<g>
			<line class="st4" x1="279.85" y1="160.58" x2="285.31" y2="164.34"/>
			<line class="st4" x1="281.17" y1="157.96" x2="286.63" y2="161.72"/>
		</g>
	</g>
	<g>
		<polygon class="st5" points="295.44,158.88 296.86,161.64 291.2,165.63 289.78,162.87 		"/>
		<g>
			<line class="st4" x1="291.22" y1="165.27" x2="296.65" y2="161.45"/>
			<line class="st4" x1="289.88" y1="162.67" x2="295.31" y2="158.85"/>
		</g>
	</g>
</g>
<line class="st4" x1="288.3" y1="127.18" x2="288.3" y2="152.18"/>
<g>
	<g>
		<path class="st6" d="M288.29,114.41c-4.81,0-8.05-1.75-8.05-3.38s3.23-3.38,8.05-3.38s8.05,1.75,8.05,3.38
			S293.11,114.41,288.29,114.41z"/>
		<path class="st6" d="M288.3,108.15c4.61,0,7.55,1.7,7.55,2.88s-2.94,2.88-7.55,2.88c-4.61,0-7.55-1.7-7.55-2.88
			S283.69,108.15,288.3,108.15 M288.3,107.15c-4.72,0-8.55,1.74-8.55,3.88s3.83,3.88,8.55,3.88s8.55-1.74,8.55-3.88
			S293.01,107.15,288.3,107.15L288.3,107.15z"/>
	</g>
	<g>
		<path class="st6" d="M287.44,110.96c-3.14,0-5.48-1.1-5.48-2.08c0-0.98,2.34-2.08,5.48-2.08s5.48,1.1,5.48,2.08
			C292.92,109.86,290.58,110.96,287.44,110.96z"/>
		<path class="st6" d="M287.44,107.29c3.24,0,4.98,1.12,4.98,1.58c0,0.46-1.75,1.58-4.98,1.58c-3.24,0-4.98-1.12-4.98-1.58
			C282.46,108.41,284.2,107.29,287.44,107.29 M287.44,106.29c-3.3,0-5.98,1.16-5.98,2.58s2.68,2.58,5.98,2.58
			c3.3,0,5.98-1.16,5.98-2.58S290.74,106.29,287.44,106.29L287.44,106.29z"/>
	</g>
	<g>
		<path class="st6" d="M288.29,115.27c-3.14,0-5.48-1.1-5.48-2.08s2.34-2.08,5.48-2.08s5.48,1.1,5.48,2.08
			S291.43,115.27,288.29,115.27z"/>
		<path class="st6" d="M288.3,111.6c3.24,0,4.98,1.12,4.98,1.58s-1.75,1.58-4.98,1.58c-3.24,0-4.98-1.12-4.98-1.58
			S285.06,111.6,288.3,111.6 M288.3,110.6c-3.3,0-5.98,1.16-5.98,2.58s2.68,2.58,5.98,2.58c3.3,0,5.98-1.16,5.98-2.58
			S291.6,110.6,288.3,110.6L288.3,110.6z"/>
	</g>
</g>
<g>
	<path class="st7" d="M288.3,94.82c5.51,0,10,4.49,10,10s-4.49,10-10,10c-5.51,0-10-4.49-10-10S282.78,94.82,288.3,94.82
		 M288.3,93.82c-6.08,0-11,4.92-11,11s4.92,11,11,11c6.08,0,11-4.92,11-11S294.37,93.82,288.3,93.82L288.3,93.82z"/>
</g>
<g>
	<path class="st7" d="M288.3,106.77c5.51,0,10,4.49,10,10s-4.49,10-10,10c-5.51,0-10-4.49-10-10S282.78,106.77,288.3,106.77
		 M288.3,105.77c-6.08,0-11,4.92-11,11s4.92,11,11,11c6.08,0,11-4.92,11-11S294.37,105.77,288.3,105.77L288.3,105.77z"/>
</g>
<line class="st4" x1="299.3" y1="141.1" x2="277.3" y2="141.1"/>
<line class="st4" x1="299.96" y1="144.57" x2="299.96" y2="137.48"/>
<line class="st4" x1="323.45" y1="144.35" x2="323.45" y2="137.26"/>
<g>
	<line class="st4" x1="313.37" y1="172.95" x2="333.27" y2="172.95"/>
	<line class="st4" x1="313.39" y1="172.64" x2="323.34" y2="152.49"/>
	<line class="st4" x1="323.58" y1="152.49" x2="333.53" y2="172.64"/>
	<g>
		<rect x="321.5" y="168.96" class="st5" width="2.75" height="7.73"/>
		<g>
			<line class="st4" x1="321.75" y1="169.16" x2="321.75" y2="176.57"/>
			<line class="st4" x1="324.34" y1="169.16" x2="324.34" y2="176.57"/>
		</g>
	</g>
	<g>
		<polygon class="st5" points="321.82,161.88 320.42,164.65 314.73,160.73 316.13,157.95 		"/>
		<g>
			<line class="st4" x1="315.01" y1="160.58" x2="320.46" y2="164.34"/>
			<line class="st4" x1="316.33" y1="157.96" x2="321.78" y2="161.72"/>
		</g>
	</g>
	<g>
		<polygon class="st5" points="330.59,158.88 332.02,161.64 326.36,165.63 324.94,162.87 		"/>
		<g>
			<line class="st4" x1="326.38" y1="165.27" x2="331.8" y2="161.45"/>
			<line class="st4" x1="325.04" y1="162.67" x2="330.46" y2="158.85"/>
		</g>
	</g>
</g>
<line class="st4" x1="323.45" y1="127.18" x2="323.45" y2="152.18"/>
<g>
	<g>
		<path class="st6" d="M323.45,114.41c-4.81,0-8.05-1.75-8.05-3.38s3.23-3.38,8.05-3.38s8.05,1.75,8.05,3.38
			S328.26,114.41,323.45,114.41z"/>
		<path class="st6" d="M323.45,108.15c4.61,0,7.55,1.7,7.55,2.88s-2.94,2.88-7.55,2.88c-4.61,0-7.55-1.7-7.55-2.88
			S318.84,108.15,323.45,108.15 M323.45,107.15c-4.72,0-8.55,1.74-8.55,3.88s3.83,3.88,8.55,3.88s8.55-1.74,8.55-3.88
			S328.17,107.15,323.45,107.15L323.45,107.15z"/>
	</g>
	<g>
		<path class="st6" d="M322.59,110.96c-3.14,0-5.48-1.1-5.48-2.08c0-0.98,2.34-2.08,5.48-2.08s5.48,1.1,5.48,2.08
			C328.08,109.86,325.73,110.96,322.59,110.96z"/>
		<path class="st6" d="M322.59,107.29c3.24,0,4.98,1.12,4.98,1.58c0,0.46-1.75,1.58-4.98,1.58c-3.24,0-4.98-1.12-4.98-1.58
			C317.61,108.41,319.36,107.29,322.59,107.29 M322.59,106.29c-3.3,0-5.98,1.16-5.98,2.58s2.68,2.58,5.98,2.58
			c3.3,0,5.98-1.16,5.98-2.58S325.9,106.29,322.59,106.29L322.59,106.29z"/>
	</g>
	<g>
		<ellipse class="st6" cx="323.45" cy="113.18" rx="5.48" ry="2.08"/>
		<path class="st6" d="M323.45,111.6c3.24,0,4.98,1.12,4.98,1.58s-1.75,1.58-4.98,1.58c-3.24,0-4.98-1.12-4.98-1.58
			S320.21,111.6,323.45,111.6 M323.45,110.6c-3.3,0-5.98,1.16-5.98,2.58s2.68,2.58,5.98,2.58c3.3,0,5.98-1.16,5.98-2.58
			S326.75,110.6,323.45,110.6L323.45,110.6z"/>
	</g>
</g>
<g>
	<path class="st7" d="M323.45,94.82c5.51,0,10,4.49,10,10s-4.49,10-10,10c-5.51,0-10-4.49-10-10S317.94,94.82,323.45,94.82
		 M323.45,93.82c-6.08,0-11,4.92-11,11s4.92,11,11,11c6.08,0,11-4.92,11-11S329.52,93.82,323.45,93.82L323.45,93.82z"/>
</g>
<g>
	<path class="st7" d="M323.45,106.77c5.51,0,10,4.49,10,10s-4.49,10-10,10c-5.51,0-10-4.49-10-10S317.94,106.77,323.45,106.77
		 M323.45,105.77c-6.08,0-11,4.92-11,11s4.92,11,11,11c6.08,0,11-4.92,11-11S329.52,105.77,323.45,105.77L323.45,105.77z"/>
</g>
<line class="st4" x1="334.45" y1="141.1" x2="312.45" y2="141.1"/>
<line class="st4" x1="323.45" y1="144.57" x2="323.45" y2="137.48"/>
<g>
	<g>
		<polyline class="st8" points="292,73.51 288.47,64.96 284.59,73.54 		"/>
	</g>
	<line class="st8" x1="288.3" y1="73.49" x2="288.3" y2="94.28"/>
	<line class="st8" x1="284.55" y1="73.89" x2="292.05" y2="73.89"/>
</g>
<g>
	<g>
		<polyline class="st8" points="327.16,73.51 323.62,64.96 319.74,73.54 		"/>
	</g>
	<line class="st8" x1="323.45" y1="73.49" x2="323.45" y2="94.28"/>
	<line class="st8" x1="319.7" y1="73.89" x2="327.2" y2="73.89"/>
</g>
<text transform="matrix(0.6726 0 0 1 283.0508 57.4397)" class="st0 st1 st9">675</text>
<text transform="matrix(0.6726 0 0 1 318.9606 57.4397)" class="st0 st1 st9">680</text>
<text transform="matrix(0.6558 0 0 1 292.9165 194.2396)"><tspan x="0" y="0" class="st0 st1 st9">4X135</tspan><tspan x="1.01" y="14.4" class="st0 st1 st9">KVAR</tspan></text>
<line class="st4" x1="277.4" y1="144.78" x2="277.4" y2="137.69"/>
<line class="st4" x1="312.4" y1="144.78" x2="312.4" y2="137.69"/>
<line class="st4" x1="334.4" y1="144.78" x2="334.4" y2="137.69"/>
<text transform="matrix(0.6558 0 0 1 293.226 238.2503)"><tspan x="0" y="0" class="st0 st1 st9">KTP7</tspan><tspan x="-16.02" y="14.4" class="st0 st1 st9">2X630 KVA</tspan></text>
<rect x="228.07" y="268.55" class="st3" width="150" height="21.79"/>
<text transform="matrix(0.7128 0 0 1 245.0117 283.4525)" class="st0 st1 st10">TRẠM BƠM TUẦN HOÀN</text>
<text transform="matrix(0.6558 0 0 1 366.1308 105.0005)"><tspan x="0" y="0" class="st0 st1 st9">2X1000 KVA</tspan><tspan x="-35.18" y="14.4" class="st0 st11 st9">TRẠM BƠM TUẦN HOÀN</tspan></text>
</svg>
