<?xml version="1.0" encoding="utf-8"?>
<!-- Generator: Adobe Illustrator 27.1.1, SVG Export Plug-In . SVG Version: 6.00 Build 0)  -->
<svg version="1.1" id="Layer_1" xmlns="http://www.w3.org/2000/svg" xmlns:xlink="http://www.w3.org/1999/xlink" x="0px" y="0px"
	 viewBox="0 0 647 283" style="enable-background:new 0 0 647 283;" xml:space="preserve">
<style type="text/css">
	.st0{fill:#212830;}
	.st1{font-family:'ArialMT';}
	.st2{font-size:24px;}
	.st3{fill:none;stroke:#0000FF;stroke-width:0.75;stroke-linecap:square;stroke-miterlimit:10;}
	.st4{fill:none;stroke:#00FF00;stroke-width:0.75;stroke-linecap:square;stroke-miterlimit:10;}
	.st5{fill:none;stroke:#FF0000;stroke-width:0.75;stroke-linecap:square;stroke-miterlimit:10;}
	.st6{fill:none;stroke:#FF0000;stroke-linecap:square;stroke-miterlimit:10;}
	.st7{fill:none;stroke:#FF0000;stroke-miterlimit:10;}
	.st8{fill:none;stroke:#00FF00;stroke-miterlimit:10;}
	.st9{fill:none;stroke:#00FF00;stroke-linecap:square;stroke-miterlimit:10;}
	.st10{fill:none;stroke:#0000FF;stroke-miterlimit:10;}
	.st11{fill:none;stroke:#0000FF;stroke-linecap:square;stroke-miterlimit:10;}
	.st12{font-size:8.6788px;}
	.st13{fill:#0000FF;stroke:#0000FF;stroke-linecap:square;stroke-miterlimit:10;}
	.st14{font-family:'Arial-ItalicMT';}
	.st15{font-size:10px;}
	.st16{font-size:20px;}
	.st17{fill:none;stroke:#000000;stroke-linecap:square;stroke-miterlimit:10;}
	.st18{fill:#FF0000;stroke:#FF0000;stroke-linecap:square;stroke-miterlimit:10;}
	.st19{fill:#FF0000;}
</style>
<text transform="matrix(0.7128 0 0 1 235.0811 24.0745)" class="st0 st1 st2">TRẠM BIẾN ÁP 110KV</text>
<g>
	<line class="st3" x1="166.21" y1="123.73" x2="173.56" y2="129.8"/>
	<line class="st3" x1="173.56" y1="129.8" x2="180.91" y2="123.73"/>
	<line class="st3" x1="173.56" y1="129.8" x2="173.56" y2="137.98"/>
</g>
<circle class="st3" cx="173.56" cy="133.56" r="20.5"/>
<circle class="st4" cx="173.56" cy="164.32" r="20.5"/>
<circle class="st5" cx="202.68" cy="148.47" r="20.5"/>
<g>
	<line class="st4" x1="166.21" y1="162.71" x2="173.56" y2="168.78"/>
	<line class="st4" x1="173.56" y1="168.78" x2="180.91" y2="162.71"/>
	<line class="st4" x1="173.56" y1="168.78" x2="173.56" y2="176.96"/>
</g>
<g>
	<line class="st5" x1="195.35" y1="145.81" x2="203.45" y2="159.9"/>
	<line class="st5" x1="203.45" y1="159.9" x2="210.81" y2="145.81"/>
	<line class="st5" x1="210.82" y1="145.05" x2="195.39" y2="145.05"/>
</g>
<g>
	<line class="st6" x1="248.14" y1="261.52" x2="232.14" y2="261.52"/>
	<line class="st6" x1="244.94" y1="266.7" x2="234.94" y2="266.7"/>
	<line class="st6" x1="242.44" y1="270.7" x2="237.44" y2="270.7"/>
</g>
<line class="st6" x1="240.14" y1="148.5" x2="240.14" y2="205.5"/>
<line class="st6" x1="223.77" y1="148.02" x2="260.05" y2="148.02"/>
<g>
	<rect x="235.15" y="206.7" class="st7" width="10" height="36"/>
	<line class="st6" x1="245.15" y1="214.7" x2="235.15" y2="214.7"/>
	<line class="st6" x1="244.56" y1="214.58" x2="235.41" y2="207.35"/>
	<line class="st6" x1="245.06" y1="206.88" x2="236.2" y2="214.46"/>
	<line class="st6" x1="244.32" y1="219.7" x2="235.12" y2="219.7"/>
	<line class="st6" x1="244.75" y1="228.7" x2="235.55" y2="228.7"/>
	<line class="st6" x1="244.75" y1="237.7" x2="235.55" y2="237.7"/>
	<line class="st6" x1="241.29" y1="219.21" x2="244.56" y2="215.67"/>
</g>
<g>
	<rect x="167.57" y="206.7" class="st8" width="10" height="36"/>
	<line class="st9" x1="177.57" y1="214.7" x2="167.57" y2="214.7"/>
	<line class="st9" x1="176.98" y1="214.58" x2="167.82" y2="207.35"/>
	<line class="st9" x1="177.48" y1="206.88" x2="168.61" y2="214.46"/>
	<line class="st9" x1="176.74" y1="219.7" x2="167.54" y2="219.7"/>
	<line class="st9" x1="177.17" y1="228.7" x2="167.97" y2="228.7"/>
	<line class="st9" x1="177.17" y1="237.7" x2="167.97" y2="237.7"/>
	<line class="st9" x1="173.71" y1="219.21" x2="176.97" y2="215.67"/>
</g>
<g>
	<rect x="93.87" y="184.56" class="st10" width="10" height="36"/>
	<line class="st11" x1="103.87" y1="192.56" x2="93.87" y2="192.56"/>
	<line class="st11" x1="103.29" y1="192.44" x2="94.13" y2="185.21"/>
	<line class="st11" x1="103.78" y1="184.74" x2="94.92" y2="192.32"/>
	<line class="st11" x1="103.04" y1="197.56" x2="93.84" y2="197.56"/>
	<line class="st11" x1="103.47" y1="206.56" x2="94.27" y2="206.56"/>
	<line class="st11" x1="103.47" y1="215.56" x2="94.27" y2="215.56"/>
	<line class="st11" x1="100.01" y1="197.07" x2="103.28" y2="193.52"/>
</g>
<line class="st9" x1="172.55" y1="242.92" x2="172.55" y2="260.92"/>
<g>
	<line class="st9" x1="180.55" y1="261.52" x2="164.55" y2="261.52"/>
	<line class="st9" x1="177.36" y1="266.7" x2="167.36" y2="266.7"/>
	<line class="st9" x1="174.86" y1="270.7" x2="169.86" y2="270.7"/>
</g>
<line class="st11" x1="98.86" y1="221" x2="98.86" y2="261.67"/>
<g>
	<line class="st11" x1="106.86" y1="261.52" x2="90.86" y2="261.52"/>
	<line class="st11" x1="103.86" y1="266.7" x2="93.86" y2="266.7"/>
	<line class="st11" x1="101.36" y1="270.7" x2="96.36" y2="270.7"/>
</g>
<line class="st9" x1="172.55" y1="185.5" x2="172.55" y2="205.5"/>
<line class="st11" x1="99.5" y1="133" x2="99.5" y2="185"/>
<line class="st6" x1="239.98" y1="243.36" x2="239.98" y2="261.36"/>
<line class="st11" x1="41" y1="133.36" x2="152.12" y2="133.36"/>
<g>
	<line class="st11" x1="40.86" y1="178.56" x2="40.86" y2="190.88"/>
	<line class="st11" x1="40.9" y1="212.08" x2="53.2" y2="184.56"/>
	<line class="st11" x1="40.86" y1="212.04" x2="40.86" y2="226.56"/>
</g>
<line class="st11" x1="40.86" y1="227" x2="40.86" y2="260.75"/>
<g>
	<line class="st11" x1="48.98" y1="261.52" x2="32.98" y2="261.52"/>
	<line class="st11" x1="45.98" y1="266.7" x2="35.98" y2="266.7"/>
	<line class="st11" x1="43.48" y1="270.7" x2="38.48" y2="270.7"/>
</g>
<line class="st11" x1="40.86" y1="133" x2="40.86" y2="178.5"/>
<text transform="matrix(0.7156 0 0 1 253.9151 228.7513)" class="st0 st1 st12">CS3T1</text>
<text transform="matrix(0.7156 0 0 1 15.751 202.4424)" class="st0 st1 st12">131-08</text>
<text transform="matrix(0.7156 0 0 1 106.751 207.4424)" class="st0 st1 st12">CS0T1</text>
<text transform="matrix(0.7156 0 0 1 181.751 228.4424)" class="st0 st1 st12">CS6T1</text>
<line class="st11" x1="204.17" y1="108.78" x2="142.6" y2="165.73"/>
<polyline class="st13" points="202.73,113.56 209.41,104.74 199.78,110.34 "/>
<text transform="matrix(0.7096 0 0 1 107.5627 89.2084)" class="st0 st14 st15">40.000KVA </text>
<text transform="matrix(0.7096 0 0 1 86.5627 98.2084)" class="st0 st14 st16">T1</text>
<line class="st17" x1="108.71" y1="93.36" x2="152" y2="93.36"/>
<text transform="matrix(0.7096 0 0 1 107.7283 105.0276)" class="st0 st14 st15">115/35/6,6KV </text>
<line class="st11" x1="172.85" y1="105" x2="172.85" y2="112"/>
<line class="st6" x1="260.5" y1="91.5" x2="260.5" y2="148.5"/>
<line class="st6" x1="260.92" y1="91.36" x2="297.2" y2="91.36"/>
<g>
	<polyline class="st18" points="296.8,94.77 305.35,91.23 296.77,87.36 	"/>
</g>
<text transform="matrix(0.7096 0 0 1 293.5123 81.6936)" class="st19 st14 st16">T1</text>
<g>
	<line class="st3" x1="486.09" y1="123.73" x2="493.44" y2="129.8"/>
	<line class="st3" x1="493.44" y1="129.8" x2="500.79" y2="123.73"/>
	<line class="st3" x1="493.44" y1="129.8" x2="493.44" y2="137.98"/>
</g>
<circle class="st3" cx="493.44" cy="133.56" r="20.5"/>
<circle class="st4" cx="493.44" cy="164.32" r="20.5"/>
<circle class="st5" cx="522.56" cy="148.47" r="20.5"/>
<g>
	<line class="st4" x1="486.09" y1="162.71" x2="493.44" y2="168.78"/>
	<line class="st4" x1="493.44" y1="168.78" x2="500.79" y2="162.71"/>
	<line class="st4" x1="493.44" y1="168.78" x2="493.44" y2="176.96"/>
</g>
<g>
	<line class="st5" x1="515.23" y1="145.81" x2="523.33" y2="159.9"/>
	<line class="st5" x1="523.33" y1="159.9" x2="530.69" y2="145.81"/>
	<line class="st5" x1="530.7" y1="145.05" x2="515.27" y2="145.05"/>
</g>
<g>
	<line class="st6" x1="568.02" y1="261.52" x2="552.02" y2="261.52"/>
	<line class="st6" x1="564.82" y1="266.7" x2="554.82" y2="266.7"/>
	<line class="st6" x1="562.32" y1="270.7" x2="557.32" y2="270.7"/>
</g>
<line class="st6" x1="560.02" y1="148.5" x2="560.02" y2="205.5"/>
<line class="st6" x1="543.66" y1="148.02" x2="579.94" y2="148.02"/>
<g>
	<rect x="555.03" y="206.7" class="st7" width="10" height="36"/>
	<line class="st6" x1="565.03" y1="214.7" x2="555.03" y2="214.7"/>
	<line class="st6" x1="564.45" y1="214.58" x2="555.29" y2="207.35"/>
	<line class="st6" x1="564.94" y1="206.88" x2="556.08" y2="214.46"/>
	<line class="st6" x1="564.2" y1="219.7" x2="555" y2="219.7"/>
	<line class="st6" x1="564.63" y1="228.7" x2="555.43" y2="228.7"/>
	<line class="st6" x1="564.63" y1="237.7" x2="555.43" y2="237.7"/>
	<line class="st6" x1="561.17" y1="219.21" x2="564.44" y2="215.67"/>
</g>
<g>
	<rect x="487.45" y="206.7" class="st8" width="10" height="36"/>
	<line class="st9" x1="497.45" y1="214.7" x2="487.45" y2="214.7"/>
	<line class="st9" x1="496.86" y1="214.58" x2="487.71" y2="207.35"/>
	<line class="st9" x1="497.36" y1="206.88" x2="488.49" y2="214.46"/>
	<line class="st9" x1="496.62" y1="219.7" x2="487.42" y2="219.7"/>
	<line class="st9" x1="497.05" y1="228.7" x2="487.85" y2="228.7"/>
	<line class="st9" x1="497.05" y1="237.7" x2="487.85" y2="237.7"/>
	<line class="st9" x1="493.59" y1="219.21" x2="496.86" y2="215.67"/>
</g>
<g>
	<rect x="413.75" y="184.56" class="st10" width="10" height="36"/>
	<line class="st11" x1="423.75" y1="192.56" x2="413.75" y2="192.56"/>
	<line class="st11" x1="423.17" y1="192.44" x2="414.01" y2="185.21"/>
	<line class="st11" x1="423.66" y1="184.74" x2="414.8" y2="192.32"/>
	<line class="st11" x1="422.92" y1="197.56" x2="413.72" y2="197.56"/>
	<line class="st11" x1="423.35" y1="206.56" x2="414.15" y2="206.56"/>
	<line class="st11" x1="423.35" y1="215.56" x2="414.15" y2="215.56"/>
	<line class="st11" x1="419.89" y1="197.07" x2="423.16" y2="193.52"/>
</g>
<line class="st9" x1="492.43" y1="242.92" x2="492.43" y2="260.92"/>
<g>
	<line class="st9" x1="500.43" y1="261.52" x2="484.43" y2="261.52"/>
	<line class="st9" x1="497.24" y1="266.7" x2="487.24" y2="266.7"/>
	<line class="st9" x1="494.74" y1="270.7" x2="489.74" y2="270.7"/>
</g>
<line class="st11" x1="418.74" y1="221" x2="418.74" y2="261.67"/>
<g>
	<line class="st11" x1="426.74" y1="261.52" x2="410.74" y2="261.52"/>
	<line class="st11" x1="423.74" y1="266.7" x2="413.74" y2="266.7"/>
	<line class="st11" x1="421.24" y1="270.7" x2="416.24" y2="270.7"/>
</g>
<line class="st9" x1="492.43" y1="185.5" x2="492.43" y2="205.5"/>
<line class="st11" x1="419.38" y1="133" x2="419.38" y2="185"/>
<line class="st6" x1="559.86" y1="243.36" x2="559.86" y2="261.36"/>
<line class="st11" x1="360.88" y1="133.36" x2="472" y2="133.36"/>
<g>
	<line class="st11" x1="360.74" y1="178.56" x2="360.74" y2="190.88"/>
	<line class="st11" x1="360.78" y1="212.08" x2="373.08" y2="184.56"/>
	<line class="st11" x1="360.74" y1="212.04" x2="360.74" y2="226.56"/>
</g>
<line class="st11" x1="360.74" y1="227" x2="360.74" y2="260.75"/>
<g>
	<line class="st11" x1="368.86" y1="261.52" x2="352.86" y2="261.52"/>
	<line class="st11" x1="365.86" y1="266.7" x2="355.86" y2="266.7"/>
	<line class="st11" x1="363.36" y1="270.7" x2="358.36" y2="270.7"/>
</g>
<line class="st11" x1="360.74" y1="133" x2="360.74" y2="178.5"/>
<text transform="matrix(0.7156 0 0 1 573.7958 228.7513)" class="st0 st1 st12">CS3T2</text>
<text transform="matrix(0.7156 0 0 1 335.6318 202.4424)" class="st0 st1 st12">132-08</text>
<text transform="matrix(0.7156 0 0 1 426.6317 207.4424)" class="st0 st1 st12">CS0T2</text>
<text transform="matrix(0.7156 0 0 1 501.6317 228.4424)" class="st0 st1 st12">CS6T2</text>
<line class="st11" x1="524.05" y1="108.78" x2="462.48" y2="165.73"/>
<polyline class="st13" points="522.61,113.56 529.29,104.74 519.66,110.34 "/>
<text transform="matrix(0.7096 0 0 1 427.4435 89.2084)" class="st0 st14 st15">40.000KVA </text>
<text transform="matrix(0.7096 0 0 1 406.4435 98.2084)" class="st0 st14 st16">T2</text>
<line class="st17" x1="428.59" y1="93.36" x2="471.88" y2="93.36"/>
<text transform="matrix(0.7096 0 0 1 427.609 105.0276)" class="st0 st14 st15">115/35/6,6KV </text>
<line class="st11" x1="492.73" y1="105" x2="492.73" y2="112"/>
<line class="st6" x1="580.38" y1="91.5" x2="580.38" y2="148.5"/>
<line class="st6" x1="580.8" y1="91.36" x2="617.08" y2="91.36"/>
<g>
	<polyline class="st18" points="616.68,94.77 625.23,91.23 616.65,87.36 	"/>
</g>
<text transform="matrix(0.7096 0 0 1 613.3931 81.6936)" class="st19 st14 st16">T2</text>
</svg>
