<?xml version="1.0" encoding="utf-8"?>
<!-- Generator: Adobe Illustrator 27.1.1, SVG Export Plug-In . SVG Version: 6.00 Build 0)  -->
<svg version="1.1" id="Layer_1" xmlns="http://www.w3.org/2000/svg" xmlns:xlink="http://www.w3.org/1999/xlink" x="0px" y="0px"
	 viewBox="0 0 692 363" style="enable-background:new 0 0 692 363;" xml:space="preserve">
<style type="text/css">
	.st0{fill:none;stroke:#212830;stroke-linecap:square;stroke-miterlimit:10;}
	.st1{fill:none;stroke:#000000;stroke-miterlimit:10;}
	.st2{stroke:#000000;stroke-linecap:square;stroke-miterlimit:10;}
	.st3{fill:#212830;}
	.st4{font-family:'ArialMT';}
	.st5{font-size:21px;}
	.st6{font-size:12px;}
	.st7{fill:none;stroke:#FF0000;stroke-linecap:square;stroke-miterlimit:10;}
	.st8{fill:#FF0000;stroke:#FF0000;stroke-linecap:square;stroke-miterlimit:10;}
	.st9{font-family:'Arial-ItalicMT';}
	.st10{fill:#F7931E;}
	.st11{fill:#F15A24;}
	.st12{font-size:14px;}
	.st13{fill:#FF0000;}
	.st14{fill:#E6E6E6;stroke:#FF0000;stroke-miterlimit:10;}
	.st15{fill:#FF00FF;}
</style>
<g>
	<line class="st0" x1="504.71" y1="167.16" x2="504.71" y2="138.52"/>
	<g>
		<rect x="500.21" y="180.51" class="st1" width="9" height="17"/>
		<line class="st0" x1="504.71" y1="179.93" x2="504.71" y2="172.51"/>
		<line class="st0" x1="504.71" y1="205.93" x2="504.71" y2="197.9"/>
		<g>
			<line class="st0" x1="500.96" y1="175.26" x2="504.44" y2="171.76"/>
			<line class="st0" x1="508.46" y1="175.26" x2="504.98" y2="171.76"/>
		</g>
		<g>
			<line class="st0" x1="500.96" y1="171.13" x2="504.44" y2="167.63"/>
			<line class="st0" x1="508.46" y1="171.13" x2="504.98" y2="167.63"/>
		</g>
		<g>
			<line class="st0" x1="508.46" y1="202.63" x2="504.98" y2="206.13"/>
			<line class="st0" x1="500.96" y1="202.63" x2="504.44" y2="206.13"/>
		</g>
		<g>
			<line class="st0" x1="508.46" y1="206.63" x2="504.98" y2="210.13"/>
			<line class="st0" x1="500.96" y1="206.63" x2="504.44" y2="210.13"/>
		</g>
	</g>
	<g>
		<g>
			<polyline class="st2" points="501.01,231.71 504.54,240.26 508.42,231.67 			"/>
		</g>
		<line class="st0" x1="504.71" y1="231.73" x2="504.71" y2="210.94"/>
		<line class="st0" x1="508.46" y1="231.33" x2="500.96" y2="231.33"/>
	</g>
</g>
<g>
	<line class="st0" x1="540.4" y1="167.16" x2="540.4" y2="138.52"/>
	<g>
		<rect x="535.9" y="180.51" class="st1" width="9" height="17"/>
		<line class="st0" x1="540.4" y1="179.93" x2="540.4" y2="172.51"/>
		<line class="st0" x1="540.4" y1="205.93" x2="540.4" y2="197.9"/>
		<g>
			<line class="st0" x1="536.65" y1="175.26" x2="540.13" y2="171.76"/>
			<line class="st0" x1="544.15" y1="175.26" x2="540.67" y2="171.76"/>
		</g>
		<g>
			<line class="st0" x1="536.65" y1="171.13" x2="540.13" y2="167.63"/>
			<line class="st0" x1="544.15" y1="171.13" x2="540.67" y2="167.63"/>
		</g>
		<g>
			<line class="st0" x1="544.15" y1="202.63" x2="540.67" y2="206.13"/>
			<line class="st0" x1="536.65" y1="202.63" x2="540.13" y2="206.13"/>
		</g>
		<g>
			<line class="st0" x1="544.15" y1="206.63" x2="540.67" y2="210.13"/>
			<line class="st0" x1="536.65" y1="206.63" x2="540.13" y2="210.13"/>
		</g>
	</g>
	<g>
		<g>
			<polyline class="st2" points="536.69,231.71 540.23,240.26 544.11,231.67 			"/>
		</g>
		<line class="st0" x1="540.4" y1="231.73" x2="540.4" y2="210.94"/>
		<line class="st0" x1="544.15" y1="231.33" x2="536.65" y2="231.33"/>
	</g>
</g>
<g>
	<line class="st0" x1="575.93" y1="167.16" x2="575.93" y2="138.52"/>
	<g>
		<rect x="571.43" y="180.51" class="st1" width="9" height="17"/>
		<line class="st0" x1="575.93" y1="179.93" x2="575.93" y2="172.51"/>
		<line class="st0" x1="575.93" y1="205.93" x2="575.93" y2="197.9"/>
		<g>
			<line class="st0" x1="572.18" y1="175.26" x2="575.66" y2="171.76"/>
			<line class="st0" x1="579.68" y1="175.26" x2="576.2" y2="171.76"/>
		</g>
		<g>
			<line class="st0" x1="572.18" y1="171.13" x2="575.66" y2="167.63"/>
			<line class="st0" x1="579.68" y1="171.13" x2="576.2" y2="167.63"/>
		</g>
		<g>
			<line class="st0" x1="579.68" y1="202.63" x2="576.2" y2="206.13"/>
			<line class="st0" x1="572.18" y1="202.63" x2="575.66" y2="206.13"/>
		</g>
		<g>
			<line class="st0" x1="579.68" y1="206.63" x2="576.2" y2="210.13"/>
			<line class="st0" x1="572.18" y1="206.63" x2="575.66" y2="210.13"/>
		</g>
	</g>
	<g>
		<g>
			<polyline class="st2" points="572.22,231.71 575.76,240.26 579.64,231.67 			"/>
		</g>
		<line class="st0" x1="575.93" y1="231.73" x2="575.93" y2="210.94"/>
		<line class="st0" x1="579.68" y1="231.33" x2="572.18" y2="231.33"/>
	</g>
</g>
<text transform="matrix(0.7128 0 0 1 327.5436 27.4981)" class="st3 st4 st5">TRẠM RP3</text>
<text transform="matrix(0.6726 0 0 1 131.6386 130.1914)" class="st3 st4 st6">16</text>
<g>
	<rect x="122.84" y="87.46" class="st1" width="9" height="17"/>
	<line class="st0" x1="127.34" y1="86.88" x2="127.34" y2="79.46"/>
	<line class="st0" x1="127.34" y1="112.88" x2="127.34" y2="104.85"/>
	<g>
		<line class="st0" x1="123.59" y1="82.21" x2="127.07" y2="78.71"/>
		<line class="st0" x1="131.09" y1="82.21" x2="127.61" y2="78.71"/>
	</g>
	<g>
		<line class="st7" x1="123.59" y1="78.09" x2="127.07" y2="74.59"/>
		<line class="st7" x1="131.09" y1="78.09" x2="127.61" y2="74.59"/>
	</g>
	<g>
		<line class="st0" x1="131.09" y1="109.59" x2="127.61" y2="113.09"/>
		<line class="st0" x1="123.59" y1="109.59" x2="127.07" y2="113.09"/>
	</g>
	<g>
		<line class="st0" x1="131.09" y1="113.59" x2="127.61" y2="117.09"/>
		<line class="st0" x1="123.59" y1="113.59" x2="127.07" y2="117.09"/>
	</g>
</g>
<g>
	<line class="st0" x1="186.17" y1="112.88" x2="186.17" y2="79.16"/>
	<g>
		<line class="st0" x1="182.42" y1="82.21" x2="185.9" y2="78.71"/>
		<line class="st0" x1="189.92" y1="82.21" x2="186.43" y2="78.71"/>
	</g>
	<g>
		<line class="st7" x1="182.42" y1="78.09" x2="185.9" y2="74.59"/>
		<line class="st7" x1="189.92" y1="78.09" x2="186.43" y2="74.59"/>
	</g>
	<g>
		<line class="st0" x1="189.92" y1="109.59" x2="186.43" y2="113.09"/>
		<line class="st0" x1="182.42" y1="109.59" x2="185.9" y2="113.09"/>
	</g>
	<g>
		<line class="st0" x1="189.92" y1="113.59" x2="186.43" y2="117.09"/>
		<line class="st0" x1="182.42" y1="113.59" x2="185.9" y2="117.09"/>
	</g>
</g>
<line class="st0" x1="185.99" y1="132.52" x2="185.99" y2="117.52"/>
<line class="st0" x1="126.99" y1="132.57" x2="126.99" y2="117.57"/>
<line class="st8" x1="127.45" y1="60.02" x2="186.5" y2="60.02"/>
<line class="st8" x1="127.6" y1="74.94" x2="127.6" y2="59.94"/>
<line class="st8" x1="186.6" y1="74.94" x2="186.6" y2="59.94"/>
<text transform="matrix(0.7096 0 0 1 78.6534 155.4373)" class="st3 st9 st6">PHÂN ĐOẠN 1</text>
<rect x="172.13" y="132.89" class="st10" width="426.37" height="6"/>
<rect x="250.88" y="132.77" class="st11" width="5.41" height="5.5"/>
<rect x="286.93" y="132.77" class="st11" width="5.41" height="5.5"/>
<rect x="183.36" y="132.77" class="st11" width="5.41" height="5.5"/>
<rect x="215.93" y="132.77" class="st11" width="5.41" height="5.5"/>
<text transform="matrix(0.4589 0 0 1 190.7032 129.6183)" class="st3 st4 st6">17</text>
<text transform="matrix(0.6726 0 0 1 216.2746 129.6179)" class="st3 st4 st6">19</text>
<text transform="matrix(0.6726 0 0 1 252.2252 129.6179)" class="st3 st4 st6">20</text>
<text transform="matrix(0.6726 0 0 1 288.2718 129.6179)" class="st3 st4 st6">21</text>
<rect x="323.45" y="132.77" class="st11" width="5.41" height="5.5"/>
<text transform="matrix(0.6726 0 0 1 324.7912 129.6181)" class="st3 st4 st6">22</text>
<rect x="359.87" y="132.77" class="st11" width="5.41" height="5.5"/>
<text transform="matrix(0.6726 0 0 1 360.2153 129.6179)" class="st3 st4 st6">23</text>
<g>
	<rect x="393.8" y="88.02" class="st1" width="9" height="17"/>
	<line class="st0" x1="398.3" y1="87.44" x2="398.3" y2="80.02"/>
	<line class="st0" x1="398.3" y1="113.44" x2="398.3" y2="105.41"/>
	<g>
		<line class="st0" x1="394.55" y1="82.77" x2="398.03" y2="79.27"/>
		<line class="st0" x1="402.05" y1="82.77" x2="398.56" y2="79.27"/>
	</g>
	<g>
		<line class="st7" x1="394.55" y1="78.64" x2="398.03" y2="75.14"/>
		<line class="st7" x1="402.05" y1="78.64" x2="398.56" y2="75.14"/>
	</g>
	<g>
		<line class="st0" x1="402.05" y1="110.14" x2="398.56" y2="113.64"/>
		<line class="st0" x1="394.55" y1="110.14" x2="398.03" y2="113.64"/>
	</g>
	<g>
		<line class="st0" x1="402.05" y1="114.14" x2="398.56" y2="117.64"/>
		<line class="st0" x1="394.55" y1="114.14" x2="398.03" y2="117.64"/>
	</g>
</g>
<line class="st0" x1="398.3" y1="132.4" x2="398.3" y2="117.4"/>
<line class="st7" x1="398.62" y1="75.06" x2="398.62" y2="50.06"/>
<g>
	<polyline class="st8" points="394.91,41.99 398.45,50.54 402.33,41.95 	"/>
</g>
<text transform="matrix(0.7096 0 0 1 371.5984 59.4135)" class="st3 st9 st12">686</text>
<rect x="394.82" y="132.77" class="st11" width="5.41" height="5.5"/>
<text transform="matrix(0.6726 0 0 1 402.1658 129.6179)" class="st3 st4 st6">26</text>
<rect x="430.39" y="132.77" class="st11" width="5.41" height="5.5"/>
<rect x="465.89" y="132.77" class="st11" width="5.41" height="5.5"/>
<text transform="matrix(0.6726 0 0 1 436.7318 129.6181)" class="st3 st4 st6">27</text>
<rect x="501.73" y="132.77" class="st11" width="5.41" height="5.5"/>
<rect x="537.78" y="132.77" class="st11" width="5.41" height="5.5"/>
<text transform="matrix(0.6726 0 0 1 501.0797 129.6177)" class="st3 st4 st6">29</text>
<text transform="matrix(0.6726 0 0 1 536.1263 129.6177)" class="st3 st4 st6">30</text>
<text transform="matrix(0.6726 0 0 1 464.0322 129.1914)" class="st3 st4 st6">28</text>
<text transform="matrix(0.7096 0 0 1 550.8627 98.2204)" class="st3 st9 st6">PHÂN ĐOẠN 2</text>
<rect x="82.62" y="132.74" class="st10" width="52.4" height="6"/>
<rect x="124.3" y="132.76" class="st11" width="5.41" height="5.5"/>
<g>
	<line class="st0" x1="186.48" y1="167.4" x2="186.48" y2="138.75"/>
	<g>
		<rect x="181.98" y="180.74" class="st1" width="9" height="17"/>
		<line class="st0" x1="186.48" y1="180.16" x2="186.48" y2="172.74"/>
		<line class="st0" x1="186.48" y1="206.16" x2="186.48" y2="198.13"/>
		<g>
			<line class="st0" x1="182.73" y1="175.49" x2="186.21" y2="171.99"/>
			<line class="st0" x1="190.23" y1="175.49" x2="186.75" y2="171.99"/>
		</g>
		<g>
			<line class="st0" x1="182.73" y1="171.36" x2="186.21" y2="167.86"/>
			<line class="st0" x1="190.23" y1="171.36" x2="186.75" y2="167.86"/>
		</g>
		<g>
			<line class="st0" x1="190.23" y1="202.86" x2="186.75" y2="206.36"/>
			<line class="st0" x1="182.73" y1="202.86" x2="186.21" y2="206.36"/>
		</g>
		<g>
			<line class="st0" x1="190.23" y1="206.86" x2="186.75" y2="210.36"/>
			<line class="st0" x1="182.73" y1="206.86" x2="186.21" y2="210.36"/>
		</g>
	</g>
	<g>
		<g>
			<polyline class="st2" points="182.77,231.94 186.31,240.49 190.19,231.91 			"/>
		</g>
		<line class="st0" x1="186.48" y1="231.97" x2="186.48" y2="211.18"/>
		<line class="st0" x1="190.23" y1="231.56" x2="182.73" y2="231.56"/>
	</g>
</g>
<g>
	<line class="st0" x1="218.51" y1="167.4" x2="218.51" y2="138.75"/>
	<g>
		<rect x="214.01" y="180.74" class="st1" width="9" height="17"/>
		<line class="st0" x1="218.51" y1="180.16" x2="218.51" y2="172.74"/>
		<line class="st0" x1="218.51" y1="206.16" x2="218.51" y2="198.13"/>
		<g>
			<line class="st0" x1="214.76" y1="175.49" x2="218.24" y2="171.99"/>
			<line class="st0" x1="222.26" y1="175.49" x2="218.78" y2="171.99"/>
		</g>
		<g>
			<line class="st0" x1="214.76" y1="171.36" x2="218.24" y2="167.86"/>
			<line class="st0" x1="222.26" y1="171.36" x2="218.78" y2="167.86"/>
		</g>
		<g>
			<line class="st0" x1="222.26" y1="202.86" x2="218.78" y2="206.36"/>
			<line class="st0" x1="214.76" y1="202.86" x2="218.24" y2="206.36"/>
		</g>
		<g>
			<line class="st0" x1="222.26" y1="206.86" x2="218.78" y2="210.36"/>
			<line class="st0" x1="214.76" y1="206.86" x2="218.24" y2="210.36"/>
		</g>
	</g>
	<g>
		<g>
			<polyline class="st2" points="214.8,231.94 218.33,240.49 222.21,231.91 			"/>
		</g>
		<line class="st0" x1="218.51" y1="231.97" x2="218.51" y2="211.18"/>
		<line class="st0" x1="222.26" y1="231.56" x2="214.76" y2="231.56"/>
	</g>
</g>
<g>
	<line class="st0" x1="252.98" y1="167.4" x2="252.98" y2="138.75"/>
	<g>
		<rect x="248.48" y="180.74" class="st1" width="9" height="17"/>
		<line class="st0" x1="252.98" y1="180.16" x2="252.98" y2="172.74"/>
		<line class="st0" x1="252.98" y1="206.16" x2="252.98" y2="198.13"/>
		<g>
			<line class="st0" x1="249.23" y1="175.49" x2="252.71" y2="171.99"/>
			<line class="st0" x1="256.73" y1="175.49" x2="253.25" y2="171.99"/>
		</g>
		<g>
			<line class="st0" x1="249.23" y1="171.36" x2="252.71" y2="167.86"/>
			<line class="st0" x1="256.73" y1="171.36" x2="253.25" y2="167.86"/>
		</g>
		<g>
			<line class="st0" x1="256.73" y1="202.86" x2="253.25" y2="206.36"/>
			<line class="st0" x1="249.23" y1="202.86" x2="252.71" y2="206.36"/>
		</g>
		<g>
			<line class="st0" x1="256.73" y1="206.86" x2="253.25" y2="210.36"/>
			<line class="st0" x1="249.23" y1="206.86" x2="252.71" y2="210.36"/>
		</g>
	</g>
	<g>
		<g>
			<polyline class="st2" points="249.27,231.94 252.81,240.49 256.69,231.91 			"/>
		</g>
		<line class="st0" x1="252.98" y1="231.97" x2="252.98" y2="211.18"/>
		<line class="st0" x1="256.73" y1="231.56" x2="249.23" y2="231.56"/>
	</g>
</g>
<g>
	<line class="st0" x1="288.98" y1="167.4" x2="288.98" y2="138.75"/>
	<g>
		<rect x="284.48" y="180.74" class="st1" width="9" height="17"/>
		<line class="st0" x1="288.98" y1="180.16" x2="288.98" y2="172.74"/>
		<line class="st0" x1="288.98" y1="206.16" x2="288.98" y2="198.13"/>
		<g>
			<line class="st0" x1="285.23" y1="175.49" x2="288.71" y2="171.99"/>
			<line class="st0" x1="292.73" y1="175.49" x2="289.25" y2="171.99"/>
		</g>
		<g>
			<line class="st0" x1="285.23" y1="171.36" x2="288.71" y2="167.86"/>
			<line class="st0" x1="292.73" y1="171.36" x2="289.25" y2="167.86"/>
		</g>
		<g>
			<line class="st0" x1="292.73" y1="202.86" x2="289.25" y2="206.36"/>
			<line class="st0" x1="285.23" y1="202.86" x2="288.71" y2="206.36"/>
		</g>
		<g>
			<line class="st0" x1="292.73" y1="206.86" x2="289.25" y2="210.36"/>
			<line class="st0" x1="285.23" y1="206.86" x2="288.71" y2="210.36"/>
		</g>
	</g>
	<g>
		<g>
			<polyline class="st2" points="285.27,231.94 288.81,240.49 292.69,231.91 			"/>
		</g>
		<line class="st0" x1="288.98" y1="231.97" x2="288.98" y2="211.18"/>
		<line class="st0" x1="292.73" y1="231.56" x2="285.23" y2="231.56"/>
	</g>
</g>
<g>
	<line class="st0" x1="325.82" y1="167.4" x2="325.82" y2="138.75"/>
	<g>
		<rect x="321.32" y="180.74" class="st1" width="9" height="17"/>
		<line class="st0" x1="325.82" y1="180.16" x2="325.82" y2="172.74"/>
		<line class="st0" x1="325.82" y1="206.16" x2="325.82" y2="198.13"/>
		<g>
			<line class="st0" x1="322.07" y1="175.49" x2="325.55" y2="171.99"/>
			<line class="st0" x1="329.57" y1="175.49" x2="326.09" y2="171.99"/>
		</g>
		<g>
			<line class="st0" x1="322.07" y1="171.36" x2="325.55" y2="167.86"/>
			<line class="st0" x1="329.57" y1="171.36" x2="326.09" y2="167.86"/>
		</g>
		<g>
			<line class="st0" x1="329.57" y1="202.86" x2="326.09" y2="206.36"/>
			<line class="st0" x1="322.07" y1="202.86" x2="325.55" y2="206.36"/>
		</g>
		<g>
			<line class="st0" x1="329.57" y1="206.86" x2="326.09" y2="210.36"/>
			<line class="st0" x1="322.07" y1="206.86" x2="325.55" y2="210.36"/>
		</g>
	</g>
	<g>
		<g>
			<polyline class="st2" points="322.11,231.94 325.65,240.49 329.52,231.91 			"/>
		</g>
		<line class="st0" x1="325.82" y1="231.97" x2="325.82" y2="211.18"/>
		<line class="st0" x1="329.57" y1="231.56" x2="322.07" y2="231.56"/>
	</g>
</g>
<g>
	<line class="st0" x1="361.77" y1="167.4" x2="361.77" y2="138.75"/>
	<g>
		<rect x="357.27" y="180.74" class="st1" width="9" height="17"/>
		<line class="st0" x1="361.77" y1="180.16" x2="361.77" y2="172.74"/>
		<line class="st0" x1="361.77" y1="206.16" x2="361.77" y2="198.13"/>
		<g>
			<line class="st0" x1="358.02" y1="175.49" x2="361.5" y2="171.99"/>
			<line class="st0" x1="365.52" y1="175.49" x2="362.04" y2="171.99"/>
		</g>
		<g>
			<line class="st0" x1="358.02" y1="171.36" x2="361.5" y2="167.86"/>
			<line class="st0" x1="365.52" y1="171.36" x2="362.04" y2="167.86"/>
		</g>
		<g>
			<line class="st0" x1="365.52" y1="202.86" x2="362.04" y2="206.36"/>
			<line class="st0" x1="358.02" y1="202.86" x2="361.5" y2="206.36"/>
		</g>
		<g>
			<line class="st0" x1="365.52" y1="206.86" x2="362.04" y2="210.36"/>
			<line class="st0" x1="358.02" y1="206.86" x2="361.5" y2="210.36"/>
		</g>
	</g>
	<g>
		<g>
			<polyline class="st2" points="358.07,231.94 361.6,240.49 365.48,231.91 			"/>
		</g>
		<line class="st0" x1="361.77" y1="231.97" x2="361.77" y2="211.18"/>
		<line class="st0" x1="365.52" y1="231.56" x2="358.02" y2="231.56"/>
	</g>
</g>
<g>
	<line class="st0" x1="397.35" y1="167.4" x2="397.35" y2="138.75"/>
	<g>
		<rect x="392.85" y="180.74" class="st1" width="9" height="17"/>
		<line class="st0" x1="397.35" y1="180.16" x2="397.35" y2="172.74"/>
		<line class="st0" x1="397.35" y1="206.16" x2="397.35" y2="198.13"/>
		<g>
			<line class="st0" x1="393.6" y1="175.49" x2="397.08" y2="171.99"/>
			<line class="st0" x1="401.1" y1="175.49" x2="397.62" y2="171.99"/>
		</g>
		<g>
			<line class="st0" x1="393.6" y1="171.36" x2="397.08" y2="167.86"/>
			<line class="st0" x1="401.1" y1="171.36" x2="397.62" y2="167.86"/>
		</g>
		<g>
			<line class="st0" x1="401.1" y1="202.86" x2="397.62" y2="206.36"/>
			<line class="st0" x1="393.6" y1="202.86" x2="397.08" y2="206.36"/>
		</g>
		<g>
			<line class="st0" x1="401.1" y1="206.86" x2="397.62" y2="210.36"/>
			<line class="st0" x1="393.6" y1="206.86" x2="397.08" y2="210.36"/>
		</g>
	</g>
	<g>
		<g>
			<polyline class="st2" points="393.65,231.94 397.18,240.49 401.06,231.91 			"/>
		</g>
		<line class="st0" x1="397.35" y1="231.97" x2="397.35" y2="211.18"/>
		<line class="st0" x1="401.1" y1="231.56" x2="393.6" y2="231.56"/>
	</g>
</g>
<g>
	<line class="st0" x1="433.41" y1="167.4" x2="433.41" y2="138.75"/>
	<g>
		<rect x="428.91" y="180.74" class="st1" width="9" height="17"/>
		<line class="st0" x1="433.41" y1="180.16" x2="433.41" y2="172.74"/>
		<line class="st0" x1="433.41" y1="206.16" x2="433.41" y2="198.13"/>
		<g>
			<line class="st0" x1="429.66" y1="175.49" x2="433.14" y2="171.99"/>
			<line class="st0" x1="437.16" y1="175.49" x2="433.68" y2="171.99"/>
		</g>
		<g>
			<line class="st0" x1="429.66" y1="171.36" x2="433.14" y2="167.86"/>
			<line class="st0" x1="437.16" y1="171.36" x2="433.68" y2="167.86"/>
		</g>
		<g>
			<line class="st0" x1="437.16" y1="202.86" x2="433.68" y2="206.36"/>
			<line class="st0" x1="429.66" y1="202.86" x2="433.14" y2="206.36"/>
		</g>
		<g>
			<line class="st0" x1="437.16" y1="206.86" x2="433.68" y2="210.36"/>
			<line class="st0" x1="429.66" y1="206.86" x2="433.14" y2="210.36"/>
		</g>
	</g>
	<g>
		<g>
			<polyline class="st2" points="429.71,231.94 433.24,240.49 437.12,231.91 			"/>
		</g>
		<line class="st0" x1="433.41" y1="231.97" x2="433.41" y2="211.18"/>
		<line class="st0" x1="437.16" y1="231.56" x2="429.66" y2="231.56"/>
	</g>
</g>
<text transform="matrix(0.6726 0 0 1 402.1293 149.9456)" class="st3 st4 st6">24</text>
<rect x="202.51" y="251.23" class="st0" width="32" height="100"/>
<g>
	<path class="st13" d="M218.51,266.62c5.51,0,10,4.49,10,10s-4.49,10-10,10s-10-4.49-10-10S212.99,266.62,218.51,266.62
		 M218.51,265.62c-6.08,0-11,4.92-11,11s4.92,11,11,11s11-4.92,11-11S224.58,265.62,218.51,265.62L218.51,265.62z"/>
</g>
<g>
	<path class="st13" d="M218.51,270.12c3.58,0,6.5,2.92,6.5,6.5s-2.92,6.5-6.5,6.5s-6.5-2.92-6.5-6.5S214.92,270.12,218.51,270.12
		 M218.51,269.12c-4.14,0-7.5,3.36-7.5,7.5c0,4.14,3.36,7.5,7.5,7.5s7.5-3.36,7.5-7.5C226.01,272.47,222.65,269.12,218.51,269.12
		L218.51,269.12z"/>
</g>
<line class="st7" x1="218.51" y1="240.3" x2="218.51" y2="265.3"/>
<text transform="matrix(0.6558 0 0 1 207.3519 303.0221)"><tspan x="0" y="0" class="st3 st4 st6">11M-3</tspan><tspan x="5.33" y="14.4" class="st3 st4 st6">/400</tspan><tspan x="7.34" y="28.8" class="st3 st4 st6">KW</tspan></text>
<rect x="572.78" y="133.02" class="st11" width="5.41" height="5.5"/>
<text transform="matrix(0.6726 0 0 1 573.1299 128.9667)" class="st3 st4 st6">31</text>
<g>
	<line class="st7" x1="422.31" y1="315.88" x2="422.31" y2="308.79"/>
	<rect x="417.98" y="250.93" class="st0" width="31" height="100"/>
	<g>
		<line class="st7" x1="423.4" y1="344.48" x2="443.3" y2="344.48"/>
		<line class="st7" x1="423.42" y1="344.17" x2="433.37" y2="324.02"/>
		<line class="st7" x1="433.61" y1="324.02" x2="443.56" y2="344.17"/>
		<g>
			<rect x="431.53" y="340.49" class="st14" width="2.75" height="7.73"/>
			<g>
				<line class="st7" x1="431.78" y1="340.69" x2="431.78" y2="348.09"/>
				<line class="st7" x1="434.37" y1="340.69" x2="434.37" y2="348.09"/>
			</g>
		</g>
		<g>
			<polygon class="st14" points="431.85,333.4 430.45,336.18 424.76,332.26 426.16,329.48 			"/>
			<g>
				<line class="st7" x1="425.04" y1="332.11" x2="430.49" y2="335.86"/>
				<line class="st7" x1="426.35" y1="329.49" x2="431.81" y2="333.25"/>
			</g>
		</g>
		<g>
			<polygon class="st14" points="440.62,330.41 442.05,333.17 436.39,337.16 434.97,334.4 			"/>
			<g>
				<line class="st7" x1="436.41" y1="336.8" x2="441.83" y2="332.97"/>
				<line class="st7" x1="435.07" y1="334.2" x2="440.49" y2="330.38"/>
			</g>
		</g>
	</g>
	<line class="st7" x1="433.48" y1="298.7" x2="433.48" y2="323.7"/>
	<g>
		<g>
			<ellipse class="st15" cx="433.48" cy="282.56" rx="8.05" ry="3.38"/>
			<path class="st15" d="M433.48,279.68c4.61,0,7.55,1.7,7.55,2.88c0,1.17-2.94,2.88-7.55,2.88c-4.61,0-7.55-1.7-7.55-2.88
				C425.93,281.38,428.87,279.68,433.48,279.68 M433.48,278.68c-4.72,0-8.55,1.74-8.55,3.88s3.83,3.88,8.55,3.88
				s8.55-1.74,8.55-3.88S438.2,278.68,433.48,278.68L433.48,278.68z"/>
		</g>
		<g>
			<path class="st15" d="M432.62,282.49c-3.14,0-5.48-1.1-5.48-2.08c0-0.98,2.34-2.08,5.48-2.08s5.48,1.1,5.48,2.08
				C438.11,281.39,435.76,282.49,432.62,282.49z"/>
			<path class="st15" d="M432.62,278.82c3.24,0,4.98,1.12,4.98,1.58s-1.75,1.58-4.98,1.58c-3.24,0-4.98-1.12-4.98-1.58
				S429.39,278.82,432.62,278.82 M432.62,277.82c-3.3,0-5.98,1.16-5.98,2.58s2.68,2.58,5.98,2.58c3.3,0,5.98-1.16,5.98-2.58
				S435.93,277.82,432.62,277.82L432.62,277.82z"/>
		</g>
		<g>
			<path class="st15" d="M433.48,286.79c-3.14,0-5.48-1.1-5.48-2.08c0-0.98,2.34-2.08,5.48-2.08s5.48,1.1,5.48,2.08
				C438.96,285.69,436.62,286.79,433.48,286.79z"/>
			<path class="st15" d="M433.48,283.12c3.24,0,4.98,1.12,4.98,1.58c0,0.46-1.75,1.58-4.98,1.58c-3.24,0-4.98-1.12-4.98-1.58
				C428.5,284.25,430.24,283.12,433.48,283.12 M433.48,282.12c-3.3,0-5.98,1.16-5.98,2.58c0,1.43,2.68,2.58,5.98,2.58
				c3.3,0,5.98-1.16,5.98-2.58C439.46,283.28,436.78,282.12,433.48,282.12L433.48,282.12z"/>
		</g>
	</g>
	<g>
		<path class="st13" d="M433.48,266.35c5.51,0,10,4.49,10,10s-4.49,10-10,10s-10-4.49-10-10S427.96,266.35,433.48,266.35
			 M433.48,265.35c-6.08,0-11,4.92-11,11s4.92,11,11,11s11-4.92,11-11S439.55,265.35,433.48,265.35L433.48,265.35z"/>
	</g>
	<g>
		<path class="st13" d="M433.48,278.3c5.51,0,10,4.49,10,10s-4.49,10-10,10s-10-4.49-10-10S427.96,278.3,433.48,278.3 M433.48,277.3
			c-6.08,0-11,4.92-11,11c0,6.08,4.92,11,11,11s11-4.92,11-11C444.48,282.22,439.55,277.3,433.48,277.3L433.48,277.3z"/>
	</g>
	<line class="st7" x1="444.48" y1="312.63" x2="422.48" y2="312.63"/>
	<line class="st7" x1="445.2" y1="316.1" x2="445.2" y2="309.01"/>
	<line class="st7" x1="433.48" y1="240.6" x2="433.48" y2="265.6"/>
</g>
<g>
	<line class="st7" x1="529.31" y1="314.88" x2="529.31" y2="307.79"/>
	<rect x="524.98" y="249.93" class="st0" width="31" height="100"/>
	<g>
		<line class="st7" x1="530.4" y1="343.48" x2="550.3" y2="343.48"/>
		<line class="st7" x1="530.42" y1="343.17" x2="540.37" y2="323.02"/>
		<line class="st7" x1="540.61" y1="323.02" x2="550.56" y2="343.17"/>
		<g>
			<rect x="538.53" y="339.49" class="st14" width="2.75" height="7.73"/>
			<g>
				<line class="st7" x1="538.78" y1="339.69" x2="538.78" y2="347.09"/>
				<line class="st7" x1="541.37" y1="339.69" x2="541.37" y2="347.09"/>
			</g>
		</g>
		<g>
			<polygon class="st14" points="538.85,332.4 537.45,335.18 531.76,331.26 533.16,328.48 			"/>
			<g>
				<line class="st7" x1="532.04" y1="331.11" x2="537.49" y2="334.86"/>
				<line class="st7" x1="533.35" y1="328.49" x2="538.81" y2="332.25"/>
			</g>
		</g>
		<g>
			<polygon class="st14" points="547.62,329.41 549.05,332.17 543.39,336.16 541.97,333.4 			"/>
			<g>
				<line class="st7" x1="543.41" y1="335.8" x2="548.83" y2="331.97"/>
				<line class="st7" x1="542.07" y1="333.2" x2="547.49" y2="329.38"/>
			</g>
		</g>
	</g>
	<line class="st7" x1="540.48" y1="297.7" x2="540.48" y2="322.7"/>
	<g>
		<g>
			<ellipse class="st15" cx="540.48" cy="281.56" rx="8.05" ry="3.38"/>
			<path class="st15" d="M540.48,278.68c4.61,0,7.55,1.7,7.55,2.88c0,1.17-2.94,2.88-7.55,2.88c-4.61,0-7.55-1.7-7.55-2.88
				C532.93,280.38,535.87,278.68,540.48,278.68 M540.48,277.68c-4.72,0-8.55,1.74-8.55,3.88s3.83,3.88,8.55,3.88
				s8.55-1.74,8.55-3.88S545.2,277.68,540.48,277.68L540.48,277.68z"/>
		</g>
		<g>
			<path class="st15" d="M539.62,281.49c-3.14,0-5.48-1.1-5.48-2.08c0-0.98,2.34-2.08,5.48-2.08s5.48,1.1,5.48,2.08
				C545.11,280.39,542.76,281.49,539.62,281.49z"/>
			<path class="st15" d="M539.62,277.82c3.24,0,4.98,1.12,4.98,1.58s-1.75,1.58-4.98,1.58c-3.24,0-4.98-1.12-4.98-1.58
				S536.39,277.82,539.62,277.82 M539.62,276.82c-3.3,0-5.98,1.16-5.98,2.58s2.68,2.58,5.98,2.58c3.3,0,5.98-1.16,5.98-2.58
				S542.93,276.82,539.62,276.82L539.62,276.82z"/>
		</g>
		<g>
			<path class="st15" d="M540.48,285.79c-3.14,0-5.48-1.1-5.48-2.08c0-0.98,2.34-2.08,5.48-2.08s5.48,1.1,5.48,2.08
				C545.96,284.69,543.62,285.79,540.48,285.79z"/>
			<path class="st15" d="M540.48,282.12c3.24,0,4.98,1.12,4.98,1.58c0,0.46-1.75,1.58-4.98,1.58c-3.24,0-4.98-1.12-4.98-1.58
				C535.5,283.25,537.24,282.12,540.48,282.12 M540.48,281.12c-3.3,0-5.98,1.16-5.98,2.58c0,1.43,2.68,2.58,5.98,2.58
				c3.3,0,5.98-1.16,5.98-2.58C546.46,282.28,543.78,281.12,540.48,281.12L540.48,281.12z"/>
		</g>
	</g>
	<g>
		<path class="st13" d="M540.48,265.35c5.51,0,10,4.49,10,10s-4.49,10-10,10s-10-4.49-10-10S534.96,265.35,540.48,265.35
			 M540.48,264.35c-6.08,0-11,4.92-11,11s4.92,11,11,11s11-4.92,11-11S546.55,264.35,540.48,264.35L540.48,264.35z"/>
	</g>
	<g>
		<path class="st13" d="M540.48,277.3c5.51,0,10,4.49,10,10s-4.49,10-10,10s-10-4.49-10-10S534.96,277.3,540.48,277.3 M540.48,276.3
			c-6.08,0-11,4.92-11,11c0,6.08,4.92,11,11,11s11-4.92,11-11C551.48,281.22,546.55,276.3,540.48,276.3L540.48,276.3z"/>
	</g>
	<line class="st7" x1="551.48" y1="311.63" x2="529.48" y2="311.63"/>
	<line class="st7" x1="552.2" y1="315.1" x2="552.2" y2="308.01"/>
	<line class="st7" x1="540.48" y1="239.6" x2="540.48" y2="264.6"/>
</g>
<g>
	<line class="st0" x1="468.48" y1="168.16" x2="468.48" y2="139.52"/>
	<g>
		<rect x="463.98" y="181.51" class="st1" width="9" height="17"/>
		<line class="st0" x1="468.48" y1="180.93" x2="468.48" y2="173.51"/>
		<line class="st0" x1="468.48" y1="206.93" x2="468.48" y2="198.9"/>
		<g>
			<line class="st0" x1="464.73" y1="176.26" x2="468.21" y2="172.76"/>
			<line class="st0" x1="472.23" y1="176.26" x2="468.75" y2="172.76"/>
		</g>
		<g>
			<line class="st0" x1="464.73" y1="172.13" x2="468.21" y2="168.63"/>
			<line class="st0" x1="472.23" y1="172.13" x2="468.75" y2="168.63"/>
		</g>
		<g>
			<line class="st0" x1="472.23" y1="203.63" x2="468.75" y2="207.13"/>
			<line class="st0" x1="464.73" y1="203.63" x2="468.21" y2="207.13"/>
		</g>
		<g>
			<line class="st0" x1="472.23" y1="207.63" x2="468.75" y2="211.13"/>
			<line class="st0" x1="464.73" y1="207.63" x2="468.21" y2="211.13"/>
		</g>
	</g>
	<g>
		<g>
			<polyline class="st2" points="464.77,232.71 468.31,241.26 472.19,232.67 			"/>
		</g>
		<line class="st0" x1="468.48" y1="232.73" x2="468.48" y2="211.94"/>
		<line class="st0" x1="472.23" y1="232.33" x2="464.73" y2="232.33"/>
	</g>
</g>
<rect x="236.98" y="251.23" class="st0" width="32" height="100"/>
<g>
	<path class="st13" d="M252.98,266.62c5.51,0,10,4.49,10,10s-4.49,10-10,10s-10-4.49-10-10S247.46,266.62,252.98,266.62
		 M252.98,265.62c-6.08,0-11,4.92-11,11s4.92,11,11,11s11-4.92,11-11S259.05,265.62,252.98,265.62L252.98,265.62z"/>
</g>
<g>
	<path class="st13" d="M252.98,270.12c3.58,0,6.5,2.92,6.5,6.5s-2.92,6.5-6.5,6.5s-6.5-2.92-6.5-6.5S249.39,270.12,252.98,270.12
		 M252.98,269.12c-4.14,0-7.5,3.36-7.5,7.5c0,4.14,3.36,7.5,7.5,7.5c4.14,0,7.5-3.36,7.5-7.5
		C260.48,272.47,257.12,269.12,252.98,269.12L252.98,269.12z"/>
</g>
<line class="st7" x1="252.98" y1="240.3" x2="252.98" y2="265.3"/>
<text transform="matrix(0.6558 0 0 1 241.8253 303.0221)"><tspan x="0" y="0" class="st3 st4 st6">11M-4</tspan><tspan x="5.33" y="14.4" class="st3 st4 st6">/400</tspan><tspan x="7.34" y="28.8" class="st3 st4 st6">KW</tspan></text>
<rect x="272.98" y="251.23" class="st0" width="32" height="100"/>
<g>
	<path class="st13" d="M288.98,266.62c5.51,0,10,4.49,10,10s-4.49,10-10,10s-10-4.49-10-10S283.46,266.62,288.98,266.62
		 M288.98,265.62c-6.08,0-11,4.92-11,11s4.92,11,11,11s11-4.92,11-11S295.05,265.62,288.98,265.62L288.98,265.62z"/>
</g>
<g>
	<path class="st13" d="M288.98,270.12c3.58,0,6.5,2.92,6.5,6.5s-2.92,6.5-6.5,6.5s-6.5-2.92-6.5-6.5S285.39,270.12,288.98,270.12
		 M288.98,269.12c-4.14,0-7.5,3.36-7.5,7.5c0,4.14,3.36,7.5,7.5,7.5c4.14,0,7.5-3.36,7.5-7.5
		C296.48,272.47,293.12,269.12,288.98,269.12L288.98,269.12z"/>
</g>
<line class="st7" x1="288.98" y1="240.3" x2="288.98" y2="265.3"/>
<text transform="matrix(0.6558 0 0 1 277.8253 303.0221)"><tspan x="0" y="0" class="st3 st4 st6">12M-4</tspan><tspan x="5.33" y="14.4" class="st3 st4 st6">/630</tspan><tspan x="7.34" y="28.8" class="st3 st4 st6">KW</tspan></text>
<rect x="309.82" y="251.23" class="st0" width="32" height="100"/>
<g>
	<path class="st13" d="M325.82,266.62c5.51,0,10,4.49,10,10s-4.49,10-10,10s-10-4.49-10-10S320.3,266.62,325.82,266.62
		 M325.82,265.62c-6.08,0-11,4.92-11,11s4.92,11,11,11c6.08,0,11-4.92,11-11S331.89,265.62,325.82,265.62L325.82,265.62z"/>
</g>
<g>
	<path class="st13" d="M325.82,270.12c3.58,0,6.5,2.92,6.5,6.5s-2.92,6.5-6.5,6.5s-6.5-2.92-6.5-6.5S322.23,270.12,325.82,270.12
		 M325.82,269.12c-4.14,0-7.5,3.36-7.5,7.5c0,4.14,3.36,7.5,7.5,7.5c4.14,0,7.5-3.36,7.5-7.5
		C333.32,272.47,329.96,269.12,325.82,269.12L325.82,269.12z"/>
</g>
<line class="st7" x1="325.82" y1="240.3" x2="325.82" y2="265.3"/>
<text transform="matrix(0.6558 0 0 1 314.6639 303.0221)"><tspan x="0" y="0" class="st3 st4 st6">12M-5</tspan><tspan x="5.33" y="14.4" class="st3 st4 st6">/630</tspan><tspan x="7.34" y="28.8" class="st3 st4 st6">KW</tspan></text>
<rect x="345.77" y="251.23" class="st0" width="32" height="100"/>
<g>
	<path class="st13" d="M361.77,266.62c5.51,0,10,4.49,10,10s-4.49,10-10,10s-10-4.49-10-10S356.26,266.62,361.77,266.62
		 M361.77,265.62c-6.08,0-11,4.92-11,11s4.92,11,11,11s11-4.92,11-11S367.85,265.62,361.77,265.62L361.77,265.62z"/>
</g>
<g>
	<path class="st13" d="M361.77,270.12c3.58,0,6.5,2.92,6.5,6.5s-2.92,6.5-6.5,6.5s-6.5-2.92-6.5-6.5S358.19,270.12,361.77,270.12
		 M361.77,269.12c-4.14,0-7.5,3.36-7.5,7.5c0,4.14,3.36,7.5,7.5,7.5s7.5-3.36,7.5-7.5C369.27,272.47,365.92,269.12,361.77,269.12
		L361.77,269.12z"/>
</g>
<line class="st7" x1="361.77" y1="240.3" x2="361.77" y2="265.3"/>
<text transform="matrix(0.6558 0 0 1 348.4322 303.0221)"><tspan x="0" y="0" class="st3 st4 st6">266M-2</tspan><tspan x="8.67" y="14.4" class="st3 st4 st6">/400</tspan><tspan x="10.68" y="28.8" class="st3 st4 st6">KW</tspan></text>
<rect x="381.35" y="251.23" class="st0" width="32" height="100"/>
<g>
	<path class="st13" d="M397.35,266.62c5.51,0,10,4.49,10,10s-4.49,10-10,10s-10-4.49-10-10S391.84,266.62,397.35,266.62
		 M397.35,265.62c-6.08,0-11,4.92-11,11s4.92,11,11,11s11-4.92,11-11S403.43,265.62,397.35,265.62L397.35,265.62z"/>
</g>
<g>
	<path class="st13" d="M397.35,270.12c3.58,0,6.5,2.92,6.5,6.5s-2.92,6.5-6.5,6.5s-6.5-2.92-6.5-6.5S393.77,270.12,397.35,270.12
		 M397.35,269.12c-4.14,0-7.5,3.36-7.5,7.5c0,4.14,3.36,7.5,7.5,7.5s7.5-3.36,7.5-7.5C404.85,272.47,401.5,269.12,397.35,269.12
		L397.35,269.12z"/>
</g>
<line class="st7" x1="397.35" y1="240.3" x2="397.35" y2="265.3"/>
<text transform="matrix(0.6558 0 0 1 384.0129 303.0221)"><tspan x="0" y="0" class="st3 st4 st6">266M-3</tspan><tspan x="8.67" y="14.4" class="st3 st4 st6">/400</tspan><tspan x="10.68" y="28.8" class="st3 st4 st6">KW</tspan></text>
</svg>
