<?xml version="1.0" encoding="utf-8"?>
<!-- Generator: Adobe Illustrator 27.1.1, SVG Export Plug-In . SVG Version: 6.00 Build 0)  -->
<svg version="1.1" id="Layer_1" xmlns="http://www.w3.org/2000/svg" xmlns:xlink="http://www.w3.org/1999/xlink" x="0px" y="0px"
	 viewBox="0 0 692 354" style="enable-background:new 0 0 692 354;" xml:space="preserve">
<style type="text/css">
	.st0{fill:#212830;}
	.st1{font-family:'ArialMT';}
	.st2{font-size:21px;}
	.st3{fill:none;stroke:#212830;stroke-linecap:square;stroke-miterlimit:10;}
	.st4{fill:#FF0000;stroke:#FF0000;stroke-linecap:square;stroke-miterlimit:10;}
	.st5{font-size:12px;}
	.st6{fill:none;stroke:#FF0000;stroke-linecap:square;stroke-miterlimit:10;}
	.st7{fill:#E6E6E6;stroke:#FF0000;stroke-miterlimit:10;}
	.st8{fill:#FF00FF;}
	.st9{fill:#FF0000;}
	.st10{font-family:'Arial-BoldMT';}
	.st11{font-family:'Arial-ItalicMT';}
	.st12{font-size:14px;}
	.st13{fill:none;stroke:#000000;stroke-miterlimit:10;}
</style>
<text transform="matrix(0.7128 0 0 1 279.5436 27.4981)" class="st0 st1 st2">TRẠM KTP 55-56</text>
<rect x="187.59" y="280.37" class="st3" width="90" height="32"/>
<line class="st4" x1="232.59" y1="151.49" x2="232.59" y2="172.28"/>
<g>
	<g>
		<polyline class="st4" points="228.88,142.99 232.42,151.54 236.3,142.96 		"/>
	</g>
	<line class="st4" x1="228.84" y1="142.89" x2="236.34" y2="142.89"/>
</g>
<text transform="matrix(0.6558 0 0 1 209.4052 272.2396)" class="st0 st1 st5">4X135 KVAR</text>
<text transform="matrix(0.6558 0 0 1 219.4615 293.2502)"><tspan x="0" y="0" class="st0 st1 st5">KTP 55</tspan><tspan x="-11.01" y="14.4" class="st0 st1 st5">1X630 KVA</tspan></text>
<rect x="187.59" y="312.45" class="st3" width="90" height="32"/>
<line class="st6" x1="243.59" y1="222.11" x2="243.59" y2="215.02"/>
<rect x="217.09" y="157.17" class="st3" width="31" height="100"/>
<g>
	<line class="st6" x1="222.51" y1="250.71" x2="242.42" y2="250.71"/>
	<line class="st6" x1="222.53" y1="250.4" x2="232.49" y2="230.25"/>
	<line class="st6" x1="232.72" y1="230.25" x2="242.67" y2="250.4"/>
	<g>
		<rect x="230.64" y="246.72" class="st7" width="2.75" height="7.73"/>
		<g>
			<line class="st6" x1="230.89" y1="246.93" x2="230.89" y2="254.33"/>
			<line class="st6" x1="233.49" y1="246.93" x2="233.49" y2="254.33"/>
		</g>
	</g>
	<g>
		<polygon class="st7" points="230.96,239.64 229.56,242.41 223.87,238.49 225.27,235.72 		"/>
		<g>
			<line class="st6" x1="224.15" y1="238.34" x2="229.61" y2="242.1"/>
			<line class="st6" x1="225.47" y1="235.73" x2="230.92" y2="239.49"/>
		</g>
	</g>
	<g>
		<polygon class="st7" points="239.74,236.64 241.16,239.4 235.5,243.39 234.08,240.63 		"/>
		<g>
			<line class="st6" x1="235.52" y1="243.03" x2="240.94" y2="239.21"/>
			<line class="st6" x1="234.18" y1="240.44" x2="239.6" y2="236.61"/>
		</g>
	</g>
</g>
<line class="st6" x1="232.59" y1="204.94" x2="232.59" y2="229.94"/>
<g>
	<g>
		<path class="st8" d="M232.59,192.17c-4.81,0-8.05-1.75-8.05-3.38s3.23-3.38,8.05-3.38s8.05,1.75,8.05,3.38
			S237.41,192.17,232.59,192.17z"/>
		<path class="st8" d="M232.59,185.91c4.61,0,7.55,1.7,7.55,2.88s-2.94,2.88-7.55,2.88s-7.55-1.7-7.55-2.88
			S227.99,185.91,232.59,185.91 M232.59,184.91c-4.72,0-8.55,1.74-8.55,3.88s3.83,3.88,8.55,3.88s8.55-1.74,8.55-3.88
			S237.31,184.91,232.59,184.91L232.59,184.91z"/>
	</g>
	<g>
		<path class="st8" d="M231.74,188.72c-3.14,0-5.48-1.1-5.48-2.08c0-0.98,2.34-2.08,5.48-2.08s5.48,1.1,5.48,2.08
			C237.22,187.62,234.88,188.72,231.74,188.72z"/>
		<path class="st8" d="M231.74,185.05c3.24,0,4.98,1.12,4.98,1.58c0,0.46-1.75,1.58-4.98,1.58c-3.24,0-4.98-1.12-4.98-1.58
			C226.76,186.18,228.5,185.05,231.74,185.05 M231.74,184.05c-3.3,0-5.98,1.16-5.98,2.58c0,1.43,2.68,2.58,5.98,2.58
			s5.98-1.16,5.98-2.58C237.72,185.21,235.04,184.05,231.74,184.05L231.74,184.05z"/>
	</g>
	<g>
		<path class="st8" d="M232.59,193.03c-3.14,0-5.48-1.1-5.48-2.08c0-0.98,2.34-2.08,5.48-2.08s5.48,1.1,5.48,2.08
			C238.07,191.93,235.73,193.03,232.59,193.03z"/>
		<path class="st8" d="M232.59,189.36c3.24,0,4.98,1.12,4.98,1.58c0,0.46-1.75,1.58-4.98,1.58s-4.98-1.12-4.98-1.58
			C227.61,190.48,229.36,189.36,232.59,189.36 M232.59,188.36c-3.3,0-5.98,1.16-5.98,2.58c0,1.43,2.68,2.58,5.98,2.58
			s5.98-1.16,5.98-2.58C238.57,189.52,235.9,188.36,232.59,188.36L232.59,188.36z"/>
	</g>
</g>
<g>
	<path class="st9" d="M232.59,172.58c5.51,0,10,4.49,10,10c0,5.51-4.49,10-10,10s-10-4.49-10-10
		C222.59,177.07,227.08,172.58,232.59,172.58 M232.59,171.58c-6.08,0-11,4.92-11,11c0,6.08,4.92,11,11,11s11-4.92,11-11
		C243.59,176.51,238.67,171.58,232.59,171.58L232.59,171.58z"/>
</g>
<g>
	<path class="st9" d="M232.59,184.53c5.51,0,10,4.49,10,10s-4.49,10-10,10s-10-4.49-10-10S227.08,184.53,232.59,184.53
		 M232.59,183.53c-6.08,0-11,4.92-11,11s4.92,11,11,11s11-4.92,11-11S238.67,183.53,232.59,183.53L232.59,183.53z"/>
</g>
<line class="st6" x1="243.59" y1="218.86" x2="221.59" y2="218.86"/>
<line class="st6" x1="221.59" y1="222.33" x2="221.59" y2="215.24"/>
<text transform="matrix(0.6558 0 0 1 210.6578 325.0005)"><tspan x="0" y="0" class="st0 st10 st5">TRẠM BƠM</tspan><tspan x="-15.22" y="14.4" class="st0 st10 st5">CẤP I TÀ THÀNG</tspan></text>
<text transform="matrix(0.7096 0 0 1 387.1303 59.316)" class="st0 st11 st12">TỪ BIẾN ÁP 35/0,4KV</text>
<g>
	<rect x="303.84" y="80.72" class="st13" width="9" height="17"/>
	<line class="st3" x1="308.34" y1="80.14" x2="308.34" y2="72.72"/>
	<line class="st3" x1="308.34" y1="106.14" x2="308.34" y2="98.11"/>
	<g>
		<line class="st3" x1="304.59" y1="75.47" x2="308.07" y2="71.97"/>
		<line class="st3" x1="312.09" y1="75.47" x2="308.61" y2="71.97"/>
	</g>
	<g>
		<line class="st6" x1="304.59" y1="71.34" x2="308.07" y2="67.84"/>
		<line class="st6" x1="312.09" y1="71.34" x2="308.61" y2="67.84"/>
	</g>
	<g>
		<line class="st3" x1="312.09" y1="102.84" x2="308.61" y2="106.34"/>
		<line class="st3" x1="304.59" y1="102.84" x2="308.07" y2="106.34"/>
	</g>
	<g>
		<line class="st3" x1="312.09" y1="106.84" x2="308.61" y2="110.34"/>
		<line class="st3" x1="304.59" y1="106.84" x2="308.07" y2="110.34"/>
	</g>
</g>
<line class="st6" x1="307.99" y1="125.82" x2="307.99" y2="110.82"/>
<line class="st4" x1="232.97" y1="127.27" x2="382.97" y2="127.27"/>
<line class="st4" x1="308.6" y1="68.2" x2="308.6" y2="53.2"/>
<line class="st4" x1="233" y1="142.5" x2="233" y2="127.5"/>
<line class="st4" x1="308.95" y1="53.7" x2="368.01" y2="53.7"/>
<g>
	<line class="st6" x1="378.07" y1="60.82" x2="367.73" y2="54.21"/>
	<line class="st6" x1="378.07" y1="46.58" x2="367.73" y2="53.18"/>
</g>
<rect x="337.48" y="279.66" class="st3" width="90" height="32"/>
<line class="st4" x1="382.48" y1="150.77" x2="382.48" y2="171.56"/>
<g>
	<g>
		<polyline class="st4" points="378.77,142.28 382.31,150.83 386.19,142.24 		"/>
	</g>
	<line class="st4" x1="378.73" y1="142.17" x2="386.23" y2="142.17"/>
</g>
<text transform="matrix(0.6558 0 0 1 359.2917 271.5215)" class="st0 st1 st5">4X135 KVAR</text>
<text transform="matrix(0.6558 0 0 1 369.3481 292.5322)"><tspan x="0" y="0" class="st0 st1 st5">KTP 56</tspan><tspan x="-11.01" y="14.4" class="st0 st1 st5">1X630 KVA</tspan></text>
<rect x="337.48" y="311.73" class="st3" width="90" height="32"/>
<line class="st6" x1="393.48" y1="221.39" x2="393.48" y2="214.3"/>
<rect x="366.98" y="156.45" class="st3" width="31" height="100"/>
<g>
	<line class="st6" x1="372.4" y1="249.99" x2="392.3" y2="249.99"/>
	<line class="st6" x1="372.42" y1="249.69" x2="382.37" y2="229.53"/>
	<line class="st6" x1="382.61" y1="229.53" x2="392.56" y2="249.69"/>
	<g>
		<rect x="380.53" y="246" class="st7" width="2.75" height="7.73"/>
		<g>
			<line class="st6" x1="380.78" y1="246.21" x2="380.78" y2="253.61"/>
			<line class="st6" x1="383.37" y1="246.21" x2="383.37" y2="253.61"/>
		</g>
	</g>
	<g>
		<polygon class="st7" points="380.85,238.92 379.45,241.69 373.76,237.77 375.16,235 		"/>
		<g>
			<line class="st6" x1="374.04" y1="237.62" x2="379.49" y2="241.38"/>
			<line class="st6" x1="375.35" y1="235.01" x2="380.81" y2="238.77"/>
		</g>
	</g>
	<g>
		<polygon class="st7" points="389.62,235.93 391.05,238.68 385.39,242.67 383.97,239.92 		"/>
		<g>
			<line class="st6" x1="385.41" y1="242.31" x2="390.83" y2="238.49"/>
			<line class="st6" x1="384.07" y1="239.72" x2="389.49" y2="235.89"/>
		</g>
	</g>
</g>
<line class="st6" x1="382.48" y1="204.22" x2="382.48" y2="229.22"/>
<g>
	<g>
		<path class="st8" d="M382.48,191.45c-4.81,0-8.05-1.75-8.05-3.38s3.23-3.38,8.05-3.38s8.05,1.75,8.05,3.38
			S387.29,191.45,382.48,191.45z"/>
		<path class="st8" d="M382.48,185.19c4.61,0,7.55,1.7,7.55,2.88s-2.94,2.88-7.55,2.88s-7.55-1.7-7.55-2.88
			S377.87,185.19,382.48,185.19 M382.48,184.19c-4.72,0-8.55,1.74-8.55,3.88c0,2.14,3.83,3.88,8.55,3.88s8.55-1.74,8.55-3.88
			C391.02,185.93,387.2,184.19,382.48,184.19L382.48,184.19z"/>
	</g>
	<g>
		<ellipse class="st8" cx="381.62" cy="185.92" rx="5.48" ry="2.08"/>
		<path class="st8" d="M381.62,184.33c3.24,0,4.98,1.12,4.98,1.58s-1.75,1.58-4.98,1.58s-4.98-1.12-4.98-1.58
			S378.39,184.33,381.62,184.33 M381.62,183.33c-3.3,0-5.98,1.16-5.98,2.58s2.68,2.58,5.98,2.58c3.3,0,5.98-1.16,5.98-2.58
			S384.93,183.33,381.62,183.33L381.62,183.33z"/>
	</g>
	<g>
		<path class="st8" d="M382.48,192.31c-3.14,0-5.48-1.1-5.48-2.08s2.34-2.08,5.48-2.08s5.48,1.1,5.48,2.08
			S385.62,192.31,382.48,192.31z"/>
		<path class="st8" d="M382.48,188.64c3.24,0,4.98,1.12,4.98,1.58s-1.75,1.58-4.98,1.58s-4.98-1.12-4.98-1.58
			S379.24,188.64,382.48,188.64 M382.48,187.64c-3.3,0-5.98,1.16-5.98,2.58s2.68,2.58,5.98,2.58c3.3,0,5.98-1.16,5.98-2.58
			S385.78,187.64,382.48,187.64L382.48,187.64z"/>
	</g>
</g>
<g>
	<path class="st9" d="M382.48,171.86c5.51,0,10,4.49,10,10c0,5.51-4.49,10-10,10s-10-4.49-10-10
		C372.48,176.35,376.96,171.86,382.48,171.86 M382.48,170.86c-6.08,0-11,4.92-11,11s4.92,11,11,11s11-4.92,11-11
		S388.55,170.86,382.48,170.86L382.48,170.86z"/>
</g>
<g>
	<path class="st9" d="M382.48,183.81c5.51,0,10,4.49,10,10c0,5.51-4.49,10-10,10s-10-4.49-10-10
		C372.48,188.3,376.96,183.81,382.48,183.81 M382.48,182.81c-6.08,0-11,4.92-11,11c0,6.08,4.92,11,11,11s11-4.92,11-11
		C393.48,187.74,388.55,182.81,382.48,182.81L382.48,182.81z"/>
</g>
<line class="st6" x1="393.48" y1="218.15" x2="371.48" y2="218.15"/>
<line class="st6" x1="371.48" y1="221.61" x2="371.48" y2="214.52"/>
<text transform="matrix(0.6558 0 0 1 360.5444 324.2824)"><tspan x="0" y="0" class="st0 st10 st5">TRẠM BƠM</tspan><tspan x="-16.89" y="14.4" class="st0 st10 st5">CẤP II TÀ THÀNG</tspan></text>
<line class="st4" x1="382.89" y1="141.78" x2="382.89" y2="126.78"/>
</svg>
