<?xml version="1.0" encoding="utf-8"?>
<!-- Generator: Adobe Illustrator 27.1.1, SVG Export Plug-In . SVG Version: 6.00 Build 0)  -->
<svg version="1.1" id="Layer_1" xmlns="http://www.w3.org/2000/svg" xmlns:xlink="http://www.w3.org/1999/xlink" x="0px" y="0px"
	 viewBox="0 0 692 298" style="enable-background:new 0 0 692 298;" xml:space="preserve">
<style type="text/css">
	.st0{fill:#212830;}
	.st1{font-family:'ArialMT';}
	.st2{font-size:21px;}
	.st3{fill:none;stroke:#212830;stroke-linecap:square;stroke-miterlimit:10;}
	.st4{fill:none;stroke:#FF0000;stroke-linecap:square;stroke-miterlimit:10;}
	.st5{fill:#E6E6E6;stroke:#FF0000;stroke-miterlimit:10;}
	.st6{fill:#FF00FF;}
	.st7{fill:#FF0000;}
	.st8{fill:#FF0000;stroke:#FF0000;stroke-linecap:square;stroke-miterlimit:10;}
	.st9{font-size:12px;}
	.st10{font-size:14px;}
</style>
<text transform="matrix(0.7128 0 0 1 305.5436 27.4981)" class="st0 st1 st2">TRẠM RP3</text>
<rect x="75.87" y="213.25" class="st3" width="90" height="52"/>
<line class="st4" x1="103.3" y1="141.35" x2="103.3" y2="134.26"/>
<g>
	<line class="st4" x1="93.21" y1="169.95" x2="113.12" y2="169.95"/>
	<line class="st4" x1="93.24" y1="169.64" x2="103.19" y2="149.49"/>
	<line class="st4" x1="103.42" y1="149.49" x2="113.38" y2="169.64"/>
	<g>
		<rect x="101.34" y="165.96" class="st5" width="2.75" height="7.73"/>
		<g>
			<line class="st4" x1="101.6" y1="166.16" x2="101.6" y2="173.57"/>
			<line class="st4" x1="104.19" y1="166.16" x2="104.19" y2="173.57"/>
		</g>
	</g>
	<g>
		<polygon class="st5" points="101.66,158.88 100.27,161.65 94.57,157.73 95.97,154.95 		"/>
		<g>
			<line class="st4" x1="94.85" y1="157.58" x2="100.31" y2="161.34"/>
			<line class="st4" x1="96.17" y1="154.96" x2="101.63" y2="158.72"/>
		</g>
	</g>
	<g>
		<polygon class="st5" points="110.44,155.88 111.86,158.64 106.2,162.63 104.78,159.87 		"/>
		<g>
			<line class="st4" x1="106.22" y1="162.27" x2="111.65" y2="158.45"/>
			<line class="st4" x1="104.88" y1="159.67" x2="110.31" y2="155.85"/>
		</g>
	</g>
</g>
<line class="st4" x1="103.3" y1="124.18" x2="103.3" y2="149.18"/>
<g>
	<g>
		<path class="st6" d="M103.29,111.41c-4.81,0-8.05-1.75-8.05-3.38s3.23-3.38,8.05-3.38s8.05,1.75,8.05,3.38
			S108.11,111.41,103.29,111.41z"/>
		<path class="st6" d="M103.3,105.15c4.61,0,7.55,1.7,7.55,2.88s-2.94,2.88-7.55,2.88c-4.61,0-7.55-1.7-7.55-2.88
			S98.69,105.15,103.3,105.15 M103.3,104.15c-4.72,0-8.55,1.74-8.55,3.88s3.83,3.88,8.55,3.88s8.55-1.74,8.55-3.88
			S108.01,104.15,103.3,104.15L103.3,104.15z"/>
	</g>
	<g>
		<path class="st6" d="M102.44,107.96c-3.14,0-5.48-1.1-5.48-2.08c0-0.98,2.34-2.08,5.48-2.08s5.48,1.1,5.48,2.08
			C107.92,106.86,105.58,107.96,102.44,107.96z"/>
		<path class="st6" d="M102.44,104.29c3.24,0,4.98,1.12,4.98,1.58c0,0.46-1.75,1.58-4.98,1.58s-4.98-1.12-4.98-1.58
			C97.46,105.41,99.2,104.29,102.44,104.29 M102.44,103.29c-3.3,0-5.98,1.16-5.98,2.58s2.68,2.58,5.98,2.58s5.98-1.16,5.98-2.58
			S105.74,103.29,102.44,103.29L102.44,103.29z"/>
	</g>
	<g>
		<path class="st6" d="M103.29,112.27c-3.14,0-5.48-1.1-5.48-2.08s2.34-2.08,5.48-2.08s5.48,1.1,5.48,2.08
			S106.43,112.27,103.29,112.27z"/>
		<path class="st6" d="M103.3,108.6c3.24,0,4.98,1.12,4.98,1.58s-1.75,1.58-4.98,1.58s-4.98-1.12-4.98-1.58
			S100.06,108.6,103.3,108.6 M103.3,107.6c-3.3,0-5.98,1.16-5.98,2.58s2.68,2.58,5.98,2.58s5.98-1.16,5.98-2.58
			S106.6,107.6,103.3,107.6L103.3,107.6z"/>
	</g>
</g>
<g>
	<path class="st7" d="M103.3,91.82c5.51,0,10,4.49,10,10s-4.49,10-10,10s-10-4.49-10-10S97.78,91.82,103.3,91.82 M103.3,90.82
		c-6.08,0-11,4.92-11,11s4.92,11,11,11s11-4.92,11-11S109.37,90.82,103.3,90.82L103.3,90.82z"/>
</g>
<g>
	<path class="st7" d="M103.3,103.77c5.51,0,10,4.49,10,10s-4.49,10-10,10s-10-4.49-10-10S97.78,103.77,103.3,103.77 M103.3,102.77
		c-6.08,0-11,4.92-11,11s4.92,11,11,11s11-4.92,11-11S109.37,102.77,103.3,102.77L103.3,102.77z"/>
</g>
<line class="st4" x1="114.3" y1="138.1" x2="92.3" y2="138.1"/>
<line class="st4" x1="114.96" y1="141.57" x2="114.96" y2="134.48"/>
<line class="st4" x1="138.45" y1="141.35" x2="138.45" y2="134.26"/>
<g>
	<line class="st4" x1="128.37" y1="169.95" x2="148.27" y2="169.95"/>
	<line class="st4" x1="128.39" y1="169.64" x2="138.34" y2="149.49"/>
	<line class="st4" x1="138.58" y1="149.49" x2="148.53" y2="169.64"/>
	<g>
		<rect x="136.5" y="165.96" class="st5" width="2.75" height="7.73"/>
		<g>
			<line class="st4" x1="136.75" y1="166.16" x2="136.75" y2="173.57"/>
			<line class="st4" x1="139.34" y1="166.16" x2="139.34" y2="173.57"/>
		</g>
	</g>
	<g>
		<polygon class="st5" points="136.82,158.88 135.42,161.65 129.73,157.73 131.13,154.95 		"/>
		<g>
			<line class="st4" x1="130.01" y1="157.58" x2="135.46" y2="161.34"/>
			<line class="st4" x1="131.33" y1="154.96" x2="136.78" y2="158.72"/>
		</g>
	</g>
	<g>
		<polygon class="st5" points="145.59,155.88 147.02,158.64 141.36,162.63 139.94,159.87 		"/>
		<g>
			<line class="st4" x1="141.38" y1="162.27" x2="146.8" y2="158.45"/>
			<line class="st4" x1="140.04" y1="159.67" x2="145.46" y2="155.85"/>
		</g>
	</g>
</g>
<line class="st4" x1="138.45" y1="124.18" x2="138.45" y2="149.18"/>
<g>
	<g>
		<path class="st6" d="M138.45,111.41c-4.81,0-8.05-1.75-8.05-3.38s3.23-3.38,8.05-3.38s8.05,1.75,8.05,3.38
			S143.26,111.41,138.45,111.41z"/>
		<path class="st6" d="M138.45,105.15c4.61,0,7.55,1.7,7.55,2.88s-2.94,2.88-7.55,2.88c-4.61,0-7.55-1.7-7.55-2.88
			S133.84,105.15,138.45,105.15 M138.45,104.15c-4.72,0-8.55,1.74-8.55,3.88s3.83,3.88,8.55,3.88s8.55-1.74,8.55-3.88
			S143.17,104.15,138.45,104.15L138.45,104.15z"/>
	</g>
	<g>
		<path class="st6" d="M137.59,107.96c-3.14,0-5.48-1.1-5.48-2.08c0-0.98,2.34-2.08,5.48-2.08s5.48,1.1,5.48,2.08
			C143.08,106.86,140.73,107.96,137.59,107.96z"/>
		<path class="st6" d="M137.59,104.29c3.24,0,4.98,1.12,4.98,1.58c0,0.46-1.75,1.58-4.98,1.58c-3.24,0-4.98-1.12-4.98-1.58
			C132.61,105.41,134.36,104.29,137.59,104.29 M137.59,103.29c-3.3,0-5.98,1.16-5.98,2.58s2.68,2.58,5.98,2.58
			c3.3,0,5.98-1.16,5.98-2.58S140.9,103.29,137.59,103.29L137.59,103.29z"/>
	</g>
	<g>
		<ellipse class="st6" cx="138.45" cy="110.18" rx="5.48" ry="2.08"/>
		<path class="st6" d="M138.45,108.6c3.24,0,4.98,1.12,4.98,1.58s-1.75,1.58-4.98,1.58c-3.24,0-4.98-1.12-4.98-1.58
			S135.21,108.6,138.45,108.6 M138.45,107.6c-3.3,0-5.98,1.16-5.98,2.58s2.68,2.58,5.98,2.58c3.3,0,5.98-1.16,5.98-2.58
			S141.75,107.6,138.45,107.6L138.45,107.6z"/>
	</g>
</g>
<g>
	<path class="st7" d="M138.45,91.82c5.51,0,10,4.49,10,10s-4.49,10-10,10c-5.51,0-10-4.49-10-10S132.94,91.82,138.45,91.82
		 M138.45,90.82c-6.08,0-11,4.92-11,11s4.92,11,11,11c6.08,0,11-4.92,11-11S144.52,90.82,138.45,90.82L138.45,90.82z"/>
</g>
<g>
	<path class="st7" d="M138.45,103.77c5.51,0,10,4.49,10,10s-4.49,10-10,10c-5.51,0-10-4.49-10-10S132.94,103.77,138.45,103.77
		 M138.45,102.77c-6.08,0-11,4.92-11,11s4.92,11,11,11c6.08,0,11-4.92,11-11S144.52,102.77,138.45,102.77L138.45,102.77z"/>
</g>
<line class="st4" x1="149.45" y1="138.1" x2="127.45" y2="138.1"/>
<line class="st4" x1="138.45" y1="141.57" x2="138.45" y2="134.48"/>
<g>
	<g>
		<polyline class="st8" points="107,70.51 103.47,61.96 99.59,70.54 		"/>
	</g>
	<line class="st8" x1="103.3" y1="70.49" x2="103.3" y2="91.28"/>
	<line class="st8" x1="99.55" y1="70.89" x2="107.05" y2="70.89"/>
</g>
<g>
	<g>
		<polyline class="st8" points="142.16,70.51 138.62,61.96 134.74,70.54 		"/>
	</g>
	<line class="st8" x1="138.45" y1="70.49" x2="138.45" y2="91.28"/>
	<line class="st8" x1="134.7" y1="70.89" x2="142.2" y2="70.89"/>
</g>
<text transform="matrix(0.6726 0 0 1 101.0508 54.4397)" class="st0 st1 st9">6</text>
<text transform="matrix(0.6726 0 0 1 133.9606 54.4397)" class="st0 st1 st9">27</text>
<text transform="matrix(0.6558 0 0 1 96.7295 191.2396)"><tspan x="0" y="0" class="st0 st1 st9">135</tspan><tspan x="-6.33" y="14.4" class="st0 st1 st9">KVAR</tspan></text>
<text transform="matrix(0.6558 0 0 1 131.8837 191.2396)"><tspan x="0" y="0" class="st0 st1 st9">135</tspan><tspan x="-6.33" y="14.4" class="st0 st1 st9">KVAR</tspan></text>
<line class="st4" x1="92.4" y1="141.78" x2="92.4" y2="134.69"/>
<line class="st4" x1="127.4" y1="141.78" x2="127.4" y2="134.69"/>
<line class="st4" x1="149.4" y1="141.78" x2="149.4" y2="134.69"/>
<text transform="matrix(0.6558 0 0 1 105.3455 235.2503)"><tspan x="0" y="0" class="st0 st1 st9">KTP: 3-1</tspan><tspan x="-7.35" y="14.4" class="st0 st1 st9">2X630 KVA</tspan></text>
<rect x="211.4" y="213.25" class="st3" width="90" height="52"/>
<line class="st4" x1="238.82" y1="141.35" x2="238.82" y2="134.26"/>
<g>
	<line class="st4" x1="228.74" y1="169.95" x2="248.65" y2="169.95"/>
	<line class="st4" x1="228.76" y1="169.64" x2="238.72" y2="149.49"/>
	<line class="st4" x1="238.95" y1="149.49" x2="248.9" y2="169.64"/>
	<g>
		<rect x="236.87" y="165.96" class="st5" width="2.75" height="7.73"/>
		<g>
			<line class="st4" x1="237.12" y1="166.16" x2="237.12" y2="173.57"/>
			<line class="st4" x1="239.72" y1="166.16" x2="239.72" y2="173.57"/>
		</g>
	</g>
	<g>
		<polygon class="st5" points="237.19,158.88 235.79,161.65 230.1,157.73 231.5,154.95 		"/>
		<g>
			<line class="st4" x1="230.38" y1="157.58" x2="235.84" y2="161.34"/>
			<line class="st4" x1="231.7" y1="154.96" x2="237.15" y2="158.72"/>
		</g>
	</g>
	<g>
		<polygon class="st5" points="245.97,155.88 247.39,158.64 241.73,162.63 240.31,159.87 		"/>
		<g>
			<line class="st4" x1="241.75" y1="162.27" x2="247.17" y2="158.45"/>
			<line class="st4" x1="240.41" y1="159.67" x2="245.83" y2="155.85"/>
		</g>
	</g>
</g>
<line class="st4" x1="238.82" y1="124.18" x2="238.82" y2="149.18"/>
<g>
	<g>
		<path class="st6" d="M238.82,111.41c-4.81,0-8.05-1.75-8.05-3.38s3.23-3.38,8.05-3.38s8.05,1.75,8.05,3.38
			S243.63,111.41,238.82,111.41z"/>
		<path class="st6" d="M238.82,105.15c4.61,0,7.55,1.7,7.55,2.88s-2.94,2.88-7.55,2.88c-4.61,0-7.55-1.7-7.55-2.88
			S234.22,105.15,238.82,105.15 M238.82,104.15c-4.72,0-8.55,1.74-8.55,3.88c0,2.14,3.83,3.88,8.55,3.88s8.55-1.74,8.55-3.88
			C247.37,105.89,243.54,104.15,238.82,104.15L238.82,104.15z"/>
	</g>
	<g>
		<path class="st6" d="M237.97,107.96c-3.14,0-5.48-1.1-5.48-2.08c0-0.98,2.34-2.08,5.48-2.08s5.48,1.1,5.48,2.08
			C243.45,106.86,241.1,107.96,237.97,107.96z"/>
		<path class="st6" d="M237.97,104.29c3.24,0,4.98,1.12,4.98,1.58s-1.75,1.58-4.98,1.58c-3.24,0-4.98-1.12-4.98-1.58
			S234.73,104.29,237.97,104.29 M237.97,103.29c-3.3,0-5.98,1.16-5.98,2.58c0,1.43,2.68,2.58,5.98,2.58c3.3,0,5.98-1.16,5.98-2.58
			C243.95,104.45,241.27,103.29,237.97,103.29L237.97,103.29z"/>
	</g>
	<g>
		<ellipse class="st6" cx="238.82" cy="110.18" rx="5.48" ry="2.08"/>
		<path class="st6" d="M238.82,108.6c3.24,0,4.98,1.12,4.98,1.58s-1.75,1.58-4.98,1.58c-3.24,0-4.98-1.12-4.98-1.58
			S235.59,108.6,238.82,108.6 M238.82,107.6c-3.3,0-5.98,1.16-5.98,2.58s2.68,2.58,5.98,2.58s5.98-1.16,5.98-2.58
			S242.13,107.6,238.82,107.6L238.82,107.6z"/>
	</g>
</g>
<g>
	<path class="st7" d="M238.82,91.82c5.51,0,10,4.49,10,10s-4.49,10-10,10s-10-4.49-10-10S233.31,91.82,238.82,91.82 M238.82,90.82
		c-6.08,0-11,4.92-11,11c0,6.08,4.92,11,11,11s11-4.92,11-11C249.82,95.75,244.9,90.82,238.82,90.82L238.82,90.82z"/>
</g>
<g>
	<path class="st7" d="M238.82,103.77c5.51,0,10,4.49,10,10s-4.49,10-10,10s-10-4.49-10-10S233.31,103.77,238.82,103.77
		 M238.82,102.77c-6.08,0-11,4.92-11,11s4.92,11,11,11s11-4.92,11-11S244.9,102.77,238.82,102.77L238.82,102.77z"/>
</g>
<line class="st4" x1="249.82" y1="138.1" x2="227.82" y2="138.1"/>
<line class="st4" x1="250.48" y1="141.57" x2="250.48" y2="134.48"/>
<line class="st4" x1="273.98" y1="141.35" x2="273.98" y2="134.26"/>
<g>
	<line class="st4" x1="263.9" y1="169.95" x2="283.8" y2="169.95"/>
	<line class="st4" x1="263.92" y1="169.64" x2="273.87" y2="149.49"/>
	<line class="st4" x1="274.1" y1="149.49" x2="284.06" y2="169.64"/>
	<g>
		<rect x="272.02" y="165.96" class="st5" width="2.75" height="7.73"/>
		<g>
			<line class="st4" x1="272.28" y1="166.16" x2="272.28" y2="173.57"/>
			<line class="st4" x1="274.87" y1="166.16" x2="274.87" y2="173.57"/>
		</g>
	</g>
	<g>
		<polygon class="st5" points="272.35,158.88 270.95,161.65 265.26,157.73 266.65,154.95 		"/>
		<g>
			<line class="st4" x1="265.53" y1="157.58" x2="270.99" y2="161.34"/>
			<line class="st4" x1="266.85" y1="154.96" x2="272.31" y2="158.72"/>
		</g>
	</g>
	<g>
		<polygon class="st5" points="281.12,155.88 282.54,158.64 276.88,162.63 275.46,159.87 		"/>
		<g>
			<line class="st4" x1="276.9" y1="162.27" x2="282.33" y2="158.45"/>
			<line class="st4" x1="275.56" y1="159.67" x2="280.99" y2="155.85"/>
		</g>
	</g>
</g>
<line class="st4" x1="273.98" y1="124.18" x2="273.98" y2="149.18"/>
<g>
	<path class="st7" d="M273.98,91.82c5.51,0,10,4.49,10,10s-4.49,10-10,10c-5.51,0-10-4.49-10-10S268.46,91.82,273.98,91.82
		 M273.98,90.82c-6.08,0-11,4.92-11,11c0,6.08,4.92,11,11,11c6.08,0,11-4.92,11-11C284.98,95.75,280.05,90.82,273.98,90.82
		L273.98,90.82z"/>
</g>
<g>
	<path class="st7" d="M273.98,103.77c5.51,0,10,4.49,10,10s-4.49,10-10,10c-5.51,0-10-4.49-10-10S268.46,103.77,273.98,103.77
		 M273.98,102.77c-6.08,0-11,4.92-11,11s4.92,11,11,11c6.08,0,11-4.92,11-11S280.05,102.77,273.98,102.77L273.98,102.77z"/>
</g>
<line class="st4" x1="284.98" y1="138.1" x2="262.98" y2="138.1"/>
<line class="st4" x1="273.98" y1="141.57" x2="273.98" y2="134.48"/>
<g>
	<g>
		<polyline class="st8" points="242.53,70.51 238.99,61.96 235.11,70.54 		"/>
	</g>
	<line class="st8" x1="238.82" y1="70.49" x2="238.82" y2="91.28"/>
	<line class="st8" x1="235.07" y1="70.89" x2="242.57" y2="70.89"/>
</g>
<g>
	<g>
		<polyline class="st8" points="277.68,70.51 274.15,61.96 270.27,70.54 		"/>
	</g>
	<line class="st8" x1="273.98" y1="70.49" x2="273.98" y2="91.28"/>
	<line class="st8" x1="270.23" y1="70.89" x2="277.73" y2="70.89"/>
</g>
<text transform="matrix(0.6726 0 0 1 236.5776 54.4397)" class="st0 st1 st9">4</text>
<text transform="matrix(0.6558 0 0 1 232.2563 191.2396)"><tspan x="0" y="0" class="st0 st1 st9">135</tspan><tspan x="-6.33" y="14.4" class="st0 st1 st9">KVAR</tspan></text>
<text transform="matrix(0.6558 0 0 1 267.4105 191.2396)"><tspan x="0" y="0" class="st0 st1 st9">135</tspan><tspan x="-6.33" y="14.4" class="st0 st1 st9">KVAR</tspan></text>
<line class="st4" x1="227.93" y1="141.78" x2="227.93" y2="134.69"/>
<line class="st4" x1="262.93" y1="141.78" x2="262.93" y2="134.69"/>
<line class="st4" x1="284.93" y1="141.78" x2="284.93" y2="134.69"/>
<text transform="matrix(0.6558 0 0 1 240.8722 228.0503)"><tspan x="0" y="0" class="st0 st1 st9">KTP: 3-3</tspan><tspan x="-32.35" y="14.4" class="st0 st1 st9">630 KVA - XI LÔ : 01</tspan><tspan x="-29.35" y="28.8" class="st0 st1 st9">180 KVA - NPK : 01</tspan></text>
<rect x="353.4" y="213.25" class="st3" width="90" height="52"/>
<line class="st4" x1="380.82" y1="141.35" x2="380.82" y2="134.26"/>
<g>
	<line class="st4" x1="370.74" y1="169.95" x2="390.65" y2="169.95"/>
	<line class="st4" x1="370.76" y1="169.64" x2="380.72" y2="149.49"/>
	<line class="st4" x1="380.95" y1="149.49" x2="390.9" y2="169.64"/>
	<g>
		<rect x="378.87" y="165.96" class="st5" width="2.75" height="7.73"/>
		<g>
			<line class="st4" x1="379.12" y1="166.16" x2="379.12" y2="173.57"/>
			<line class="st4" x1="381.72" y1="166.16" x2="381.72" y2="173.57"/>
		</g>
	</g>
	<g>
		<polygon class="st5" points="379.19,158.88 377.79,161.65 372.1,157.73 373.5,154.95 		"/>
		<g>
			<line class="st4" x1="372.38" y1="157.58" x2="377.84" y2="161.34"/>
			<line class="st4" x1="373.7" y1="154.96" x2="379.15" y2="158.72"/>
		</g>
	</g>
	<g>
		<polygon class="st5" points="387.97,155.88 389.39,158.64 383.73,162.63 382.31,159.87 		"/>
		<g>
			<line class="st4" x1="383.75" y1="162.27" x2="389.17" y2="158.45"/>
			<line class="st4" x1="382.41" y1="159.67" x2="387.83" y2="155.85"/>
		</g>
	</g>
</g>
<line class="st4" x1="380.82" y1="124.18" x2="380.82" y2="149.18"/>
<g>
	<g>
		<path class="st6" d="M380.82,111.41c-4.81,0-8.05-1.75-8.05-3.38s3.23-3.38,8.05-3.38s8.05,1.75,8.05,3.38
			S385.63,111.41,380.82,111.41z"/>
		<path class="st6" d="M380.82,105.15c4.61,0,7.55,1.7,7.55,2.88s-2.94,2.88-7.55,2.88c-4.61,0-7.55-1.7-7.55-2.88
			S376.22,105.15,380.82,105.15 M380.82,104.15c-4.72,0-8.55,1.74-8.55,3.88c0,2.14,3.83,3.88,8.55,3.88s8.55-1.74,8.55-3.88
			C389.37,105.89,385.54,104.15,380.82,104.15L380.82,104.15z"/>
	</g>
	<g>
		<path class="st6" d="M379.97,107.96c-3.14,0-5.48-1.1-5.48-2.08c0-0.98,2.34-2.08,5.48-2.08s5.48,1.1,5.48,2.08
			C385.45,106.86,383.1,107.96,379.97,107.96z"/>
		<path class="st6" d="M379.97,104.29c3.24,0,4.98,1.12,4.98,1.58s-1.75,1.58-4.98,1.58s-4.98-1.12-4.98-1.58
			S376.73,104.29,379.97,104.29 M379.97,103.29c-3.3,0-5.98,1.16-5.98,2.58c0,1.43,2.68,2.58,5.98,2.58c3.3,0,5.98-1.16,5.98-2.58
			C385.95,104.45,383.27,103.29,379.97,103.29L379.97,103.29z"/>
	</g>
	<g>
		<ellipse class="st6" cx="380.82" cy="110.18" rx="5.48" ry="2.08"/>
		<path class="st6" d="M380.82,108.6c3.24,0,4.98,1.12,4.98,1.58s-1.75,1.58-4.98,1.58s-4.98-1.12-4.98-1.58
			S377.59,108.6,380.82,108.6 M380.82,107.6c-3.3,0-5.98,1.16-5.98,2.58s2.68,2.58,5.98,2.58c3.3,0,5.98-1.16,5.98-2.58
			S384.13,107.6,380.82,107.6L380.82,107.6z"/>
	</g>
</g>
<g>
	<path class="st7" d="M380.82,91.82c5.51,0,10,4.49,10,10s-4.49,10-10,10c-5.51,0-10-4.49-10-10S375.31,91.82,380.82,91.82
		 M380.82,90.82c-6.08,0-11,4.92-11,11c0,6.08,4.92,11,11,11s11-4.92,11-11C391.82,95.75,386.9,90.82,380.82,90.82L380.82,90.82z"/>
</g>
<g>
	<path class="st7" d="M380.82,103.77c5.51,0,10,4.49,10,10s-4.49,10-10,10c-5.51,0-10-4.49-10-10S375.31,103.77,380.82,103.77
		 M380.82,102.77c-6.08,0-11,4.92-11,11s4.92,11,11,11s11-4.92,11-11S386.9,102.77,380.82,102.77L380.82,102.77z"/>
</g>
<line class="st4" x1="391.82" y1="138.1" x2="369.82" y2="138.1"/>
<line class="st4" x1="392.48" y1="141.57" x2="392.48" y2="134.48"/>
<line class="st4" x1="415.98" y1="141.35" x2="415.98" y2="134.26"/>
<g>
	<line class="st4" x1="405.9" y1="169.95" x2="425.8" y2="169.95"/>
	<line class="st4" x1="405.92" y1="169.64" x2="415.87" y2="149.49"/>
	<line class="st4" x1="416.1" y1="149.49" x2="426.06" y2="169.64"/>
	<g>
		<rect x="414.02" y="165.96" class="st5" width="2.75" height="7.73"/>
		<g>
			<line class="st4" x1="414.28" y1="166.16" x2="414.28" y2="173.57"/>
			<line class="st4" x1="416.87" y1="166.16" x2="416.87" y2="173.57"/>
		</g>
	</g>
	<g>
		<polygon class="st5" points="414.35,158.88 412.95,161.65 407.26,157.73 408.65,154.95 		"/>
		<g>
			<line class="st4" x1="407.53" y1="157.58" x2="412.99" y2="161.34"/>
			<line class="st4" x1="408.85" y1="154.96" x2="414.31" y2="158.72"/>
		</g>
	</g>
	<g>
		<polygon class="st5" points="423.12,155.88 424.54,158.64 418.88,162.63 417.46,159.87 		"/>
		<g>
			<line class="st4" x1="418.9" y1="162.27" x2="424.33" y2="158.45"/>
			<line class="st4" x1="417.56" y1="159.67" x2="422.99" y2="155.85"/>
		</g>
	</g>
</g>
<line class="st4" x1="415.98" y1="124.18" x2="415.98" y2="149.18"/>
<g>
	<g>
		<path class="st6" d="M415.98,111.41c-4.81,0-8.05-1.75-8.05-3.38s3.23-3.38,8.05-3.38s8.05,1.75,8.05,3.38
			S420.79,111.41,415.98,111.41z"/>
		<path class="st6" d="M415.98,105.15c4.61,0,7.55,1.7,7.55,2.88s-2.94,2.88-7.55,2.88s-7.55-1.7-7.55-2.88
			S411.37,105.15,415.98,105.15 M415.98,104.15c-4.72,0-8.55,1.74-8.55,3.88c0,2.14,3.83,3.88,8.55,3.88s8.55-1.74,8.55-3.88
			C424.52,105.89,420.7,104.15,415.98,104.15L415.98,104.15z"/>
	</g>
	<g>
		<path class="st6" d="M415.12,107.96c-3.14,0-5.48-1.1-5.48-2.08c0-0.98,2.34-2.08,5.48-2.08s5.48,1.1,5.48,2.08
			C420.6,106.86,418.26,107.96,415.12,107.96z"/>
		<path class="st6" d="M415.12,104.29c3.24,0,4.98,1.12,4.98,1.58s-1.75,1.58-4.98,1.58s-4.98-1.12-4.98-1.58
			S411.89,104.29,415.12,104.29 M415.12,103.29c-3.3,0-5.98,1.16-5.98,2.58c0,1.43,2.68,2.58,5.98,2.58c3.3,0,5.98-1.16,5.98-2.58
			C421.1,104.45,418.43,103.29,415.12,103.29L415.12,103.29z"/>
	</g>
	<g>
		<ellipse class="st6" cx="415.98" cy="110.18" rx="5.48" ry="2.08"/>
		<path class="st6" d="M415.98,108.6c3.24,0,4.98,1.12,4.98,1.58s-1.75,1.58-4.98,1.58s-4.98-1.12-4.98-1.58
			S412.74,108.6,415.98,108.6 M415.98,107.6c-3.3,0-5.98,1.16-5.98,2.58s2.68,2.58,5.98,2.58c3.3,0,5.98-1.16,5.98-2.58
			S419.28,107.6,415.98,107.6L415.98,107.6z"/>
	</g>
</g>
<g>
	<path class="st7" d="M415.98,91.82c5.51,0,10,4.49,10,10s-4.49,10-10,10s-10-4.49-10-10S410.46,91.82,415.98,91.82 M415.98,90.82
		c-6.08,0-11,4.92-11,11c0,6.08,4.92,11,11,11s11-4.92,11-11C426.98,95.75,422.05,90.82,415.98,90.82L415.98,90.82z"/>
</g>
<g>
	<path class="st7" d="M415.98,103.77c5.51,0,10,4.49,10,10s-4.49,10-10,10s-10-4.49-10-10S410.46,103.77,415.98,103.77
		 M415.98,102.77c-6.08,0-11,4.92-11,11s4.92,11,11,11s11-4.92,11-11S422.05,102.77,415.98,102.77L415.98,102.77z"/>
</g>
<line class="st4" x1="426.98" y1="138.1" x2="404.98" y2="138.1"/>
<line class="st4" x1="415.98" y1="141.57" x2="415.98" y2="134.48"/>
<g>
	<g>
		<polyline class="st8" points="384.53,70.51 380.99,61.96 377.11,70.54 		"/>
	</g>
	<line class="st8" x1="380.82" y1="70.49" x2="380.82" y2="91.28"/>
	<line class="st8" x1="377.07" y1="70.89" x2="384.57" y2="70.89"/>
</g>
<g>
	<g>
		<polyline class="st8" points="419.68,70.51 416.15,61.96 412.27,70.54 		"/>
	</g>
	<line class="st8" x1="415.98" y1="70.49" x2="415.98" y2="91.28"/>
	<line class="st8" x1="412.23" y1="70.89" x2="419.73" y2="70.89"/>
</g>
<text transform="matrix(0.6726 0 0 1 378.5776 54.4397)" class="st0 st1 st9">3</text>
<text transform="matrix(0.6726 0 0 1 411.4874 54.4397)" class="st0 st1 st9">30</text>
<text transform="matrix(0.6558 0 0 1 386.4434 191.2396)"><tspan x="0" y="0" class="st0 st1 st9">4X135</tspan><tspan x="1.01" y="14.4" class="st0 st1 st9">KVAR</tspan></text>
<line class="st4" x1="369.93" y1="141.78" x2="369.93" y2="134.69"/>
<line class="st4" x1="404.93" y1="141.78" x2="404.93" y2="134.69"/>
<line class="st4" x1="426.93" y1="141.78" x2="426.93" y2="134.69"/>
<text transform="matrix(0.6558 0 0 1 382.8722 235.2502)"><tspan x="0" y="0" class="st0 st1 st9">KTP: 3-8</tspan><tspan x="-7.35" y="14.4" class="st0 st1 st9">2X630 KVA</tspan></text>
<rect x="498.76" y="213.25" class="st3" width="90" height="52"/>
<line class="st4" x1="543.76" y1="141.35" x2="543.76" y2="134.26"/>
<g>
	<line class="st4" x1="533.68" y1="169.95" x2="553.58" y2="169.95"/>
	<line class="st4" x1="533.7" y1="169.64" x2="543.65" y2="149.49"/>
	<line class="st4" x1="543.88" y1="149.49" x2="553.84" y2="169.64"/>
	<g>
		<rect x="541.8" y="165.96" class="st5" width="2.75" height="7.73"/>
		<g>
			<line class="st4" x1="542.06" y1="166.16" x2="542.06" y2="173.57"/>
			<line class="st4" x1="544.65" y1="166.16" x2="544.65" y2="173.57"/>
		</g>
	</g>
	<g>
		<polygon class="st5" points="542.13,158.88 540.73,161.65 535.04,157.73 536.43,154.95 		"/>
		<g>
			<line class="st4" x1="535.32" y1="157.58" x2="540.77" y2="161.34"/>
			<line class="st4" x1="536.63" y1="154.96" x2="542.09" y2="158.72"/>
		</g>
	</g>
	<g>
		<polygon class="st5" points="550.9,155.88 552.32,158.64 546.66,162.63 545.24,159.87 		"/>
		<g>
			<line class="st4" x1="546.69" y1="162.27" x2="552.11" y2="158.45"/>
			<line class="st4" x1="545.34" y1="159.67" x2="550.77" y2="155.85"/>
		</g>
	</g>
</g>
<line class="st4" x1="543.76" y1="124.18" x2="543.76" y2="149.18"/>
<g>
	<g>
		<path class="st6" d="M543.76,111.41c-4.81,0-8.05-1.75-8.05-3.38s3.23-3.38,8.05-3.38s8.05,1.75,8.05,3.38
			S548.57,111.41,543.76,111.41z"/>
		<path class="st6" d="M543.76,105.15c4.61,0,7.55,1.7,7.55,2.88s-2.94,2.88-7.55,2.88c-4.61,0-7.55-1.7-7.55-2.88
			S539.15,105.15,543.76,105.15 M543.76,104.15c-4.72,0-8.55,1.74-8.55,3.88c0,2.14,3.83,3.88,8.55,3.88s8.55-1.74,8.55-3.88
			C552.3,105.89,548.48,104.15,543.76,104.15L543.76,104.15z"/>
	</g>
	<g>
		<path class="st6" d="M542.9,107.96c-3.14,0-5.48-1.1-5.48-2.08c0-0.98,2.34-2.08,5.48-2.08s5.48,1.1,5.48,2.08
			C548.38,106.86,546.04,107.96,542.9,107.96z"/>
		<path class="st6" d="M542.9,104.29c3.24,0,4.98,1.12,4.98,1.58s-1.75,1.58-4.98,1.58s-4.98-1.12-4.98-1.58
			S539.67,104.29,542.9,104.29 M542.9,103.29c-3.3,0-5.98,1.16-5.98,2.58s2.68,2.58,5.98,2.58c3.3,0,5.98-1.16,5.98-2.58
			S546.21,103.29,542.9,103.29L542.9,103.29z"/>
	</g>
	<g>
		<ellipse class="st6" cx="543.76" cy="110.18" rx="5.48" ry="2.08"/>
		<path class="st6" d="M543.76,108.6c3.24,0,4.98,1.12,4.98,1.58c0,0.46-1.75,1.58-4.98,1.58s-4.98-1.12-4.98-1.58
			C538.77,109.72,540.52,108.6,543.76,108.6 M543.76,107.6c-3.3,0-5.98,1.16-5.98,2.58c0,1.43,2.68,2.58,5.98,2.58
			c3.3,0,5.98-1.16,5.98-2.58C549.74,108.75,547.06,107.6,543.76,107.6L543.76,107.6z"/>
	</g>
</g>
<g>
	<path class="st7" d="M543.76,91.82c5.51,0,10,4.49,10,10s-4.49,10-10,10c-5.51,0-10-4.49-10-10S538.24,91.82,543.76,91.82
		 M543.76,90.82c-6.08,0-11,4.92-11,11s4.92,11,11,11s11-4.92,11-11S549.83,90.82,543.76,90.82L543.76,90.82z"/>
</g>
<g>
	<path class="st7" d="M543.76,103.77c5.51,0,10,4.49,10,10s-4.49,10-10,10c-5.51,0-10-4.49-10-10S538.24,103.77,543.76,103.77
		 M543.76,102.77c-6.08,0-11,4.92-11,11s4.92,11,11,11s11-4.92,11-11S549.83,102.77,543.76,102.77L543.76,102.77z"/>
</g>
<line class="st4" x1="554.76" y1="138.1" x2="532.76" y2="138.1"/>
<line class="st4" x1="543.76" y1="141.57" x2="543.76" y2="134.48"/>
<g>
	<g>
		<polyline class="st8" points="547.46,70.51 543.93,61.96 540.05,70.54 		"/>
	</g>
	<line class="st8" x1="543.76" y1="70.49" x2="543.76" y2="91.28"/>
	<line class="st8" x1="540.01" y1="70.89" x2="547.51" y2="70.89"/>
</g>
<text transform="matrix(0.6726 0 0 1 541.512 54.4397)" class="st0 st1 st9">2</text>
<text transform="matrix(0.6558 0 0 1 532.3781 191.2396)"><tspan x="0" y="0" class="st0 st1 st9">4X135</tspan><tspan x="1.01" y="14.4" class="st0 st1 st9">KVAR</tspan></text>
<line class="st4" x1="543.76" y1="141.78" x2="543.76" y2="134.69"/>
<text transform="matrix(0.6558 0 0 1 528.2297 235.2502)"><tspan x="0" y="0" class="st0 st1 st9">KTP: 5-4</tspan><tspan x="-7.35" y="14.4" class="st0 st1 st9">1X630 KVA</tspan></text>
<rect x="75.51" y="265.55" class="st3" width="90" height="21.79"/>
<text transform="matrix(0.7128 0 0 1 101.7176 280.4525)" class="st0 st1 st10">NHÀ LỌC</text>
<rect x="211.48" y="265.55" class="st3" width="90" height="21.79"/>
<text transform="matrix(0.7128 0 0 1 246.691 280.1808)" class="st0 st1 st10">NPK</text>
<rect x="353.48" y="265.55" class="st3" width="90" height="21.79"/>
<text transform="matrix(0.7128 0 0 1 377.691 280.4525)" class="st0 st1 st10">NHÀ ĐẬP</text>
<rect x="498.76" y="265.55" class="st3" width="90" height="21.79"/>
<text transform="matrix(0.7128 0 0 1 514.2496 280.4525)" class="st0 st1 st10">NHÀ CƠ KHÍ</text>
</svg>
