<?xml version="1.0" encoding="utf-8"?>
<!-- Generator: Adobe Illustrator 27.1.1, SVG Export Plug-In . SVG Version: 6.00 Build 0)  -->
<svg version="1.1" id="Layer_1" xmlns="http://www.w3.org/2000/svg" xmlns:xlink="http://www.w3.org/1999/xlink" x="0px" y="0px"
	 viewBox="0 0 692 365" style="enable-background:new 0 0 692 365;" xml:space="preserve">
<style type="text/css">
	.st0{fill:none;stroke:#212830;stroke-linecap:square;stroke-miterlimit:10;}
	.st1{fill:none;stroke:#000000;stroke-miterlimit:10;}
	.st2{stroke:#000000;stroke-linecap:square;stroke-miterlimit:10;}
	.st3{fill:#F7931E;}
	.st4{fill:#F15A24;}
	.st5{fill:#212830;}
	.st6{font-family:'ArialMT';}
	.st7{font-size:12px;}
	.st8{font-family:'Arial-ItalicMT';}
	.st9{font-size:14px;}
	.st10{font-size:21px;}
	.st11{fill:none;stroke:#FF0000;stroke-linecap:square;stroke-miterlimit:10;}
	.st12{fill:#E6E6E6;stroke:#FF0000;stroke-miterlimit:10;}
	.st13{fill:#FF00FF;}
	.st14{fill:#FF0000;}
	.st15{fill:#FF0000;stroke:#FF0000;stroke-linecap:square;stroke-miterlimit:10;}
</style>
<g>
	<line class="st0" x1="92.8" y1="167.4" x2="92.8" y2="138.75"/>
	<g>
		<rect x="88.3" y="180.74" class="st1" width="9" height="17"/>
		<line class="st0" x1="92.8" y1="180.16" x2="92.8" y2="172.74"/>
		<line class="st0" x1="92.8" y1="206.16" x2="92.8" y2="198.13"/>
		<g>
			<line class="st0" x1="89.05" y1="175.49" x2="92.53" y2="171.99"/>
			<line class="st0" x1="96.55" y1="175.49" x2="93.07" y2="171.99"/>
		</g>
		<g>
			<line class="st0" x1="89.05" y1="171.36" x2="92.53" y2="167.86"/>
			<line class="st0" x1="96.55" y1="171.36" x2="93.07" y2="167.86"/>
		</g>
		<g>
			<line class="st0" x1="96.55" y1="202.86" x2="93.07" y2="206.36"/>
			<line class="st0" x1="89.05" y1="202.86" x2="92.53" y2="206.36"/>
		</g>
		<g>
			<line class="st0" x1="96.55" y1="206.86" x2="93.07" y2="210.36"/>
			<line class="st0" x1="89.05" y1="206.86" x2="92.53" y2="210.36"/>
		</g>
	</g>
	<g>
		<g>
			<polyline class="st2" points="89.09,231.94 92.63,240.49 96.51,231.91 			"/>
		</g>
		<line class="st0" x1="92.8" y1="231.97" x2="92.8" y2="211.18"/>
		<line class="st0" x1="96.55" y1="231.56" x2="89.05" y2="231.56"/>
	</g>
</g>
<g>
	<line class="st0" x1="126.42" y1="167.4" x2="126.42" y2="138.75"/>
	<g>
		<rect x="121.92" y="180.74" class="st1" width="9" height="17"/>
		<line class="st0" x1="126.42" y1="180.16" x2="126.42" y2="172.74"/>
		<line class="st0" x1="126.42" y1="206.16" x2="126.42" y2="198.13"/>
		<g>
			<line class="st0" x1="122.67" y1="175.49" x2="126.15" y2="171.99"/>
			<line class="st0" x1="130.17" y1="175.49" x2="126.69" y2="171.99"/>
		</g>
		<g>
			<line class="st0" x1="122.67" y1="171.36" x2="126.15" y2="167.86"/>
			<line class="st0" x1="130.17" y1="171.36" x2="126.69" y2="167.86"/>
		</g>
		<g>
			<line class="st0" x1="130.17" y1="202.86" x2="126.69" y2="206.36"/>
			<line class="st0" x1="122.67" y1="202.86" x2="126.15" y2="206.36"/>
		</g>
		<g>
			<line class="st0" x1="130.17" y1="206.86" x2="126.69" y2="210.36"/>
			<line class="st0" x1="122.67" y1="206.86" x2="126.15" y2="210.36"/>
		</g>
	</g>
	<g>
		<g>
			<polyline class="st2" points="122.71,231.94 126.25,240.49 130.13,231.91 			"/>
		</g>
		<line class="st0" x1="126.42" y1="231.97" x2="126.42" y2="211.18"/>
		<line class="st0" x1="130.17" y1="231.56" x2="122.67" y2="231.56"/>
	</g>
</g>
<g>
	<line class="st0" x1="160.59" y1="167.4" x2="160.59" y2="138.75"/>
	<g>
		<rect x="156.09" y="180.74" class="st1" width="9" height="17"/>
		<line class="st0" x1="160.59" y1="180.16" x2="160.59" y2="172.74"/>
		<line class="st0" x1="160.59" y1="206.16" x2="160.59" y2="198.13"/>
		<g>
			<line class="st0" x1="156.84" y1="175.49" x2="160.32" y2="171.99"/>
			<line class="st0" x1="164.34" y1="175.49" x2="160.85" y2="171.99"/>
		</g>
		<g>
			<line class="st0" x1="156.84" y1="171.36" x2="160.32" y2="167.86"/>
			<line class="st0" x1="164.34" y1="171.36" x2="160.85" y2="167.86"/>
		</g>
		<g>
			<line class="st0" x1="164.34" y1="202.86" x2="160.85" y2="206.36"/>
			<line class="st0" x1="156.84" y1="202.86" x2="160.32" y2="206.36"/>
		</g>
		<g>
			<line class="st0" x1="164.34" y1="206.86" x2="160.85" y2="210.36"/>
			<line class="st0" x1="156.84" y1="206.86" x2="160.32" y2="210.36"/>
		</g>
	</g>
	<g>
		<g>
			<polyline class="st2" points="156.88,231.94 160.41,240.49 164.29,231.91 			"/>
		</g>
		<line class="st0" x1="160.59" y1="231.97" x2="160.59" y2="211.18"/>
		<line class="st0" x1="164.34" y1="231.56" x2="156.84" y2="231.56"/>
	</g>
</g>
<g>
	<line class="st0" x1="196.63" y1="167.4" x2="196.63" y2="138.75"/>
	<g>
		<rect x="192.13" y="180.74" class="st1" width="9" height="17"/>
		<line class="st0" x1="196.63" y1="180.16" x2="196.63" y2="172.74"/>
		<line class="st0" x1="196.63" y1="206.16" x2="196.63" y2="198.13"/>
		<g>
			<line class="st0" x1="192.88" y1="175.49" x2="196.36" y2="171.99"/>
			<line class="st0" x1="200.38" y1="175.49" x2="196.9" y2="171.99"/>
		</g>
		<g>
			<line class="st0" x1="192.88" y1="171.36" x2="196.36" y2="167.86"/>
			<line class="st0" x1="200.38" y1="171.36" x2="196.9" y2="167.86"/>
		</g>
		<g>
			<line class="st0" x1="200.38" y1="202.86" x2="196.9" y2="206.36"/>
			<line class="st0" x1="192.88" y1="202.86" x2="196.36" y2="206.36"/>
		</g>
		<g>
			<line class="st0" x1="200.38" y1="206.86" x2="196.9" y2="210.36"/>
			<line class="st0" x1="192.88" y1="206.86" x2="196.36" y2="210.36"/>
		</g>
	</g>
	<g>
		<g>
			<polyline class="st2" points="192.92,231.94 196.46,240.49 200.33,231.91 			"/>
		</g>
		<line class="st0" x1="196.63" y1="231.97" x2="196.63" y2="211.18"/>
		<line class="st0" x1="200.38" y1="231.56" x2="192.88" y2="231.56"/>
	</g>
</g>
<g>
	<line class="st0" x1="233.59" y1="167.4" x2="233.59" y2="138.75"/>
	<g>
		<rect x="229.09" y="180.74" class="st1" width="9" height="17"/>
		<line class="st0" x1="233.59" y1="180.16" x2="233.59" y2="172.74"/>
		<line class="st0" x1="233.59" y1="206.16" x2="233.59" y2="198.13"/>
		<g>
			<line class="st0" x1="229.84" y1="175.49" x2="233.32" y2="171.99"/>
			<line class="st0" x1="237.34" y1="175.49" x2="233.85" y2="171.99"/>
		</g>
		<g>
			<line class="st0" x1="229.84" y1="171.36" x2="233.32" y2="167.86"/>
			<line class="st0" x1="237.34" y1="171.36" x2="233.85" y2="167.86"/>
		</g>
		<g>
			<line class="st0" x1="237.34" y1="202.86" x2="233.85" y2="206.36"/>
			<line class="st0" x1="229.84" y1="202.86" x2="233.32" y2="206.36"/>
		</g>
		<g>
			<line class="st0" x1="237.34" y1="206.86" x2="233.85" y2="210.36"/>
			<line class="st0" x1="229.84" y1="206.86" x2="233.32" y2="210.36"/>
		</g>
	</g>
	<g>
		<g>
			<polyline class="st2" points="229.88,231.94 233.41,240.49 237.29,231.91 			"/>
		</g>
		<line class="st0" x1="233.59" y1="231.97" x2="233.59" y2="211.18"/>
		<line class="st0" x1="237.34" y1="231.56" x2="229.84" y2="231.56"/>
	</g>
</g>
<g>
	<line class="st0" x1="269.64" y1="167.4" x2="269.64" y2="138.75"/>
	<g>
		<rect x="265.14" y="180.74" class="st1" width="9" height="17"/>
		<line class="st0" x1="269.64" y1="180.16" x2="269.64" y2="172.74"/>
		<line class="st0" x1="269.64" y1="206.16" x2="269.64" y2="198.13"/>
		<g>
			<line class="st0" x1="265.89" y1="175.49" x2="269.37" y2="171.99"/>
			<line class="st0" x1="273.39" y1="175.49" x2="269.91" y2="171.99"/>
		</g>
		<g>
			<line class="st0" x1="265.89" y1="171.36" x2="269.37" y2="167.86"/>
			<line class="st0" x1="273.39" y1="171.36" x2="269.91" y2="167.86"/>
		</g>
		<g>
			<line class="st0" x1="273.39" y1="202.86" x2="269.91" y2="206.36"/>
			<line class="st0" x1="265.89" y1="202.86" x2="269.37" y2="206.36"/>
		</g>
		<g>
			<line class="st0" x1="273.39" y1="206.86" x2="269.91" y2="210.36"/>
			<line class="st0" x1="265.89" y1="206.86" x2="269.37" y2="210.36"/>
		</g>
	</g>
	<g>
		<g>
			<polyline class="st2" points="265.93,231.94 269.47,240.49 273.35,231.91 			"/>
		</g>
		<line class="st0" x1="269.64" y1="231.97" x2="269.64" y2="211.18"/>
		<line class="st0" x1="273.39" y1="231.56" x2="265.89" y2="231.56"/>
	</g>
</g>
<g>
	<line class="st0" x1="339.93" y1="167.4" x2="339.93" y2="138.75"/>
	<g>
		<rect x="335.43" y="180.74" class="st1" width="9" height="17"/>
		<line class="st0" x1="339.93" y1="180.16" x2="339.93" y2="172.74"/>
		<line class="st0" x1="339.93" y1="206.16" x2="339.93" y2="198.13"/>
		<g>
			<line class="st0" x1="336.18" y1="175.49" x2="339.66" y2="171.99"/>
			<line class="st0" x1="343.68" y1="175.49" x2="340.2" y2="171.99"/>
		</g>
		<g>
			<line class="st0" x1="336.18" y1="171.36" x2="339.66" y2="167.86"/>
			<line class="st0" x1="343.68" y1="171.36" x2="340.2" y2="167.86"/>
		</g>
		<g>
			<line class="st0" x1="343.68" y1="202.86" x2="340.2" y2="206.36"/>
			<line class="st0" x1="336.18" y1="202.86" x2="339.66" y2="206.36"/>
		</g>
		<g>
			<line class="st0" x1="343.68" y1="206.86" x2="340.2" y2="210.36"/>
			<line class="st0" x1="336.18" y1="206.86" x2="339.66" y2="210.36"/>
		</g>
	</g>
	<g>
		<g>
			<polyline class="st2" points="336.22,231.94 339.76,240.49 343.64,231.91 			"/>
		</g>
		<line class="st0" x1="339.93" y1="231.97" x2="339.93" y2="211.18"/>
		<line class="st0" x1="343.68" y1="231.56" x2="336.18" y2="231.56"/>
	</g>
</g>
<g>
	<line class="st0" x1="375.62" y1="167.4" x2="375.62" y2="138.75"/>
	<g>
		<rect x="371.12" y="180.74" class="st1" width="9" height="17"/>
		<line class="st0" x1="375.62" y1="180.16" x2="375.62" y2="172.74"/>
		<line class="st0" x1="375.62" y1="206.16" x2="375.62" y2="198.13"/>
		<g>
			<line class="st0" x1="371.87" y1="175.49" x2="375.35" y2="171.99"/>
			<line class="st0" x1="379.37" y1="175.49" x2="375.89" y2="171.99"/>
		</g>
		<g>
			<line class="st0" x1="371.87" y1="171.36" x2="375.35" y2="167.86"/>
			<line class="st0" x1="379.37" y1="171.36" x2="375.89" y2="167.86"/>
		</g>
		<g>
			<line class="st0" x1="379.37" y1="202.86" x2="375.89" y2="206.36"/>
			<line class="st0" x1="371.87" y1="202.86" x2="375.35" y2="206.36"/>
		</g>
		<g>
			<line class="st0" x1="379.37" y1="206.86" x2="375.89" y2="210.36"/>
			<line class="st0" x1="371.87" y1="206.86" x2="375.35" y2="210.36"/>
		</g>
	</g>
	<g>
		<g>
			<polyline class="st2" points="371.91,231.94 375.45,240.49 379.33,231.91 			"/>
		</g>
		<line class="st0" x1="375.62" y1="231.97" x2="375.62" y2="211.18"/>
		<line class="st0" x1="379.37" y1="231.56" x2="371.87" y2="231.56"/>
	</g>
</g>
<g>
	<line class="st0" x1="411.53" y1="167.4" x2="411.53" y2="138.75"/>
	<g>
		<rect x="407.03" y="180.74" class="st1" width="9" height="17"/>
		<line class="st0" x1="411.53" y1="180.16" x2="411.53" y2="172.74"/>
		<line class="st0" x1="411.53" y1="206.16" x2="411.53" y2="198.13"/>
		<g>
			<line class="st0" x1="407.78" y1="175.49" x2="411.26" y2="171.99"/>
			<line class="st0" x1="415.28" y1="175.49" x2="411.8" y2="171.99"/>
		</g>
		<g>
			<line class="st0" x1="407.78" y1="171.36" x2="411.26" y2="167.86"/>
			<line class="st0" x1="415.28" y1="171.36" x2="411.8" y2="167.86"/>
		</g>
		<g>
			<line class="st0" x1="415.28" y1="202.86" x2="411.8" y2="206.36"/>
			<line class="st0" x1="407.78" y1="202.86" x2="411.26" y2="206.36"/>
		</g>
		<g>
			<line class="st0" x1="415.28" y1="206.86" x2="411.8" y2="210.36"/>
			<line class="st0" x1="407.78" y1="206.86" x2="411.26" y2="210.36"/>
		</g>
	</g>
	<g>
		<g>
			<polyline class="st2" points="407.82,231.94 411.36,240.49 415.24,231.91 			"/>
		</g>
		<line class="st0" x1="411.53" y1="231.97" x2="411.53" y2="211.18"/>
		<line class="st0" x1="415.28" y1="231.56" x2="407.78" y2="231.56"/>
	</g>
</g>
<g>
	<line class="st0" x1="448.48" y1="167.4" x2="448.48" y2="138.75"/>
	<g>
		<rect x="443.98" y="180.74" class="st1" width="9" height="17"/>
		<line class="st0" x1="448.48" y1="180.16" x2="448.48" y2="172.74"/>
		<line class="st0" x1="448.48" y1="206.16" x2="448.48" y2="198.13"/>
		<g>
			<line class="st0" x1="444.73" y1="175.49" x2="448.21" y2="171.99"/>
			<line class="st0" x1="452.23" y1="175.49" x2="448.75" y2="171.99"/>
		</g>
		<g>
			<line class="st0" x1="444.73" y1="171.36" x2="448.21" y2="167.86"/>
			<line class="st0" x1="452.23" y1="171.36" x2="448.75" y2="167.86"/>
		</g>
		<g>
			<line class="st0" x1="452.23" y1="202.86" x2="448.75" y2="206.36"/>
			<line class="st0" x1="444.73" y1="202.86" x2="448.21" y2="206.36"/>
		</g>
		<g>
			<line class="st0" x1="452.23" y1="206.86" x2="448.75" y2="210.36"/>
			<line class="st0" x1="444.73" y1="206.86" x2="448.21" y2="210.36"/>
		</g>
	</g>
	<g>
		<g>
			<polyline class="st2" points="444.78,231.94 448.31,240.49 452.19,231.91 			"/>
		</g>
		<line class="st0" x1="448.48" y1="231.97" x2="448.48" y2="211.18"/>
		<line class="st0" x1="452.23" y1="231.56" x2="444.73" y2="231.56"/>
	</g>
</g>
<g>
	<line class="st0" x1="484.58" y1="167.4" x2="484.58" y2="138.75"/>
	<g>
		<rect x="480.08" y="180.74" class="st1" width="9" height="17"/>
		<line class="st0" x1="484.58" y1="180.16" x2="484.58" y2="172.74"/>
		<line class="st0" x1="484.58" y1="206.16" x2="484.58" y2="198.13"/>
		<g>
			<line class="st0" x1="480.83" y1="175.49" x2="484.31" y2="171.99"/>
			<line class="st0" x1="488.33" y1="175.49" x2="484.85" y2="171.99"/>
		</g>
		<g>
			<line class="st0" x1="480.83" y1="171.36" x2="484.31" y2="167.86"/>
			<line class="st0" x1="488.33" y1="171.36" x2="484.85" y2="167.86"/>
		</g>
		<g>
			<line class="st0" x1="488.33" y1="202.86" x2="484.85" y2="206.36"/>
			<line class="st0" x1="480.83" y1="202.86" x2="484.31" y2="206.36"/>
		</g>
		<g>
			<line class="st0" x1="488.33" y1="206.86" x2="484.85" y2="210.36"/>
			<line class="st0" x1="480.83" y1="206.86" x2="484.31" y2="210.36"/>
		</g>
	</g>
	<g>
		<g>
			<polyline class="st2" points="480.87,231.94 484.41,240.49 488.29,231.91 			"/>
		</g>
		<line class="st0" x1="484.58" y1="231.97" x2="484.58" y2="211.18"/>
		<line class="st0" x1="488.33" y1="231.56" x2="480.83" y2="231.56"/>
	</g>
</g>
<rect x="79.74" y="132" class="st3" width="463.76" height="6.56"/>
<rect x="158.49" y="132.77" class="st4" width="5.41" height="5.5"/>
<rect x="194.53" y="132.77" class="st4" width="5.41" height="5.5"/>
<rect x="90.96" y="132.77" class="st4" width="5.41" height="5.5"/>
<rect x="123.54" y="132.77" class="st4" width="5.41" height="5.5"/>
<text transform="matrix(0.4589 0 0 1 92.3095 129.6183)" class="st5 st6 st7">1</text>
<text transform="matrix(0.6726 0 0 1 123.881 129.6179)" class="st5 st6 st7">2</text>
<text transform="matrix(0.6726 0 0 1 159.8315 129.6179)" class="st5 st6 st7">3</text>
<text transform="matrix(0.6726 0 0 1 195.8782 129.6179)" class="st5 st6 st7">4</text>
<rect x="231.05" y="132.77" class="st4" width="5.41" height="5.5"/>
<text transform="matrix(0.6726 0 0 1 232.3976 129.6181)" class="st5 st6 st7">5</text>
<rect x="267.48" y="132.77" class="st4" width="5.41" height="5.5"/>
<text transform="matrix(0.6726 0 0 1 267.8216 129.6179)" class="st5 st6 st7">6</text>
<text transform="matrix(0.7096 0 0 1 278.2048 59.4135)" class="st5 st8 st9">683</text>
<text transform="matrix(0.7096 0 0 1 85.2048 117.4135)" class="st5 st8 st7">6KV</text>
<text transform="matrix(0.7128 0 0 1 284.5436 27.4981)" class="st5 st6 st10">TRẠM RP3</text>
<rect x="302.43" y="132.77" class="st4" width="5.41" height="5.5"/>
<rect x="337.99" y="132.77" class="st4" width="5.41" height="5.5"/>
<rect x="373.49" y="132.77" class="st4" width="5.41" height="5.5"/>
<text transform="matrix(0.6726 0 0 1 344.3382 129.6181)" class="st5 st6 st7">10</text>
<rect x="409.34" y="132.77" class="st4" width="5.41" height="5.5"/>
<rect x="445.39" y="132.77" class="st4" width="5.41" height="5.5"/>
<text transform="matrix(0.6726 0 0 1 408.6861 129.6177)" class="st5 st6 st7">12</text>
<text transform="matrix(0.6726 0 0 1 443.7327 129.6177)" class="st5 st6 st7">13</text>
<rect x="481.91" y="132.77" class="st4" width="5.41" height="5.5"/>
<text transform="matrix(0.6726 0 0 1 480.2521 129.6179)" class="st5 st6 st7">14</text>
<rect x="517.41" y="132.77" class="st4" width="5.41" height="5.5"/>
<text transform="matrix(0.6726 0 0 1 371.6386 129.1914)" class="st5 st6 st7">11</text>
<text transform="matrix(0.6726 0 0 1 525.6385 130.1914)" class="st5 st6 st7">16</text>
<g>
	<line class="st11" x1="115.26" y1="315.66" x2="115.26" y2="308.57"/>
	<rect x="110.92" y="250.72" class="st0" width="31" height="100"/>
	<g>
		<line class="st11" x1="116.34" y1="344.26" x2="136.25" y2="344.26"/>
		<line class="st11" x1="116.36" y1="343.95" x2="126.31" y2="323.8"/>
		<line class="st11" x1="126.55" y1="323.8" x2="136.5" y2="343.95"/>
		<g>
			<rect x="124.47" y="340.27" class="st12" width="2.75" height="7.73"/>
			<g>
				<line class="st11" x1="124.72" y1="340.47" x2="124.72" y2="347.88"/>
				<line class="st11" x1="127.32" y1="340.47" x2="127.32" y2="347.88"/>
			</g>
		</g>
		<g>
			<polygon class="st12" points="124.79,333.19 123.39,335.96 117.7,332.04 119.1,329.26 			"/>
			<g>
				<line class="st11" x1="117.98" y1="331.89" x2="123.44" y2="335.65"/>
				<line class="st11" x1="119.3" y1="329.28" x2="124.75" y2="333.03"/>
			</g>
		</g>
		<g>
			<polygon class="st12" points="133.57,330.19 134.99,332.95 129.33,336.94 127.91,334.18 			"/>
			<g>
				<line class="st11" x1="129.35" y1="336.58" x2="134.77" y2="332.76"/>
				<line class="st11" x1="128.01" y1="333.98" x2="133.43" y2="330.16"/>
			</g>
		</g>
	</g>
	<line class="st11" x1="126.42" y1="298.49" x2="126.42" y2="323.49"/>
	<g>
		<g>
			<path class="st13" d="M126.42,285.72c-4.81,0-8.05-1.75-8.05-3.38s3.23-3.38,8.05-3.38s8.05,1.75,8.05,3.38
				S131.23,285.72,126.42,285.72z"/>
			<path class="st13" d="M126.42,279.46c4.61,0,7.55,1.7,7.55,2.88s-2.94,2.88-7.55,2.88c-4.61,0-7.55-1.7-7.55-2.88
				S121.82,279.46,126.42,279.46 M126.42,278.46c-4.72,0-8.55,1.74-8.55,3.88c0,2.14,3.83,3.88,8.55,3.88s8.55-1.74,8.55-3.88
				C134.97,280.2,131.14,278.46,126.42,278.46L126.42,278.46z"/>
		</g>
		<g>
			<ellipse class="st13" cx="125.57" cy="280.18" rx="5.48" ry="2.08"/>
			<path class="st13" d="M125.57,278.6c3.24,0,4.98,1.12,4.98,1.58s-1.75,1.58-4.98,1.58c-3.24,0-4.98-1.12-4.98-1.58
				S122.33,278.6,125.57,278.6 M125.57,277.6c-3.3,0-5.98,1.16-5.98,2.58c0,1.43,2.68,2.58,5.98,2.58s5.98-1.16,5.98-2.58
				C131.55,278.76,128.87,277.6,125.57,277.6L125.57,277.6z"/>
		</g>
		<g>
			<path class="st13" d="M126.42,286.58c-3.14,0-5.48-1.1-5.48-2.08s2.34-2.08,5.48-2.08s5.48,1.1,5.48,2.08
				S129.56,286.58,126.42,286.58z"/>
			<path class="st13" d="M126.42,282.91c3.24,0,4.98,1.12,4.98,1.58s-1.75,1.58-4.98,1.58c-3.24,0-4.98-1.12-4.98-1.58
				S123.19,282.91,126.42,282.91 M126.42,281.91c-3.3,0-5.98,1.16-5.98,2.58c0,1.43,2.68,2.58,5.98,2.58s5.98-1.16,5.98-2.58
				C132.4,283.06,129.73,281.91,126.42,281.91L126.42,281.91z"/>
		</g>
	</g>
	<g>
		<path class="st14" d="M126.42,266.13c5.51,0,10,4.49,10,10s-4.49,10-10,10s-10-4.49-10-10S120.91,266.13,126.42,266.13
			 M126.42,265.13c-6.08,0-11,4.92-11,11s4.92,11,11,11s11-4.92,11-11S132.5,265.13,126.42,265.13L126.42,265.13z"/>
	</g>
	<g>
		<path class="st14" d="M126.42,278.08c5.51,0,10,4.49,10,10s-4.49,10-10,10s-10-4.49-10-10S120.91,278.08,126.42,278.08
			 M126.42,277.08c-6.08,0-11,4.92-11,11s4.92,11,11,11s11-4.92,11-11S132.5,277.08,126.42,277.08L126.42,277.08z"/>
	</g>
	<line class="st11" x1="137.42" y1="312.41" x2="115.42" y2="312.41"/>
	<line class="st11" x1="138.14" y1="315.88" x2="138.14" y2="308.79"/>
	<line class="st11" x1="126.42" y1="240.38" x2="126.42" y2="265.38"/>
</g>
<line class="st11" x1="172.2" y1="350.72" x2="172.2" y2="343.63"/>
<g>
	<line class="st11" x1="149.42" y1="315.66" x2="149.42" y2="308.57"/>
	<rect x="145.09" y="250.72" class="st0" width="31" height="100"/>
	<g>
		<line class="st11" x1="150.51" y1="344.26" x2="170.41" y2="344.26"/>
		<line class="st11" x1="150.53" y1="343.95" x2="160.48" y2="323.8"/>
		<line class="st11" x1="160.71" y1="323.8" x2="170.67" y2="343.95"/>
		<g>
			<rect x="158.63" y="340.27" class="st12" width="2.75" height="7.73"/>
			<g>
				<line class="st11" x1="158.89" y1="340.47" x2="158.89" y2="347.88"/>
				<line class="st11" x1="161.48" y1="340.47" x2="161.48" y2="347.88"/>
			</g>
		</g>
		<g>
			<polygon class="st12" points="158.95,333.19 157.56,335.96 151.86,332.04 153.26,329.26 			"/>
			<g>
				<line class="st11" x1="152.14" y1="331.89" x2="157.6" y2="335.65"/>
				<line class="st11" x1="153.46" y1="329.28" x2="158.92" y2="333.03"/>
			</g>
		</g>
		<g>
			<polygon class="st12" points="167.73,330.19 169.15,332.95 163.49,336.94 162.07,334.18 			"/>
			<g>
				<line class="st11" x1="163.51" y1="336.58" x2="168.94" y2="332.76"/>
				<line class="st11" x1="162.17" y1="333.98" x2="167.6" y2="330.16"/>
			</g>
		</g>
	</g>
	<line class="st11" x1="160.59" y1="298.49" x2="160.59" y2="323.49"/>
	<g>
		<g>
			<path class="st13" d="M160.58,285.72c-4.81,0-8.05-1.75-8.05-3.38s3.23-3.38,8.05-3.38s8.05,1.75,8.05,3.38
				S165.4,285.72,160.58,285.72z"/>
			<path class="st13" d="M160.59,279.46c4.61,0,7.55,1.7,7.55,2.88s-2.94,2.88-7.55,2.88c-4.61,0-7.55-1.7-7.55-2.88
				S155.98,279.46,160.59,279.46 M160.59,278.46c-4.72,0-8.55,1.74-8.55,3.88c0,2.14,3.83,3.88,8.55,3.88s8.55-1.74,8.55-3.88
				C169.13,280.2,165.31,278.46,160.59,278.46L160.59,278.46z"/>
		</g>
		<g>
			<ellipse class="st13" cx="159.73" cy="280.18" rx="5.48" ry="2.08"/>
			<path class="st13" d="M159.73,278.6c3.24,0,4.98,1.12,4.98,1.58s-1.75,1.58-4.98,1.58c-3.24,0-4.98-1.12-4.98-1.58
				S156.49,278.6,159.73,278.6 M159.73,277.6c-3.3,0-5.98,1.16-5.98,2.58c0,1.43,2.68,2.58,5.98,2.58c3.3,0,5.98-1.16,5.98-2.58
				C165.71,278.76,163.03,277.6,159.73,277.6L159.73,277.6z"/>
		</g>
		<g>
			<path class="st13" d="M160.58,286.58c-3.14,0-5.48-1.1-5.48-2.08s2.34-2.08,5.48-2.08s5.48,1.1,5.48,2.08
				S163.72,286.58,160.58,286.58z"/>
			<path class="st13" d="M160.59,282.91c3.24,0,4.98,1.12,4.98,1.58s-1.75,1.58-4.98,1.58c-3.24,0-4.98-1.12-4.98-1.58
				S157.35,282.91,160.59,282.91 M160.59,281.91c-3.3,0-5.98,1.16-5.98,2.58c0,1.43,2.68,2.58,5.98,2.58c3.3,0,5.98-1.16,5.98-2.58
				C166.57,283.06,163.89,281.91,160.59,281.91L160.59,281.91z"/>
		</g>
	</g>
	<g>
		<path class="st14" d="M160.59,266.13c5.51,0,10,4.49,10,10s-4.49,10-10,10c-5.51,0-10-4.49-10-10S155.07,266.13,160.59,266.13
			 M160.59,265.13c-6.08,0-11,4.92-11,11s4.92,11,11,11c6.08,0,11-4.92,11-11S166.66,265.13,160.59,265.13L160.59,265.13z"/>
	</g>
	<g>
		<path class="st14" d="M160.59,278.08c5.51,0,10,4.49,10,10s-4.49,10-10,10c-5.51,0-10-4.49-10-10S155.07,278.08,160.59,278.08
			 M160.59,277.08c-6.08,0-11,4.92-11,11s4.92,11,11,11c6.08,0,11-4.92,11-11S166.66,277.08,160.59,277.08L160.59,277.08z"/>
	</g>
	<line class="st11" x1="171.59" y1="312.41" x2="149.59" y2="312.41"/>
	<line class="st11" x1="160.59" y1="240.38" x2="160.59" y2="265.38"/>
</g>
<g>
	<line class="st11" x1="185.38" y1="315.66" x2="185.38" y2="308.57"/>
	<rect x="181.13" y="250.72" class="st0" width="31" height="100"/>
	<g>
		<line class="st11" x1="186.55" y1="344.26" x2="206.45" y2="344.26"/>
		<line class="st11" x1="186.57" y1="343.95" x2="196.52" y2="323.8"/>
		<line class="st11" x1="196.75" y1="323.8" x2="206.71" y2="343.95"/>
		<g>
			<rect x="194.68" y="340.27" class="st12" width="2.75" height="7.73"/>
			<g>
				<line class="st11" x1="194.93" y1="340.47" x2="194.93" y2="347.88"/>
				<line class="st11" x1="197.52" y1="340.47" x2="197.52" y2="347.88"/>
			</g>
		</g>
		<g>
			<polygon class="st12" points="195,333.19 193.6,335.96 187.91,332.04 189.3,329.26 			"/>
			<g>
				<line class="st11" x1="188.19" y1="331.89" x2="193.64" y2="335.65"/>
				<line class="st11" x1="189.5" y1="329.28" x2="194.96" y2="333.03"/>
			</g>
		</g>
		<g>
			<polygon class="st12" points="203.77,330.19 205.19,332.95 199.54,336.94 198.11,334.18 			"/>
			<g>
				<line class="st11" x1="199.56" y1="336.58" x2="204.98" y2="332.76"/>
				<line class="st11" x1="198.22" y1="333.98" x2="203.64" y2="330.16"/>
			</g>
		</g>
	</g>
	<line class="st11" x1="196.63" y1="298.49" x2="196.63" y2="323.49"/>
	<g>
		<g>
			<path class="st13" d="M196.63,285.72c-4.81,0-8.05-1.75-8.05-3.38s3.23-3.38,8.05-3.38s8.05,1.75,8.05,3.38
				S201.44,285.72,196.63,285.72z"/>
			<path class="st13" d="M196.63,279.46c4.61,0,7.55,1.7,7.55,2.88s-2.94,2.88-7.55,2.88c-4.61,0-7.55-1.7-7.55-2.88
				S192.02,279.46,196.63,279.46 M196.63,278.46c-4.72,0-8.55,1.74-8.55,3.88c0,2.14,3.83,3.88,8.55,3.88s8.55-1.74,8.55-3.88
				C205.17,280.2,201.35,278.46,196.63,278.46L196.63,278.46z"/>
		</g>
		<g>
			<ellipse class="st13" cx="195.77" cy="280.18" rx="5.48" ry="2.08"/>
			<path class="st13" d="M195.77,278.6c3.24,0,4.98,1.12,4.98,1.58s-1.75,1.58-4.98,1.58c-3.24,0-4.98-1.12-4.98-1.58
				S192.54,278.6,195.77,278.6 M195.77,277.6c-3.3,0-5.98,1.16-5.98,2.58c0,1.43,2.68,2.58,5.98,2.58c3.3,0,5.98-1.16,5.98-2.58
				C201.75,278.76,199.08,277.6,195.77,277.6L195.77,277.6z"/>
		</g>
		<g>
			<path class="st13" d="M196.63,286.58c-3.14,0-5.48-1.1-5.48-2.08s2.34-2.08,5.48-2.08s5.48,1.1,5.48,2.08
				S199.76,286.58,196.63,286.58z"/>
			<path class="st13" d="M196.63,282.91c3.24,0,4.98,1.12,4.98,1.58s-1.75,1.58-4.98,1.58c-3.24,0-4.98-1.12-4.98-1.58
				S193.39,282.91,196.63,282.91 M196.63,281.91c-3.3,0-5.98,1.16-5.98,2.58c0,1.43,2.68,2.58,5.98,2.58c3.3,0,5.98-1.16,5.98-2.58
				C202.61,283.06,199.93,281.91,196.63,281.91L196.63,281.91z"/>
		</g>
	</g>
	<g>
		<path class="st14" d="M196.63,266.13c5.51,0,10,4.49,10,10s-4.49,10-10,10c-5.51,0-10-4.49-10-10S191.11,266.13,196.63,266.13
			 M196.63,265.13c-6.08,0-11,4.92-11,11s4.92,11,11,11c6.08,0,11-4.92,11-11S202.7,265.13,196.63,265.13L196.63,265.13z"/>
	</g>
	<g>
		<path class="st14" d="M196.63,278.08c5.51,0,10,4.49,10,10s-4.49,10-10,10c-5.51,0-10-4.49-10-10S191.11,278.08,196.63,278.08
			 M196.63,277.08c-6.08,0-11,4.92-11,11s4.92,11,11,11c6.08,0,11-4.92,11-11S202.7,277.08,196.63,277.08L196.63,277.08z"/>
	</g>
	<line class="st11" x1="207.63" y1="312.41" x2="185.63" y2="312.41"/>
	<line class="st11" x1="208.26" y1="315.88" x2="208.26" y2="308.79"/>
	<line class="st11" x1="196.63" y1="240.38" x2="196.63" y2="265.38"/>
</g>
<g>
	<line class="st11" x1="258.48" y1="315.66" x2="258.48" y2="308.57"/>
	<rect x="254.14" y="250.72" class="st0" width="31" height="100"/>
	<g>
		<line class="st11" x1="259.56" y1="344.26" x2="279.47" y2="344.26"/>
		<line class="st11" x1="259.58" y1="343.95" x2="269.54" y2="323.8"/>
		<line class="st11" x1="269.77" y1="323.8" x2="279.72" y2="343.95"/>
		<g>
			<rect x="267.69" y="340.27" class="st12" width="2.75" height="7.73"/>
			<g>
				<line class="st11" x1="267.94" y1="340.47" x2="267.94" y2="347.88"/>
				<line class="st11" x1="270.54" y1="340.47" x2="270.54" y2="347.88"/>
			</g>
		</g>
		<g>
			<polygon class="st12" points="268.01,333.19 266.61,335.96 260.92,332.04 262.32,329.26 			"/>
			<g>
				<line class="st11" x1="261.2" y1="331.89" x2="266.66" y2="335.65"/>
				<line class="st11" x1="262.52" y1="329.28" x2="267.97" y2="333.03"/>
			</g>
		</g>
		<g>
			<polygon class="st12" points="276.79,330.19 278.21,332.95 272.55,336.94 271.13,334.18 			"/>
			<g>
				<line class="st11" x1="272.57" y1="336.58" x2="277.99" y2="332.76"/>
				<line class="st11" x1="271.23" y1="333.98" x2="276.65" y2="330.16"/>
			</g>
		</g>
	</g>
	<line class="st11" x1="269.64" y1="298.49" x2="269.64" y2="323.49"/>
	<g>
		<g>
			<path class="st13" d="M269.64,285.72c-4.81,0-8.05-1.75-8.05-3.38s3.23-3.38,8.05-3.38s8.05,1.75,8.05,3.38
				S274.46,285.72,269.64,285.72z"/>
			<path class="st13" d="M269.64,279.46c4.61,0,7.55,1.7,7.55,2.88s-2.94,2.88-7.55,2.88s-7.55-1.7-7.55-2.88
				S265.04,279.46,269.64,279.46 M269.64,278.46c-4.72,0-8.55,1.74-8.55,3.88c0,2.14,3.83,3.88,8.55,3.88s8.55-1.74,8.55-3.88
				C278.19,280.2,274.36,278.46,269.64,278.46L269.64,278.46z"/>
		</g>
		<g>
			<ellipse class="st13" cx="268.79" cy="280.18" rx="5.48" ry="2.08"/>
			<path class="st13" d="M268.79,278.6c3.24,0,4.98,1.12,4.98,1.58s-1.75,1.58-4.98,1.58c-3.24,0-4.98-1.12-4.98-1.58
				S265.55,278.6,268.79,278.6 M268.79,277.6c-3.3,0-5.98,1.16-5.98,2.58c0,1.43,2.68,2.58,5.98,2.58s5.98-1.16,5.98-2.58
				C274.77,278.76,272.09,277.6,268.79,277.6L268.79,277.6z"/>
		</g>
		<g>
			<ellipse class="st13" cx="269.64" cy="284.49" rx="5.48" ry="2.08"/>
			<path class="st13" d="M269.64,282.91c3.24,0,4.98,1.12,4.98,1.58s-1.75,1.58-4.98,1.58c-3.24,0-4.98-1.12-4.98-1.58
				S266.41,282.91,269.64,282.91 M269.64,281.91c-3.3,0-5.98,1.16-5.98,2.58c0,1.43,2.68,2.58,5.98,2.58s5.98-1.16,5.98-2.58
				C275.62,283.06,272.95,281.91,269.64,281.91L269.64,281.91z"/>
		</g>
	</g>
	<g>
		<path class="st14" d="M269.64,266.13c5.51,0,10,4.49,10,10s-4.49,10-10,10s-10-4.49-10-10S264.13,266.13,269.64,266.13
			 M269.64,265.13c-6.08,0-11,4.92-11,11s4.92,11,11,11c6.08,0,11-4.92,11-11S275.72,265.13,269.64,265.13L269.64,265.13z"/>
	</g>
	<g>
		<path class="st14" d="M269.64,278.08c5.51,0,10,4.49,10,10s-4.49,10-10,10s-10-4.49-10-10S264.13,278.08,269.64,278.08
			 M269.64,277.08c-6.08,0-11,4.92-11,11s4.92,11,11,11c6.08,0,11-4.92,11-11S275.72,277.08,269.64,277.08L269.64,277.08z"/>
	</g>
	<line class="st11" x1="280.64" y1="312.41" x2="258.64" y2="312.41"/>
	<line class="st11" x1="281.36" y1="315.88" x2="281.36" y2="308.79"/>
	<line class="st11" x1="269.64" y1="240.38" x2="269.64" y2="265.38"/>
</g>
<g>
	<rect x="516.84" y="87.46" class="st1" width="9" height="17"/>
	<line class="st0" x1="521.34" y1="86.88" x2="521.34" y2="79.46"/>
	<line class="st0" x1="521.34" y1="112.88" x2="521.34" y2="104.85"/>
	<g>
		<line class="st0" x1="517.59" y1="82.21" x2="521.07" y2="78.71"/>
		<line class="st0" x1="525.09" y1="82.21" x2="521.61" y2="78.71"/>
	</g>
	<g>
		<line class="st11" x1="517.59" y1="78.09" x2="521.07" y2="74.59"/>
		<line class="st11" x1="525.09" y1="78.09" x2="521.61" y2="74.59"/>
	</g>
	<g>
		<line class="st0" x1="525.09" y1="109.59" x2="521.61" y2="113.09"/>
		<line class="st0" x1="517.59" y1="109.59" x2="521.07" y2="113.09"/>
	</g>
	<g>
		<line class="st0" x1="525.09" y1="113.59" x2="521.61" y2="117.09"/>
		<line class="st0" x1="517.59" y1="113.59" x2="521.07" y2="117.09"/>
	</g>
</g>
<g>
	<line class="st0" x1="580.17" y1="112.88" x2="580.17" y2="79.16"/>
	<g>
		<line class="st0" x1="576.42" y1="82.21" x2="579.9" y2="78.71"/>
		<line class="st0" x1="583.92" y1="82.21" x2="580.43" y2="78.71"/>
	</g>
	<g>
		<line class="st11" x1="576.42" y1="78.09" x2="579.9" y2="74.59"/>
		<line class="st11" x1="583.92" y1="78.09" x2="580.43" y2="74.59"/>
	</g>
	<g>
		<line class="st0" x1="583.92" y1="109.59" x2="580.43" y2="113.09"/>
		<line class="st0" x1="576.42" y1="109.59" x2="579.9" y2="113.09"/>
	</g>
	<g>
		<line class="st0" x1="583.92" y1="113.59" x2="580.43" y2="117.09"/>
		<line class="st0" x1="576.42" y1="113.59" x2="579.9" y2="117.09"/>
	</g>
</g>
<line class="st0" x1="579.99" y1="132.52" x2="579.99" y2="117.52"/>
<line class="st0" x1="520.99" y1="132.57" x2="520.99" y2="117.57"/>
<line class="st15" x1="521.45" y1="60.02" x2="580.5" y2="60.02"/>
<line class="st15" x1="521.6" y1="74.94" x2="521.6" y2="59.94"/>
<line class="st15" x1="580.6" y1="74.94" x2="580.6" y2="59.94"/>
<rect x="562.1" y="132.26" class="st3" width="52.4" height="6"/>
<text transform="matrix(0.7096 0 0 1 145.4691 104.2204)" class="st5 st8 st7">PHÂN ĐOẠN 1</text>
<text transform="matrix(0.7096 0 0 1 560.6534 152.4373)" class="st5 st8 st7">PHÂN ĐOẠN 2</text>
<rect x="577.78" y="132.27" class="st4" width="5.41" height="5.5"/>
<text transform="matrix(0.6726 0 0 1 588.1295 128.7326)" class="st5 st6 st7">17</text>
<rect x="289.59" y="250.72" class="st0" width="32" height="100"/>
<g>
	<path class="st14" d="M305.59,266.1c5.51,0,10,4.49,10,10s-4.49,10-10,10s-10-4.49-10-10S300.07,266.1,305.59,266.1 M305.59,265.1
		c-6.08,0-11,4.92-11,11s4.92,11,11,11s11-4.92,11-11S311.66,265.1,305.59,265.1L305.59,265.1z"/>
</g>
<g>
	<path class="st14" d="M305.59,269.6c3.58,0,6.5,2.92,6.5,6.5s-2.92,6.5-6.5,6.5s-6.5-2.92-6.5-6.5S302,269.6,305.59,269.6
		 M305.59,268.6c-4.14,0-7.5,3.36-7.5,7.5c0,4.14,3.36,7.5,7.5,7.5s7.5-3.36,7.5-7.5C313.09,271.96,309.73,268.6,305.59,268.6
		L305.59,268.6z"/>
</g>
<line class="st11" x1="305.59" y1="239.79" x2="305.59" y2="264.79"/>
<text transform="matrix(0.6558 0 0 1 292.2476 302.5114)"><tspan x="0" y="0" class="st5 st6 st7">266M-1</tspan><tspan x="8.67" y="14.4" class="st5 st6 st7">/400</tspan><tspan x="10.68" y="28.8" class="st5 st6 st7">KW</tspan></text>
<g>
	<g>
		<rect x="300.68" y="88.02" class="st1" width="9" height="17"/>
		<line class="st0" x1="305.18" y1="87.44" x2="305.18" y2="80.02"/>
		<line class="st0" x1="305.18" y1="113.44" x2="305.18" y2="105.41"/>
		<g>
			<line class="st0" x1="301.43" y1="82.77" x2="304.91" y2="79.27"/>
			<line class="st0" x1="308.93" y1="82.77" x2="305.45" y2="79.27"/>
		</g>
		<g>
			<line class="st11" x1="301.43" y1="78.64" x2="304.91" y2="75.14"/>
			<line class="st11" x1="308.93" y1="78.64" x2="305.45" y2="75.14"/>
		</g>
		<g>
			<line class="st0" x1="308.93" y1="110.14" x2="305.45" y2="113.64"/>
			<line class="st0" x1="301.43" y1="110.14" x2="304.91" y2="113.64"/>
		</g>
		<g>
			<line class="st0" x1="308.93" y1="114.14" x2="305.45" y2="117.64"/>
			<line class="st0" x1="301.43" y1="114.14" x2="304.91" y2="117.64"/>
		</g>
	</g>
	<line class="st0" x1="305.18" y1="132.4" x2="305.18" y2="117.4"/>
	<line class="st11" x1="305.18" y1="75.06" x2="305.18" y2="50.06"/>
	<g>
		<g>
			<polyline class="st15" points="301.47,41.53 305.01,50.08 308.89,41.5 			"/>
		</g>
		<line class="st15" x1="308.93" y1="41.16" x2="301.43" y2="41.16"/>
	</g>
</g>
<text transform="matrix(0.6726 0 0 1 312.3738 129.2006)" class="st5 st6 st7">8</text>
<text transform="matrix(0.6726 0 0 1 312.3738 149.2006)" class="st5 st6 st7">9</text>
<g>
	<line class="st0" x1="305.59" y1="167.4" x2="305.59" y2="138.75"/>
	<g>
		<rect x="301.09" y="180.74" class="st1" width="9" height="17"/>
		<line class="st0" x1="305.59" y1="180.16" x2="305.59" y2="172.74"/>
		<line class="st0" x1="305.59" y1="206.16" x2="305.59" y2="198.13"/>
		<g>
			<line class="st0" x1="301.84" y1="175.49" x2="305.32" y2="171.99"/>
			<line class="st0" x1="309.34" y1="175.49" x2="305.86" y2="171.99"/>
		</g>
		<g>
			<line class="st0" x1="301.84" y1="171.36" x2="305.32" y2="167.86"/>
			<line class="st0" x1="309.34" y1="171.36" x2="305.86" y2="167.86"/>
		</g>
		<g>
			<line class="st0" x1="309.34" y1="202.86" x2="305.86" y2="206.36"/>
			<line class="st0" x1="301.84" y1="202.86" x2="305.32" y2="206.36"/>
		</g>
		<g>
			<line class="st0" x1="309.34" y1="206.86" x2="305.86" y2="210.36"/>
			<line class="st0" x1="301.84" y1="206.86" x2="305.32" y2="210.36"/>
		</g>
	</g>
	<g>
		<g>
			<polyline class="st2" points="301.88,231.94 305.42,240.49 309.3,231.91 			"/>
		</g>
		<line class="st0" x1="305.59" y1="231.97" x2="305.59" y2="211.18"/>
		<line class="st0" x1="309.34" y1="231.56" x2="301.84" y2="231.56"/>
	</g>
</g>
<g>
	<line class="st0" x1="520.48" y1="167.4" x2="520.48" y2="138.75"/>
	<g>
		<rect x="515.98" y="180.74" class="st1" width="9" height="17"/>
		<line class="st0" x1="520.48" y1="180.16" x2="520.48" y2="172.74"/>
		<line class="st0" x1="520.48" y1="206.16" x2="520.48" y2="198.13"/>
		<g>
			<line class="st0" x1="516.73" y1="175.49" x2="520.21" y2="171.99"/>
			<line class="st0" x1="524.23" y1="175.49" x2="520.75" y2="171.99"/>
		</g>
		<g>
			<line class="st0" x1="516.73" y1="171.36" x2="520.21" y2="167.86"/>
			<line class="st0" x1="524.23" y1="171.36" x2="520.75" y2="167.86"/>
		</g>
		<g>
			<line class="st0" x1="524.23" y1="202.86" x2="520.75" y2="206.36"/>
			<line class="st0" x1="516.73" y1="202.86" x2="520.21" y2="206.36"/>
		</g>
		<g>
			<line class="st0" x1="524.23" y1="206.86" x2="520.75" y2="210.36"/>
			<line class="st0" x1="516.73" y1="206.86" x2="520.21" y2="210.36"/>
		</g>
	</g>
	<g>
		<g>
			<polyline class="st2" points="516.77,231.94 520.31,240.49 524.19,231.91 			"/>
		</g>
		<line class="st0" x1="520.48" y1="231.97" x2="520.48" y2="211.18"/>
		<line class="st0" x1="524.23" y1="231.56" x2="516.73" y2="231.56"/>
	</g>
</g>
<rect x="323.93" y="250.72" class="st0" width="32" height="100"/>
<g>
	<path class="st14" d="M339.93,266.1c5.51,0,10,4.49,10,10s-4.49,10-10,10c-5.51,0-10-4.49-10-10S334.42,266.1,339.93,266.1
		 M339.93,265.1c-6.08,0-11,4.92-11,11s4.92,11,11,11s11-4.92,11-11S346.01,265.1,339.93,265.1L339.93,265.1z"/>
</g>
<g>
	<path class="st14" d="M339.93,269.6c3.58,0,6.5,2.92,6.5,6.5s-2.92,6.5-6.5,6.5s-6.5-2.92-6.5-6.5S336.35,269.6,339.93,269.6
		 M339.93,268.6c-4.14,0-7.5,3.36-7.5,7.5c0,4.14,3.36,7.5,7.5,7.5c4.14,0,7.5-3.36,7.5-7.5
		C347.43,271.96,344.07,268.6,339.93,268.6L339.93,268.6z"/>
</g>
<line class="st11" x1="339.93" y1="239.79" x2="339.93" y2="264.79"/>
<text transform="matrix(0.6558 0 0 1 328.7783 302.5114)"><tspan x="0" y="0" class="st5 st6 st7">12M-1</tspan><tspan x="5.33" y="14.4" class="st5 st6 st7">/630</tspan><tspan x="7.34" y="28.8" class="st5 st6 st7">KW</tspan></text>
<rect x="359.62" y="250.72" class="st0" width="32" height="100"/>
<g>
	<path class="st14" d="M375.62,266.1c5.51,0,10,4.49,10,10s-4.49,10-10,10s-10-4.49-10-10S370.1,266.1,375.62,266.1 M375.62,265.1
		c-6.08,0-11,4.92-11,11s4.92,11,11,11s11-4.92,11-11S381.69,265.1,375.62,265.1L375.62,265.1z"/>
</g>
<g>
	<path class="st14" d="M375.62,269.6c3.58,0,6.5,2.92,6.5,6.5s-2.92,6.5-6.5,6.5s-6.5-2.92-6.5-6.5S372.03,269.6,375.62,269.6
		 M375.62,268.6c-4.14,0-7.5,3.36-7.5,7.5c0,4.14,3.36,7.5,7.5,7.5c4.14,0,7.5-3.36,7.5-7.5
		C383.12,271.96,379.76,268.6,375.62,268.6L375.62,268.6z"/>
</g>
<line class="st11" x1="375.62" y1="239.79" x2="375.62" y2="264.79"/>
<text transform="matrix(0.6558 0 0 1 364.4646 302.5114)"><tspan x="0" y="0" class="st5 st6 st7">12M-2</tspan><tspan x="5.33" y="14.4" class="st5 st6 st7">/630</tspan><tspan x="7.34" y="28.8" class="st5 st6 st7">KW</tspan></text>
<rect x="395.53" y="250.72" class="st0" width="32" height="100"/>
<g>
	<path class="st14" d="M411.53,266.1c5.51,0,10,4.49,10,10s-4.49,10-10,10s-10-4.49-10-10S406.02,266.1,411.53,266.1 M411.53,265.1
		c-6.08,0-11,4.92-11,11s4.92,11,11,11s11-4.92,11-11S417.61,265.1,411.53,265.1L411.53,265.1z"/>
</g>
<g>
	<path class="st14" d="M411.53,269.6c3.58,0,6.5,2.92,6.5,6.5s-2.92,6.5-6.5,6.5s-6.5-2.92-6.5-6.5S407.95,269.6,411.53,269.6
		 M411.53,268.6c-4.14,0-7.5,3.36-7.5,7.5c0,4.14,3.36,7.5,7.5,7.5c4.14,0,7.5-3.36,7.5-7.5
		C419.03,271.96,415.67,268.6,411.53,268.6L411.53,268.6z"/>
</g>
<line class="st11" x1="411.53" y1="239.79" x2="411.53" y2="264.79"/>
<text transform="matrix(0.6558 0 0 1 400.3785 302.5114)"><tspan x="0" y="0" class="st5 st6 st7">12M-3</tspan><tspan x="5.33" y="14.4" class="st5 st6 st7">/630</tspan><tspan x="7.34" y="28.8" class="st5 st6 st7">KW</tspan></text>
<g>
	<rect x="432.48" y="250.72" class="st0" width="32" height="100"/>
	<g>
		<path class="st14" d="M448.48,266.1c5.51,0,10,4.49,10,10s-4.49,10-10,10s-10-4.49-10-10S442.97,266.1,448.48,266.1 M448.48,265.1
			c-6.08,0-11,4.92-11,11s4.92,11,11,11s11-4.92,11-11S454.56,265.1,448.48,265.1L448.48,265.1z"/>
	</g>
	<g>
		<path class="st14" d="M448.48,269.6c3.58,0,6.5,2.92,6.5,6.5s-2.92,6.5-6.5,6.5s-6.5-2.92-6.5-6.5S444.9,269.6,448.48,269.6
			 M448.48,268.6c-4.14,0-7.5,3.36-7.5,7.5c0,4.14,3.36,7.5,7.5,7.5c4.14,0,7.5-3.36,7.5-7.5
			C455.98,271.96,452.63,268.6,448.48,268.6L448.48,268.6z"/>
	</g>
	<line class="st11" x1="448.48" y1="239.79" x2="448.48" y2="264.79"/>
	<text transform="matrix(0.6558 0 0 1 437.3299 302.5114)"><tspan x="0" y="0" class="st5 st6 st7">11M-1</tspan><tspan x="5.33" y="14.4" class="st5 st6 st7">/400</tspan><tspan x="7.34" y="28.8" class="st5 st6 st7">KW</tspan></text>
</g>
<rect x="468.58" y="250.72" class="st0" width="32" height="100"/>
<g>
	<path class="st14" d="M484.58,266.1c5.51,0,10,4.49,10,10s-4.49,10-10,10s-10-4.49-10-10S479.06,266.1,484.58,266.1 M484.58,265.1
		c-6.08,0-11,4.92-11,11s4.92,11,11,11s11-4.92,11-11S490.65,265.1,484.58,265.1L484.58,265.1z"/>
</g>
<g>
	<path class="st14" d="M484.58,269.6c3.58,0,6.5,2.92,6.5,6.5s-2.92,6.5-6.5,6.5s-6.5-2.92-6.5-6.5S480.99,269.6,484.58,269.6
		 M484.58,268.6c-4.14,0-7.5,3.36-7.5,7.5c0,4.14,3.36,7.5,7.5,7.5c4.14,0,7.5-3.36,7.5-7.5
		C492.08,271.96,488.72,268.6,484.58,268.6L484.58,268.6z"/>
</g>
<line class="st11" x1="484.58" y1="239.79" x2="484.58" y2="264.79"/>
<text transform="matrix(0.6558 0 0 1 473.4252 302.5114)"><tspan x="0" y="0" class="st5 st6 st7">11M-2</tspan><tspan x="5.33" y="14.4" class="st5 st6 st7">/400</tspan><tspan x="7.34" y="28.8" class="st5 st6 st7">KW</tspan></text>
</svg>
