<?xml version="1.0" encoding="utf-8"?>
<!-- Generator: Adobe Illustrator 27.1.1, SVG Export Plug-In . SVG Version: 6.00 Build 0)  -->
<svg version="1.1" id="Layer_1" xmlns="http://www.w3.org/2000/svg" xmlns:xlink="http://www.w3.org/1999/xlink" x="0px" y="0px"
	 viewBox="0 0 647 314" style="enable-background:new 0 0 647 314;" xml:space="preserve">
<style type="text/css">
	.st0{fill:#F7931E;}
	.st1{fill:#F15A24;}
	.st2{fill:#212830;}
	.st3{font-family:'ArialMT';}
	.st4{font-size:7.2584px;}
	.st5{fill:none;stroke:#212830;stroke-linecap:square;stroke-miterlimit:10;}
	.st6{fill:none;stroke:#000000;stroke-miterlimit:10;}
	.st7{font-size:7px;}
	.st8{fill:none;stroke:#FF0000;stroke-linecap:square;stroke-miterlimit:10;}
	.st9{font-family:'Arial-ItalicMT';}
	.st10{font-size:14px;}
	.st11{font-size:20px;}
	.st12{fill:#FF0000;stroke:#FF0000;stroke-linecap:square;stroke-miterlimit:10;}
	.st13{stroke:#000000;stroke-linecap:square;stroke-miterlimit:10;}
	.st14{font-size:12px;}
	.st15{font-size:24px;}
</style>
<rect x="58.48" y="177.77" class="st0" width="245" height="5.79"/>
<rect x="133.99" y="177.77" class="st1" width="5.41" height="5.5"/>
<rect x="170.03" y="177.77" class="st1" width="5.41" height="5.5"/>
<rect x="66.46" y="177.77" class="st1" width="5.41" height="5.5"/>
<rect x="99.04" y="177.77" class="st1" width="5.41" height="5.5"/>
<text transform="matrix(0.4589 0 0 1 65.8095 174.6183)" class="st2 st3 st4">101</text>
<text transform="matrix(0.6726 0 0 1 98.381 174.6179)" class="st2 st3 st4">109</text>
<text transform="matrix(0.6726 0 0 1 141.3315 174.6179)" class="st2 st3 st4">101</text>
<text transform="matrix(0.6726 0 0 1 177.3782 174.6179)" class="st2 st3 st4">103</text>
<line class="st5" x1="69.17" y1="212.18" x2="69.17" y2="183.54"/>
<rect x="206.55" y="177.77" class="st1" width="5.41" height="5.5"/>
<rect x="242.05" y="177.77" class="st1" width="5.41" height="5.5"/>
<rect x="278.95" y="177.77" class="st1" width="5.41" height="5.5"/>
<text transform="matrix(0.6726 0 0 1 213.8976 174.6181)" class="st2 st3 st4">108</text>
<text transform="matrix(0.6726 0 0 1 249.3976 174.6181)" class="st2 st3 st4">110</text>
<text transform="matrix(0.6726 0 0 1 285.915 174.6181)" class="st2 st3 st4">112</text>
<line class="st5" x1="101.74" y1="212.18" x2="101.74" y2="183.54"/>
<line class="st5" x1="136.69" y1="212.18" x2="136.69" y2="183.54"/>
<line class="st5" x1="172.74" y1="212.18" x2="172.74" y2="183.54"/>
<line class="st5" x1="209.26" y1="212.18" x2="209.26" y2="183.54"/>
<g>
	<rect x="64.67" y="225.53" class="st6" width="9" height="17"/>
	<line class="st5" x1="69.17" y1="224.95" x2="69.17" y2="217.53"/>
	<line class="st5" x1="69.17" y1="250.95" x2="69.17" y2="242.92"/>
	<g>
		<line class="st5" x1="65.42" y1="220.28" x2="68.9" y2="216.78"/>
		<line class="st5" x1="72.92" y1="220.28" x2="69.44" y2="216.78"/>
	</g>
	<g>
		<line class="st5" x1="65.42" y1="216.15" x2="68.9" y2="212.65"/>
		<line class="st5" x1="72.92" y1="216.15" x2="69.44" y2="212.65"/>
	</g>
	<g>
		<line class="st5" x1="72.92" y1="247.65" x2="69.44" y2="251.15"/>
		<line class="st5" x1="65.42" y1="247.65" x2="68.9" y2="251.15"/>
	</g>
	<g>
		<line class="st5" x1="72.92" y1="251.65" x2="69.44" y2="255.15"/>
		<line class="st5" x1="65.42" y1="251.65" x2="68.9" y2="255.15"/>
	</g>
</g>
<g>
	<rect x="97.04" y="225.53" class="st6" width="9" height="17"/>
	<line class="st5" x1="101.54" y1="224.95" x2="101.54" y2="217.53"/>
	<line class="st5" x1="101.54" y1="250.95" x2="101.54" y2="242.92"/>
	<g>
		<line class="st5" x1="97.79" y1="220.28" x2="101.27" y2="216.78"/>
		<line class="st5" x1="105.29" y1="220.28" x2="101.81" y2="216.78"/>
	</g>
	<g>
		<line class="st5" x1="97.79" y1="216.15" x2="101.27" y2="212.65"/>
		<line class="st5" x1="105.29" y1="216.15" x2="101.81" y2="212.65"/>
	</g>
	<g>
		<line class="st5" x1="105.29" y1="247.65" x2="101.81" y2="251.15"/>
		<line class="st5" x1="97.79" y1="247.65" x2="101.27" y2="251.15"/>
	</g>
	<g>
		<line class="st5" x1="105.29" y1="251.65" x2="101.81" y2="255.15"/>
		<line class="st5" x1="97.79" y1="251.65" x2="101.27" y2="255.15"/>
	</g>
</g>
<g>
	<rect x="132.01" y="225.53" class="st6" width="9" height="17"/>
	<line class="st5" x1="136.51" y1="224.95" x2="136.51" y2="217.53"/>
	<line class="st5" x1="136.51" y1="250.95" x2="136.51" y2="242.92"/>
	<g>
		<line class="st5" x1="132.76" y1="220.28" x2="136.24" y2="216.78"/>
		<line class="st5" x1="140.26" y1="220.28" x2="136.78" y2="216.78"/>
	</g>
	<g>
		<line class="st5" x1="132.76" y1="216.15" x2="136.24" y2="212.65"/>
		<line class="st5" x1="140.26" y1="216.15" x2="136.78" y2="212.65"/>
	</g>
	<g>
		<line class="st5" x1="140.26" y1="247.65" x2="136.78" y2="251.15"/>
		<line class="st5" x1="132.76" y1="247.65" x2="136.24" y2="251.15"/>
	</g>
	<g>
		<line class="st5" x1="140.26" y1="251.65" x2="136.78" y2="255.15"/>
		<line class="st5" x1="132.76" y1="251.65" x2="136.24" y2="255.15"/>
	</g>
</g>
<g>
	<rect x="168.24" y="225.53" class="st6" width="9" height="17"/>
	<line class="st5" x1="172.74" y1="224.95" x2="172.74" y2="217.53"/>
	<line class="st5" x1="172.74" y1="250.95" x2="172.74" y2="242.92"/>
	<g>
		<line class="st5" x1="168.99" y1="220.28" x2="172.47" y2="216.78"/>
		<line class="st5" x1="176.49" y1="220.28" x2="173.01" y2="216.78"/>
	</g>
	<g>
		<line class="st5" x1="168.99" y1="216.15" x2="172.47" y2="212.65"/>
		<line class="st5" x1="176.49" y1="216.15" x2="173.01" y2="212.65"/>
	</g>
	<g>
		<line class="st5" x1="176.49" y1="247.65" x2="173.01" y2="251.15"/>
		<line class="st5" x1="168.99" y1="247.65" x2="172.47" y2="251.15"/>
	</g>
	<g>
		<line class="st5" x1="176.49" y1="251.65" x2="173.01" y2="255.15"/>
		<line class="st5" x1="168.99" y1="251.65" x2="172.47" y2="255.15"/>
	</g>
</g>
<g>
	<rect x="205" y="225.53" class="st6" width="9" height="17"/>
	<line class="st5" x1="209.5" y1="224.95" x2="209.5" y2="217.53"/>
	<line class="st5" x1="209.5" y1="250.95" x2="209.5" y2="242.92"/>
	<g>
		<line class="st5" x1="205.75" y1="220.28" x2="209.23" y2="216.78"/>
		<line class="st5" x1="213.25" y1="220.28" x2="209.77" y2="216.78"/>
	</g>
	<g>
		<line class="st5" x1="205.75" y1="216.15" x2="209.23" y2="212.65"/>
		<line class="st5" x1="213.25" y1="216.15" x2="209.77" y2="212.65"/>
	</g>
	<g>
		<line class="st5" x1="213.25" y1="247.65" x2="209.77" y2="251.15"/>
		<line class="st5" x1="205.75" y1="247.65" x2="209.23" y2="251.15"/>
	</g>
	<g>
		<line class="st5" x1="213.25" y1="251.65" x2="209.77" y2="255.15"/>
		<line class="st5" x1="205.75" y1="251.65" x2="209.23" y2="255.15"/>
	</g>
</g>
<line class="st5" x1="244.76" y1="212.18" x2="244.76" y2="183.54"/>
<g>
	<rect x="240.25" y="225.53" class="st6" width="9" height="17"/>
	<line class="st5" x1="244.75" y1="224.95" x2="244.75" y2="217.53"/>
	<line class="st5" x1="244.75" y1="250.95" x2="244.75" y2="242.92"/>
	<g>
		<line class="st5" x1="241" y1="220.28" x2="244.48" y2="216.78"/>
		<line class="st5" x1="248.5" y1="220.28" x2="245.02" y2="216.78"/>
	</g>
	<g>
		<line class="st5" x1="241" y1="216.15" x2="244.48" y2="212.65"/>
		<line class="st5" x1="248.5" y1="216.15" x2="245.02" y2="212.65"/>
	</g>
	<g>
		<line class="st5" x1="248.5" y1="247.65" x2="245.02" y2="251.15"/>
		<line class="st5" x1="241" y1="247.65" x2="244.48" y2="251.15"/>
	</g>
	<g>
		<line class="st5" x1="248.5" y1="251.65" x2="245.02" y2="255.15"/>
		<line class="st5" x1="241" y1="251.65" x2="244.48" y2="255.15"/>
	</g>
</g>
<text transform="matrix(0 -0.7962 1 0 175.3794 238.4855)" class="st2 st3 st7">671</text>
<text transform="matrix(0 -0.7962 1 0 246.8431 238.4532)" class="st2 st3 st7">675</text>
<line class="st8" x1="136.4" y1="117.35" x2="136.4" y2="92.35"/>
<g>
	<rect x="131.9" y="133.02" class="st6" width="9" height="17"/>
	<line class="st5" x1="136.4" y1="132.44" x2="136.4" y2="125.02"/>
	<line class="st5" x1="136.4" y1="158.44" x2="136.4" y2="150.41"/>
	<g>
		<line class="st5" x1="132.65" y1="127.77" x2="136.13" y2="124.27"/>
		<line class="st5" x1="140.15" y1="127.77" x2="136.67" y2="124.27"/>
	</g>
	<g>
		<line class="st8" x1="132.65" y1="123.64" x2="136.13" y2="120.14"/>
		<line class="st8" x1="140.15" y1="123.64" x2="136.67" y2="120.14"/>
	</g>
	<g>
		<line class="st5" x1="140.15" y1="155.14" x2="136.67" y2="158.64"/>
		<line class="st5" x1="132.65" y1="155.14" x2="136.13" y2="158.64"/>
	</g>
	<g>
		<line class="st5" x1="140.15" y1="159.14" x2="136.67" y2="162.64"/>
		<line class="st5" x1="132.65" y1="159.14" x2="136.13" y2="162.64"/>
	</g>
</g>
<line class="st5" x1="136.4" y1="177.4" x2="136.4" y2="162.4"/>
<g>
	<line class="st8" x1="130.44" y1="92.18" x2="136.4" y2="92.18"/>
	<polyline class="st8" points="130.44,92.18 130.41,92.56 130.4,92.94 130.41,93.32 130.45,93.7 130.52,94.08 130.6,94.45 
		130.71,94.82 130.85,95.17 131.01,95.52 131.18,95.86 131.38,96.18 131.6,96.5 131.83,96.8 132.09,97.08 132.36,97.34 
		132.66,97.59 132.96,97.82 133.28,98.03 133.62,98.21 133.96,98.38 134.31,98.53 134.67,98.65 135.04,98.75 135.41,98.82 
		135.8,98.87 136.17,98.9 136.56,98.9 136.93,98.88 137.31,98.83 137.68,98.77 138.06,98.67 138.43,98.55 138.78,98.41 
		139.12,98.25 139.46,98.07 139.78,97.86 140.08,97.64 140.38,97.39 140.66,97.13 140.92,96.85 141.16,96.56 141.38,96.25 
		141.59,95.92 141.76,95.59 141.92,95.25 142.07,94.88 142.18,94.53 142.27,94.15 142.34,93.78 142.38,93.4 142.4,93.02 
		142.39,92.63 142.37,92.26 142.32,91.88 142.23,91.51 142.13,91.13 142.02,90.78 141.87,90.42 141.69,90.08 141.5,89.75 
		141.3,89.43 141.07,89.13 140.82,88.84 140.54,88.57 140.26,88.31 139.97,88.08 139.65,87.86 139.32,87.66 138.99,87.49 
		138.63,87.33 138.28,87.2 137.91,87.1 137.54,87.01 137.16,86.95 136.79,86.91 136.4,86.9 	"/>
</g>
<line class="st8" x1="136.73" y1="87.06" x2="136.73" y2="62.06"/>
<text transform="matrix(0.7096 0 0 1 38.4272 197.8083)" class="st2 st9 st10">C61</text>
<g>
	<rect x="277.73" y="132.02" class="st6" width="9" height="17"/>
	<line class="st5" x1="282.23" y1="131.44" x2="282.23" y2="124.02"/>
	<line class="st5" x1="282.23" y1="157.44" x2="282.23" y2="149.41"/>
	<g>
		<line class="st5" x1="278.48" y1="126.77" x2="281.96" y2="123.27"/>
		<line class="st5" x1="285.98" y1="126.77" x2="282.5" y2="123.27"/>
	</g>
	<g>
		<line class="st8" x1="278.48" y1="122.64" x2="281.96" y2="119.14"/>
		<line class="st8" x1="285.98" y1="122.64" x2="282.5" y2="119.14"/>
	</g>
	<g>
		<line class="st5" x1="285.98" y1="154.14" x2="282.5" y2="157.64"/>
		<line class="st5" x1="278.48" y1="154.14" x2="281.96" y2="157.64"/>
	</g>
	<g>
		<line class="st5" x1="285.98" y1="158.14" x2="282.5" y2="161.64"/>
		<line class="st5" x1="278.48" y1="158.14" x2="281.96" y2="161.64"/>
	</g>
</g>
<g>
	<line class="st5" x1="359.06" y1="157.44" x2="359.06" y2="123.71"/>
	<g>
		<line class="st5" x1="355.31" y1="126.77" x2="358.79" y2="123.27"/>
		<line class="st5" x1="362.81" y1="126.77" x2="359.33" y2="123.27"/>
	</g>
	<g>
		<line class="st8" x1="355.31" y1="122.64" x2="358.79" y2="119.14"/>
		<line class="st8" x1="362.81" y1="122.64" x2="359.33" y2="119.14"/>
	</g>
	<g>
		<line class="st5" x1="362.81" y1="154.14" x2="359.33" y2="157.64"/>
		<line class="st5" x1="355.31" y1="154.14" x2="358.79" y2="157.64"/>
	</g>
	<g>
		<line class="st5" x1="362.81" y1="158.14" x2="359.33" y2="161.64"/>
		<line class="st5" x1="355.31" y1="158.14" x2="358.79" y2="161.64"/>
	</g>
</g>
<text transform="matrix(0.7096 0 0 1 106.7889 61.5743)" class="st2 st9 st11">T1</text>
<g>
	<polyline class="st12" points="133.02,53.99 136.56,62.54 140.43,53.95 	"/>
</g>
<g>
	<g>
		<polyline class="st13" points="65.63,276.5 69.16,285.05 73.04,276.47 		"/>
	</g>
	<line class="st5" x1="69.34" y1="276.53" x2="69.34" y2="255.74"/>
</g>
<g>
	<g>
		<polyline class="st13" points="97.83,276.5 101.37,285.05 105.24,276.47 		"/>
	</g>
	<line class="st5" x1="101.54" y1="276.53" x2="101.54" y2="255.74"/>
</g>
<g>
	<g>
		<polyline class="st13" points="132.8,276.5 136.34,285.05 140.22,276.47 		"/>
	</g>
	<line class="st5" x1="136.52" y1="276.53" x2="136.52" y2="255.74"/>
</g>
<g>
	<g>
		<polyline class="st13" points="169.03,276.5 172.57,285.05 176.45,276.47 		"/>
	</g>
	<line class="st5" x1="172.74" y1="276.53" x2="172.74" y2="255.74"/>
</g>
<g>
	<g>
		<polyline class="st13" points="205.79,276.5 209.33,285.05 213.21,276.47 		"/>
	</g>
	<line class="st5" x1="209.5" y1="276.53" x2="209.5" y2="255.74"/>
</g>
<g>
	<g>
		<polyline class="st13" points="241.04,276.5 244.58,285.05 248.46,276.47 		"/>
	</g>
	<line class="st5" x1="244.75" y1="276.53" x2="244.75" y2="255.74"/>
</g>
<rect x="348.42" y="177.77" class="st0" width="245" height="5.79"/>
<rect x="423.93" y="177.77" class="st1" width="5.41" height="5.5"/>
<rect x="459.97" y="177.77" class="st1" width="5.41" height="5.5"/>
<rect x="356.4" y="177.77" class="st1" width="5.41" height="5.5"/>
<rect x="388.98" y="177.77" class="st1" width="5.41" height="5.5"/>
<text transform="matrix(0.6726 0 0 1 388.3216 174.6179)" class="st2 st3 st4">203</text>
<text transform="matrix(0.6726 0 0 1 431.2722 174.6179)" class="st2 st3 st4">205</text>
<text transform="matrix(0.6726 0 0 1 466.3188 174.6179)" class="st2 st3 st4">206</text>
<rect x="496.49" y="177.77" class="st1" width="5.41" height="5.5"/>
<rect x="531.99" y="177.77" class="st1" width="5.41" height="5.5"/>
<rect x="568.89" y="177.77" class="st1" width="5.41" height="5.5"/>
<text transform="matrix(0.6726 0 0 1 502.8382 174.6181)" class="st2 st3 st4">210</text>
<text transform="matrix(0.6726 0 0 1 538.3383 174.6181)" class="st2 st3 st4">204</text>
<text transform="matrix(0.6726 0 0 1 574.8557 174.6181)" class="st2 st3 st4">112</text>
<line class="st5" x1="391.68" y1="212.18" x2="391.68" y2="183.54"/>
<line class="st5" x1="426.63" y1="212.18" x2="426.63" y2="183.54"/>
<line class="st5" x1="462.68" y1="212.18" x2="462.68" y2="183.54"/>
<line class="st5" x1="499.2" y1="212.18" x2="499.2" y2="183.54"/>
<g>
	<rect x="386.98" y="225.53" class="st6" width="9" height="17"/>
	<line class="st5" x1="391.48" y1="224.95" x2="391.48" y2="217.53"/>
	<line class="st5" x1="391.48" y1="250.95" x2="391.48" y2="242.92"/>
	<g>
		<line class="st5" x1="387.73" y1="220.28" x2="391.21" y2="216.78"/>
		<line class="st5" x1="395.23" y1="220.28" x2="391.75" y2="216.78"/>
	</g>
	<g>
		<line class="st5" x1="387.73" y1="216.15" x2="391.21" y2="212.65"/>
		<line class="st5" x1="395.23" y1="216.15" x2="391.75" y2="212.65"/>
	</g>
	<g>
		<line class="st5" x1="395.23" y1="247.65" x2="391.75" y2="251.15"/>
		<line class="st5" x1="387.73" y1="247.65" x2="391.21" y2="251.15"/>
	</g>
	<g>
		<line class="st5" x1="395.23" y1="251.65" x2="391.75" y2="255.15"/>
		<line class="st5" x1="387.73" y1="251.65" x2="391.21" y2="255.15"/>
	</g>
</g>
<g>
	<rect x="421.95" y="225.53" class="st6" width="9" height="17"/>
	<line class="st5" x1="426.45" y1="224.95" x2="426.45" y2="217.53"/>
	<line class="st5" x1="426.45" y1="250.95" x2="426.45" y2="242.92"/>
	<g>
		<line class="st5" x1="422.7" y1="220.28" x2="426.18" y2="216.78"/>
		<line class="st5" x1="430.2" y1="220.28" x2="426.72" y2="216.78"/>
	</g>
	<g>
		<line class="st5" x1="422.7" y1="216.15" x2="426.18" y2="212.65"/>
		<line class="st5" x1="430.2" y1="216.15" x2="426.72" y2="212.65"/>
	</g>
	<g>
		<line class="st5" x1="430.2" y1="247.65" x2="426.72" y2="251.15"/>
		<line class="st5" x1="422.7" y1="247.65" x2="426.18" y2="251.15"/>
	</g>
	<g>
		<line class="st5" x1="430.2" y1="251.65" x2="426.72" y2="255.15"/>
		<line class="st5" x1="422.7" y1="251.65" x2="426.18" y2="255.15"/>
	</g>
</g>
<g>
	<rect x="458.18" y="225.53" class="st6" width="9" height="17"/>
	<line class="st5" x1="462.68" y1="224.95" x2="462.68" y2="217.53"/>
	<line class="st5" x1="462.68" y1="250.95" x2="462.68" y2="242.92"/>
	<g>
		<line class="st5" x1="458.93" y1="220.28" x2="462.41" y2="216.78"/>
		<line class="st5" x1="466.43" y1="220.28" x2="462.95" y2="216.78"/>
	</g>
	<g>
		<line class="st5" x1="458.93" y1="216.15" x2="462.41" y2="212.65"/>
		<line class="st5" x1="466.43" y1="216.15" x2="462.95" y2="212.65"/>
	</g>
	<g>
		<line class="st5" x1="466.43" y1="247.65" x2="462.95" y2="251.15"/>
		<line class="st5" x1="458.93" y1="247.65" x2="462.41" y2="251.15"/>
	</g>
	<g>
		<line class="st5" x1="466.43" y1="251.65" x2="462.95" y2="255.15"/>
		<line class="st5" x1="458.93" y1="251.65" x2="462.41" y2="255.15"/>
	</g>
</g>
<g>
	<rect x="494.94" y="225.53" class="st6" width="9" height="17"/>
	<line class="st5" x1="499.44" y1="224.95" x2="499.44" y2="217.53"/>
	<line class="st5" x1="499.44" y1="250.95" x2="499.44" y2="242.92"/>
	<g>
		<line class="st5" x1="495.69" y1="220.28" x2="499.17" y2="216.78"/>
		<line class="st5" x1="503.19" y1="220.28" x2="499.71" y2="216.78"/>
	</g>
	<g>
		<line class="st5" x1="495.69" y1="216.15" x2="499.17" y2="212.65"/>
		<line class="st5" x1="503.19" y1="216.15" x2="499.71" y2="212.65"/>
	</g>
	<g>
		<line class="st5" x1="503.19" y1="247.65" x2="499.71" y2="251.15"/>
		<line class="st5" x1="495.69" y1="247.65" x2="499.17" y2="251.15"/>
	</g>
	<g>
		<line class="st5" x1="503.19" y1="251.65" x2="499.71" y2="255.15"/>
		<line class="st5" x1="495.69" y1="251.65" x2="499.17" y2="255.15"/>
	</g>
</g>
<line class="st5" x1="534.7" y1="212.18" x2="534.7" y2="183.54"/>
<g>
	<rect x="530.19" y="225.53" class="st6" width="9" height="17"/>
	<line class="st5" x1="534.69" y1="224.95" x2="534.69" y2="217.53"/>
	<line class="st5" x1="534.69" y1="250.95" x2="534.69" y2="242.92"/>
	<g>
		<line class="st5" x1="530.94" y1="220.28" x2="534.42" y2="216.78"/>
		<line class="st5" x1="538.44" y1="220.28" x2="534.96" y2="216.78"/>
	</g>
	<g>
		<line class="st5" x1="530.94" y1="216.15" x2="534.42" y2="212.65"/>
		<line class="st5" x1="538.44" y1="216.15" x2="534.96" y2="212.65"/>
	</g>
	<g>
		<line class="st5" x1="538.44" y1="247.65" x2="534.96" y2="251.15"/>
		<line class="st5" x1="530.94" y1="247.65" x2="534.42" y2="251.15"/>
	</g>
	<g>
		<line class="st5" x1="538.44" y1="251.65" x2="534.96" y2="255.15"/>
		<line class="st5" x1="530.94" y1="251.65" x2="534.42" y2="255.15"/>
	</g>
</g>
<text transform="matrix(0 -0.7962 1 0 502.32 238.4856)" class="st2 st3 st7">672</text>
<text transform="matrix(0 -0.7962 1 0 536.7837 238.4532)" class="st2 st3 st7">680</text>
<line class="st8" x1="499.34" y1="117.35" x2="499.34" y2="92.35"/>
<g>
	<rect x="494.84" y="131.49" class="st6" width="9" height="17"/>
	<line class="st5" x1="499.34" y1="130.91" x2="499.34" y2="123.49"/>
	<line class="st5" x1="499.34" y1="156.91" x2="499.34" y2="148.88"/>
	<g>
		<line class="st5" x1="495.59" y1="126.24" x2="499.07" y2="122.74"/>
		<line class="st5" x1="503.09" y1="126.24" x2="499.61" y2="122.74"/>
	</g>
	<g>
		<line class="st8" x1="495.59" y1="122.12" x2="499.07" y2="118.62"/>
		<line class="st8" x1="503.09" y1="122.12" x2="499.61" y2="118.62"/>
	</g>
	<g>
		<line class="st5" x1="503.09" y1="153.62" x2="499.61" y2="157.12"/>
		<line class="st5" x1="495.59" y1="153.62" x2="499.07" y2="157.12"/>
	</g>
	<g>
		<line class="st5" x1="503.09" y1="157.62" x2="499.61" y2="161.12"/>
		<line class="st5" x1="495.59" y1="157.62" x2="499.07" y2="161.12"/>
	</g>
</g>
<line class="st5" x1="499.34" y1="177.23" x2="499.34" y2="148.58"/>
<g>
	<line class="st8" x1="493.38" y1="92.18" x2="499.34" y2="92.18"/>
	<polyline class="st8" points="493.38,92.18 493.35,92.56 493.34,92.94 493.35,93.32 493.39,93.7 493.46,94.08 493.54,94.45 
		493.66,94.82 493.79,95.17 493.95,95.52 494.12,95.86 494.32,96.18 494.54,96.5 494.77,96.8 495.03,97.08 495.3,97.34 495.6,97.59 
		495.9,97.82 496.22,98.03 496.56,98.21 496.9,98.38 497.26,98.53 497.61,98.65 497.99,98.75 498.35,98.82 498.74,98.87 
		499.11,98.9 499.5,98.9 499.87,98.88 500.25,98.83 500.63,98.77 501,98.67 501.37,98.55 501.72,98.41 502.07,98.25 502.4,98.07 
		502.72,97.86 503.03,97.64 503.32,97.39 503.6,97.13 503.86,96.85 504.1,96.56 504.32,96.25 504.53,95.92 504.71,95.59 
		504.86,95.25 505.01,94.88 505.12,94.53 505.21,94.15 505.28,93.78 505.32,93.4 505.34,93.02 505.33,92.63 505.31,92.26 
		505.26,91.88 505.18,91.51 505.07,91.13 504.96,90.78 504.81,90.42 504.63,90.08 504.44,89.75 504.24,89.43 504.01,89.13 
		503.76,88.84 503.48,88.57 503.2,88.31 502.91,88.08 502.59,87.86 502.26,87.66 501.93,87.49 501.58,87.33 501.22,87.2 
		500.86,87.1 500.48,87.01 500.1,86.95 499.73,86.91 499.34,86.9 	"/>
</g>
<line class="st8" x1="499.67" y1="87.06" x2="499.67" y2="62.06"/>
<text transform="matrix(0.7096 0 0 1 325.3679 197.8083)" class="st2 st9 st10">C62</text>
<text transform="matrix(0.7096 0 0 1 469.7296 61.5743)" class="st2 st9 st11">T2</text>
<g>
	<polyline class="st12" points="495.96,53.99 499.5,62.54 503.38,53.95 	"/>
</g>
<g>
	<g>
		<polyline class="st13" points="387.77,276.5 391.31,285.05 395.19,276.47 		"/>
	</g>
	<line class="st5" x1="391.48" y1="276.53" x2="391.48" y2="255.74"/>
</g>
<g>
	<g>
		<polyline class="st13" points="422.75,276.5 426.28,285.05 430.16,276.47 		"/>
	</g>
	<line class="st5" x1="426.46" y1="276.53" x2="426.46" y2="255.74"/>
</g>
<g>
	<g>
		<polyline class="st13" points="458.97,276.5 462.51,285.05 466.39,276.47 		"/>
	</g>
	<line class="st5" x1="462.69" y1="276.53" x2="462.69" y2="255.74"/>
</g>
<g>
	<g>
		<polyline class="st13" points="495.73,276.5 499.27,285.05 503.15,276.47 		"/>
	</g>
	<line class="st5" x1="499.44" y1="276.53" x2="499.44" y2="255.74"/>
</g>
<g>
	<g>
		<polyline class="st13" points="530.98,276.5 534.52,285.05 538.4,276.47 		"/>
	</g>
	<line class="st5" x1="534.69" y1="276.53" x2="534.69" y2="255.74"/>
</g>
<line class="st5" x1="358.89" y1="177.07" x2="358.89" y2="162.07"/>
<line class="st5" x1="281.89" y1="177.13" x2="281.89" y2="162.13"/>
<line class="st12" x1="282.34" y1="104.57" x2="360" y2="104.57"/>
<line class="st12" x1="282.5" y1="119.5" x2="282.5" y2="104.5"/>
<line class="st12" x1="359.5" y1="119.5" x2="359.5" y2="104.5"/>
<text transform="matrix(0.7096 0 0 1 150.7048 145.4135)" class="st2 st9 st10">631</text>
<text transform="matrix(0.7096 0 0 1 511.5294 145.4132)" class="st2 st9 st10">632</text>
<text transform="matrix(0.7096 0 0 1 60.7048 162.4135)" class="st2 st9 st14">6KB</text>
<text transform="matrix(0.7096 0 0 1 569.0968 162.88)" class="st2 st9 st14">6KB</text>
<text transform="matrix(0.7128 0 0 1 217.0436 27.4981)" class="st2 st3 st15">TRẠM BIẾN ÁP 110KV</text>
</svg>
