<?xml version="1.0" encoding="utf-8"?>
<!-- Generator: Adobe Illustrator 27.1.1, SVG Export Plug-In . SVG Version: 6.00 Build 0)  -->
<svg version="1.1" id="Layer_1" xmlns="http://www.w3.org/2000/svg" xmlns:xlink="http://www.w3.org/1999/xlink" x="0px" y="0px"
	 viewBox="0 0 767 370" style="enable-background:new 0 0 767 370;" xml:space="preserve">
<style type="text/css">
	.st0{fill:none;stroke:#212830;stroke-linecap:square;stroke-miterlimit:10;}
	.st1{fill:none;stroke:#000000;stroke-miterlimit:10;}
	.st2{stroke:#000000;stroke-linecap:square;stroke-miterlimit:10;}
	.st3{fill:#F7931E;}
	.st4{fill:#F15A24;}
	.st5{fill:#212830;}
	.st6{font-family:'ArialMT';}
	.st7{font-size:12px;}
	.st8{font-family:'Arial-ItalicMT';}
	.st9{font-size:14px;}
	.st10{font-size:21px;}
	.st11{fill:#FF0000;stroke:#FF0000;stroke-linecap:square;stroke-miterlimit:10;}
	.st12{fill:none;stroke:#FF0000;stroke-linecap:square;stroke-miterlimit:10;}
	.st13{fill:#FF0000;}
	.st14{fill:#FF00FF;}
	.st15{fill:#E6E6E6;stroke:#FF0000;stroke-miterlimit:10;}
</style>
<g>
	<line class="st0" x1="18.64" y1="167.4" x2="18.64" y2="138.75"/>
	<g>
		<rect x="14.14" y="180.74" class="st1" width="9" height="17"/>
		<line class="st0" x1="18.64" y1="180.16" x2="18.64" y2="172.74"/>
		<line class="st0" x1="18.64" y1="206.16" x2="18.64" y2="198.13"/>
		<g>
			<line class="st0" x1="14.89" y1="175.49" x2="18.37" y2="171.99"/>
			<line class="st0" x1="22.39" y1="175.49" x2="18.91" y2="171.99"/>
		</g>
		<g>
			<line class="st0" x1="14.89" y1="171.36" x2="18.37" y2="167.86"/>
			<line class="st0" x1="22.39" y1="171.36" x2="18.91" y2="167.86"/>
		</g>
		<g>
			<line class="st0" x1="22.39" y1="202.86" x2="18.91" y2="206.36"/>
			<line class="st0" x1="14.89" y1="202.86" x2="18.37" y2="206.36"/>
		</g>
		<g>
			<line class="st0" x1="22.39" y1="206.86" x2="18.91" y2="210.36"/>
			<line class="st0" x1="14.89" y1="206.86" x2="18.37" y2="210.36"/>
		</g>
	</g>
	<g>
		<g>
			<polyline class="st2" points="14.93,231.94 18.47,240.49 22.35,231.91 			"/>
		</g>
		<line class="st0" x1="18.64" y1="231.97" x2="18.64" y2="211.18"/>
		<line class="st0" x1="22.39" y1="231.56" x2="14.89" y2="231.56"/>
	</g>
</g>
<g>
	<line class="st0" x1="52.45" y1="167.4" x2="52.45" y2="138.75"/>
	<g>
		<rect x="47.95" y="180.74" class="st1" width="9" height="17"/>
		<line class="st0" x1="52.45" y1="180.16" x2="52.45" y2="172.74"/>
		<line class="st0" x1="52.45" y1="206.16" x2="52.45" y2="198.13"/>
		<g>
			<line class="st0" x1="48.7" y1="175.49" x2="52.18" y2="171.99"/>
			<line class="st0" x1="56.2" y1="175.49" x2="52.72" y2="171.99"/>
		</g>
		<g>
			<line class="st0" x1="48.7" y1="171.36" x2="52.18" y2="167.86"/>
			<line class="st0" x1="56.2" y1="171.36" x2="52.72" y2="167.86"/>
		</g>
		<g>
			<line class="st0" x1="56.2" y1="202.86" x2="52.72" y2="206.36"/>
			<line class="st0" x1="48.7" y1="202.86" x2="52.18" y2="206.36"/>
		</g>
		<g>
			<line class="st0" x1="56.2" y1="206.86" x2="52.72" y2="210.36"/>
			<line class="st0" x1="48.7" y1="206.86" x2="52.18" y2="210.36"/>
		</g>
	</g>
	<g>
		<g>
			<polyline class="st2" points="48.74,231.94 52.28,240.49 56.16,231.91 			"/>
		</g>
		<line class="st0" x1="52.45" y1="231.97" x2="52.45" y2="211.18"/>
		<line class="st0" x1="56.2" y1="231.56" x2="48.7" y2="231.56"/>
	</g>
</g>
<g>
	<line class="st0" x1="86.59" y1="167.4" x2="86.59" y2="138.75"/>
	<g>
		<rect x="82.09" y="180.74" class="st1" width="9" height="17"/>
		<line class="st0" x1="86.59" y1="180.16" x2="86.59" y2="172.74"/>
		<line class="st0" x1="86.59" y1="206.16" x2="86.59" y2="198.13"/>
		<g>
			<line class="st0" x1="82.84" y1="175.49" x2="86.32" y2="171.99"/>
			<line class="st0" x1="90.34" y1="175.49" x2="86.85" y2="171.99"/>
		</g>
		<g>
			<line class="st0" x1="82.84" y1="171.36" x2="86.32" y2="167.86"/>
			<line class="st0" x1="90.34" y1="171.36" x2="86.85" y2="167.86"/>
		</g>
		<g>
			<line class="st0" x1="90.34" y1="202.86" x2="86.85" y2="206.36"/>
			<line class="st0" x1="82.84" y1="202.86" x2="86.32" y2="206.36"/>
		</g>
		<g>
			<line class="st0" x1="90.34" y1="206.86" x2="86.85" y2="210.36"/>
			<line class="st0" x1="82.84" y1="206.86" x2="86.32" y2="210.36"/>
		</g>
	</g>
	<g>
		<g>
			<polyline class="st2" points="82.88,231.94 86.41,240.49 90.29,231.91 			"/>
		</g>
		<line class="st0" x1="86.59" y1="231.97" x2="86.59" y2="211.18"/>
		<line class="st0" x1="90.34" y1="231.56" x2="82.84" y2="231.56"/>
	</g>
</g>
<g>
	<line class="st0" x1="122.63" y1="167.4" x2="122.63" y2="138.75"/>
	<g>
		<rect x="118.13" y="180.74" class="st1" width="9" height="17"/>
		<line class="st0" x1="122.63" y1="180.16" x2="122.63" y2="172.74"/>
		<line class="st0" x1="122.63" y1="206.16" x2="122.63" y2="198.13"/>
		<g>
			<line class="st0" x1="118.88" y1="175.49" x2="122.36" y2="171.99"/>
			<line class="st0" x1="126.38" y1="175.49" x2="122.9" y2="171.99"/>
		</g>
		<g>
			<line class="st0" x1="118.88" y1="171.36" x2="122.36" y2="167.86"/>
			<line class="st0" x1="126.38" y1="171.36" x2="122.9" y2="167.86"/>
		</g>
		<g>
			<line class="st0" x1="126.38" y1="202.86" x2="122.9" y2="206.36"/>
			<line class="st0" x1="118.88" y1="202.86" x2="122.36" y2="206.36"/>
		</g>
		<g>
			<line class="st0" x1="126.38" y1="206.86" x2="122.9" y2="210.36"/>
			<line class="st0" x1="118.88" y1="206.86" x2="122.36" y2="210.36"/>
		</g>
	</g>
	<g>
		<g>
			<polyline class="st2" points="118.92,231.94 122.46,240.49 126.33,231.91 			"/>
		</g>
		<line class="st0" x1="122.63" y1="231.97" x2="122.63" y2="211.18"/>
		<line class="st0" x1="126.38" y1="231.56" x2="118.88" y2="231.56"/>
	</g>
</g>
<g>
	<line class="st0" x1="159.59" y1="167.4" x2="159.59" y2="138.75"/>
	<g>
		<rect x="155.09" y="180.74" class="st1" width="9" height="17"/>
		<line class="st0" x1="159.59" y1="180.16" x2="159.59" y2="172.74"/>
		<line class="st0" x1="159.59" y1="206.16" x2="159.59" y2="198.13"/>
		<g>
			<line class="st0" x1="155.84" y1="175.49" x2="159.32" y2="171.99"/>
			<line class="st0" x1="163.34" y1="175.49" x2="159.85" y2="171.99"/>
		</g>
		<g>
			<line class="st0" x1="155.84" y1="171.36" x2="159.32" y2="167.86"/>
			<line class="st0" x1="163.34" y1="171.36" x2="159.85" y2="167.86"/>
		</g>
		<g>
			<line class="st0" x1="163.34" y1="202.86" x2="159.85" y2="206.36"/>
			<line class="st0" x1="155.84" y1="202.86" x2="159.32" y2="206.36"/>
		</g>
		<g>
			<line class="st0" x1="163.34" y1="206.86" x2="159.85" y2="210.36"/>
			<line class="st0" x1="155.84" y1="206.86" x2="159.32" y2="210.36"/>
		</g>
	</g>
	<g>
		<g>
			<polyline class="st2" points="155.88,231.94 159.41,240.49 163.29,231.91 			"/>
		</g>
		<line class="st0" x1="159.59" y1="231.97" x2="159.59" y2="211.18"/>
		<line class="st0" x1="163.34" y1="231.56" x2="155.84" y2="231.56"/>
	</g>
</g>
<g>
	<line class="st0" x1="195.7" y1="167.4" x2="195.7" y2="138.75"/>
	<g>
		<rect x="191.2" y="180.74" class="st1" width="9" height="17"/>
		<line class="st0" x1="195.7" y1="180.16" x2="195.7" y2="172.74"/>
		<line class="st0" x1="195.7" y1="206.16" x2="195.7" y2="198.13"/>
		<g>
			<line class="st0" x1="191.95" y1="175.49" x2="195.43" y2="171.99"/>
			<line class="st0" x1="199.45" y1="175.49" x2="195.97" y2="171.99"/>
		</g>
		<g>
			<line class="st0" x1="191.95" y1="171.36" x2="195.43" y2="167.86"/>
			<line class="st0" x1="199.45" y1="171.36" x2="195.97" y2="167.86"/>
		</g>
		<g>
			<line class="st0" x1="199.45" y1="202.86" x2="195.97" y2="206.36"/>
			<line class="st0" x1="191.95" y1="202.86" x2="195.43" y2="206.36"/>
		</g>
		<g>
			<line class="st0" x1="199.45" y1="206.86" x2="195.97" y2="210.36"/>
			<line class="st0" x1="191.95" y1="206.86" x2="195.43" y2="210.36"/>
		</g>
	</g>
	<g>
		<g>
			<polyline class="st2" points="191.99,231.94 195.53,240.49 199.41,231.91 			"/>
		</g>
		<line class="st0" x1="195.7" y1="231.97" x2="195.7" y2="211.18"/>
		<line class="st0" x1="199.45" y1="231.56" x2="191.95" y2="231.56"/>
	</g>
</g>
<g>
	<line class="st0" x1="230.38" y1="167.4" x2="230.38" y2="138.75"/>
	<g>
		<rect x="225.88" y="180.74" class="st1" width="9" height="17"/>
		<line class="st0" x1="230.38" y1="180.16" x2="230.38" y2="172.74"/>
		<line class="st0" x1="230.38" y1="206.16" x2="230.38" y2="198.13"/>
		<g>
			<line class="st0" x1="226.63" y1="175.49" x2="230.12" y2="171.99"/>
			<line class="st0" x1="234.13" y1="175.49" x2="230.65" y2="171.99"/>
		</g>
		<g>
			<line class="st0" x1="226.63" y1="171.36" x2="230.12" y2="167.86"/>
			<line class="st0" x1="234.13" y1="171.36" x2="230.65" y2="167.86"/>
		</g>
		<g>
			<line class="st0" x1="234.13" y1="202.86" x2="230.65" y2="206.36"/>
			<line class="st0" x1="226.63" y1="202.86" x2="230.12" y2="206.36"/>
		</g>
		<g>
			<line class="st0" x1="234.13" y1="206.86" x2="230.65" y2="210.36"/>
			<line class="st0" x1="226.63" y1="206.86" x2="230.12" y2="210.36"/>
		</g>
	</g>
	<g>
		<g>
			<polyline class="st2" points="226.68,231.94 230.21,240.49 234.09,231.91 			"/>
		</g>
		<line class="st0" x1="230.38" y1="231.97" x2="230.38" y2="211.18"/>
		<line class="st0" x1="234.13" y1="231.56" x2="226.63" y2="231.56"/>
	</g>
</g>
<g>
	<line class="st0" x1="266.76" y1="167.4" x2="266.76" y2="138.75"/>
	<g>
		<rect x="262.26" y="180.74" class="st1" width="9" height="17"/>
		<line class="st0" x1="266.76" y1="180.16" x2="266.76" y2="172.74"/>
		<line class="st0" x1="266.76" y1="206.16" x2="266.76" y2="198.13"/>
		<g>
			<line class="st0" x1="263.01" y1="175.49" x2="266.49" y2="171.99"/>
			<line class="st0" x1="270.51" y1="175.49" x2="267.03" y2="171.99"/>
		</g>
		<g>
			<line class="st0" x1="263.01" y1="171.36" x2="266.49" y2="167.86"/>
			<line class="st0" x1="270.51" y1="171.36" x2="267.03" y2="167.86"/>
		</g>
		<g>
			<line class="st0" x1="270.51" y1="202.86" x2="267.03" y2="206.36"/>
			<line class="st0" x1="263.01" y1="202.86" x2="266.49" y2="206.36"/>
		</g>
		<g>
			<line class="st0" x1="270.51" y1="206.86" x2="267.03" y2="210.36"/>
			<line class="st0" x1="263.01" y1="206.86" x2="266.49" y2="210.36"/>
		</g>
	</g>
	<g>
		<g>
			<polyline class="st2" points="263.05,231.94 266.59,240.49 270.46,231.91 			"/>
		</g>
		<line class="st0" x1="266.76" y1="231.97" x2="266.76" y2="211.18"/>
		<line class="st0" x1="270.51" y1="231.56" x2="263.01" y2="231.56"/>
	</g>
</g>
<g>
	<line class="st0" x1="337.59" y1="167.4" x2="337.59" y2="138.75"/>
	<g>
		<rect x="333.09" y="180.74" class="st1" width="9" height="17"/>
		<line class="st0" x1="337.59" y1="180.16" x2="337.59" y2="172.74"/>
		<line class="st0" x1="337.59" y1="206.16" x2="337.59" y2="198.13"/>
		<g>
			<line class="st0" x1="333.84" y1="175.49" x2="337.32" y2="171.99"/>
			<line class="st0" x1="341.34" y1="175.49" x2="337.85" y2="171.99"/>
		</g>
		<g>
			<line class="st0" x1="333.84" y1="171.36" x2="337.32" y2="167.86"/>
			<line class="st0" x1="341.34" y1="171.36" x2="337.85" y2="167.86"/>
		</g>
		<g>
			<line class="st0" x1="341.34" y1="202.86" x2="337.85" y2="206.36"/>
			<line class="st0" x1="333.84" y1="202.86" x2="337.32" y2="206.36"/>
		</g>
		<g>
			<line class="st0" x1="341.34" y1="206.86" x2="337.85" y2="210.36"/>
			<line class="st0" x1="333.84" y1="206.86" x2="337.32" y2="210.36"/>
		</g>
	</g>
	<g>
		<g>
			<polyline class="st2" points="333.88,231.94 337.41,240.49 341.29,231.91 			"/>
		</g>
		<line class="st0" x1="337.59" y1="231.97" x2="337.59" y2="211.18"/>
		<line class="st0" x1="341.34" y1="231.56" x2="333.84" y2="231.56"/>
	</g>
</g>
<g>
	<line class="st0" x1="373.68" y1="167.4" x2="373.68" y2="138.75"/>
	<g>
		<rect x="369.18" y="180.74" class="st1" width="9" height="17"/>
		<line class="st0" x1="373.68" y1="180.16" x2="373.68" y2="172.74"/>
		<line class="st0" x1="373.68" y1="206.16" x2="373.68" y2="198.13"/>
		<g>
			<line class="st0" x1="369.93" y1="175.49" x2="373.41" y2="171.99"/>
			<line class="st0" x1="377.43" y1="175.49" x2="373.95" y2="171.99"/>
		</g>
		<g>
			<line class="st0" x1="369.93" y1="171.36" x2="373.41" y2="167.86"/>
			<line class="st0" x1="377.43" y1="171.36" x2="373.95" y2="167.86"/>
		</g>
		<g>
			<line class="st0" x1="377.43" y1="202.86" x2="373.95" y2="206.36"/>
			<line class="st0" x1="369.93" y1="202.86" x2="373.41" y2="206.36"/>
		</g>
		<g>
			<line class="st0" x1="377.43" y1="206.86" x2="373.95" y2="210.36"/>
			<line class="st0" x1="369.93" y1="206.86" x2="373.41" y2="210.36"/>
		</g>
	</g>
	<g>
		<g>
			<polyline class="st2" points="369.97,231.94 373.51,240.49 377.39,231.91 			"/>
		</g>
		<line class="st0" x1="373.68" y1="231.97" x2="373.68" y2="211.18"/>
		<line class="st0" x1="377.43" y1="231.56" x2="369.93" y2="231.56"/>
	</g>
</g>
<g>
	<line class="st0" x1="445.59" y1="167.4" x2="445.59" y2="138.75"/>
	<g>
		<rect x="441.09" y="180.74" class="st1" width="9" height="17"/>
		<line class="st0" x1="445.59" y1="180.16" x2="445.59" y2="172.74"/>
		<line class="st0" x1="445.59" y1="206.16" x2="445.59" y2="198.13"/>
		<g>
			<line class="st0" x1="441.84" y1="175.49" x2="445.32" y2="171.99"/>
			<line class="st0" x1="449.34" y1="175.49" x2="445.85" y2="171.99"/>
		</g>
		<g>
			<line class="st0" x1="441.84" y1="171.36" x2="445.32" y2="167.86"/>
			<line class="st0" x1="449.34" y1="171.36" x2="445.85" y2="167.86"/>
		</g>
		<g>
			<line class="st0" x1="449.34" y1="202.86" x2="445.85" y2="206.36"/>
			<line class="st0" x1="441.84" y1="202.86" x2="445.32" y2="206.36"/>
		</g>
		<g>
			<line class="st0" x1="449.34" y1="206.86" x2="445.85" y2="210.36"/>
			<line class="st0" x1="441.84" y1="206.86" x2="445.32" y2="210.36"/>
		</g>
	</g>
	<g>
		<g>
			<polyline class="st2" points="441.88,231.94 445.41,240.49 449.29,231.91 			"/>
		</g>
		<line class="st0" x1="445.59" y1="231.97" x2="445.59" y2="211.18"/>
		<line class="st0" x1="449.34" y1="231.56" x2="441.84" y2="231.56"/>
	</g>
</g>
<rect x="5.74" y="132" class="st3" width="694.76" height="6"/>
<rect x="84.49" y="132.77" class="st4" width="5.41" height="5.5"/>
<rect x="120.53" y="132.77" class="st4" width="5.41" height="5.5"/>
<rect x="16.96" y="132.77" class="st4" width="5.41" height="5.5"/>
<rect x="49.54" y="132.77" class="st4" width="5.41" height="5.5"/>
<text transform="matrix(0.4589 0 0 1 18.3095 129.6183)" class="st5 st6 st7">1</text>
<text transform="matrix(0.6726 0 0 1 49.881 129.6179)" class="st5 st6 st7">2</text>
<text transform="matrix(0.6726 0 0 1 85.8315 129.6179)" class="st5 st6 st7">3</text>
<text transform="matrix(0.6726 0 0 1 121.8782 129.6179)" class="st5 st6 st7">4</text>
<rect x="157.05" y="132.77" class="st4" width="5.41" height="5.5"/>
<text transform="matrix(0.6726 0 0 1 158.3976 129.6181)" class="st5 st6 st7">5</text>
<rect x="193.48" y="132.77" class="st4" width="5.41" height="5.5"/>
<text transform="matrix(0.6726 0 0 1 193.8216 129.6179)" class="st5 st6 st7">6</text>
<text transform="matrix(0.7096 0 0 1 311.2048 59.4135)" class="st5 st8 st9">671</text>
<text transform="matrix(0.7096 0 0 1 11.2048 117.4135)" class="st5 st8 st7">6KV</text>
<text transform="matrix(0.7128 0 0 1 249.5436 27.4981)" class="st5 st6 st10">TRẠM RP2</text>
<rect x="228.43" y="132.77" class="st4" width="5.41" height="5.5"/>
<text transform="matrix(0.6726 0 0 1 230.7722 129.6179)" class="st5 st6 st7">7</text>
<rect x="263.99" y="132.77" class="st4" width="5.41" height="5.5"/>
<rect x="299.49" y="132.77" class="st4" width="5.41" height="5.5"/>
<text transform="matrix(0.6726 0 0 1 270.3382 129.6181)" class="st5 st6 st7">8</text>
<rect x="335.34" y="132.77" class="st4" width="5.41" height="5.5"/>
<text transform="matrix(0.6726 0 0 1 339.6861 149.6177)" class="st5 st6 st7">10</text>
<text transform="matrix(0.507 0 0 1 342.7334 129.6177)" class="st5 st6 st7">12</text>
<rect x="371.91" y="132.77" class="st4" width="5.41" height="5.5"/>
<rect x="407.41" y="132.77" class="st4" width="5.41" height="5.5"/>
<text transform="matrix(0.6726 0 0 1 370.2521 129.6179)" class="st5 st6 st7">13</text>
<rect x="443.34" y="132.77" class="st4" width="5.41" height="5.5"/>
<rect x="479.39" y="132.77" class="st4" width="5.41" height="5.5"/>
<text transform="matrix(0.6726 0 0 1 442.6861 129.618)" class="st5 st6 st7">15</text>
<text transform="matrix(0.6726 0 0 1 477.7327 129.618)" class="st5 st6 st7">16</text>
<rect x="515.91" y="132.77" class="st4" width="5.41" height="5.5"/>
<rect x="551.41" y="132.77" class="st4" width="5.41" height="5.5"/>
<text transform="matrix(0.6726 0 0 1 515.2521 129.6182)" class="st5 st6 st7">17</text>
<text transform="matrix(0.6726 0 0 1 303.6386 129.1914)" class="st5 st6 st7">9</text>
<text transform="matrix(0.6726 0 0 1 406.6386 129.1914)" class="st5 st6 st7">14</text>
<text transform="matrix(0.7096 0 0 1 429.4691 110.2204)" class="st5 st8 st7">PHÂN ĐOẠN 1</text>
<text transform="matrix(0.6726 0 0 1 623.6385 130.1914)" class="st5 st6 st7">20</text>
<line class="st0" x1="724.99" y1="132.52" x2="724.99" y2="117.52"/>
<line class="st0" x1="684.31" y1="132.57" x2="684.31" y2="117.57"/>
<line class="st11" x1="684.31" y1="74.94" x2="684.31" y2="59.94"/>
<g>
	<rect x="679.81" y="87.46" class="st1" width="9" height="17"/>
	<line class="st0" x1="684.31" y1="86.88" x2="684.31" y2="79.46"/>
	<line class="st0" x1="684.31" y1="112.88" x2="684.31" y2="104.85"/>
	<g>
		<line class="st0" x1="680.56" y1="82.21" x2="684.04" y2="78.71"/>
		<line class="st0" x1="688.06" y1="82.21" x2="684.58" y2="78.71"/>
	</g>
	<g>
		<line class="st12" x1="680.56" y1="78.09" x2="684.04" y2="74.59"/>
		<line class="st12" x1="688.06" y1="78.09" x2="684.58" y2="74.59"/>
	</g>
	<g>
		<line class="st0" x1="688.06" y1="109.59" x2="684.58" y2="113.09"/>
		<line class="st0" x1="680.56" y1="109.59" x2="684.04" y2="113.09"/>
	</g>
	<g>
		<line class="st0" x1="688.06" y1="113.59" x2="684.58" y2="117.09"/>
		<line class="st0" x1="680.56" y1="113.59" x2="684.04" y2="117.09"/>
	</g>
</g>
<g>
	<line class="st0" x1="725.17" y1="112.88" x2="725.17" y2="79.16"/>
	<g>
		<line class="st0" x1="721.42" y1="82.21" x2="724.9" y2="78.71"/>
		<line class="st0" x1="728.92" y1="82.21" x2="725.43" y2="78.71"/>
	</g>
	<g>
		<line class="st12" x1="721.42" y1="78.09" x2="724.9" y2="74.59"/>
		<line class="st12" x1="728.92" y1="78.09" x2="725.43" y2="74.59"/>
	</g>
	<g>
		<line class="st0" x1="728.92" y1="109.59" x2="725.43" y2="113.09"/>
		<line class="st0" x1="721.42" y1="109.59" x2="724.9" y2="113.09"/>
	</g>
	<g>
		<line class="st0" x1="728.92" y1="113.59" x2="725.43" y2="117.09"/>
		<line class="st0" x1="721.42" y1="113.59" x2="724.9" y2="117.09"/>
	</g>
</g>
<line class="st11" x1="684.45" y1="60.02" x2="724.5" y2="60.02"/>
<line class="st11" x1="724.6" y1="74.94" x2="724.6" y2="59.94"/>
<rect x="714.1" y="132.13" class="st3" width="43.4" height="6"/>
<text transform="matrix(0.7096 0 0 1 704.6534 152.4373)" class="st5 st8 st7">PHÂN ĐOẠN 2</text>
<rect x="721.78" y="132.27" class="st4" width="5.41" height="5.5"/>
<text transform="matrix(0.6726 0 0 1 689.1295 128.7326)" class="st5 st6 st7">23</text>
<rect x="179.7" y="251.75" class="st0" width="32" height="100"/>
<g>
	<path class="st13" d="M195.7,267.14c5.51,0,10,4.49,10,10s-4.49,10-10,10s-10-4.49-10-10S190.19,267.14,195.7,267.14 M195.7,266.14
		c-6.08,0-11,4.92-11,11s4.92,11,11,11s11-4.92,11-11S201.77,266.14,195.7,266.14L195.7,266.14z"/>
</g>
<g>
	<path class="st13" d="M195.7,270.64c3.58,0,6.5,2.92,6.5,6.5s-2.92,6.5-6.5,6.5s-6.5-2.92-6.5-6.5S192.12,270.64,195.7,270.64
		 M195.7,269.64c-4.14,0-7.5,3.36-7.5,7.5c0,4.14,3.36,7.5,7.5,7.5s7.5-3.36,7.5-7.5C203.2,272.99,199.84,269.64,195.7,269.64
		L195.7,269.64z"/>
</g>
<line class="st12" x1="195.7" y1="240.83" x2="195.7" y2="265.83"/>
<text transform="matrix(0.6558 0 0 1 184.5458 303.5433)"><tspan x="0" y="0" class="st5 st6 st7">42M-1</tspan><tspan x="5.33" y="14.4" class="st5 st6 st7">/630</tspan><tspan x="7.34" y="28.8" class="st5 st6 st7">KW</tspan></text>
<rect x="214.38" y="251.75" class="st0" width="32" height="100"/>
<g>
	<path class="st13" d="M230.38,267.14c5.51,0,10,4.49,10,10s-4.49,10-10,10s-10-4.49-10-10S224.87,267.14,230.38,267.14
		 M230.38,266.14c-6.08,0-11,4.92-11,11s4.92,11,11,11s11-4.92,11-11S236.46,266.14,230.38,266.14L230.38,266.14z"/>
</g>
<g>
	<path class="st13" d="M230.38,270.64c3.58,0,6.5,2.92,6.5,6.5s-2.92,6.5-6.5,6.5s-6.5-2.92-6.5-6.5S226.8,270.64,230.38,270.64
		 M230.38,269.64c-4.14,0-7.5,3.36-7.5,7.5c0,4.14,3.36,7.5,7.5,7.5s7.5-3.36,7.5-7.5C237.88,272.99,234.53,269.64,230.38,269.64
		L230.38,269.64z"/>
</g>
<line class="st12" x1="230.38" y1="240.83" x2="230.38" y2="265.83"/>
<text transform="matrix(0.6558 0 0 1 219.2313 304.3223)"><tspan x="0" y="0" class="st5 st6 st7">47M-1</tspan><tspan x="5.33" y="14.4" class="st5 st6 st7">/630</tspan><tspan x="7.34" y="28.8" class="st5 st6 st7">KW</tspan></text>
<g>
	<g>
		<rect x="333.68" y="88.02" class="st1" width="9" height="17"/>
		<line class="st0" x1="338.18" y1="87.44" x2="338.18" y2="80.02"/>
		<line class="st0" x1="338.18" y1="113.44" x2="338.18" y2="105.41"/>
		<g>
			<line class="st0" x1="334.43" y1="82.77" x2="337.91" y2="79.27"/>
			<line class="st0" x1="341.93" y1="82.77" x2="338.45" y2="79.27"/>
		</g>
		<g>
			<line class="st12" x1="334.43" y1="78.64" x2="337.91" y2="75.14"/>
			<line class="st12" x1="341.93" y1="78.64" x2="338.45" y2="75.14"/>
		</g>
		<g>
			<line class="st0" x1="341.93" y1="110.14" x2="338.45" y2="113.64"/>
			<line class="st0" x1="334.43" y1="110.14" x2="337.91" y2="113.64"/>
		</g>
		<g>
			<line class="st0" x1="341.93" y1="114.14" x2="338.45" y2="117.64"/>
			<line class="st0" x1="334.43" y1="114.14" x2="337.91" y2="117.64"/>
		</g>
	</g>
	<line class="st0" x1="338.18" y1="132.4" x2="338.18" y2="117.4"/>
	<line class="st12" x1="338.18" y1="75.06" x2="338.18" y2="50.06"/>
	<g>
		<g>
			<polyline class="st11" points="334.47,41.53 338.01,50.08 341.89,41.5 			"/>
		</g>
		<line class="st11" x1="341.93" y1="41.16" x2="334.43" y2="41.16"/>
	</g>
</g>
<g>
	<line class="st0" x1="481.67" y1="167.4" x2="481.67" y2="138.75"/>
	<g>
		<rect x="477.17" y="180.74" class="st1" width="9" height="17"/>
		<line class="st0" x1="481.67" y1="180.16" x2="481.67" y2="172.74"/>
		<line class="st0" x1="481.67" y1="206.16" x2="481.67" y2="198.13"/>
		<g>
			<line class="st0" x1="477.92" y1="175.49" x2="481.4" y2="171.99"/>
			<line class="st0" x1="485.42" y1="175.49" x2="481.94" y2="171.99"/>
		</g>
		<g>
			<line class="st0" x1="477.92" y1="171.36" x2="481.4" y2="167.86"/>
			<line class="st0" x1="485.42" y1="171.36" x2="481.94" y2="167.86"/>
		</g>
		<g>
			<line class="st0" x1="485.42" y1="202.86" x2="481.94" y2="206.36"/>
			<line class="st0" x1="477.92" y1="202.86" x2="481.4" y2="206.36"/>
		</g>
		<g>
			<line class="st0" x1="485.42" y1="206.86" x2="481.94" y2="210.36"/>
			<line class="st0" x1="477.92" y1="206.86" x2="481.4" y2="210.36"/>
		</g>
	</g>
	<g>
		<g>
			<polyline class="st2" points="477.96,231.94 481.5,240.49 485.38,231.91 			"/>
		</g>
		<line class="st0" x1="481.67" y1="231.97" x2="481.67" y2="211.18"/>
		<line class="st0" x1="485.42" y1="231.56" x2="477.92" y2="231.56"/>
	</g>
</g>
<g>
	<line class="st0" x1="518.26" y1="167.4" x2="518.26" y2="138.75"/>
	<g>
		<rect x="513.76" y="180.74" class="st1" width="9" height="17"/>
		<line class="st0" x1="518.26" y1="180.16" x2="518.26" y2="172.74"/>
		<line class="st0" x1="518.26" y1="206.16" x2="518.26" y2="198.13"/>
		<g>
			<line class="st0" x1="514.51" y1="175.49" x2="517.99" y2="171.99"/>
			<line class="st0" x1="522.01" y1="175.49" x2="518.53" y2="171.99"/>
		</g>
		<g>
			<line class="st0" x1="514.51" y1="171.36" x2="517.99" y2="167.86"/>
			<line class="st0" x1="522.01" y1="171.36" x2="518.53" y2="167.86"/>
		</g>
		<g>
			<line class="st0" x1="522.01" y1="202.86" x2="518.53" y2="206.36"/>
			<line class="st0" x1="514.51" y1="202.86" x2="517.99" y2="206.36"/>
		</g>
		<g>
			<line class="st0" x1="522.01" y1="206.86" x2="518.53" y2="210.36"/>
			<line class="st0" x1="514.51" y1="206.86" x2="517.99" y2="210.36"/>
		</g>
	</g>
	<g>
		<g>
			<polyline class="st2" points="514.55,231.94 518.08,240.49 521.96,231.91 			"/>
		</g>
		<line class="st0" x1="518.26" y1="231.97" x2="518.26" y2="211.18"/>
		<line class="st0" x1="522.01" y1="231.56" x2="514.51" y2="231.56"/>
	</g>
</g>
<g>
	<line class="st0" x1="554.26" y1="167.4" x2="554.26" y2="138.75"/>
	<g>
		<rect x="549.76" y="180.74" class="st1" width="9" height="17"/>
		<line class="st0" x1="554.26" y1="180.16" x2="554.26" y2="172.74"/>
		<line class="st0" x1="554.26" y1="206.16" x2="554.26" y2="198.13"/>
		<g>
			<line class="st0" x1="550.51" y1="175.49" x2="553.99" y2="171.99"/>
			<line class="st0" x1="558.01" y1="175.49" x2="554.53" y2="171.99"/>
		</g>
		<g>
			<line class="st0" x1="550.51" y1="171.36" x2="553.99" y2="167.86"/>
			<line class="st0" x1="558.01" y1="171.36" x2="554.53" y2="167.86"/>
		</g>
		<g>
			<line class="st0" x1="558.01" y1="202.86" x2="554.53" y2="206.36"/>
			<line class="st0" x1="550.51" y1="202.86" x2="553.99" y2="206.36"/>
		</g>
		<g>
			<line class="st0" x1="558.01" y1="206.86" x2="554.53" y2="210.36"/>
			<line class="st0" x1="550.51" y1="206.86" x2="553.99" y2="210.36"/>
		</g>
	</g>
	<g>
		<g>
			<polyline class="st2" points="550.55,231.94 554.08,240.49 557.96,231.91 			"/>
		</g>
		<line class="st0" x1="554.26" y1="231.97" x2="554.26" y2="211.18"/>
		<line class="st0" x1="558.01" y1="231.56" x2="550.51" y2="231.56"/>
	</g>
</g>
<g>
	<line class="st0" x1="590.26" y1="167.4" x2="590.26" y2="138.75"/>
	<g>
		<rect x="585.76" y="180.74" class="st1" width="9" height="17"/>
		<line class="st0" x1="590.26" y1="180.16" x2="590.26" y2="172.74"/>
		<line class="st0" x1="590.26" y1="206.16" x2="590.26" y2="198.13"/>
		<g>
			<line class="st0" x1="586.51" y1="175.49" x2="589.99" y2="171.99"/>
			<line class="st0" x1="594.01" y1="175.49" x2="590.53" y2="171.99"/>
		</g>
		<g>
			<line class="st0" x1="586.51" y1="171.36" x2="589.99" y2="167.86"/>
			<line class="st0" x1="594.01" y1="171.36" x2="590.53" y2="167.86"/>
		</g>
		<g>
			<line class="st0" x1="594.01" y1="202.86" x2="590.53" y2="206.36"/>
			<line class="st0" x1="586.51" y1="202.86" x2="589.99" y2="206.36"/>
		</g>
		<g>
			<line class="st0" x1="594.01" y1="206.86" x2="590.53" y2="210.36"/>
			<line class="st0" x1="586.51" y1="206.86" x2="589.99" y2="210.36"/>
		</g>
	</g>
	<g>
		<g>
			<polyline class="st2" points="586.55,231.94 590.08,240.49 593.96,231.91 			"/>
		</g>
		<line class="st0" x1="590.26" y1="231.97" x2="590.26" y2="211.18"/>
		<line class="st0" x1="594.01" y1="231.56" x2="586.51" y2="231.56"/>
	</g>
</g>
<rect x="587.97" y="132.99" class="st4" width="5.41" height="5.5"/>
<rect x="624.97" y="132.99" class="st4" width="5.41" height="5.5"/>
<text transform="matrix(0.6726 0 0 1 550.5614 129.9452)" class="st5 st6 st7">18</text>
<text transform="matrix(0.6726 0 0 1 587.0808 129.9454)" class="st5 st6 st7">19</text>
<g>
	<rect x="2.64" y="251.75" class="st0" width="32" height="100"/>
	<g>
		<path class="st13" d="M18.64,267.14c5.51,0,10,4.49,10,10s-4.49,10-10,10s-10-4.49-10-10S13.13,267.14,18.64,267.14 M18.64,266.14
			c-6.08,0-11,4.92-11,11s4.92,11,11,11s11-4.92,11-11S24.72,266.14,18.64,266.14L18.64,266.14z"/>
	</g>
	<g>
		<path class="st13" d="M18.64,270.64c3.58,0,6.5,2.92,6.5,6.5s-2.92,6.5-6.5,6.5s-6.5-2.92-6.5-6.5S15.06,270.64,18.64,270.64
			 M18.64,269.64c-4.14,0-7.5,3.36-7.5,7.5c0,4.14,3.36,7.5,7.5,7.5s7.5-3.36,7.5-7.5C26.14,272.99,22.78,269.64,18.64,269.64
			L18.64,269.64z"/>
	</g>
	<line class="st12" x1="18.64" y1="240.83" x2="18.64" y2="265.83"/>
	<text transform="matrix(0.6558 0 0 1 7.4865 303.5433)"><tspan x="0" y="0" class="st5 st6 st7">51M-1</tspan><tspan x="5.33" y="14.4" class="st5 st6 st7">/400</tspan><tspan x="7.34" y="28.8" class="st5 st6 st7">KW</tspan></text>
</g>
<rect x="36.45" y="251.75" class="st0" width="32" height="100"/>
<g>
	<path class="st13" d="M52.45,267.14c5.51,0,10,4.49,10,10s-4.49,10-10,10s-10-4.49-10-10S46.94,267.14,52.45,267.14 M52.45,266.14
		c-6.08,0-11,4.92-11,11s4.92,11,11,11s11-4.92,11-11S58.53,266.14,52.45,266.14L52.45,266.14z"/>
</g>
<g>
	<circle class="st14" cx="52.45" cy="277.14" r="7"/>
	<path class="st13" d="M52.45,270.64c3.58,0,6.5,2.92,6.5,6.5s-2.92,6.5-6.5,6.5s-6.5-2.92-6.5-6.5S48.87,270.64,52.45,270.64
		 M52.45,269.64c-4.14,0-7.5,3.36-7.5,7.5c0,4.14,3.36,7.5,7.5,7.5s7.5-3.36,7.5-7.5C59.95,272.99,56.59,269.64,52.45,269.64
		L52.45,269.64z"/>
</g>
<line class="st12" x1="52.45" y1="240.25" x2="52.45" y2="265.25"/>
<text transform="matrix(0.6558 0 0 1 43.6965 304.0346)"><tspan x="0" y="0" class="st5 st6 st7">1210</tspan><tspan x="3.01" y="14.4" class="st5 st6 st7">M-1</tspan><tspan x="1.67" y="28.8" class="st5 st6 st7">/630</tspan><tspan x="3.68" y="43.2" class="st5 st6 st7">KW</tspan></text>
<rect x="70.14" y="251.75" class="st0" width="32" height="100"/>
<g>
	<path class="st13" d="M86.14,267.14c5.51,0,10,4.49,10,10s-4.49,10-10,10c-5.51,0-10-4.49-10-10S80.62,267.14,86.14,267.14
		 M86.14,266.14c-6.08,0-11,4.92-11,11s4.92,11,11,11s11-4.92,11-11S92.21,266.14,86.14,266.14L86.14,266.14z"/>
</g>
<g>
	<path class="st13" d="M86.14,270.64c3.58,0,6.5,2.92,6.5,6.5s-2.92,6.5-6.5,6.5c-3.58,0-6.5-2.92-6.5-6.5
		S82.55,270.64,86.14,270.64 M86.14,269.64c-4.14,0-7.5,3.36-7.5,7.5c0,4.14,3.36,7.5,7.5,7.5c4.14,0,7.5-3.36,7.5-7.5
		C93.64,272.99,90.28,269.64,86.14,269.64L86.14,269.64z"/>
</g>
<line class="st12" x1="86.14" y1="240.83" x2="86.14" y2="265.83"/>
<text transform="matrix(0.6558 0 0 1 74.9825 303.5433)"><tspan x="0" y="0" class="st5 st6 st7">17M-2</tspan><tspan x="5.33" y="14.4" class="st5 st6 st7">/630</tspan><tspan x="7.34" y="28.8" class="st5 st6 st7">KW</tspan></text>
<rect x="105.82" y="251.75" class="st0" width="32" height="100"/>
<g>
	<path class="st13" d="M121.82,267.14c5.51,0,10,4.49,10,10s-4.49,10-10,10s-10-4.49-10-10S116.31,267.14,121.82,267.14
		 M121.82,266.14c-6.08,0-11,4.92-11,11s4.92,11,11,11s11-4.92,11-11S127.9,266.14,121.82,266.14L121.82,266.14z"/>
</g>
<g>
	<path class="st13" d="M121.82,270.64c3.58,0,6.5,2.92,6.5,6.5s-2.92,6.5-6.5,6.5s-6.5-2.92-6.5-6.5S118.24,270.64,121.82,270.64
		 M121.82,269.64c-4.14,0-7.5,3.36-7.5,7.5c0,4.14,3.36,7.5,7.5,7.5s7.5-3.36,7.5-7.5C129.32,272.99,125.96,269.64,121.82,269.64
		L121.82,269.64z"/>
</g>
<line class="st12" x1="121.82" y1="240.83" x2="121.82" y2="265.83"/>
<text transform="matrix(0.6558 0 0 1 110.668 304.3223)"><tspan x="0" y="0" class="st5 st6 st7">17M-4</tspan><tspan x="5.33" y="14.4" class="st5 st6 st7">/630</tspan><tspan x="7.34" y="28.8" class="st5 st6 st7">KW</tspan></text>
<rect x="143.48" y="251.75" class="st0" width="32" height="100"/>
<g>
	<path class="st13" d="M159.48,267.14c5.51,0,10,4.49,10,10s-4.49,10-10,10s-10-4.49-10-10S153.96,267.14,159.48,267.14
		 M159.48,266.14c-6.08,0-11,4.92-11,11s4.92,11,11,11c6.08,0,11-4.92,11-11S165.55,266.14,159.48,266.14L159.48,266.14z"/>
</g>
<g>
	<path class="st13" d="M159.48,270.64c3.58,0,6.5,2.92,6.5,6.5s-2.92,6.5-6.5,6.5s-6.5-2.92-6.5-6.5S155.89,270.64,159.48,270.64
		 M159.48,269.64c-4.14,0-7.5,3.36-7.5,7.5c0,4.14,3.36,7.5,7.5,7.5s7.5-3.36,7.5-7.5C166.98,272.99,163.62,269.64,159.48,269.64
		L159.48,269.64z"/>
</g>
<line class="st12" x1="159.48" y1="240.83" x2="159.48" y2="265.83"/>
<text transform="matrix(0.6558 0 0 1 148.3253 303.5433)"><tspan x="0" y="0" class="st5 st6 st7">17M-5</tspan><tspan x="5.33" y="14.4" class="st5 st6 st7">/630</tspan><tspan x="7.34" y="28.8" class="st5 st6 st7">KW</tspan></text>
<g>
	<line class="st0" x1="626.64" y1="167.4" x2="626.64" y2="138.75"/>
	<g>
		<rect x="622.14" y="180.74" class="st1" width="9" height="17"/>
		<line class="st0" x1="626.64" y1="180.16" x2="626.64" y2="172.74"/>
		<line class="st0" x1="626.64" y1="206.16" x2="626.64" y2="198.13"/>
		<g>
			<line class="st0" x1="622.89" y1="175.49" x2="626.37" y2="171.99"/>
			<line class="st0" x1="630.39" y1="175.49" x2="626.91" y2="171.99"/>
		</g>
		<g>
			<line class="st0" x1="622.89" y1="171.36" x2="626.37" y2="167.86"/>
			<line class="st0" x1="630.39" y1="171.36" x2="626.91" y2="167.86"/>
		</g>
		<g>
			<line class="st0" x1="630.39" y1="202.86" x2="626.91" y2="206.36"/>
			<line class="st0" x1="622.89" y1="202.86" x2="626.37" y2="206.36"/>
		</g>
		<g>
			<line class="st0" x1="630.39" y1="206.86" x2="626.91" y2="210.36"/>
			<line class="st0" x1="622.89" y1="206.86" x2="626.37" y2="210.36"/>
		</g>
	</g>
	<g>
		<g>
			<polyline class="st2" points="622.93,231.94 626.47,240.49 630.35,231.91 			"/>
		</g>
		<line class="st0" x1="626.64" y1="231.97" x2="626.64" y2="211.18"/>
		<line class="st0" x1="630.39" y1="231.56" x2="622.89" y2="231.56"/>
	</g>
</g>
<rect x="659.5" y="132.25" class="st4" width="5.41" height="5.5"/>
<text transform="matrix(0.6726 0 0 1 659.8529 129.2007)" class="st5 st6 st7">21</text>
<g>
	<line class="st0" x1="409.2" y1="166.4" x2="409.2" y2="137.75"/>
	<g>
		<rect x="404.7" y="179.74" class="st1" width="9" height="17"/>
		<line class="st0" x1="409.2" y1="179.16" x2="409.2" y2="171.74"/>
		<line class="st0" x1="409.2" y1="205.16" x2="409.2" y2="197.13"/>
		<g>
			<line class="st0" x1="405.45" y1="174.49" x2="408.93" y2="170.99"/>
			<line class="st0" x1="412.95" y1="174.49" x2="409.47" y2="170.99"/>
		</g>
		<g>
			<line class="st0" x1="405.45" y1="170.36" x2="408.93" y2="166.86"/>
			<line class="st0" x1="412.95" y1="170.36" x2="409.47" y2="166.86"/>
		</g>
		<g>
			<line class="st0" x1="412.95" y1="201.86" x2="409.47" y2="205.36"/>
			<line class="st0" x1="405.45" y1="201.86" x2="408.93" y2="205.36"/>
		</g>
		<g>
			<line class="st0" x1="412.95" y1="205.86" x2="409.47" y2="209.36"/>
			<line class="st0" x1="405.45" y1="205.86" x2="408.93" y2="209.36"/>
		</g>
	</g>
	<g>
		<g>
			<polyline class="st2" points="405.49,230.94 409.03,239.49 412.91,230.91 			"/>
		</g>
		<line class="st0" x1="409.2" y1="230.97" x2="409.2" y2="210.18"/>
		<line class="st0" x1="412.95" y1="230.56" x2="405.45" y2="230.56"/>
	</g>
</g>
<g>
	<line class="st0" x1="663" y1="167.4" x2="663" y2="138.75"/>
	<g>
		<rect x="658.5" y="180.74" class="st1" width="9" height="17"/>
		<line class="st0" x1="663" y1="180.16" x2="663" y2="172.74"/>
		<line class="st0" x1="663" y1="206.16" x2="663" y2="198.13"/>
		<g>
			<line class="st0" x1="659.25" y1="175.49" x2="662.73" y2="171.99"/>
			<line class="st0" x1="666.75" y1="175.49" x2="663.27" y2="171.99"/>
		</g>
		<g>
			<line class="st0" x1="659.25" y1="171.36" x2="662.73" y2="167.86"/>
			<line class="st0" x1="666.75" y1="171.36" x2="663.27" y2="167.86"/>
		</g>
		<g>
			<line class="st0" x1="666.75" y1="202.86" x2="663.27" y2="206.36"/>
			<line class="st0" x1="659.25" y1="202.86" x2="662.73" y2="206.36"/>
		</g>
		<g>
			<line class="st0" x1="666.75" y1="206.86" x2="663.27" y2="210.36"/>
			<line class="st0" x1="659.25" y1="206.86" x2="662.73" y2="210.36"/>
		</g>
	</g>
	<g>
		<g>
			<polyline class="st2" points="659.29,231.94 662.83,240.49 666.71,231.91 			"/>
		</g>
		<line class="st0" x1="663" y1="231.97" x2="663" y2="211.18"/>
		<line class="st0" x1="666.75" y1="231.56" x2="659.25" y2="231.56"/>
	</g>
</g>
<rect x="681.71" y="132.25" class="st4" width="5.41" height="5.5"/>
<g>
	<line class="st0" x1="301.77" y1="166.4" x2="301.77" y2="137.75"/>
	<g>
		<rect x="297.27" y="179.74" class="st1" width="9" height="17"/>
		<line class="st0" x1="301.77" y1="179.16" x2="301.77" y2="171.74"/>
		<line class="st0" x1="301.77" y1="205.16" x2="301.77" y2="197.13"/>
		<g>
			<line class="st0" x1="298.02" y1="174.49" x2="301.5" y2="170.99"/>
			<line class="st0" x1="305.52" y1="174.49" x2="302.04" y2="170.99"/>
		</g>
		<g>
			<line class="st0" x1="298.02" y1="170.36" x2="301.5" y2="166.86"/>
			<line class="st0" x1="305.52" y1="170.36" x2="302.04" y2="166.86"/>
		</g>
		<g>
			<line class="st0" x1="305.52" y1="201.86" x2="302.04" y2="205.36"/>
			<line class="st0" x1="298.02" y1="201.86" x2="301.5" y2="205.36"/>
		</g>
		<g>
			<line class="st0" x1="305.52" y1="205.86" x2="302.04" y2="209.36"/>
			<line class="st0" x1="298.02" y1="205.86" x2="301.5" y2="209.36"/>
		</g>
	</g>
	<g>
		<g>
			<polyline class="st2" points="298.06,230.94 301.59,239.49 305.47,230.91 			"/>
		</g>
		<line class="st0" x1="301.77" y1="230.97" x2="301.77" y2="210.18"/>
		<line class="st0" x1="305.52" y1="230.56" x2="298.02" y2="230.56"/>
	</g>
</g>
<rect x="609.9" y="251.75" class="st0" width="32" height="100"/>
<g>
	<path class="st13" d="M625.9,267.14c5.51,0,10,4.49,10,10s-4.49,10-10,10s-10-4.49-10-10S620.39,267.14,625.9,267.14 M625.9,266.14
		c-6.08,0-11,4.92-11,11s4.92,11,11,11s11-4.92,11-11S631.98,266.14,625.9,266.14L625.9,266.14z"/>
</g>
<g>
	<circle class="st14" cx="625.9" cy="277.14" r="7"/>
	<path class="st13" d="M625.9,270.64c3.58,0,6.5,2.92,6.5,6.5s-2.92,6.5-6.5,6.5s-6.5-2.92-6.5-6.5S622.32,270.64,625.9,270.64
		 M625.9,269.64c-4.14,0-7.5,3.36-7.5,7.5c0,4.14,3.36,7.5,7.5,7.5c4.14,0,7.5-3.36,7.5-7.5
		C633.4,272.99,630.05,269.64,625.9,269.64L625.9,269.64z"/>
</g>
<line class="st12" x1="625.9" y1="240.25" x2="625.9" y2="265.25"/>
<text transform="matrix(0.6558 0 0 1 617.1506 304.0346)"><tspan x="0" y="0" class="st5 st6 st7">1210</tspan><tspan x="3.01" y="14.4" class="st5 st6 st7">M-2</tspan><tspan x="1.67" y="28.8" class="st5 st6 st7">/630</tspan><tspan x="3.68" y="43.2" class="st5 st6 st7">KW</tspan></text>
<rect x="646.9" y="251.75" class="st0" width="32" height="100"/>
<g>
	<path class="st13" d="M662.9,267.14c5.51,0,10,4.49,10,10c0,5.51-4.49,10-10,10c-5.51,0-10-4.49-10-10
		C652.9,271.62,657.39,267.14,662.9,267.14 M662.9,266.14c-6.08,0-11,4.92-11,11s4.92,11,11,11c6.08,0,11-4.92,11-11
		S668.98,266.14,662.9,266.14L662.9,266.14z"/>
</g>
<g>
	<circle class="st14" cx="662.9" cy="277.14" r="7"/>
	<path class="st13" d="M662.9,270.64c3.58,0,6.5,2.92,6.5,6.5s-2.92,6.5-6.5,6.5s-6.5-2.92-6.5-6.5S659.32,270.64,662.9,270.64
		 M662.9,269.64c-4.14,0-7.5,3.36-7.5,7.5c0,4.14,3.36,7.5,7.5,7.5c4.14,0,7.5-3.36,7.5-7.5
		C670.4,272.99,667.05,269.64,662.9,269.64L662.9,269.64z"/>
</g>
<line class="st12" x1="662.9" y1="240.25" x2="662.9" y2="265.25"/>
<text transform="matrix(0.6558 0 0 1 654.1506 304.0346)"><tspan x="0" y="0" class="st5 st6 st7">1210</tspan><tspan x="3.01" y="14.4" class="st5 st6 st7">M-3</tspan><tspan x="1.67" y="28.8" class="st5 st6 st7">/630</tspan><tspan x="3.68" y="43.2" class="st5 st6 st7">KW</tspan></text>
<g>
	<line class="st12" x1="255.31" y1="316.62" x2="255.31" y2="309.53"/>
	<rect x="250.98" y="251.68" class="st0" width="31" height="100"/>
	<g>
		<line class="st12" x1="256.4" y1="345.22" x2="276.3" y2="345.22"/>
		<line class="st12" x1="256.42" y1="344.91" x2="266.37" y2="324.76"/>
		<line class="st12" x1="266.61" y1="324.76" x2="276.56" y2="344.91"/>
		<g>
			<rect x="264.53" y="341.23" class="st15" width="2.75" height="7.73"/>
			<g>
				<line class="st12" x1="264.78" y1="341.44" x2="264.78" y2="348.84"/>
				<line class="st12" x1="267.37" y1="341.44" x2="267.37" y2="348.84"/>
			</g>
		</g>
		<g>
			<polygon class="st15" points="264.85,334.15 263.45,336.92 257.76,333 259.16,330.23 			"/>
			<g>
				<line class="st12" x1="258.04" y1="332.85" x2="263.49" y2="336.61"/>
				<line class="st12" x1="259.35" y1="330.24" x2="264.81" y2="334"/>
			</g>
		</g>
		<g>
			<polygon class="st15" points="273.62,331.16 275.05,333.91 269.39,337.9 267.97,335.15 			"/>
			<g>
				<line class="st12" x1="269.41" y1="337.54" x2="274.83" y2="333.72"/>
				<line class="st12" x1="268.07" y1="334.95" x2="273.49" y2="331.12"/>
			</g>
		</g>
	</g>
	<line class="st12" x1="266.48" y1="299.45" x2="266.48" y2="324.45"/>
	<g>
		<g>
			<path class="st14" d="M266.48,286.68c-4.81,0-8.05-1.75-8.05-3.38c0-1.63,3.23-3.38,8.05-3.38s8.05,1.75,8.05,3.38
				C274.52,284.93,271.29,286.68,266.48,286.68z"/>
			<path class="st14" d="M266.48,280.42c4.61,0,7.55,1.7,7.55,2.88s-2.94,2.88-7.55,2.88s-7.55-1.7-7.55-2.88
				S261.87,280.42,266.48,280.42 M266.48,279.42c-4.72,0-8.55,1.74-8.55,3.88s3.83,3.88,8.55,3.88s8.55-1.74,8.55-3.88
				S271.2,279.42,266.48,279.42L266.48,279.42z"/>
		</g>
		<g>
			<path class="st14" d="M265.62,283.23c-3.14,0-5.48-1.1-5.48-2.08c0-0.98,2.34-2.08,5.48-2.08s5.48,1.1,5.48,2.08
				C271.11,282.13,268.76,283.23,265.62,283.23z"/>
			<path class="st14" d="M265.62,279.56c3.24,0,4.98,1.12,4.98,1.58s-1.75,1.58-4.98,1.58c-3.24,0-4.98-1.12-4.98-1.58
				S262.39,279.56,265.62,279.56 M265.62,278.56c-3.3,0-5.98,1.16-5.98,2.58c0,1.43,2.68,2.58,5.98,2.58s5.98-1.16,5.98-2.58
				C271.61,279.72,268.93,278.56,265.62,278.56L265.62,278.56z"/>
		</g>
		<g>
			<path class="st14" d="M266.48,287.54c-3.14,0-5.48-1.1-5.48-2.08c0-0.98,2.34-2.08,5.48-2.08s5.48,1.1,5.48,2.08
				C271.96,286.44,269.62,287.54,266.48,287.54z"/>
			<path class="st14" d="M266.48,283.87c3.24,0,4.98,1.12,4.98,1.58s-1.75,1.58-4.98,1.58c-3.24,0-4.98-1.12-4.98-1.58
				S263.24,283.87,266.48,283.87 M266.48,282.87c-3.3,0-5.98,1.16-5.98,2.58c0,1.43,2.68,2.58,5.98,2.58s5.98-1.16,5.98-2.58
				C272.46,284.03,269.78,282.87,266.48,282.87L266.48,282.87z"/>
		</g>
	</g>
	<g>
		<path class="st13" d="M266.48,267.09c5.51,0,10,4.49,10,10s-4.49,10-10,10s-10-4.49-10-10S260.96,267.09,266.48,267.09
			 M266.48,266.09c-6.08,0-11,4.92-11,11c0,6.08,4.92,11,11,11c6.08,0,11-4.92,11-11C277.48,271.02,272.55,266.09,266.48,266.09
			L266.48,266.09z"/>
	</g>
	<g>
		<path class="st13" d="M266.48,279.04c5.51,0,10,4.49,10,10s-4.49,10-10,10s-10-4.49-10-10S260.96,279.04,266.48,279.04
			 M266.48,278.04c-6.08,0-11,4.92-11,11s4.92,11,11,11c6.08,0,11-4.92,11-11S272.55,278.04,266.48,278.04L266.48,278.04z"/>
	</g>
	<line class="st12" x1="277.48" y1="313.37" x2="255.48" y2="313.37"/>
	<line class="st12" x1="278.2" y1="316.84" x2="278.2" y2="309.75"/>
	<line class="st12" x1="266.48" y1="241.34" x2="266.48" y2="266.34"/>
</g>
<g>
	<line class="st12" x1="326.31" y1="316.62" x2="326.31" y2="309.53"/>
	<rect x="321.98" y="251.68" class="st0" width="31" height="100"/>
	<g>
		<line class="st12" x1="327.4" y1="345.22" x2="347.3" y2="345.22"/>
		<line class="st12" x1="327.42" y1="344.91" x2="337.37" y2="324.76"/>
		<line class="st12" x1="337.61" y1="324.76" x2="347.56" y2="344.91"/>
		<g>
			<rect x="335.53" y="341.23" class="st15" width="2.75" height="7.73"/>
			<g>
				<line class="st12" x1="335.78" y1="341.44" x2="335.78" y2="348.84"/>
				<line class="st12" x1="338.37" y1="341.44" x2="338.37" y2="348.84"/>
			</g>
		</g>
		<g>
			<polygon class="st15" points="335.85,334.15 334.45,336.92 328.76,333 330.16,330.23 			"/>
			<g>
				<line class="st12" x1="329.04" y1="332.85" x2="334.49" y2="336.61"/>
				<line class="st12" x1="330.35" y1="330.24" x2="335.81" y2="334"/>
			</g>
		</g>
		<g>
			<polygon class="st15" points="344.62,331.16 346.05,333.91 340.39,337.9 338.97,335.15 			"/>
			<g>
				<line class="st12" x1="340.41" y1="337.54" x2="345.83" y2="333.72"/>
				<line class="st12" x1="339.07" y1="334.95" x2="344.49" y2="331.12"/>
			</g>
		</g>
	</g>
	<line class="st12" x1="337.48" y1="299.45" x2="337.48" y2="324.45"/>
	<g>
		<g>
			<path class="st14" d="M337.48,286.68c-4.81,0-8.05-1.75-8.05-3.38c0-1.63,3.23-3.38,8.05-3.38s8.05,1.75,8.05,3.38
				C345.52,284.93,342.29,286.68,337.48,286.68z"/>
			<path class="st14" d="M337.48,280.42c4.61,0,7.55,1.7,7.55,2.88s-2.94,2.88-7.55,2.88s-7.55-1.7-7.55-2.88
				S332.87,280.42,337.48,280.42 M337.48,279.42c-4.72,0-8.55,1.74-8.55,3.88s3.83,3.88,8.55,3.88s8.55-1.74,8.55-3.88
				S342.2,279.42,337.48,279.42L337.48,279.42z"/>
		</g>
		<g>
			<path class="st14" d="M336.62,283.23c-3.14,0-5.48-1.1-5.48-2.08c0-0.98,2.34-2.08,5.48-2.08s5.48,1.1,5.48,2.08
				C342.11,282.13,339.76,283.23,336.62,283.23z"/>
			<path class="st14" d="M336.62,279.56c3.24,0,4.98,1.12,4.98,1.58s-1.75,1.58-4.98,1.58s-4.98-1.12-4.98-1.58
				S333.39,279.56,336.62,279.56 M336.62,278.56c-3.3,0-5.98,1.16-5.98,2.58c0,1.43,2.68,2.58,5.98,2.58c3.3,0,5.98-1.16,5.98-2.58
				C342.61,279.72,339.93,278.56,336.62,278.56L336.62,278.56z"/>
		</g>
		<g>
			<path class="st14" d="M337.48,287.54c-3.14,0-5.48-1.1-5.48-2.08c0-0.98,2.34-2.08,5.48-2.08s5.48,1.1,5.48,2.08
				C342.96,286.44,340.62,287.54,337.48,287.54z"/>
			<path class="st14" d="M337.48,283.87c3.24,0,4.98,1.12,4.98,1.58s-1.75,1.58-4.98,1.58s-4.98-1.12-4.98-1.58
				S334.24,283.87,337.48,283.87 M337.48,282.87c-3.3,0-5.98,1.16-5.98,2.58c0,1.43,2.68,2.58,5.98,2.58c3.3,0,5.98-1.16,5.98-2.58
				C343.46,284.03,340.78,282.87,337.48,282.87L337.48,282.87z"/>
		</g>
	</g>
	<g>
		<path class="st13" d="M337.48,267.09c5.51,0,10,4.49,10,10s-4.49,10-10,10s-10-4.49-10-10S331.96,267.09,337.48,267.09
			 M337.48,266.09c-6.08,0-11,4.92-11,11c0,6.08,4.92,11,11,11s11-4.92,11-11C348.48,271.02,343.55,266.09,337.48,266.09
			L337.48,266.09z"/>
	</g>
	<g>
		<path class="st13" d="M337.48,279.04c5.51,0,10,4.49,10,10s-4.49,10-10,10s-10-4.49-10-10S331.96,279.04,337.48,279.04
			 M337.48,278.04c-6.08,0-11,4.92-11,11s4.92,11,11,11s11-4.92,11-11S343.55,278.04,337.48,278.04L337.48,278.04z"/>
	</g>
	<line class="st12" x1="348.48" y1="313.37" x2="326.48" y2="313.37"/>
	<line class="st12" x1="349.2" y1="316.84" x2="349.2" y2="309.75"/>
	<line class="st12" x1="337.48" y1="241.34" x2="337.48" y2="266.34"/>
</g>
<g>
	<line class="st12" x1="362.31" y1="316.62" x2="362.31" y2="309.53"/>
	<rect x="357.98" y="251.68" class="st0" width="31" height="100"/>
	<g>
		<line class="st12" x1="363.4" y1="345.22" x2="383.3" y2="345.22"/>
		<line class="st12" x1="363.42" y1="344.91" x2="373.37" y2="324.76"/>
		<line class="st12" x1="373.61" y1="324.76" x2="383.56" y2="344.91"/>
		<g>
			<rect x="371.53" y="341.23" class="st15" width="2.75" height="7.73"/>
			<g>
				<line class="st12" x1="371.78" y1="341.44" x2="371.78" y2="348.84"/>
				<line class="st12" x1="374.37" y1="341.44" x2="374.37" y2="348.84"/>
			</g>
		</g>
		<g>
			<polygon class="st15" points="371.85,334.15 370.45,336.92 364.76,333 366.16,330.23 			"/>
			<g>
				<line class="st12" x1="365.04" y1="332.85" x2="370.49" y2="336.61"/>
				<line class="st12" x1="366.35" y1="330.24" x2="371.81" y2="334"/>
			</g>
		</g>
		<g>
			<polygon class="st15" points="380.62,331.16 382.05,333.91 376.39,337.9 374.97,335.15 			"/>
			<g>
				<line class="st12" x1="376.41" y1="337.54" x2="381.83" y2="333.72"/>
				<line class="st12" x1="375.07" y1="334.95" x2="380.49" y2="331.12"/>
			</g>
		</g>
	</g>
	<line class="st12" x1="373.48" y1="299.45" x2="373.48" y2="324.45"/>
	<g>
		<g>
			<path class="st14" d="M373.48,286.68c-4.81,0-8.05-1.75-8.05-3.38c0-1.63,3.23-3.38,8.05-3.38s8.05,1.75,8.05,3.38
				C381.52,284.93,378.29,286.68,373.48,286.68z"/>
			<path class="st14" d="M373.48,280.42c4.61,0,7.55,1.7,7.55,2.88s-2.94,2.88-7.55,2.88s-7.55-1.7-7.55-2.88
				S368.87,280.42,373.48,280.42 M373.48,279.42c-4.72,0-8.55,1.74-8.55,3.88s3.83,3.88,8.55,3.88s8.55-1.74,8.55-3.88
				S378.2,279.42,373.48,279.42L373.48,279.42z"/>
		</g>
		<g>
			<path class="st14" d="M372.62,283.23c-3.14,0-5.48-1.1-5.48-2.08c0-0.98,2.34-2.08,5.48-2.08s5.48,1.1,5.48,2.08
				C378.11,282.13,375.76,283.23,372.62,283.23z"/>
			<path class="st14" d="M372.62,279.56c3.24,0,4.98,1.12,4.98,1.58s-1.75,1.58-4.98,1.58s-4.98-1.12-4.98-1.58
				S369.39,279.56,372.62,279.56 M372.62,278.56c-3.3,0-5.98,1.16-5.98,2.58c0,1.43,2.68,2.58,5.98,2.58c3.3,0,5.98-1.16,5.98-2.58
				C378.61,279.72,375.93,278.56,372.62,278.56L372.62,278.56z"/>
		</g>
		<g>
			<path class="st14" d="M373.48,287.54c-3.14,0-5.48-1.1-5.48-2.08c0-0.98,2.34-2.08,5.48-2.08s5.48,1.1,5.48,2.08
				C378.96,286.44,376.62,287.54,373.48,287.54z"/>
			<path class="st14" d="M373.48,283.87c3.24,0,4.98,1.12,4.98,1.58s-1.75,1.58-4.98,1.58s-4.98-1.12-4.98-1.58
				S370.24,283.87,373.48,283.87 M373.48,282.87c-3.3,0-5.98,1.16-5.98,2.58c0,1.43,2.68,2.58,5.98,2.58c3.3,0,5.98-1.16,5.98-2.58
				C379.46,284.03,376.78,282.87,373.48,282.87L373.48,282.87z"/>
		</g>
	</g>
	<g>
		<path class="st13" d="M373.48,267.09c5.51,0,10,4.49,10,10s-4.49,10-10,10s-10-4.49-10-10S367.96,267.09,373.48,267.09
			 M373.48,266.09c-6.08,0-11,4.92-11,11c0,6.08,4.92,11,11,11s11-4.92,11-11C384.48,271.02,379.55,266.09,373.48,266.09
			L373.48,266.09z"/>
	</g>
	<g>
		<path class="st13" d="M373.48,279.04c5.51,0,10,4.49,10,10s-4.49,10-10,10s-10-4.49-10-10S367.96,279.04,373.48,279.04
			 M373.48,278.04c-6.08,0-11,4.92-11,11s4.92,11,11,11s11-4.92,11-11S379.55,278.04,373.48,278.04L373.48,278.04z"/>
	</g>
	<line class="st12" x1="384.48" y1="313.37" x2="362.48" y2="313.37"/>
	<line class="st12" x1="385.2" y1="316.84" x2="385.2" y2="309.75"/>
	<line class="st12" x1="373.48" y1="241.34" x2="373.48" y2="266.34"/>
</g>
<g>
	<line class="st12" x1="398.31" y1="316.62" x2="398.31" y2="309.53"/>
	<rect x="393.98" y="251.68" class="st0" width="31" height="100"/>
	<g>
		<line class="st12" x1="399.4" y1="345.22" x2="419.3" y2="345.22"/>
		<line class="st12" x1="399.42" y1="344.91" x2="409.37" y2="324.76"/>
		<line class="st12" x1="409.61" y1="324.76" x2="419.56" y2="344.91"/>
		<g>
			<rect x="407.53" y="341.23" class="st15" width="2.75" height="7.73"/>
			<g>
				<line class="st12" x1="407.78" y1="341.44" x2="407.78" y2="348.84"/>
				<line class="st12" x1="410.37" y1="341.44" x2="410.37" y2="348.84"/>
			</g>
		</g>
		<g>
			<polygon class="st15" points="407.85,334.15 406.45,336.92 400.76,333 402.16,330.23 			"/>
			<g>
				<line class="st12" x1="401.04" y1="332.85" x2="406.49" y2="336.61"/>
				<line class="st12" x1="402.35" y1="330.24" x2="407.81" y2="334"/>
			</g>
		</g>
		<g>
			<polygon class="st15" points="416.62,331.16 418.05,333.91 412.39,337.9 410.97,335.15 			"/>
			<g>
				<line class="st12" x1="412.41" y1="337.54" x2="417.83" y2="333.72"/>
				<line class="st12" x1="411.07" y1="334.95" x2="416.49" y2="331.12"/>
			</g>
		</g>
	</g>
	<line class="st12" x1="409.48" y1="299.45" x2="409.48" y2="324.45"/>
	<g>
		<g>
			<path class="st14" d="M409.48,286.68c-4.81,0-8.05-1.75-8.05-3.38c0-1.63,3.23-3.38,8.05-3.38s8.05,1.75,8.05,3.38
				C417.52,284.93,414.29,286.68,409.48,286.68z"/>
			<path class="st14" d="M409.48,280.42c4.61,0,7.55,1.7,7.55,2.88s-2.94,2.88-7.55,2.88s-7.55-1.7-7.55-2.88
				S404.87,280.42,409.48,280.42 M409.48,279.42c-4.72,0-8.55,1.74-8.55,3.88s3.83,3.88,8.55,3.88s8.55-1.74,8.55-3.88
				S414.2,279.42,409.48,279.42L409.48,279.42z"/>
		</g>
		<g>
			<path class="st14" d="M408.62,283.23c-3.14,0-5.48-1.1-5.48-2.08c0-0.98,2.34-2.08,5.48-2.08s5.48,1.1,5.48,2.08
				C414.11,282.13,411.76,283.23,408.62,283.23z"/>
			<path class="st14" d="M408.62,279.56c3.24,0,4.98,1.12,4.98,1.58s-1.75,1.58-4.98,1.58s-4.98-1.12-4.98-1.58
				S405.39,279.56,408.62,279.56 M408.62,278.56c-3.3,0-5.98,1.16-5.98,2.58c0,1.43,2.68,2.58,5.98,2.58c3.3,0,5.98-1.16,5.98-2.58
				C414.61,279.72,411.93,278.56,408.62,278.56L408.62,278.56z"/>
		</g>
		<g>
			<path class="st14" d="M409.48,287.54c-3.14,0-5.48-1.1-5.48-2.08c0-0.98,2.34-2.08,5.48-2.08s5.48,1.1,5.48,2.08
				C414.96,286.44,412.62,287.54,409.48,287.54z"/>
			<path class="st14" d="M409.48,283.87c3.24,0,4.98,1.12,4.98,1.58s-1.75,1.58-4.98,1.58s-4.98-1.12-4.98-1.58
				S406.24,283.87,409.48,283.87 M409.48,282.87c-3.3,0-5.98,1.16-5.98,2.58c0,1.43,2.68,2.58,5.98,2.58c3.3,0,5.98-1.16,5.98-2.58
				C415.46,284.03,412.78,282.87,409.48,282.87L409.48,282.87z"/>
		</g>
	</g>
	<g>
		<path class="st13" d="M409.48,267.09c5.51,0,10,4.49,10,10s-4.49,10-10,10s-10-4.49-10-10S403.96,267.09,409.48,267.09
			 M409.48,266.09c-6.08,0-11,4.92-11,11c0,6.08,4.92,11,11,11s11-4.92,11-11C420.48,271.02,415.55,266.09,409.48,266.09
			L409.48,266.09z"/>
	</g>
	<g>
		<path class="st13" d="M409.48,279.04c5.51,0,10,4.49,10,10s-4.49,10-10,10s-10-4.49-10-10S403.96,279.04,409.48,279.04
			 M409.48,278.04c-6.08,0-11,4.92-11,11s4.92,11,11,11s11-4.92,11-11S415.55,278.04,409.48,278.04L409.48,278.04z"/>
	</g>
	<line class="st12" x1="420.48" y1="313.37" x2="398.48" y2="313.37"/>
	<line class="st12" x1="421.2" y1="316.84" x2="421.2" y2="309.75"/>
	<line class="st12" x1="409.48" y1="241.34" x2="409.48" y2="266.34"/>
</g>
<g>
	<line class="st12" x1="434.31" y1="316.62" x2="434.31" y2="309.53"/>
	<rect x="429.98" y="251.68" class="st0" width="31" height="100"/>
	<g>
		<line class="st12" x1="435.4" y1="345.22" x2="455.3" y2="345.22"/>
		<line class="st12" x1="435.42" y1="344.91" x2="445.37" y2="324.76"/>
		<line class="st12" x1="445.61" y1="324.76" x2="455.56" y2="344.91"/>
		<g>
			<rect x="443.53" y="341.23" class="st15" width="2.75" height="7.73"/>
			<g>
				<line class="st12" x1="443.78" y1="341.44" x2="443.78" y2="348.84"/>
				<line class="st12" x1="446.37" y1="341.44" x2="446.37" y2="348.84"/>
			</g>
		</g>
		<g>
			<polygon class="st15" points="443.85,334.15 442.45,336.92 436.76,333 438.16,330.23 			"/>
			<g>
				<line class="st12" x1="437.04" y1="332.85" x2="442.49" y2="336.61"/>
				<line class="st12" x1="438.35" y1="330.24" x2="443.81" y2="334"/>
			</g>
		</g>
		<g>
			<polygon class="st15" points="452.62,331.16 454.05,333.91 448.39,337.9 446.97,335.15 			"/>
			<g>
				<line class="st12" x1="448.41" y1="337.54" x2="453.83" y2="333.72"/>
				<line class="st12" x1="447.07" y1="334.95" x2="452.49" y2="331.12"/>
			</g>
		</g>
	</g>
	<line class="st12" x1="445.48" y1="299.45" x2="445.48" y2="324.45"/>
	<g>
		<g>
			<path class="st14" d="M445.48,286.68c-4.81,0-8.05-1.75-8.05-3.38c0-1.63,3.23-3.38,8.05-3.38s8.05,1.75,8.05,3.38
				C453.52,284.93,450.29,286.68,445.48,286.68z"/>
			<path class="st14" d="M445.48,280.42c4.61,0,7.55,1.7,7.55,2.88s-2.94,2.88-7.55,2.88s-7.55-1.7-7.55-2.88
				S440.87,280.42,445.48,280.42 M445.48,279.42c-4.72,0-8.55,1.74-8.55,3.88s3.83,3.88,8.55,3.88s8.55-1.74,8.55-3.88
				S450.2,279.42,445.48,279.42L445.48,279.42z"/>
		</g>
		<g>
			<path class="st14" d="M444.62,283.23c-3.14,0-5.48-1.1-5.48-2.08c0-0.98,2.34-2.08,5.48-2.08s5.48,1.1,5.48,2.08
				C450.11,282.13,447.76,283.23,444.62,283.23z"/>
			<path class="st14" d="M444.62,279.56c3.24,0,4.98,1.12,4.98,1.58s-1.75,1.58-4.98,1.58s-4.98-1.12-4.98-1.58
				S441.39,279.56,444.62,279.56 M444.62,278.56c-3.3,0-5.98,1.16-5.98,2.58s2.68,2.58,5.98,2.58c3.3,0,5.98-1.16,5.98-2.58
				S447.93,278.56,444.62,278.56L444.62,278.56z"/>
		</g>
		<g>
			<path class="st14" d="M445.48,287.54c-3.14,0-5.48-1.1-5.48-2.08c0-0.98,2.34-2.08,5.48-2.08s5.48,1.1,5.48,2.08
				C450.96,286.44,448.62,287.54,445.48,287.54z"/>
			<path class="st14" d="M445.48,283.87c3.24,0,4.98,1.12,4.98,1.58c0,0.46-1.75,1.58-4.98,1.58s-4.98-1.12-4.98-1.58
				C440.5,284.99,442.24,283.87,445.48,283.87 M445.48,282.87c-3.3,0-5.98,1.16-5.98,2.58c0,1.43,2.68,2.58,5.98,2.58
				c3.3,0,5.98-1.16,5.98-2.58C451.46,284.03,448.78,282.87,445.48,282.87L445.48,282.87z"/>
		</g>
	</g>
	<g>
		<path class="st13" d="M445.48,267.09c5.51,0,10,4.49,10,10c0,5.51-4.49,10-10,10s-10-4.49-10-10
			C435.48,271.58,439.96,267.09,445.48,267.09 M445.48,266.09c-6.08,0-11,4.92-11,11s4.92,11,11,11s11-4.92,11-11
			S451.55,266.09,445.48,266.09L445.48,266.09z"/>
	</g>
	<g>
		<path class="st13" d="M445.48,279.04c5.51,0,10,4.49,10,10s-4.49,10-10,10s-10-4.49-10-10S439.96,279.04,445.48,279.04
			 M445.48,278.04c-6.08,0-11,4.92-11,11s4.92,11,11,11s11-4.92,11-11S451.55,278.04,445.48,278.04L445.48,278.04z"/>
	</g>
	<line class="st12" x1="456.48" y1="313.37" x2="434.48" y2="313.37"/>
	<line class="st12" x1="457.2" y1="316.84" x2="457.2" y2="309.75"/>
	<line class="st12" x1="445.48" y1="241.34" x2="445.48" y2="266.34"/>
</g>
<g>
	<line class="st12" x1="470.31" y1="316.62" x2="470.31" y2="309.53"/>
	<rect x="465.98" y="251.68" class="st0" width="31" height="100"/>
	<g>
		<line class="st12" x1="471.4" y1="345.22" x2="491.3" y2="345.22"/>
		<line class="st12" x1="471.42" y1="344.91" x2="481.37" y2="324.76"/>
		<line class="st12" x1="481.61" y1="324.76" x2="491.56" y2="344.91"/>
		<g>
			<rect x="479.53" y="341.23" class="st15" width="2.75" height="7.73"/>
			<g>
				<line class="st12" x1="479.78" y1="341.44" x2="479.78" y2="348.84"/>
				<line class="st12" x1="482.37" y1="341.44" x2="482.37" y2="348.84"/>
			</g>
		</g>
		<g>
			<polygon class="st15" points="479.85,334.15 478.45,336.92 472.76,333 474.16,330.23 			"/>
			<g>
				<line class="st12" x1="473.04" y1="332.85" x2="478.49" y2="336.61"/>
				<line class="st12" x1="474.35" y1="330.24" x2="479.81" y2="334"/>
			</g>
		</g>
		<g>
			<polygon class="st15" points="488.62,331.16 490.05,333.91 484.39,337.9 482.97,335.15 			"/>
			<g>
				<line class="st12" x1="484.41" y1="337.54" x2="489.83" y2="333.72"/>
				<line class="st12" x1="483.07" y1="334.95" x2="488.49" y2="331.12"/>
			</g>
		</g>
	</g>
	<line class="st12" x1="481.48" y1="299.45" x2="481.48" y2="324.45"/>
	<g>
		<g>
			<path class="st14" d="M481.48,286.68c-4.81,0-8.05-1.75-8.05-3.38c0-1.63,3.23-3.38,8.05-3.38s8.05,1.75,8.05,3.38
				C489.52,284.93,486.29,286.68,481.48,286.68z"/>
			<path class="st14" d="M481.48,280.42c4.61,0,7.55,1.7,7.55,2.88s-2.94,2.88-7.55,2.88s-7.55-1.7-7.55-2.88
				S476.87,280.42,481.48,280.42 M481.48,279.42c-4.72,0-8.55,1.74-8.55,3.88s3.83,3.88,8.55,3.88s8.55-1.74,8.55-3.88
				S486.2,279.42,481.48,279.42L481.48,279.42z"/>
		</g>
		<g>
			<path class="st14" d="M480.62,283.23c-3.14,0-5.48-1.1-5.48-2.08c0-0.98,2.34-2.08,5.48-2.08s5.48,1.1,5.48,2.08
				C486.11,282.13,483.76,283.23,480.62,283.23z"/>
			<path class="st14" d="M480.62,279.56c3.24,0,4.98,1.12,4.98,1.58s-1.75,1.58-4.98,1.58s-4.98-1.12-4.98-1.58
				S477.39,279.56,480.62,279.56 M480.62,278.56c-3.3,0-5.98,1.16-5.98,2.58c0,1.43,2.68,2.58,5.98,2.58c3.3,0,5.98-1.16,5.98-2.58
				C486.61,279.72,483.93,278.56,480.62,278.56L480.62,278.56z"/>
		</g>
		<g>
			<path class="st14" d="M481.48,287.54c-3.14,0-5.48-1.1-5.48-2.08c0-0.98,2.34-2.08,5.48-2.08s5.48,1.1,5.48,2.08
				C486.96,286.44,484.62,287.54,481.48,287.54z"/>
			<path class="st14" d="M481.48,283.87c3.24,0,4.98,1.12,4.98,1.58s-1.75,1.58-4.98,1.58s-4.98-1.12-4.98-1.58
				S478.24,283.87,481.48,283.87 M481.48,282.87c-3.3,0-5.98,1.16-5.98,2.58c0,1.43,2.68,2.58,5.98,2.58c3.3,0,5.98-1.16,5.98-2.58
				C487.46,284.03,484.78,282.87,481.48,282.87L481.48,282.87z"/>
		</g>
	</g>
	<g>
		<path class="st13" d="M481.48,267.09c5.51,0,10,4.49,10,10s-4.49,10-10,10s-10-4.49-10-10S475.96,267.09,481.48,267.09
			 M481.48,266.09c-6.08,0-11,4.92-11,11c0,6.08,4.92,11,11,11s11-4.92,11-11C492.48,271.02,487.55,266.09,481.48,266.09
			L481.48,266.09z"/>
	</g>
	<g>
		<path class="st13" d="M481.48,279.04c5.51,0,10,4.49,10,10s-4.49,10-10,10s-10-4.49-10-10S475.96,279.04,481.48,279.04
			 M481.48,278.04c-6.08,0-11,4.92-11,11s4.92,11,11,11s11-4.92,11-11S487.55,278.04,481.48,278.04L481.48,278.04z"/>
	</g>
	<line class="st12" x1="492.48" y1="313.37" x2="470.48" y2="313.37"/>
	<line class="st12" x1="493.2" y1="316.84" x2="493.2" y2="309.75"/>
	<line class="st12" x1="481.48" y1="241.34" x2="481.48" y2="266.34"/>
</g>
<g>
	<line class="st12" x1="507.31" y1="316.62" x2="507.31" y2="309.53"/>
	<rect x="502.98" y="251.68" class="st0" width="31" height="100"/>
	<g>
		<line class="st12" x1="508.4" y1="345.22" x2="528.3" y2="345.22"/>
		<line class="st12" x1="508.42" y1="344.91" x2="518.37" y2="324.76"/>
		<line class="st12" x1="518.61" y1="324.76" x2="528.56" y2="344.91"/>
		<g>
			<rect x="516.53" y="341.23" class="st15" width="2.75" height="7.73"/>
			<g>
				<line class="st12" x1="516.78" y1="341.44" x2="516.78" y2="348.84"/>
				<line class="st12" x1="519.37" y1="341.44" x2="519.37" y2="348.84"/>
			</g>
		</g>
		<g>
			<polygon class="st15" points="516.85,334.15 515.45,336.92 509.76,333 511.16,330.23 			"/>
			<g>
				<line class="st12" x1="510.04" y1="332.85" x2="515.49" y2="336.61"/>
				<line class="st12" x1="511.35" y1="330.24" x2="516.81" y2="334"/>
			</g>
		</g>
		<g>
			<polygon class="st15" points="525.62,331.16 527.05,333.91 521.39,337.9 519.97,335.15 			"/>
			<g>
				<line class="st12" x1="521.41" y1="337.54" x2="526.83" y2="333.72"/>
				<line class="st12" x1="520.07" y1="334.95" x2="525.49" y2="331.12"/>
			</g>
		</g>
	</g>
	<line class="st12" x1="518.48" y1="299.45" x2="518.48" y2="324.45"/>
	<g>
		<g>
			<path class="st14" d="M518.48,286.68c-4.81,0-8.05-1.75-8.05-3.38c0-1.63,3.23-3.38,8.05-3.38s8.05,1.75,8.05,3.38
				C526.52,284.93,523.29,286.68,518.48,286.68z"/>
			<path class="st14" d="M518.48,280.42c4.61,0,7.55,1.7,7.55,2.88s-2.94,2.88-7.55,2.88c-4.61,0-7.55-1.7-7.55-2.88
				S513.87,280.42,518.48,280.42 M518.48,279.42c-4.72,0-8.55,1.74-8.55,3.88s3.83,3.88,8.55,3.88c4.72,0,8.55-1.74,8.55-3.88
				S523.2,279.42,518.48,279.42L518.48,279.42z"/>
		</g>
		<g>
			<path class="st14" d="M517.62,283.23c-3.14,0-5.48-1.1-5.48-2.08c0-0.98,2.34-2.08,5.48-2.08s5.48,1.1,5.48,2.08
				C523.11,282.13,520.76,283.23,517.62,283.23z"/>
			<path class="st14" d="M517.62,279.56c3.24,0,4.98,1.12,4.98,1.58s-1.75,1.58-4.98,1.58c-3.24,0-4.98-1.12-4.98-1.58
				S514.39,279.56,517.62,279.56 M517.62,278.56c-3.3,0-5.98,1.16-5.98,2.58c0,1.43,2.68,2.58,5.98,2.58c3.3,0,5.98-1.16,5.98-2.58
				C523.61,279.72,520.93,278.56,517.62,278.56L517.62,278.56z"/>
		</g>
		<g>
			<path class="st14" d="M518.48,287.54c-3.14,0-5.48-1.1-5.48-2.08c0-0.98,2.34-2.08,5.48-2.08s5.48,1.1,5.48,2.08
				C523.96,286.44,521.62,287.54,518.48,287.54z"/>
			<path class="st14" d="M518.48,283.87c3.24,0,4.98,1.12,4.98,1.58s-1.75,1.58-4.98,1.58c-3.24,0-4.98-1.12-4.98-1.58
				S515.24,283.87,518.48,283.87 M518.48,282.87c-3.3,0-5.98,1.16-5.98,2.58c0,1.43,2.68,2.58,5.98,2.58c3.3,0,5.98-1.16,5.98-2.58
				C524.46,284.03,521.78,282.87,518.48,282.87L518.48,282.87z"/>
		</g>
	</g>
	<g>
		<path class="st13" d="M518.48,267.09c5.51,0,10,4.49,10,10s-4.49,10-10,10c-5.51,0-10-4.49-10-10S512.96,267.09,518.48,267.09
			 M518.48,266.09c-6.08,0-11,4.92-11,11c0,6.08,4.92,11,11,11c6.08,0,11-4.92,11-11C529.48,271.02,524.55,266.09,518.48,266.09
			L518.48,266.09z"/>
	</g>
	<g>
		<path class="st13" d="M518.48,279.04c5.51,0,10,4.49,10,10s-4.49,10-10,10c-5.51,0-10-4.49-10-10S512.96,279.04,518.48,279.04
			 M518.48,278.04c-6.08,0-11,4.92-11,11s4.92,11,11,11c6.08,0,11-4.92,11-11S524.55,278.04,518.48,278.04L518.48,278.04z"/>
	</g>
	<line class="st12" x1="529.48" y1="313.37" x2="507.48" y2="313.37"/>
	<line class="st12" x1="530.2" y1="316.84" x2="530.2" y2="309.75"/>
	<line class="st12" x1="518.48" y1="241.34" x2="518.48" y2="266.34"/>
</g>
<g>
	<line class="st12" x1="543.31" y1="316.62" x2="543.31" y2="309.53"/>
	<rect x="538.98" y="251.68" class="st0" width="31" height="100"/>
	<g>
		<line class="st12" x1="544.4" y1="345.22" x2="564.3" y2="345.22"/>
		<line class="st12" x1="544.42" y1="344.91" x2="554.37" y2="324.76"/>
		<line class="st12" x1="554.61" y1="324.76" x2="564.56" y2="344.91"/>
		<g>
			<rect x="552.53" y="341.23" class="st15" width="2.75" height="7.73"/>
			<g>
				<line class="st12" x1="552.78" y1="341.44" x2="552.78" y2="348.84"/>
				<line class="st12" x1="555.37" y1="341.44" x2="555.37" y2="348.84"/>
			</g>
		</g>
		<g>
			<polygon class="st15" points="552.85,334.15 551.45,336.92 545.76,333 547.16,330.23 			"/>
			<g>
				<line class="st12" x1="546.04" y1="332.85" x2="551.49" y2="336.61"/>
				<line class="st12" x1="547.35" y1="330.24" x2="552.81" y2="334"/>
			</g>
		</g>
		<g>
			<polygon class="st15" points="561.62,331.16 563.05,333.91 557.39,337.9 555.97,335.15 			"/>
			<g>
				<line class="st12" x1="557.41" y1="337.54" x2="562.83" y2="333.72"/>
				<line class="st12" x1="556.07" y1="334.95" x2="561.49" y2="331.12"/>
			</g>
		</g>
	</g>
	<line class="st12" x1="554.48" y1="299.45" x2="554.48" y2="324.45"/>
	<g>
		<g>
			<path class="st14" d="M554.48,286.68c-4.81,0-8.05-1.75-8.05-3.38c0-1.63,3.23-3.38,8.05-3.38s8.05,1.75,8.05,3.38
				C562.52,284.93,559.29,286.68,554.48,286.68z"/>
			<path class="st14" d="M554.48,280.42c4.61,0,7.55,1.7,7.55,2.88s-2.94,2.88-7.55,2.88c-4.61,0-7.55-1.7-7.55-2.88
				S549.87,280.42,554.48,280.42 M554.48,279.42c-4.72,0-8.55,1.74-8.55,3.88s3.83,3.88,8.55,3.88s8.55-1.74,8.55-3.88
				S559.2,279.42,554.48,279.42L554.48,279.42z"/>
		</g>
		<g>
			<path class="st14" d="M553.62,283.23c-3.14,0-5.48-1.1-5.48-2.08c0-0.98,2.34-2.08,5.48-2.08s5.48,1.1,5.48,2.08
				C559.11,282.13,556.76,283.23,553.62,283.23z"/>
			<path class="st14" d="M553.62,279.56c3.24,0,4.98,1.12,4.98,1.58s-1.75,1.58-4.98,1.58c-3.24,0-4.98-1.12-4.98-1.58
				S550.39,279.56,553.62,279.56 M553.62,278.56c-3.3,0-5.98,1.16-5.98,2.58c0,1.43,2.68,2.58,5.98,2.58c3.3,0,5.98-1.16,5.98-2.58
				C559.61,279.72,556.93,278.56,553.62,278.56L553.62,278.56z"/>
		</g>
		<g>
			<path class="st14" d="M554.48,287.54c-3.14,0-5.48-1.1-5.48-2.08c0-0.98,2.34-2.08,5.48-2.08s5.48,1.1,5.48,2.08
				C559.96,286.44,557.62,287.54,554.48,287.54z"/>
			<path class="st14" d="M554.48,283.87c3.24,0,4.98,1.12,4.98,1.58s-1.75,1.58-4.98,1.58c-3.24,0-4.98-1.12-4.98-1.58
				S551.24,283.87,554.48,283.87 M554.48,282.87c-3.3,0-5.98,1.16-5.98,2.58c0,1.43,2.68,2.58,5.98,2.58c3.3,0,5.98-1.16,5.98-2.58
				C560.46,284.03,557.78,282.87,554.48,282.87L554.48,282.87z"/>
		</g>
	</g>
	<g>
		<path class="st13" d="M554.48,267.09c5.51,0,10,4.49,10,10s-4.49,10-10,10s-10-4.49-10-10S548.96,267.09,554.48,267.09
			 M554.48,266.09c-6.08,0-11,4.92-11,11c0,6.08,4.92,11,11,11s11-4.92,11-11C565.48,271.02,560.55,266.09,554.48,266.09
			L554.48,266.09z"/>
	</g>
	<g>
		<path class="st13" d="M554.48,279.04c5.51,0,10,4.49,10,10s-4.49,10-10,10s-10-4.49-10-10S548.96,279.04,554.48,279.04
			 M554.48,278.04c-6.08,0-11,4.92-11,11s4.92,11,11,11s11-4.92,11-11S560.55,278.04,554.48,278.04L554.48,278.04z"/>
	</g>
	<line class="st12" x1="565.48" y1="313.37" x2="543.48" y2="313.37"/>
	<line class="st12" x1="566.2" y1="316.84" x2="566.2" y2="309.75"/>
	<line class="st12" x1="554.48" y1="241.34" x2="554.48" y2="266.34"/>
</g>
<g>
	<line class="st12" x1="290.6" y1="316.62" x2="290.6" y2="309.53"/>
	<rect x="286.27" y="251.68" class="st0" width="31" height="100"/>
	<g>
		<line class="st12" x1="291.69" y1="345.22" x2="311.59" y2="345.22"/>
		<line class="st12" x1="291.71" y1="344.91" x2="301.66" y2="324.76"/>
		<line class="st12" x1="301.89" y1="324.76" x2="311.85" y2="344.91"/>
		<g>
			<rect x="299.81" y="341.23" class="st15" width="2.75" height="7.73"/>
			<g>
				<line class="st12" x1="300.07" y1="341.44" x2="300.07" y2="348.84"/>
				<line class="st12" x1="302.66" y1="341.44" x2="302.66" y2="348.84"/>
			</g>
		</g>
		<g>
			<polygon class="st15" points="300.14,334.15 298.74,336.92 293.05,333 294.44,330.23 			"/>
			<g>
				<line class="st12" x1="293.32" y1="332.85" x2="298.78" y2="336.61"/>
				<line class="st12" x1="294.64" y1="330.24" x2="300.1" y2="334"/>
			</g>
		</g>
		<g>
			<polygon class="st15" points="308.91,331.16 310.33,333.91 304.67,337.9 303.25,335.15 			"/>
			<g>
				<line class="st12" x1="304.69" y1="337.54" x2="310.12" y2="333.72"/>
				<line class="st12" x1="303.35" y1="334.95" x2="308.78" y2="331.12"/>
			</g>
		</g>
	</g>
	<line class="st12" x1="301.77" y1="299.45" x2="301.77" y2="324.45"/>
	<g>
		<g>
			<path class="st14" d="M301.77,286.68c-4.81,0-8.05-1.75-8.05-3.38c0-1.63,3.23-3.38,8.05-3.38s8.05,1.75,8.05,3.38
				C309.81,284.93,306.58,286.68,301.77,286.68z"/>
			<path class="st14" d="M301.77,280.42c4.61,0,7.55,1.7,7.55,2.88s-2.94,2.88-7.55,2.88s-7.55-1.7-7.55-2.88
				S297.16,280.42,301.77,280.42 M301.77,279.42c-4.72,0-8.55,1.74-8.55,3.88s3.83,3.88,8.55,3.88s8.55-1.74,8.55-3.88
				S306.49,279.42,301.77,279.42L301.77,279.42z"/>
		</g>
		<g>
			<path class="st14" d="M300.91,283.23c-3.14,0-5.48-1.1-5.48-2.08c0-0.98,2.34-2.08,5.48-2.08s5.48,1.1,5.48,2.08
				C306.39,282.13,304.05,283.23,300.91,283.23z"/>
			<path class="st14" d="M300.91,279.56c3.24,0,4.98,1.12,4.98,1.58s-1.75,1.58-4.98,1.58s-4.98-1.12-4.98-1.58
				S297.67,279.56,300.91,279.56 M300.91,278.56c-3.3,0-5.98,1.16-5.98,2.58c0,1.43,2.68,2.58,5.98,2.58c3.3,0,5.98-1.16,5.98-2.58
				C306.89,279.72,304.22,278.56,300.91,278.56L300.91,278.56z"/>
		</g>
		<g>
			<path class="st14" d="M301.77,287.54c-3.14,0-5.48-1.1-5.48-2.08c0-0.98,2.34-2.08,5.48-2.08s5.48,1.1,5.48,2.08
				C307.25,286.44,304.9,287.54,301.77,287.54z"/>
			<path class="st14" d="M301.77,283.87c3.24,0,4.98,1.12,4.98,1.58s-1.75,1.58-4.98,1.58s-4.98-1.12-4.98-1.58
				S298.53,283.87,301.77,283.87 M301.77,282.87c-3.3,0-5.98,1.16-5.98,2.58c0,1.43,2.68,2.58,5.98,2.58c3.3,0,5.98-1.16,5.98-2.58
				C307.75,284.03,305.07,282.87,301.77,282.87L301.77,282.87z"/>
		</g>
	</g>
	<g>
		<path class="st13" d="M301.77,267.09c5.51,0,10,4.49,10,10s-4.49,10-10,10s-10-4.49-10-10S296.25,267.09,301.77,267.09
			 M301.77,266.09c-6.08,0-11,4.92-11,11c0,6.08,4.92,11,11,11s11-4.92,11-11C312.77,271.02,307.84,266.09,301.77,266.09
			L301.77,266.09z"/>
	</g>
	<g>
		<path class="st13" d="M301.77,279.04c5.51,0,10,4.49,10,10s-4.49,10-10,10s-10-4.49-10-10S296.25,279.04,301.77,279.04
			 M301.77,278.04c-6.08,0-11,4.92-11,11s4.92,11,11,11s11-4.92,11-11S307.84,278.04,301.77,278.04L301.77,278.04z"/>
	</g>
	<line class="st12" x1="312.77" y1="313.37" x2="290.77" y2="313.37"/>
	<line class="st12" x1="313.49" y1="316.84" x2="313.49" y2="309.75"/>
	<line class="st12" x1="301.77" y1="241.34" x2="301.77" y2="266.34"/>
</g>
<text transform="matrix(0.6726 0 0 1 733.2305 128.9455)" class="st5 st6 st7">24</text>
</svg>
