<?xml version="1.0" encoding="utf-8"?>
<!-- Generator: Adobe Illustrator 27.1.1, SVG Export Plug-In . SVG Version: 6.00 Build 0)  -->
<svg version="1.1" id="Layer_1" xmlns="http://www.w3.org/2000/svg" xmlns:xlink="http://www.w3.org/1999/xlink" x="0px" y="0px"
	 viewBox="0 0 792 370" style="enable-background:new 0 0 792 370;" xml:space="preserve">
<style type="text/css">
	.st0{fill:#212830;}
	.st1{font-family:'ArialMT';}
	.st2{font-size:21px;}
	.st3{font-size:12px;}
	.st4{fill:none;stroke:#000000;stroke-miterlimit:10;}
	.st5{fill:none;stroke:#212830;stroke-linecap:square;stroke-miterlimit:10;}
	.st6{fill:none;stroke:#FF0000;stroke-linecap:square;stroke-miterlimit:10;}
	.st7{fill:#FF0000;stroke:#FF0000;stroke-linecap:square;stroke-miterlimit:10;}
	.st8{font-family:'Arial-ItalicMT';}
	.st9{fill:#F7931E;}
	.st10{fill:#F15A24;}
	.st11{font-size:14px;}
	.st12{fill:#FF0000;}
	.st13{fill:#FF00FF;}
	.st14{stroke:#000000;stroke-linecap:square;stroke-miterlimit:10;}
	.st15{fill:#E6E6E6;stroke:#FF0000;stroke-miterlimit:10;}
</style>
<text transform="matrix(0.7128 0 0 1 314.5436 27.4981)" class="st0 st1 st2">TRẠM RP2</text>
<text transform="matrix(0.6726 0 0 1 60.6386 130.1914)" class="st0 st1 st3">23</text>
<g>
	<rect x="51.84" y="87.46" class="st4" width="9" height="17"/>
	<line class="st5" x1="56.34" y1="86.88" x2="56.34" y2="79.46"/>
	<line class="st5" x1="56.34" y1="112.88" x2="56.34" y2="104.85"/>
	<g>
		<line class="st5" x1="52.59" y1="82.21" x2="56.07" y2="78.71"/>
		<line class="st5" x1="60.09" y1="82.21" x2="56.61" y2="78.71"/>
	</g>
	<g>
		<line class="st6" x1="52.59" y1="78.09" x2="56.07" y2="74.59"/>
		<line class="st6" x1="60.09" y1="78.09" x2="56.61" y2="74.59"/>
	</g>
	<g>
		<line class="st5" x1="60.09" y1="109.59" x2="56.61" y2="113.09"/>
		<line class="st5" x1="52.59" y1="109.59" x2="56.07" y2="113.09"/>
	</g>
	<g>
		<line class="st5" x1="60.09" y1="113.59" x2="56.61" y2="117.09"/>
		<line class="st5" x1="52.59" y1="113.59" x2="56.07" y2="117.09"/>
	</g>
</g>
<g>
	<line class="st5" x1="97.17" y1="112.88" x2="97.17" y2="79.16"/>
	<g>
		<line class="st5" x1="93.42" y1="82.21" x2="96.9" y2="78.71"/>
		<line class="st5" x1="100.92" y1="82.21" x2="97.43" y2="78.71"/>
	</g>
	<g>
		<line class="st6" x1="93.42" y1="78.09" x2="96.9" y2="74.59"/>
		<line class="st6" x1="100.92" y1="78.09" x2="97.43" y2="74.59"/>
	</g>
	<g>
		<line class="st5" x1="100.92" y1="109.59" x2="97.43" y2="113.09"/>
		<line class="st5" x1="93.42" y1="109.59" x2="96.9" y2="113.09"/>
	</g>
	<g>
		<line class="st5" x1="100.92" y1="113.59" x2="97.43" y2="117.09"/>
		<line class="st5" x1="93.42" y1="113.59" x2="96.9" y2="117.09"/>
	</g>
</g>
<line class="st5" x1="96.99" y1="132.52" x2="96.99" y2="117.52"/>
<line class="st5" x1="55.99" y1="132.57" x2="55.99" y2="117.57"/>
<line class="st7" x1="56.45" y1="60.02" x2="97.5" y2="60.02"/>
<line class="st7" x1="56.6" y1="74.94" x2="56.6" y2="59.94"/>
<line class="st7" x1="97.6" y1="74.94" x2="97.6" y2="59.94"/>
<text transform="matrix(0.7096 0 0 1 7.6534 155.4373)" class="st0 st8 st3">PHÂN ĐOẠN 1</text>
<rect x="85.13" y="133" class="st9" width="688.37" height="5.89"/>
<rect x="151.88" y="132.77" class="st10" width="5.41" height="5.5"/>
<rect x="187.93" y="132.77" class="st10" width="5.41" height="5.5"/>
<rect x="93.36" y="132.77" class="st10" width="5.41" height="5.5"/>
<rect x="116.93" y="132.77" class="st10" width="5.41" height="5.5"/>
<text transform="matrix(0.4589 0 0 1 101.7032 129.6183)" class="st0 st1 st3">24</text>
<text transform="matrix(0.6726 0 0 1 117.2746 129.6179)" class="st0 st1 st3">26</text>
<text transform="matrix(0.6726 0 0 1 153.2252 129.6179)" class="st0 st1 st3">27</text>
<text transform="matrix(0.6726 0 0 1 189.2718 129.6179)" class="st0 st1 st3">28</text>
<rect x="224.45" y="132.77" class="st10" width="5.41" height="5.5"/>
<text transform="matrix(0.6726 0 0 1 225.7912 129.6181)" class="st0 st1 st3">29</text>
<rect x="260.87" y="132.77" class="st10" width="5.41" height="5.5"/>
<text transform="matrix(0.6726 0 0 1 261.2153 129.6179)" class="st0 st1 st3">30</text>
<g>
	<rect x="581.8" y="88.02" class="st4" width="9" height="17"/>
	<line class="st5" x1="586.3" y1="87.44" x2="586.3" y2="80.02"/>
	<line class="st5" x1="586.3" y1="113.44" x2="586.3" y2="105.41"/>
	<g>
		<line class="st5" x1="582.55" y1="82.77" x2="586.03" y2="79.27"/>
		<line class="st5" x1="590.05" y1="82.77" x2="586.56" y2="79.27"/>
	</g>
	<g>
		<line class="st6" x1="582.55" y1="78.64" x2="586.03" y2="75.14"/>
		<line class="st6" x1="590.05" y1="78.64" x2="586.56" y2="75.14"/>
	</g>
	<g>
		<line class="st5" x1="590.05" y1="110.14" x2="586.56" y2="113.64"/>
		<line class="st5" x1="582.55" y1="110.14" x2="586.03" y2="113.64"/>
	</g>
	<g>
		<line class="st5" x1="590.05" y1="114.14" x2="586.56" y2="117.64"/>
		<line class="st5" x1="582.55" y1="114.14" x2="586.03" y2="117.64"/>
	</g>
</g>
<line class="st5" x1="586.3" y1="132.4" x2="586.3" y2="117.4"/>
<line class="st6" x1="586.62" y1="75.06" x2="586.62" y2="50.06"/>
<g>
	<polyline class="st7" points="582.91,41.99 586.45,50.54 590.33,41.95 	"/>
</g>
<text transform="matrix(0.7096 0 0 1 559.5984 59.4135)" class="st0 st8 st11">672</text>
<rect x="295.82" y="132.77" class="st10" width="5.41" height="5.5"/>
<text transform="matrix(0.6726 0 0 1 298.1658 129.6179)" class="st0 st1 st3">31</text>
<rect x="331.39" y="132.77" class="st10" width="5.41" height="5.5"/>
<rect x="366.89" y="132.77" class="st10" width="5.41" height="5.5"/>
<text transform="matrix(0.6726 0 0 1 329.7318 129.6181)" class="st0 st1 st3">32</text>
<rect x="402.73" y="132.77" class="st10" width="5.41" height="5.5"/>
<rect x="438.78" y="132.77" class="st10" width="5.41" height="5.5"/>
<text transform="matrix(0.6726 0 0 1 402.0797 129.6177)" class="st0 st1 st3">34</text>
<text transform="matrix(0.6726 0 0 1 437.1263 129.6177)" class="st0 st1 st3">35</text>
<rect x="475.3" y="132.77" class="st10" width="5.41" height="5.5"/>
<rect x="510.8" y="132.77" class="st10" width="5.41" height="5.5"/>
<text transform="matrix(0.6726 0 0 1 473.6458 129.6179)" class="st0 st1 st3">36</text>
<rect x="547.73" y="132.77" class="st10" width="5.41" height="5.5"/>
<rect x="583.78" y="132.77" class="st10" width="5.41" height="5.5"/>
<text transform="matrix(0.6726 0 0 1 547.0797 129.618)" class="st0 st1 st3">38</text>
<text transform="matrix(0.6726 0 0 1 591.1263 129.618)" class="st0 st1 st3">40</text>
<rect x="620.3" y="132.77" class="st10" width="5.41" height="5.5"/>
<text transform="matrix(0.6726 0 0 1 617.6458 129.6182)" class="st0 st1 st3">42</text>
<text transform="matrix(0.6726 0 0 1 365.0322 129.1914)" class="st0 st1 st3">33</text>
<text transform="matrix(0.6726 0 0 1 510.0322 129.1914)" class="st0 st1 st3">37</text>
<text transform="matrix(0.7096 0 0 1 374.8627 98.2204)" class="st0 st8 st3">PHÂN ĐOẠN 2</text>
<rect x="11.62" y="132.74" class="st9" width="52.4" height="6"/>
<rect x="53.3" y="132.76" class="st10" width="5.41" height="5.5"/>
<rect x="606.16" y="252.21" class="st5" width="32" height="100"/>
<g>
	<path class="st12" d="M622.16,267.59c5.51,0,10,4.49,10,10s-4.49,10-10,10s-10-4.49-10-10S616.64,267.59,622.16,267.59
		 M622.16,266.59c-6.08,0-11,4.92-11,11s4.92,11,11,11c6.08,0,11-4.92,11-11S628.23,266.59,622.16,266.59L622.16,266.59z"/>
</g>
<g>
	<circle class="st13" cx="622.16" cy="277.59" r="7"/>
	<path class="st12" d="M622.16,271.09c3.58,0,6.5,2.92,6.5,6.5s-2.92,6.5-6.5,6.5s-6.5-2.92-6.5-6.5S618.57,271.09,622.16,271.09
		 M622.16,270.09c-4.14,0-7.5,3.36-7.5,7.5c0,4.14,3.36,7.5,7.5,7.5c4.14,0,7.5-3.36,7.5-7.5
		C629.66,273.45,626.3,270.09,622.16,270.09L622.16,270.09z"/>
</g>
<line class="st6" x1="622.16" y1="240.71" x2="622.16" y2="265.71"/>
<text transform="matrix(0.6558 0 0 1 613.4021 304.2581)"><tspan x="0" y="0" class="st0 st1 st3">1210</tspan><tspan x="3.01" y="14.4" class="st0 st1 st3">M-5</tspan><tspan x="1.67" y="28.8" class="st0 st1 st3">/630</tspan><tspan x="3.68" y="43.2" class="st0 st1 st3">KW</tspan></text>
<g>
	<line class="st5" x1="119.53" y1="167.4" x2="119.53" y2="138.75"/>
	<g>
		<rect x="115.03" y="180.74" class="st4" width="9" height="17"/>
		<line class="st5" x1="119.53" y1="180.16" x2="119.53" y2="172.74"/>
		<line class="st5" x1="119.53" y1="206.16" x2="119.53" y2="198.13"/>
		<g>
			<line class="st5" x1="115.78" y1="175.49" x2="119.26" y2="171.99"/>
			<line class="st5" x1="123.28" y1="175.49" x2="119.8" y2="171.99"/>
		</g>
		<g>
			<line class="st5" x1="115.78" y1="171.36" x2="119.26" y2="167.86"/>
			<line class="st5" x1="123.28" y1="171.36" x2="119.8" y2="167.86"/>
		</g>
		<g>
			<line class="st5" x1="123.28" y1="202.86" x2="119.8" y2="206.36"/>
			<line class="st5" x1="115.78" y1="202.86" x2="119.26" y2="206.36"/>
		</g>
		<g>
			<line class="st5" x1="123.28" y1="206.86" x2="119.8" y2="210.36"/>
			<line class="st5" x1="115.78" y1="206.86" x2="119.26" y2="210.36"/>
		</g>
	</g>
	<g>
		<g>
			<polyline class="st14" points="115.82,231.94 119.36,240.49 123.24,231.91 			"/>
		</g>
		<line class="st5" x1="119.53" y1="231.97" x2="119.53" y2="211.18"/>
		<line class="st5" x1="123.28" y1="231.56" x2="115.78" y2="231.56"/>
	</g>
</g>
<g>
	<line class="st5" x1="154.48" y1="167.4" x2="154.48" y2="138.75"/>
	<g>
		<rect x="149.98" y="180.74" class="st4" width="9" height="17"/>
		<line class="st5" x1="154.48" y1="180.16" x2="154.48" y2="172.74"/>
		<line class="st5" x1="154.48" y1="206.16" x2="154.48" y2="198.13"/>
		<g>
			<line class="st5" x1="150.73" y1="175.49" x2="154.21" y2="171.99"/>
			<line class="st5" x1="158.23" y1="175.49" x2="154.75" y2="171.99"/>
		</g>
		<g>
			<line class="st5" x1="150.73" y1="171.36" x2="154.21" y2="167.86"/>
			<line class="st5" x1="158.23" y1="171.36" x2="154.75" y2="167.86"/>
		</g>
		<g>
			<line class="st5" x1="158.23" y1="202.86" x2="154.75" y2="206.36"/>
			<line class="st5" x1="150.73" y1="202.86" x2="154.21" y2="206.36"/>
		</g>
		<g>
			<line class="st5" x1="158.23" y1="206.86" x2="154.75" y2="210.36"/>
			<line class="st5" x1="150.73" y1="206.86" x2="154.21" y2="210.36"/>
		</g>
	</g>
	<g>
		<g>
			<polyline class="st14" points="150.77,231.94 154.31,240.49 158.19,231.91 			"/>
		</g>
		<line class="st5" x1="154.48" y1="231.97" x2="154.48" y2="211.18"/>
		<line class="st5" x1="158.23" y1="231.56" x2="150.73" y2="231.56"/>
	</g>
</g>
<g>
	<line class="st5" x1="190.48" y1="167.4" x2="190.48" y2="138.75"/>
	<g>
		<rect x="185.98" y="180.74" class="st4" width="9" height="17"/>
		<line class="st5" x1="190.48" y1="180.16" x2="190.48" y2="172.74"/>
		<line class="st5" x1="190.48" y1="206.16" x2="190.48" y2="198.13"/>
		<g>
			<line class="st5" x1="186.73" y1="175.49" x2="190.21" y2="171.99"/>
			<line class="st5" x1="194.23" y1="175.49" x2="190.75" y2="171.99"/>
		</g>
		<g>
			<line class="st5" x1="186.73" y1="171.36" x2="190.21" y2="167.86"/>
			<line class="st5" x1="194.23" y1="171.36" x2="190.75" y2="167.86"/>
		</g>
		<g>
			<line class="st5" x1="194.23" y1="202.86" x2="190.75" y2="206.36"/>
			<line class="st5" x1="186.73" y1="202.86" x2="190.21" y2="206.36"/>
		</g>
		<g>
			<line class="st5" x1="194.23" y1="206.86" x2="190.75" y2="210.36"/>
			<line class="st5" x1="186.73" y1="206.86" x2="190.21" y2="210.36"/>
		</g>
	</g>
	<g>
		<g>
			<polyline class="st14" points="186.77,231.94 190.31,240.49 194.19,231.91 			"/>
		</g>
		<line class="st5" x1="190.48" y1="231.97" x2="190.48" y2="211.18"/>
		<line class="st5" x1="194.23" y1="231.56" x2="186.73" y2="231.56"/>
	</g>
</g>
<g>
	<line class="st5" x1="227.16" y1="167.4" x2="227.16" y2="138.75"/>
	<g>
		<rect x="222.66" y="180.74" class="st4" width="9" height="17"/>
		<line class="st5" x1="227.16" y1="180.16" x2="227.16" y2="172.74"/>
		<line class="st5" x1="227.16" y1="206.16" x2="227.16" y2="198.13"/>
		<g>
			<line class="st5" x1="223.41" y1="175.49" x2="226.89" y2="171.99"/>
			<line class="st5" x1="230.91" y1="175.49" x2="227.43" y2="171.99"/>
		</g>
		<g>
			<line class="st5" x1="223.41" y1="171.36" x2="226.89" y2="167.86"/>
			<line class="st5" x1="230.91" y1="171.36" x2="227.43" y2="167.86"/>
		</g>
		<g>
			<line class="st5" x1="230.91" y1="202.86" x2="227.43" y2="206.36"/>
			<line class="st5" x1="223.41" y1="202.86" x2="226.89" y2="206.36"/>
		</g>
		<g>
			<line class="st5" x1="230.91" y1="206.86" x2="227.43" y2="210.36"/>
			<line class="st5" x1="223.41" y1="206.86" x2="226.89" y2="210.36"/>
		</g>
	</g>
	<g>
		<g>
			<polyline class="st14" points="223.45,231.94 226.98,240.49 230.86,231.91 			"/>
		</g>
		<line class="st5" x1="227.16" y1="231.97" x2="227.16" y2="211.18"/>
		<line class="st5" x1="230.91" y1="231.56" x2="223.41" y2="231.56"/>
	</g>
</g>
<g>
	<line class="st5" x1="263.07" y1="167.4" x2="263.07" y2="138.75"/>
	<g>
		<rect x="258.57" y="180.74" class="st4" width="9" height="17"/>
		<line class="st5" x1="263.07" y1="180.16" x2="263.07" y2="172.74"/>
		<line class="st5" x1="263.07" y1="206.16" x2="263.07" y2="198.13"/>
		<g>
			<line class="st5" x1="259.32" y1="175.49" x2="262.8" y2="171.99"/>
			<line class="st5" x1="266.82" y1="175.49" x2="263.34" y2="171.99"/>
		</g>
		<g>
			<line class="st5" x1="259.32" y1="171.36" x2="262.8" y2="167.86"/>
			<line class="st5" x1="266.82" y1="171.36" x2="263.34" y2="167.86"/>
		</g>
		<g>
			<line class="st5" x1="266.82" y1="202.86" x2="263.34" y2="206.36"/>
			<line class="st5" x1="259.32" y1="202.86" x2="262.8" y2="206.36"/>
		</g>
		<g>
			<line class="st5" x1="266.82" y1="206.86" x2="263.34" y2="210.36"/>
			<line class="st5" x1="259.32" y1="206.86" x2="262.8" y2="210.36"/>
		</g>
	</g>
	<g>
		<g>
			<polyline class="st14" points="259.36,231.94 262.9,240.49 266.78,231.91 			"/>
		</g>
		<line class="st5" x1="263.07" y1="231.97" x2="263.07" y2="211.18"/>
		<line class="st5" x1="266.82" y1="231.56" x2="259.32" y2="231.56"/>
	</g>
</g>
<g>
	<line class="st5" x1="298.23" y1="167.4" x2="298.23" y2="138.75"/>
	<g>
		<rect x="293.73" y="180.74" class="st4" width="9" height="17"/>
		<line class="st5" x1="298.23" y1="180.16" x2="298.23" y2="172.74"/>
		<line class="st5" x1="298.23" y1="206.16" x2="298.23" y2="198.13"/>
		<g>
			<line class="st5" x1="294.48" y1="175.49" x2="297.96" y2="171.99"/>
			<line class="st5" x1="301.98" y1="175.49" x2="298.5" y2="171.99"/>
		</g>
		<g>
			<line class="st5" x1="294.48" y1="171.36" x2="297.96" y2="167.86"/>
			<line class="st5" x1="301.98" y1="171.36" x2="298.5" y2="167.86"/>
		</g>
		<g>
			<line class="st5" x1="301.98" y1="202.86" x2="298.5" y2="206.36"/>
			<line class="st5" x1="294.48" y1="202.86" x2="297.96" y2="206.36"/>
		</g>
		<g>
			<line class="st5" x1="301.98" y1="206.86" x2="298.5" y2="210.36"/>
			<line class="st5" x1="294.48" y1="206.86" x2="297.96" y2="210.36"/>
		</g>
	</g>
	<g>
		<g>
			<polyline class="st14" points="294.52,231.94 298.06,240.49 301.94,231.91 			"/>
		</g>
		<line class="st5" x1="298.23" y1="231.97" x2="298.23" y2="211.18"/>
		<line class="st5" x1="301.98" y1="231.56" x2="294.48" y2="231.56"/>
	</g>
</g>
<g>
	<line class="st5" x1="369.41" y1="167.4" x2="369.41" y2="138.75"/>
	<g>
		<rect x="364.91" y="180.74" class="st4" width="9" height="17"/>
		<line class="st5" x1="369.41" y1="180.16" x2="369.41" y2="172.74"/>
		<line class="st5" x1="369.41" y1="206.16" x2="369.41" y2="198.13"/>
		<g>
			<line class="st5" x1="365.66" y1="175.49" x2="369.14" y2="171.99"/>
			<line class="st5" x1="373.16" y1="175.49" x2="369.68" y2="171.99"/>
		</g>
		<g>
			<line class="st5" x1="365.66" y1="171.36" x2="369.14" y2="167.86"/>
			<line class="st5" x1="373.16" y1="171.36" x2="369.68" y2="167.86"/>
		</g>
		<g>
			<line class="st5" x1="373.16" y1="202.86" x2="369.68" y2="206.36"/>
			<line class="st5" x1="365.66" y1="202.86" x2="369.14" y2="206.36"/>
		</g>
		<g>
			<line class="st5" x1="373.16" y1="206.86" x2="369.68" y2="210.36"/>
			<line class="st5" x1="365.66" y1="206.86" x2="369.14" y2="210.36"/>
		</g>
	</g>
	<g>
		<g>
			<polyline class="st14" points="365.71,231.94 369.24,240.49 373.12,231.91 			"/>
		</g>
		<line class="st5" x1="369.41" y1="231.97" x2="369.41" y2="211.18"/>
		<line class="st5" x1="373.16" y1="231.56" x2="365.66" y2="231.56"/>
	</g>
</g>
<g>
	<line class="st5" x1="405.71" y1="167.4" x2="405.71" y2="138.75"/>
	<g>
		<rect x="401.21" y="180.74" class="st4" width="9" height="17"/>
		<line class="st5" x1="405.71" y1="180.16" x2="405.71" y2="172.74"/>
		<line class="st5" x1="405.71" y1="206.16" x2="405.71" y2="198.13"/>
		<g>
			<line class="st5" x1="401.96" y1="175.49" x2="405.44" y2="171.99"/>
			<line class="st5" x1="409.46" y1="175.49" x2="405.98" y2="171.99"/>
		</g>
		<g>
			<line class="st5" x1="401.96" y1="171.36" x2="405.44" y2="167.86"/>
			<line class="st5" x1="409.46" y1="171.36" x2="405.98" y2="167.86"/>
		</g>
		<g>
			<line class="st5" x1="409.46" y1="202.86" x2="405.98" y2="206.36"/>
			<line class="st5" x1="401.96" y1="202.86" x2="405.44" y2="206.36"/>
		</g>
		<g>
			<line class="st5" x1="409.46" y1="206.86" x2="405.98" y2="210.36"/>
			<line class="st5" x1="401.96" y1="206.86" x2="405.44" y2="210.36"/>
		</g>
	</g>
	<g>
		<g>
			<polyline class="st14" points="402.01,231.94 405.54,240.49 409.42,231.91 			"/>
		</g>
		<line class="st5" x1="405.71" y1="231.97" x2="405.71" y2="211.18"/>
		<line class="st5" x1="409.46" y1="231.56" x2="401.96" y2="231.56"/>
	</g>
</g>
<g>
	<line class="st5" x1="441.4" y1="167.4" x2="441.4" y2="138.75"/>
	<g>
		<rect x="436.9" y="180.74" class="st4" width="9" height="17"/>
		<line class="st5" x1="441.4" y1="180.16" x2="441.4" y2="172.74"/>
		<line class="st5" x1="441.4" y1="206.16" x2="441.4" y2="198.13"/>
		<g>
			<line class="st5" x1="437.65" y1="175.49" x2="441.13" y2="171.99"/>
			<line class="st5" x1="445.15" y1="175.49" x2="441.67" y2="171.99"/>
		</g>
		<g>
			<line class="st5" x1="437.65" y1="171.36" x2="441.13" y2="167.86"/>
			<line class="st5" x1="445.15" y1="171.36" x2="441.67" y2="167.86"/>
		</g>
		<g>
			<line class="st5" x1="445.15" y1="202.86" x2="441.67" y2="206.36"/>
			<line class="st5" x1="437.65" y1="202.86" x2="441.13" y2="206.36"/>
		</g>
		<g>
			<line class="st5" x1="445.15" y1="206.86" x2="441.67" y2="210.36"/>
			<line class="st5" x1="437.65" y1="206.86" x2="441.13" y2="210.36"/>
		</g>
	</g>
	<g>
		<g>
			<polyline class="st14" points="437.69,231.94 441.23,240.49 445.11,231.91 			"/>
		</g>
		<line class="st5" x1="441.4" y1="231.97" x2="441.4" y2="211.18"/>
		<line class="st5" x1="445.15" y1="231.56" x2="437.65" y2="231.56"/>
	</g>
</g>
<g>
	<line class="st5" x1="477.76" y1="167.4" x2="477.76" y2="138.75"/>
	<g>
		<rect x="473.26" y="180.74" class="st4" width="9" height="17"/>
		<line class="st5" x1="477.76" y1="180.16" x2="477.76" y2="172.74"/>
		<line class="st5" x1="477.76" y1="206.16" x2="477.76" y2="198.13"/>
		<g>
			<line class="st5" x1="474.01" y1="175.49" x2="477.5" y2="171.99"/>
			<line class="st5" x1="481.51" y1="175.49" x2="478.03" y2="171.99"/>
		</g>
		<g>
			<line class="st5" x1="474.01" y1="171.36" x2="477.5" y2="167.86"/>
			<line class="st5" x1="481.51" y1="171.36" x2="478.03" y2="167.86"/>
		</g>
		<g>
			<line class="st5" x1="481.51" y1="202.86" x2="478.03" y2="206.36"/>
			<line class="st5" x1="474.01" y1="202.86" x2="477.5" y2="206.36"/>
		</g>
		<g>
			<line class="st5" x1="481.51" y1="206.86" x2="478.03" y2="210.36"/>
			<line class="st5" x1="474.01" y1="206.86" x2="477.5" y2="210.36"/>
		</g>
	</g>
	<g>
		<g>
			<polyline class="st14" points="474.06,231.94 477.59,240.49 481.47,231.91 			"/>
		</g>
		<line class="st5" x1="477.76" y1="231.97" x2="477.76" y2="211.18"/>
		<line class="st5" x1="481.51" y1="231.56" x2="474.01" y2="231.56"/>
	</g>
</g>
<g>
	<line class="st5" x1="513.61" y1="167.4" x2="513.61" y2="138.75"/>
	<g>
		<rect x="509.11" y="180.74" class="st4" width="9" height="17"/>
		<line class="st5" x1="513.61" y1="180.16" x2="513.61" y2="172.74"/>
		<line class="st5" x1="513.61" y1="206.16" x2="513.61" y2="198.13"/>
		<g>
			<line class="st5" x1="509.86" y1="175.49" x2="513.34" y2="171.99"/>
			<line class="st5" x1="517.36" y1="175.49" x2="513.88" y2="171.99"/>
		</g>
		<g>
			<line class="st5" x1="509.86" y1="171.36" x2="513.34" y2="167.86"/>
			<line class="st5" x1="517.36" y1="171.36" x2="513.88" y2="167.86"/>
		</g>
		<g>
			<line class="st5" x1="517.36" y1="202.86" x2="513.88" y2="206.36"/>
			<line class="st5" x1="509.86" y1="202.86" x2="513.34" y2="206.36"/>
		</g>
		<g>
			<line class="st5" x1="517.36" y1="206.86" x2="513.88" y2="210.36"/>
			<line class="st5" x1="509.86" y1="206.86" x2="513.34" y2="210.36"/>
		</g>
	</g>
	<g>
		<g>
			<polyline class="st14" points="509.9,231.94 513.44,240.49 517.32,231.91 			"/>
		</g>
		<line class="st5" x1="513.61" y1="231.97" x2="513.61" y2="211.18"/>
		<line class="st5" x1="517.36" y1="231.56" x2="509.86" y2="231.56"/>
	</g>
</g>
<g>
	<line class="st5" x1="549.94" y1="167.4" x2="549.94" y2="138.75"/>
	<g>
		<rect x="545.44" y="180.74" class="st4" width="9" height="17"/>
		<line class="st5" x1="549.94" y1="180.16" x2="549.94" y2="172.74"/>
		<line class="st5" x1="549.94" y1="206.16" x2="549.94" y2="198.13"/>
		<g>
			<line class="st5" x1="546.19" y1="175.49" x2="549.67" y2="171.99"/>
			<line class="st5" x1="553.69" y1="175.49" x2="550.21" y2="171.99"/>
		</g>
		<g>
			<line class="st5" x1="546.19" y1="171.36" x2="549.67" y2="167.86"/>
			<line class="st5" x1="553.69" y1="171.36" x2="550.21" y2="167.86"/>
		</g>
		<g>
			<line class="st5" x1="553.69" y1="202.86" x2="550.21" y2="206.36"/>
			<line class="st5" x1="546.19" y1="202.86" x2="549.67" y2="206.36"/>
		</g>
		<g>
			<line class="st5" x1="553.69" y1="206.86" x2="550.21" y2="210.36"/>
			<line class="st5" x1="546.19" y1="206.86" x2="549.67" y2="210.36"/>
		</g>
	</g>
	<g>
		<g>
			<polyline class="st14" points="546.23,231.94 549.77,240.49 553.65,231.91 			"/>
		</g>
		<line class="st5" x1="549.94" y1="231.97" x2="549.94" y2="211.18"/>
		<line class="st5" x1="553.69" y1="231.56" x2="546.19" y2="231.56"/>
	</g>
</g>
<g>
	<line class="st5" x1="586.2" y1="167.4" x2="586.2" y2="138.75"/>
	<g>
		<rect x="581.7" y="180.74" class="st4" width="9" height="17"/>
		<line class="st5" x1="586.2" y1="180.16" x2="586.2" y2="172.74"/>
		<line class="st5" x1="586.2" y1="206.16" x2="586.2" y2="198.13"/>
		<g>
			<line class="st5" x1="582.45" y1="175.49" x2="585.93" y2="171.99"/>
			<line class="st5" x1="589.95" y1="175.49" x2="586.47" y2="171.99"/>
		</g>
		<g>
			<line class="st5" x1="582.45" y1="171.36" x2="585.93" y2="167.86"/>
			<line class="st5" x1="589.95" y1="171.36" x2="586.47" y2="167.86"/>
		</g>
		<g>
			<line class="st5" x1="589.95" y1="202.86" x2="586.47" y2="206.36"/>
			<line class="st5" x1="582.45" y1="202.86" x2="585.93" y2="206.36"/>
		</g>
		<g>
			<line class="st5" x1="589.95" y1="206.86" x2="586.47" y2="210.36"/>
			<line class="st5" x1="582.45" y1="206.86" x2="585.93" y2="210.36"/>
		</g>
	</g>
	<g>
		<g>
			<polyline class="st14" points="582.5,231.94 586.03,240.49 589.91,231.91 			"/>
		</g>
		<line class="st5" x1="586.2" y1="231.97" x2="586.2" y2="211.18"/>
		<line class="st5" x1="589.95" y1="231.56" x2="582.45" y2="231.56"/>
	</g>
</g>
<g>
	<line class="st5" x1="622.48" y1="167.4" x2="622.48" y2="138.75"/>
	<g>
		<rect x="617.98" y="180.74" class="st4" width="9" height="17"/>
		<line class="st5" x1="622.48" y1="180.16" x2="622.48" y2="172.74"/>
		<line class="st5" x1="622.48" y1="206.16" x2="622.48" y2="198.13"/>
		<g>
			<line class="st5" x1="618.73" y1="175.49" x2="622.21" y2="171.99"/>
			<line class="st5" x1="626.23" y1="175.49" x2="622.75" y2="171.99"/>
		</g>
		<g>
			<line class="st5" x1="618.73" y1="171.36" x2="622.21" y2="167.86"/>
			<line class="st5" x1="626.23" y1="171.36" x2="622.75" y2="167.86"/>
		</g>
		<g>
			<line class="st5" x1="626.23" y1="202.86" x2="622.75" y2="206.36"/>
			<line class="st5" x1="618.73" y1="202.86" x2="622.21" y2="206.36"/>
		</g>
		<g>
			<line class="st5" x1="626.23" y1="206.86" x2="622.75" y2="210.36"/>
			<line class="st5" x1="618.73" y1="206.86" x2="622.21" y2="210.36"/>
		</g>
	</g>
	<g>
		<g>
			<polyline class="st14" points="618.77,231.94 622.31,240.49 626.19,231.91 			"/>
		</g>
		<line class="st5" x1="622.48" y1="231.97" x2="622.48" y2="211.18"/>
		<line class="st5" x1="626.23" y1="231.56" x2="618.73" y2="231.56"/>
	</g>
</g>
<g>
	<line class="st5" x1="658.12" y1="167.14" x2="658.12" y2="138.49"/>
	<g>
		<rect x="653.62" y="180.49" class="st4" width="9" height="17"/>
		<line class="st5" x1="658.12" y1="179.91" x2="658.12" y2="172.49"/>
		<line class="st5" x1="658.12" y1="205.91" x2="658.12" y2="197.88"/>
		<g>
			<line class="st5" x1="654.37" y1="175.24" x2="657.85" y2="171.74"/>
			<line class="st5" x1="661.87" y1="175.24" x2="658.39" y2="171.74"/>
		</g>
		<g>
			<line class="st5" x1="654.37" y1="171.11" x2="657.85" y2="167.61"/>
			<line class="st5" x1="661.87" y1="171.11" x2="658.39" y2="167.61"/>
		</g>
		<g>
			<line class="st5" x1="661.87" y1="202.61" x2="658.39" y2="206.11"/>
			<line class="st5" x1="654.37" y1="202.61" x2="657.85" y2="206.11"/>
		</g>
		<g>
			<line class="st5" x1="661.87" y1="206.61" x2="658.39" y2="210.11"/>
			<line class="st5" x1="654.37" y1="206.61" x2="657.85" y2="210.11"/>
		</g>
	</g>
	<g>
		<g>
			<polyline class="st14" points="654.41,231.69 657.95,240.24 661.82,231.65 			"/>
		</g>
		<line class="st5" x1="658.12" y1="231.71" x2="658.12" y2="210.92"/>
		<line class="st5" x1="661.87" y1="231.31" x2="654.37" y2="231.31"/>
	</g>
</g>
<g>
	<line class="st5" x1="693.12" y1="167.14" x2="693.12" y2="138.49"/>
	<g>
		<rect x="688.62" y="180.49" class="st4" width="9" height="17"/>
		<line class="st5" x1="693.12" y1="179.91" x2="693.12" y2="172.49"/>
		<line class="st5" x1="693.12" y1="205.91" x2="693.12" y2="197.88"/>
		<g>
			<line class="st5" x1="689.37" y1="175.24" x2="692.85" y2="171.74"/>
			<line class="st5" x1="696.87" y1="175.24" x2="693.39" y2="171.74"/>
		</g>
		<g>
			<line class="st5" x1="689.37" y1="171.11" x2="692.85" y2="167.61"/>
			<line class="st5" x1="696.87" y1="171.11" x2="693.39" y2="167.61"/>
		</g>
		<g>
			<line class="st5" x1="696.87" y1="202.61" x2="693.39" y2="206.11"/>
			<line class="st5" x1="689.37" y1="202.61" x2="692.85" y2="206.11"/>
		</g>
		<g>
			<line class="st5" x1="696.87" y1="206.61" x2="693.39" y2="210.11"/>
			<line class="st5" x1="689.37" y1="206.61" x2="692.85" y2="210.11"/>
		</g>
	</g>
	<g>
		<g>
			<polyline class="st14" points="689.41,231.69 692.95,240.24 696.82,231.65 			"/>
		</g>
		<line class="st5" x1="693.12" y1="231.71" x2="693.12" y2="210.92"/>
		<line class="st5" x1="696.87" y1="231.31" x2="689.37" y2="231.31"/>
	</g>
</g>
<g>
	<line class="st5" x1="728.12" y1="167.14" x2="728.12" y2="138.49"/>
	<g>
		<rect x="723.62" y="180.49" class="st4" width="9" height="17"/>
		<line class="st5" x1="728.12" y1="179.91" x2="728.12" y2="172.49"/>
		<line class="st5" x1="728.12" y1="205.91" x2="728.12" y2="197.88"/>
		<g>
			<line class="st5" x1="724.37" y1="175.24" x2="727.85" y2="171.74"/>
			<line class="st5" x1="731.87" y1="175.24" x2="728.39" y2="171.74"/>
		</g>
		<g>
			<line class="st5" x1="724.37" y1="171.11" x2="727.85" y2="167.61"/>
			<line class="st5" x1="731.87" y1="171.11" x2="728.39" y2="167.61"/>
		</g>
		<g>
			<line class="st5" x1="731.87" y1="202.61" x2="728.39" y2="206.11"/>
			<line class="st5" x1="724.37" y1="202.61" x2="727.85" y2="206.11"/>
		</g>
		<g>
			<line class="st5" x1="731.87" y1="206.61" x2="728.39" y2="210.11"/>
			<line class="st5" x1="724.37" y1="206.61" x2="727.85" y2="210.11"/>
		</g>
	</g>
	<g>
		<g>
			<polyline class="st14" points="724.41,231.69 727.95,240.24 731.82,231.65 			"/>
		</g>
		<line class="st5" x1="728.12" y1="231.71" x2="728.12" y2="210.92"/>
		<line class="st5" x1="731.87" y1="231.31" x2="724.37" y2="231.31"/>
	</g>
</g>
<g>
	<line class="st5" x1="761.12" y1="167.14" x2="761.12" y2="138.49"/>
	<g>
		<rect x="756.62" y="180.49" class="st4" width="9" height="17"/>
		<line class="st5" x1="761.12" y1="179.91" x2="761.12" y2="172.49"/>
		<line class="st5" x1="761.12" y1="205.91" x2="761.12" y2="197.88"/>
		<g>
			<line class="st5" x1="757.37" y1="175.24" x2="760.85" y2="171.74"/>
			<line class="st5" x1="764.87" y1="175.24" x2="761.39" y2="171.74"/>
		</g>
		<g>
			<line class="st5" x1="757.37" y1="171.11" x2="760.85" y2="167.61"/>
			<line class="st5" x1="764.87" y1="171.11" x2="761.39" y2="167.61"/>
		</g>
		<g>
			<line class="st5" x1="764.87" y1="202.61" x2="761.39" y2="206.11"/>
			<line class="st5" x1="757.37" y1="202.61" x2="760.85" y2="206.11"/>
		</g>
		<g>
			<line class="st5" x1="764.87" y1="206.61" x2="761.39" y2="210.11"/>
			<line class="st5" x1="757.37" y1="206.61" x2="760.85" y2="210.11"/>
		</g>
	</g>
	<g>
		<g>
			<polyline class="st14" points="757.41,231.69 760.95,240.24 764.82,231.65 			"/>
		</g>
		<line class="st5" x1="761.12" y1="231.71" x2="761.12" y2="210.92"/>
		<line class="st5" x1="764.87" y1="231.31" x2="757.37" y2="231.31"/>
	</g>
</g>
<rect x="654.92" y="132.99" class="st10" width="5.41" height="5.5"/>
<rect x="690.92" y="132.99" class="st10" width="5.41" height="5.5"/>
<rect x="725.92" y="132.99" class="st10" width="5.41" height="5.5"/>
<rect x="758.92" y="132.99" class="st10" width="5.41" height="5.5"/>
<text transform="matrix(0.6726 0 0 1 654.2788 129.9454)" class="st0 st1 st3">43</text>
<text transform="matrix(0.6726 0 0 1 690.2788 128.9454)" class="st0 st1 st3">44</text>
<text transform="matrix(0.6726 0 0 1 727.2788 129.9454)" class="st0 st1 st3">45</text>
<text transform="matrix(0.6726 0 0 1 757.2788 129.9454)" class="st0 st1 st3">46</text>
<text transform="matrix(0.6726 0 0 1 591.2789 149.9452)" class="st0 st1 st3">41</text>
<g>
	<line class="st5" x1="334.03" y1="167.14" x2="334.03" y2="138.49"/>
	<g>
		<rect x="329.53" y="180.49" class="st4" width="9" height="17"/>
		<line class="st5" x1="334.03" y1="179.91" x2="334.03" y2="172.49"/>
		<line class="st5" x1="334.03" y1="205.91" x2="334.03" y2="197.88"/>
		<g>
			<line class="st5" x1="330.28" y1="175.24" x2="333.76" y2="171.74"/>
			<line class="st5" x1="337.78" y1="175.24" x2="334.3" y2="171.74"/>
		</g>
		<g>
			<line class="st5" x1="330.28" y1="171.11" x2="333.76" y2="167.61"/>
			<line class="st5" x1="337.78" y1="171.11" x2="334.3" y2="167.61"/>
		</g>
		<g>
			<line class="st5" x1="337.78" y1="202.61" x2="334.3" y2="206.11"/>
			<line class="st5" x1="330.28" y1="202.61" x2="333.76" y2="206.11"/>
		</g>
		<g>
			<line class="st5" x1="337.78" y1="206.61" x2="334.3" y2="210.11"/>
			<line class="st5" x1="330.28" y1="206.61" x2="333.76" y2="210.11"/>
		</g>
	</g>
	<g>
		<g>
			<polyline class="st14" points="330.32,231.69 333.86,240.24 337.74,231.65 			"/>
		</g>
		<line class="st5" x1="334.03" y1="231.71" x2="334.03" y2="210.92"/>
		<line class="st5" x1="337.78" y1="231.31" x2="330.28" y2="231.31"/>
	</g>
</g>
<g>
	<line class="st6" x1="107.59" y1="317.15" x2="107.59" y2="310.06"/>
	<rect x="103.32" y="252.21" class="st5" width="31" height="100"/>
	<g>
		<line class="st6" x1="108.74" y1="345.75" x2="128.64" y2="345.75"/>
		<line class="st6" x1="108.76" y1="345.44" x2="118.71" y2="325.29"/>
		<line class="st6" x1="118.95" y1="325.29" x2="128.9" y2="345.44"/>
		<g>
			<rect x="116.87" y="341.76" class="st15" width="2.75" height="7.73"/>
			<g>
				<line class="st6" x1="117.12" y1="341.96" x2="117.12" y2="349.37"/>
				<line class="st6" x1="119.71" y1="341.96" x2="119.71" y2="349.37"/>
			</g>
		</g>
		<g>
			<polygon class="st15" points="117.19,334.68 115.79,337.45 110.1,333.53 111.5,330.75 			"/>
			<g>
				<line class="st6" x1="110.38" y1="333.38" x2="115.83" y2="337.14"/>
				<line class="st6" x1="111.7" y1="330.76" x2="117.15" y2="334.52"/>
			</g>
		</g>
		<g>
			<polygon class="st15" points="125.96,331.68 127.39,334.44 121.73,338.43 120.31,335.67 			"/>
			<g>
				<line class="st6" x1="121.75" y1="338.07" x2="127.17" y2="334.25"/>
				<line class="st6" x1="120.41" y1="335.47" x2="125.83" y2="331.65"/>
			</g>
		</g>
	</g>
	<line class="st6" x1="118.82" y1="299.98" x2="118.82" y2="324.98"/>
	<g>
		<g>
			<path class="st13" d="M118.82,287.2c-4.81,0-8.05-1.75-8.05-3.38s3.23-3.38,8.05-3.38s8.05,1.75,8.05,3.38
				S123.63,287.2,118.82,287.2z"/>
			<path class="st13" d="M118.82,280.95c4.61,0,7.55,1.7,7.55,2.88s-2.94,2.88-7.55,2.88s-7.55-1.7-7.55-2.88
				S114.21,280.95,118.82,280.95 M118.82,279.95c-4.72,0-8.55,1.74-8.55,3.88s3.83,3.88,8.55,3.88s8.55-1.74,8.55-3.88
				S123.54,279.95,118.82,279.95L118.82,279.95z"/>
		</g>
		<g>
			<path class="st13" d="M117.96,283.76c-3.14,0-5.48-1.1-5.48-2.08s2.34-2.08,5.48-2.08s5.48,1.1,5.48,2.08
				S121.1,283.76,117.96,283.76z"/>
			<path class="st13" d="M117.96,280.09c3.24,0,4.98,1.12,4.98,1.58s-1.75,1.58-4.98,1.58s-4.98-1.12-4.98-1.58
				S114.73,280.09,117.96,280.09 M117.96,279.09c-3.3,0-5.98,1.16-5.98,2.58c0,1.43,2.68,2.58,5.98,2.58s5.98-1.16,5.98-2.58
				C123.95,280.25,121.27,279.09,117.96,279.09L117.96,279.09z"/>
		</g>
		<g>
			<path class="st13" d="M118.82,288.07c-3.14,0-5.48-1.1-5.48-2.08s2.34-2.08,5.48-2.08s5.48,1.1,5.48,2.08
				S121.96,288.07,118.82,288.07z"/>
			<path class="st13" d="M118.82,284.4c3.24,0,4.98,1.12,4.98,1.58s-1.75,1.58-4.98,1.58s-4.98-1.12-4.98-1.58
				S115.58,284.4,118.82,284.4 M118.82,283.4c-3.3,0-5.98,1.16-5.98,2.58c0,1.43,2.68,2.58,5.98,2.58s5.98-1.16,5.98-2.58
				C124.8,284.55,122.12,283.4,118.82,283.4L118.82,283.4z"/>
		</g>
	</g>
	<g>
		<path class="st12" d="M118.82,267.62c5.51,0,10,4.49,10,10s-4.49,10-10,10s-10-4.49-10-10S113.31,267.62,118.82,267.62
			 M118.82,266.62c-6.08,0-11,4.92-11,11s4.92,11,11,11s11-4.92,11-11S124.89,266.62,118.82,266.62L118.82,266.62z"/>
	</g>
	<g>
		<path class="st12" d="M118.82,279.57c5.51,0,10,4.49,10,10s-4.49,10-10,10s-10-4.49-10-10S113.31,279.57,118.82,279.57
			 M118.82,278.57c-6.08,0-11,4.92-11,11s4.92,11,11,11s11-4.92,11-11S124.89,278.57,118.82,278.57L118.82,278.57z"/>
	</g>
	<line class="st6" x1="129.82" y1="313.9" x2="107.82" y2="313.9"/>
	<line class="st6" x1="130.47" y1="317.37" x2="130.47" y2="310.28"/>
	<line class="st6" x1="118.82" y1="241.87" x2="118.82" y2="266.87"/>
</g>
<g>
	<line class="st6" x1="142.59" y1="317.15" x2="142.59" y2="310.06"/>
	<rect x="138.32" y="252.21" class="st5" width="31" height="100"/>
	<g>
		<line class="st6" x1="143.74" y1="345.75" x2="163.64" y2="345.75"/>
		<line class="st6" x1="143.76" y1="345.44" x2="153.71" y2="325.29"/>
		<line class="st6" x1="153.95" y1="325.29" x2="163.9" y2="345.44"/>
		<g>
			<rect x="151.87" y="341.76" class="st15" width="2.75" height="7.73"/>
			<g>
				<line class="st6" x1="152.12" y1="341.96" x2="152.12" y2="349.37"/>
				<line class="st6" x1="154.71" y1="341.96" x2="154.71" y2="349.37"/>
			</g>
		</g>
		<g>
			<polygon class="st15" points="152.19,334.68 150.79,337.45 145.1,333.53 146.5,330.75 			"/>
			<g>
				<line class="st6" x1="145.38" y1="333.38" x2="150.83" y2="337.14"/>
				<line class="st6" x1="146.7" y1="330.76" x2="152.15" y2="334.52"/>
			</g>
		</g>
		<g>
			<polygon class="st15" points="160.96,331.68 162.39,334.44 156.73,338.43 155.31,335.67 			"/>
			<g>
				<line class="st6" x1="156.75" y1="338.07" x2="162.17" y2="334.25"/>
				<line class="st6" x1="155.41" y1="335.47" x2="160.83" y2="331.65"/>
			</g>
		</g>
	</g>
	<line class="st6" x1="153.82" y1="299.98" x2="153.82" y2="324.98"/>
	<g>
		<g>
			<path class="st13" d="M153.82,287.2c-4.81,0-8.05-1.75-8.05-3.38s3.23-3.38,8.05-3.38c4.81,0,8.05,1.75,8.05,3.38
				S158.63,287.2,153.82,287.2z"/>
			<path class="st13" d="M153.82,280.95c4.61,0,7.55,1.7,7.55,2.88s-2.94,2.88-7.55,2.88s-7.55-1.7-7.55-2.88
				S149.21,280.95,153.82,280.95 M153.82,279.95c-4.72,0-8.55,1.74-8.55,3.88s3.83,3.88,8.55,3.88s8.55-1.74,8.55-3.88
				S158.54,279.95,153.82,279.95L153.82,279.95z"/>
		</g>
		<g>
			<path class="st13" d="M152.96,283.76c-3.14,0-5.48-1.1-5.48-2.08s2.34-2.08,5.48-2.08c3.14,0,5.48,1.1,5.48,2.08
				S156.1,283.76,152.96,283.76z"/>
			<path class="st13" d="M152.96,280.09c3.24,0,4.98,1.12,4.98,1.58s-1.75,1.58-4.98,1.58s-4.98-1.12-4.98-1.58
				S149.73,280.09,152.96,280.09 M152.96,279.09c-3.3,0-5.98,1.16-5.98,2.58c0,1.43,2.68,2.58,5.98,2.58s5.98-1.16,5.98-2.58
				C158.95,280.25,156.27,279.09,152.96,279.09L152.96,279.09z"/>
		</g>
		<g>
			<ellipse class="st13" cx="153.82" cy="285.98" rx="5.48" ry="2.08"/>
			<path class="st13" d="M153.82,284.4c3.24,0,4.98,1.12,4.98,1.58s-1.75,1.58-4.98,1.58s-4.98-1.12-4.98-1.58
				S150.58,284.4,153.82,284.4 M153.82,283.4c-3.3,0-5.98,1.16-5.98,2.58c0,1.43,2.68,2.58,5.98,2.58s5.98-1.16,5.98-2.58
				C159.8,284.55,157.12,283.4,153.82,283.4L153.82,283.4z"/>
		</g>
	</g>
	<g>
		<path class="st12" d="M153.82,267.62c5.51,0,10,4.49,10,10s-4.49,10-10,10s-10-4.49-10-10S148.31,267.62,153.82,267.62
			 M153.82,266.62c-6.08,0-11,4.92-11,11s4.92,11,11,11s11-4.92,11-11S159.89,266.62,153.82,266.62L153.82,266.62z"/>
	</g>
	<g>
		<path class="st12" d="M153.82,279.57c5.51,0,10,4.49,10,10s-4.49,10-10,10s-10-4.49-10-10S148.31,279.57,153.82,279.57
			 M153.82,278.57c-6.08,0-11,4.92-11,11s4.92,11,11,11s11-4.92,11-11S159.89,278.57,153.82,278.57L153.82,278.57z"/>
	</g>
	<line class="st6" x1="164.82" y1="313.9" x2="142.82" y2="313.9"/>
	<line class="st6" x1="165.47" y1="317.37" x2="165.47" y2="310.28"/>
	<line class="st6" x1="153.82" y1="241.87" x2="153.82" y2="266.87"/>
</g>
<g>
	<line class="st6" x1="178.59" y1="317.15" x2="178.59" y2="310.06"/>
	<rect x="174.32" y="252.21" class="st5" width="31" height="100"/>
	<g>
		<line class="st6" x1="179.74" y1="345.75" x2="199.64" y2="345.75"/>
		<line class="st6" x1="179.76" y1="345.44" x2="189.71" y2="325.29"/>
		<line class="st6" x1="189.95" y1="325.29" x2="199.9" y2="345.44"/>
		<g>
			<rect x="187.87" y="341.76" class="st15" width="2.75" height="7.73"/>
			<g>
				<line class="st6" x1="188.12" y1="341.96" x2="188.12" y2="349.37"/>
				<line class="st6" x1="190.71" y1="341.96" x2="190.71" y2="349.37"/>
			</g>
		</g>
		<g>
			<polygon class="st15" points="188.19,334.68 186.79,337.45 181.1,333.53 182.5,330.75 			"/>
			<g>
				<line class="st6" x1="181.38" y1="333.38" x2="186.83" y2="337.14"/>
				<line class="st6" x1="182.7" y1="330.76" x2="188.15" y2="334.52"/>
			</g>
		</g>
		<g>
			<polygon class="st15" points="196.96,331.68 198.39,334.44 192.73,338.43 191.31,335.67 			"/>
			<g>
				<line class="st6" x1="192.75" y1="338.07" x2="198.17" y2="334.25"/>
				<line class="st6" x1="191.41" y1="335.47" x2="196.83" y2="331.65"/>
			</g>
		</g>
	</g>
	<line class="st6" x1="189.82" y1="299.98" x2="189.82" y2="324.98"/>
	<g>
		<g>
			<ellipse class="st13" cx="189.82" cy="283.83" rx="8.05" ry="3.38"/>
			<path class="st13" d="M189.82,280.95c4.61,0,7.55,1.7,7.55,2.88s-2.94,2.88-7.55,2.88s-7.55-1.7-7.55-2.88
				S185.21,280.95,189.82,280.95 M189.82,279.95c-4.72,0-8.55,1.74-8.55,3.88s3.83,3.88,8.55,3.88s8.55-1.74,8.55-3.88
				S194.54,279.95,189.82,279.95L189.82,279.95z"/>
		</g>
		<g>
			<ellipse class="st13" cx="188.96" cy="281.67" rx="5.48" ry="2.08"/>
			<path class="st13" d="M188.96,280.09c3.24,0,4.98,1.12,4.98,1.58s-1.75,1.58-4.98,1.58s-4.98-1.12-4.98-1.58
				S185.73,280.09,188.96,280.09 M188.96,279.09c-3.3,0-5.98,1.16-5.98,2.58c0,1.43,2.68,2.58,5.98,2.58s5.98-1.16,5.98-2.58
				C194.95,280.25,192.27,279.09,188.96,279.09L188.96,279.09z"/>
		</g>
		<g>
			<ellipse class="st13" cx="189.82" cy="285.98" rx="5.48" ry="2.08"/>
			<path class="st13" d="M189.82,284.4c3.24,0,4.98,1.12,4.98,1.58s-1.75,1.58-4.98,1.58s-4.98-1.12-4.98-1.58
				S186.58,284.4,189.82,284.4 M189.82,283.4c-3.3,0-5.98,1.16-5.98,2.58c0,1.43,2.68,2.58,5.98,2.58s5.98-1.16,5.98-2.58
				C195.8,284.55,193.12,283.4,189.82,283.4L189.82,283.4z"/>
		</g>
	</g>
	<g>
		<path class="st12" d="M189.82,267.62c5.51,0,10,4.49,10,10s-4.49,10-10,10s-10-4.49-10-10S184.31,267.62,189.82,267.62
			 M189.82,266.62c-6.08,0-11,4.92-11,11s4.92,11,11,11s11-4.92,11-11S195.89,266.62,189.82,266.62L189.82,266.62z"/>
	</g>
	<g>
		<path class="st12" d="M189.82,279.57c5.51,0,10,4.49,10,10s-4.49,10-10,10s-10-4.49-10-10S184.31,279.57,189.82,279.57
			 M189.82,278.57c-6.08,0-11,4.92-11,11s4.92,11,11,11s11-4.92,11-11S195.89,278.57,189.82,278.57L189.82,278.57z"/>
	</g>
	<line class="st6" x1="200.82" y1="313.9" x2="178.82" y2="313.9"/>
	<line class="st6" x1="201.47" y1="317.37" x2="201.47" y2="310.28"/>
	<line class="st6" x1="189.82" y1="241.87" x2="189.82" y2="266.87"/>
</g>
<g>
	<line class="st6" x1="215.59" y1="317.15" x2="215.59" y2="310.06"/>
	<rect x="211.32" y="252.21" class="st5" width="31" height="100"/>
	<g>
		<line class="st6" x1="216.74" y1="345.75" x2="236.64" y2="345.75"/>
		<line class="st6" x1="216.76" y1="345.44" x2="226.71" y2="325.29"/>
		<line class="st6" x1="226.95" y1="325.29" x2="236.9" y2="345.44"/>
		<g>
			<rect x="224.87" y="341.76" class="st15" width="2.75" height="7.73"/>
			<g>
				<line class="st6" x1="225.12" y1="341.96" x2="225.12" y2="349.37"/>
				<line class="st6" x1="227.71" y1="341.96" x2="227.71" y2="349.37"/>
			</g>
		</g>
		<g>
			<polygon class="st15" points="225.19,334.68 223.79,337.45 218.1,333.53 219.5,330.75 			"/>
			<g>
				<line class="st6" x1="218.38" y1="333.38" x2="223.83" y2="337.14"/>
				<line class="st6" x1="219.7" y1="330.76" x2="225.15" y2="334.52"/>
			</g>
		</g>
		<g>
			<polygon class="st15" points="233.96,331.68 235.39,334.44 229.73,338.43 228.31,335.67 			"/>
			<g>
				<line class="st6" x1="229.75" y1="338.07" x2="235.17" y2="334.25"/>
				<line class="st6" x1="228.41" y1="335.47" x2="233.83" y2="331.65"/>
			</g>
		</g>
	</g>
	<line class="st6" x1="226.82" y1="299.98" x2="226.82" y2="324.98"/>
	<g>
		<g>
			<ellipse class="st13" cx="226.82" cy="283.83" rx="8.05" ry="3.38"/>
			<path class="st13" d="M226.82,280.95c4.61,0,7.55,1.7,7.55,2.88s-2.94,2.88-7.55,2.88s-7.55-1.7-7.55-2.88
				S222.21,280.95,226.82,280.95 M226.82,279.95c-4.72,0-8.55,1.74-8.55,3.88s3.83,3.88,8.55,3.88s8.55-1.74,8.55-3.88
				S231.54,279.95,226.82,279.95L226.82,279.95z"/>
		</g>
		<g>
			<ellipse class="st13" cx="225.96" cy="281.67" rx="5.48" ry="2.08"/>
			<path class="st13" d="M225.96,280.09c3.24,0,4.98,1.12,4.98,1.58s-1.75,1.58-4.98,1.58s-4.98-1.12-4.98-1.58
				S222.73,280.09,225.96,280.09 M225.96,279.09c-3.3,0-5.98,1.16-5.98,2.58c0,1.43,2.68,2.58,5.98,2.58s5.98-1.16,5.98-2.58
				C231.95,280.25,229.27,279.09,225.96,279.09L225.96,279.09z"/>
		</g>
		<g>
			<ellipse class="st13" cx="226.82" cy="285.98" rx="5.48" ry="2.08"/>
			<path class="st13" d="M226.82,284.4c3.24,0,4.98,1.12,4.98,1.58s-1.75,1.58-4.98,1.58s-4.98-1.12-4.98-1.58
				S223.58,284.4,226.82,284.4 M226.82,283.4c-3.3,0-5.98,1.16-5.98,2.58c0,1.43,2.68,2.58,5.98,2.58s5.98-1.16,5.98-2.58
				C232.8,284.55,230.12,283.4,226.82,283.4L226.82,283.4z"/>
		</g>
	</g>
	<g>
		<path class="st12" d="M226.82,267.62c5.51,0,10,4.49,10,10s-4.49,10-10,10s-10-4.49-10-10S221.31,267.62,226.82,267.62
			 M226.82,266.62c-6.08,0-11,4.92-11,11s4.92,11,11,11s11-4.92,11-11S232.89,266.62,226.82,266.62L226.82,266.62z"/>
	</g>
	<g>
		<path class="st12" d="M226.82,279.57c5.51,0,10,4.49,10,10s-4.49,10-10,10s-10-4.49-10-10S221.31,279.57,226.82,279.57
			 M226.82,278.57c-6.08,0-11,4.92-11,11s4.92,11,11,11s11-4.92,11-11S232.89,278.57,226.82,278.57L226.82,278.57z"/>
	</g>
	<line class="st6" x1="237.82" y1="313.9" x2="215.82" y2="313.9"/>
	<line class="st6" x1="238.47" y1="317.37" x2="238.47" y2="310.28"/>
	<line class="st6" x1="226.82" y1="241.87" x2="226.82" y2="266.87"/>
</g>
<g>
	<line class="st6" x1="251.59" y1="317.15" x2="251.59" y2="310.06"/>
	<rect x="247.32" y="252.21" class="st5" width="31" height="100"/>
	<g>
		<line class="st6" x1="252.74" y1="345.75" x2="272.64" y2="345.75"/>
		<line class="st6" x1="252.76" y1="345.44" x2="262.71" y2="325.29"/>
		<line class="st6" x1="262.95" y1="325.29" x2="272.9" y2="345.44"/>
		<g>
			<rect x="260.87" y="341.76" class="st15" width="2.75" height="7.73"/>
			<g>
				<line class="st6" x1="261.12" y1="341.96" x2="261.12" y2="349.37"/>
				<line class="st6" x1="263.71" y1="341.96" x2="263.71" y2="349.37"/>
			</g>
		</g>
		<g>
			<polygon class="st15" points="261.19,334.68 259.79,337.45 254.1,333.53 255.5,330.75 			"/>
			<g>
				<line class="st6" x1="254.38" y1="333.38" x2="259.83" y2="337.14"/>
				<line class="st6" x1="255.7" y1="330.76" x2="261.15" y2="334.52"/>
			</g>
		</g>
		<g>
			<polygon class="st15" points="269.96,331.68 271.39,334.44 265.73,338.43 264.31,335.67 			"/>
			<g>
				<line class="st6" x1="265.75" y1="338.07" x2="271.17" y2="334.25"/>
				<line class="st6" x1="264.41" y1="335.47" x2="269.83" y2="331.65"/>
			</g>
		</g>
	</g>
	<line class="st6" x1="262.82" y1="299.98" x2="262.82" y2="324.98"/>
	<g>
		<g>
			<ellipse class="st13" cx="262.82" cy="283.83" rx="8.05" ry="3.38"/>
			<path class="st13" d="M262.82,280.95c4.61,0,7.55,1.7,7.55,2.88s-2.94,2.88-7.55,2.88s-7.55-1.7-7.55-2.88
				S258.21,280.95,262.82,280.95 M262.82,279.95c-4.72,0-8.55,1.74-8.55,3.88s3.83,3.88,8.55,3.88s8.55-1.74,8.55-3.88
				S267.54,279.95,262.82,279.95L262.82,279.95z"/>
		</g>
		<g>
			<ellipse class="st13" cx="261.96" cy="281.67" rx="5.48" ry="2.08"/>
			<path class="st13" d="M261.96,280.09c3.24,0,4.98,1.12,4.98,1.58s-1.75,1.58-4.98,1.58s-4.98-1.12-4.98-1.58
				S258.73,280.09,261.96,280.09 M261.96,279.09c-3.3,0-5.98,1.16-5.98,2.58c0,1.43,2.68,2.58,5.98,2.58s5.98-1.16,5.98-2.58
				C267.95,280.25,265.27,279.09,261.96,279.09L261.96,279.09z"/>
		</g>
		<g>
			<ellipse class="st13" cx="262.82" cy="285.98" rx="5.48" ry="2.08"/>
			<path class="st13" d="M262.82,284.4c3.24,0,4.98,1.12,4.98,1.58s-1.75,1.58-4.98,1.58s-4.98-1.12-4.98-1.58
				S259.58,284.4,262.82,284.4 M262.82,283.4c-3.3,0-5.98,1.16-5.98,2.58c0,1.43,2.68,2.58,5.98,2.58s5.98-1.16,5.98-2.58
				C268.8,284.55,266.12,283.4,262.82,283.4L262.82,283.4z"/>
		</g>
	</g>
	<g>
		<path class="st12" d="M262.82,267.62c5.51,0,10,4.49,10,10s-4.49,10-10,10s-10-4.49-10-10S257.31,267.62,262.82,267.62
			 M262.82,266.62c-6.08,0-11,4.92-11,11s4.92,11,11,11s11-4.92,11-11S268.89,266.62,262.82,266.62L262.82,266.62z"/>
	</g>
	<g>
		<path class="st12" d="M262.82,279.57c5.51,0,10,4.49,10,10s-4.49,10-10,10s-10-4.49-10-10S257.31,279.57,262.82,279.57
			 M262.82,278.57c-6.08,0-11,4.92-11,11s4.92,11,11,11s11-4.92,11-11S268.89,278.57,262.82,278.57L262.82,278.57z"/>
	</g>
	<line class="st6" x1="273.82" y1="313.9" x2="251.82" y2="313.9"/>
	<line class="st6" x1="274.47" y1="317.37" x2="274.47" y2="310.28"/>
	<line class="st6" x1="262.82" y1="241.87" x2="262.82" y2="266.87"/>
</g>
<g>
	<line class="st6" x1="286.59" y1="317.15" x2="286.59" y2="310.06"/>
	<rect x="282.32" y="252.21" class="st5" width="31" height="100"/>
	<g>
		<line class="st6" x1="287.74" y1="345.75" x2="307.64" y2="345.75"/>
		<line class="st6" x1="287.76" y1="345.44" x2="297.71" y2="325.29"/>
		<line class="st6" x1="297.95" y1="325.29" x2="307.9" y2="345.44"/>
		<g>
			<rect x="295.87" y="341.76" class="st15" width="2.75" height="7.73"/>
			<g>
				<line class="st6" x1="296.12" y1="341.96" x2="296.12" y2="349.37"/>
				<line class="st6" x1="298.71" y1="341.96" x2="298.71" y2="349.37"/>
			</g>
		</g>
		<g>
			<polygon class="st15" points="296.19,334.68 294.79,337.45 289.1,333.53 290.5,330.75 			"/>
			<g>
				<line class="st6" x1="289.38" y1="333.38" x2="294.83" y2="337.14"/>
				<line class="st6" x1="290.7" y1="330.76" x2="296.15" y2="334.52"/>
			</g>
		</g>
		<g>
			<polygon class="st15" points="304.96,331.68 306.39,334.44 300.73,338.43 299.31,335.67 			"/>
			<g>
				<line class="st6" x1="300.75" y1="338.07" x2="306.17" y2="334.25"/>
				<line class="st6" x1="299.41" y1="335.47" x2="304.83" y2="331.65"/>
			</g>
		</g>
	</g>
	<line class="st6" x1="297.82" y1="299.98" x2="297.82" y2="324.98"/>
	<g>
		<g>
			<ellipse class="st13" cx="297.82" cy="283.83" rx="8.05" ry="3.38"/>
			<path class="st13" d="M297.82,280.95c4.61,0,7.55,1.7,7.55,2.88s-2.94,2.88-7.55,2.88s-7.55-1.7-7.55-2.88
				S293.21,280.95,297.82,280.95 M297.82,279.95c-4.72,0-8.55,1.74-8.55,3.88s3.83,3.88,8.55,3.88s8.55-1.74,8.55-3.88
				S302.54,279.95,297.82,279.95L297.82,279.95z"/>
		</g>
		<g>
			<ellipse class="st13" cx="296.96" cy="281.67" rx="5.48" ry="2.08"/>
			<path class="st13" d="M296.96,280.09c3.24,0,4.98,1.12,4.98,1.58s-1.75,1.58-4.98,1.58s-4.98-1.12-4.98-1.58
				S293.73,280.09,296.96,280.09 M296.96,279.09c-3.3,0-5.98,1.16-5.98,2.58c0,1.43,2.68,2.58,5.98,2.58s5.98-1.16,5.98-2.58
				C302.95,280.25,300.27,279.09,296.96,279.09L296.96,279.09z"/>
		</g>
		<g>
			<ellipse class="st13" cx="297.82" cy="285.98" rx="5.48" ry="2.08"/>
			<path class="st13" d="M297.82,284.4c3.24,0,4.98,1.12,4.98,1.58s-1.75,1.58-4.98,1.58s-4.98-1.12-4.98-1.58
				S294.58,284.4,297.82,284.4 M297.82,283.4c-3.3,0-5.98,1.16-5.98,2.58c0,1.43,2.68,2.58,5.98,2.58s5.98-1.16,5.98-2.58
				C303.8,284.55,301.12,283.4,297.82,283.4L297.82,283.4z"/>
		</g>
	</g>
	<g>
		<path class="st12" d="M297.82,267.62c5.51,0,10,4.49,10,10s-4.49,10-10,10s-10-4.49-10-10S292.31,267.62,297.82,267.62
			 M297.82,266.62c-6.08,0-11,4.92-11,11s4.92,11,11,11s11-4.92,11-11S303.89,266.62,297.82,266.62L297.82,266.62z"/>
	</g>
	<g>
		<path class="st12" d="M297.82,279.57c5.51,0,10,4.49,10,10s-4.49,10-10,10s-10-4.49-10-10S292.31,279.57,297.82,279.57
			 M297.82,278.57c-6.08,0-11,4.92-11,11s4.92,11,11,11s11-4.92,11-11S303.89,278.57,297.82,278.57L297.82,278.57z"/>
	</g>
	<line class="st6" x1="308.82" y1="313.9" x2="286.82" y2="313.9"/>
	<line class="st6" x1="309.47" y1="317.37" x2="309.47" y2="310.28"/>
	<line class="st6" x1="297.82" y1="241.87" x2="297.82" y2="266.87"/>
</g>
<g>
	<line class="st6" x1="322.59" y1="317.15" x2="322.59" y2="310.06"/>
	<rect x="318.32" y="252.21" class="st5" width="31" height="100"/>
	<g>
		<line class="st6" x1="323.74" y1="345.75" x2="343.64" y2="345.75"/>
		<line class="st6" x1="323.76" y1="345.44" x2="333.71" y2="325.29"/>
		<line class="st6" x1="333.95" y1="325.29" x2="343.9" y2="345.44"/>
		<g>
			<rect x="331.87" y="341.76" class="st15" width="2.75" height="7.73"/>
			<g>
				<line class="st6" x1="332.12" y1="341.96" x2="332.12" y2="349.37"/>
				<line class="st6" x1="334.71" y1="341.96" x2="334.71" y2="349.37"/>
			</g>
		</g>
		<g>
			<polygon class="st15" points="332.19,334.68 330.79,337.45 325.1,333.53 326.5,330.75 			"/>
			<g>
				<line class="st6" x1="325.38" y1="333.38" x2="330.83" y2="337.14"/>
				<line class="st6" x1="326.7" y1="330.76" x2="332.15" y2="334.52"/>
			</g>
		</g>
		<g>
			<polygon class="st15" points="340.96,331.68 342.39,334.44 336.73,338.43 335.31,335.67 			"/>
			<g>
				<line class="st6" x1="336.75" y1="338.07" x2="342.17" y2="334.25"/>
				<line class="st6" x1="335.41" y1="335.47" x2="340.83" y2="331.65"/>
			</g>
		</g>
	</g>
	<line class="st6" x1="333.82" y1="299.98" x2="333.82" y2="324.98"/>
	<g>
		<g>
			<ellipse class="st13" cx="333.82" cy="283.83" rx="8.05" ry="3.38"/>
			<path class="st13" d="M333.82,280.95c4.61,0,7.55,1.7,7.55,2.88s-2.94,2.88-7.55,2.88s-7.55-1.7-7.55-2.88
				S329.21,280.95,333.82,280.95 M333.82,279.95c-4.72,0-8.55,1.74-8.55,3.88s3.83,3.88,8.55,3.88s8.55-1.74,8.55-3.88
				S338.54,279.95,333.82,279.95L333.82,279.95z"/>
		</g>
		<g>
			<ellipse class="st13" cx="332.96" cy="281.67" rx="5.48" ry="2.08"/>
			<path class="st13" d="M332.96,280.09c3.24,0,4.98,1.12,4.98,1.58s-1.75,1.58-4.98,1.58s-4.98-1.12-4.98-1.58
				S329.73,280.09,332.96,280.09 M332.96,279.09c-3.3,0-5.98,1.16-5.98,2.58c0,1.43,2.68,2.58,5.98,2.58s5.98-1.16,5.98-2.58
				C338.95,280.25,336.27,279.09,332.96,279.09L332.96,279.09z"/>
		</g>
		<g>
			<ellipse class="st13" cx="333.82" cy="285.98" rx="5.48" ry="2.08"/>
			<path class="st13" d="M333.82,284.4c3.24,0,4.98,1.12,4.98,1.58s-1.75,1.58-4.98,1.58s-4.98-1.12-4.98-1.58
				S330.58,284.4,333.82,284.4 M333.82,283.4c-3.3,0-5.98,1.16-5.98,2.58c0,1.43,2.68,2.58,5.98,2.58s5.98-1.16,5.98-2.58
				C339.8,284.55,337.12,283.4,333.82,283.4L333.82,283.4z"/>
		</g>
	</g>
	<g>
		<path class="st12" d="M333.82,267.62c5.51,0,10,4.49,10,10s-4.49,10-10,10s-10-4.49-10-10S328.31,267.62,333.82,267.62
			 M333.82,266.62c-6.08,0-11,4.92-11,11s4.92,11,11,11s11-4.92,11-11S339.89,266.62,333.82,266.62L333.82,266.62z"/>
	</g>
	<g>
		<path class="st12" d="M333.82,279.57c5.51,0,10,4.49,10,10s-4.49,10-10,10s-10-4.49-10-10S328.31,279.57,333.82,279.57
			 M333.82,278.57c-6.08,0-11,4.92-11,11s4.92,11,11,11s11-4.92,11-11S339.89,278.57,333.82,278.57L333.82,278.57z"/>
	</g>
	<line class="st6" x1="344.82" y1="313.9" x2="322.82" y2="313.9"/>
	<line class="st6" x1="345.47" y1="317.37" x2="345.47" y2="310.28"/>
	<line class="st6" x1="333.82" y1="241.87" x2="333.82" y2="266.87"/>
</g>
<g>
	<line class="st6" x1="357.59" y1="317.15" x2="357.59" y2="310.06"/>
	<rect x="353.32" y="252.21" class="st5" width="31" height="100"/>
	<g>
		<line class="st6" x1="358.74" y1="345.75" x2="378.64" y2="345.75"/>
		<line class="st6" x1="358.76" y1="345.44" x2="368.71" y2="325.29"/>
		<line class="st6" x1="368.95" y1="325.29" x2="378.9" y2="345.44"/>
		<g>
			<rect x="366.87" y="341.76" class="st15" width="2.75" height="7.73"/>
			<g>
				<line class="st6" x1="367.12" y1="341.96" x2="367.12" y2="349.37"/>
				<line class="st6" x1="369.71" y1="341.96" x2="369.71" y2="349.37"/>
			</g>
		</g>
		<g>
			<polygon class="st15" points="367.19,334.68 365.79,337.45 360.1,333.53 361.5,330.75 			"/>
			<g>
				<line class="st6" x1="360.38" y1="333.38" x2="365.83" y2="337.14"/>
				<line class="st6" x1="361.7" y1="330.76" x2="367.15" y2="334.52"/>
			</g>
		</g>
		<g>
			<polygon class="st15" points="375.96,331.68 377.39,334.44 371.73,338.43 370.31,335.67 			"/>
			<g>
				<line class="st6" x1="371.75" y1="338.07" x2="377.17" y2="334.25"/>
				<line class="st6" x1="370.41" y1="335.47" x2="375.83" y2="331.65"/>
			</g>
		</g>
	</g>
	<line class="st6" x1="368.82" y1="299.98" x2="368.82" y2="324.98"/>
	<g>
		<g>
			<ellipse class="st13" cx="368.82" cy="283.83" rx="8.05" ry="3.38"/>
			<path class="st13" d="M368.82,280.95c4.61,0,7.55,1.7,7.55,2.88s-2.94,2.88-7.55,2.88s-7.55-1.7-7.55-2.88
				S364.21,280.95,368.82,280.95 M368.82,279.95c-4.72,0-8.55,1.74-8.55,3.88s3.83,3.88,8.55,3.88s8.55-1.74,8.55-3.88
				S373.54,279.95,368.82,279.95L368.82,279.95z"/>
		</g>
		<g>
			<ellipse class="st13" cx="367.96" cy="281.67" rx="5.48" ry="2.08"/>
			<path class="st13" d="M367.96,280.09c3.24,0,4.98,1.12,4.98,1.58s-1.75,1.58-4.98,1.58s-4.98-1.12-4.98-1.58
				S364.73,280.09,367.96,280.09 M367.96,279.09c-3.3,0-5.98,1.16-5.98,2.58c0,1.43,2.68,2.58,5.98,2.58s5.98-1.16,5.98-2.58
				C373.95,280.25,371.27,279.09,367.96,279.09L367.96,279.09z"/>
		</g>
		<g>
			<ellipse class="st13" cx="368.82" cy="285.98" rx="5.48" ry="2.08"/>
			<path class="st13" d="M368.82,284.4c3.24,0,4.98,1.12,4.98,1.58s-1.75,1.58-4.98,1.58s-4.98-1.12-4.98-1.58
				S365.58,284.4,368.82,284.4 M368.82,283.4c-3.3,0-5.98,1.16-5.98,2.58c0,1.43,2.68,2.58,5.98,2.58s5.98-1.16,5.98-2.58
				C374.8,284.55,372.12,283.4,368.82,283.4L368.82,283.4z"/>
		</g>
	</g>
	<g>
		<path class="st12" d="M368.82,267.62c5.51,0,10,4.49,10,10s-4.49,10-10,10s-10-4.49-10-10S363.31,267.62,368.82,267.62
			 M368.82,266.62c-6.08,0-11,4.92-11,11s4.92,11,11,11s11-4.92,11-11S374.89,266.62,368.82,266.62L368.82,266.62z"/>
	</g>
	<g>
		<path class="st12" d="M368.82,279.57c5.51,0,10,4.49,10,10s-4.49,10-10,10s-10-4.49-10-10S363.31,279.57,368.82,279.57
			 M368.82,278.57c-6.08,0-11,4.92-11,11s4.92,11,11,11s11-4.92,11-11S374.89,278.57,368.82,278.57L368.82,278.57z"/>
	</g>
	<line class="st6" x1="379.82" y1="313.9" x2="357.82" y2="313.9"/>
	<line class="st6" x1="380.47" y1="317.37" x2="380.47" y2="310.28"/>
	<line class="st6" x1="368.82" y1="241.87" x2="368.82" y2="266.87"/>
</g>
<rect x="389.82" y="252.21" class="st5" width="32" height="100"/>
<g>
	<path class="st12" d="M405.82,267.59c5.51,0,10,4.49,10,10s-4.49,10-10,10s-10-4.49-10-10S400.31,267.59,405.82,267.59
		 M405.82,266.59c-6.08,0-11,4.92-11,11s4.92,11,11,11s11-4.92,11-11S411.89,266.59,405.82,266.59L405.82,266.59z"/>
</g>
<g>
	<path class="st12" d="M405.82,271.09c3.58,0,6.5,2.92,6.5,6.5s-2.92,6.5-6.5,6.5s-6.5-2.92-6.5-6.5S402.24,271.09,405.82,271.09
		 M405.82,270.09c-4.14,0-7.5,3.36-7.5,7.5c0,4.14,3.36,7.5,7.5,7.5s7.5-3.36,7.5-7.5C413.32,273.45,409.96,270.09,405.82,270.09
		L405.82,270.09z"/>
</g>
<line class="st6" x1="405.82" y1="241.28" x2="405.82" y2="266.28"/>
<text transform="matrix(0.6558 0 0 1 394.6657 304.0008)"><tspan x="0" y="0" class="st0 st1 st3">17M-1</tspan><tspan x="5.33" y="14.4" class="st0 st1 st3">/630</tspan><tspan x="7.34" y="28.8" class="st0 st1 st3">KW</tspan></text>
<rect x="425.82" y="252.21" class="st5" width="32" height="100"/>
<g>
	<path class="st12" d="M441.82,267.59c5.51,0,10,4.49,10,10s-4.49,10-10,10s-10-4.49-10-10S436.31,267.59,441.82,267.59
		 M441.82,266.59c-6.08,0-11,4.92-11,11s4.92,11,11,11s11-4.92,11-11S447.89,266.59,441.82,266.59L441.82,266.59z"/>
</g>
<g>
	<path class="st12" d="M441.82,271.09c3.58,0,6.5,2.92,6.5,6.5s-2.92,6.5-6.5,6.5s-6.5-2.92-6.5-6.5S438.24,271.09,441.82,271.09
		 M441.82,270.09c-4.14,0-7.5,3.36-7.5,7.5c0,4.14,3.36,7.5,7.5,7.5s7.5-3.36,7.5-7.5C449.32,273.45,445.96,270.09,441.82,270.09
		L441.82,270.09z"/>
</g>
<line class="st6" x1="441.82" y1="241.28" x2="441.82" y2="266.28"/>
<text transform="matrix(0.6558 0 0 1 430.6657 304.0008)"><tspan x="0" y="0" class="st0 st1 st3">17M-3</tspan><tspan x="5.33" y="14.4" class="st0 st1 st3">/630</tspan><tspan x="7.34" y="28.8" class="st0 st1 st3">KW</tspan></text>
<rect x="461.82" y="252.21" class="st5" width="32" height="100"/>
<g>
	<path class="st12" d="M477.82,267.59c5.51,0,10,4.49,10,10s-4.49,10-10,10s-10-4.49-10-10S472.31,267.59,477.82,267.59
		 M477.82,266.59c-6.08,0-11,4.92-11,11s4.92,11,11,11s11-4.92,11-11S483.89,266.59,477.82,266.59L477.82,266.59z"/>
</g>
<g>
	<path class="st12" d="M477.82,271.09c3.58,0,6.5,2.92,6.5,6.5s-2.92,6.5-6.5,6.5s-6.5-2.92-6.5-6.5S474.24,271.09,477.82,271.09
		 M477.82,270.09c-4.14,0-7.5,3.36-7.5,7.5s3.36,7.5,7.5,7.5s7.5-3.36,7.5-7.5S481.96,270.09,477.82,270.09L477.82,270.09z"/>
</g>
<line class="st6" x1="477.82" y1="241.28" x2="477.82" y2="266.28"/>
<text transform="matrix(0.6558 0 0 1 466.6657 304.0008)"><tspan x="0" y="0" class="st0 st1 st3">42M-2</tspan><tspan x="5.33" y="14.4" class="st0 st1 st3">/630</tspan><tspan x="7.34" y="28.8" class="st0 st1 st3">KW</tspan></text>
<rect x="497.82" y="252.21" class="st5" width="32" height="100"/>
<g>
	<path class="st12" d="M513.82,267.59c5.51,0,10,4.49,10,10s-4.49,10-10,10s-10-4.49-10-10S508.31,267.59,513.82,267.59
		 M513.82,266.59c-6.08,0-11,4.92-11,11s4.92,11,11,11c6.08,0,11-4.92,11-11S519.89,266.59,513.82,266.59L513.82,266.59z"/>
</g>
<g>
	<path class="st12" d="M513.82,271.09c3.58,0,6.5,2.92,6.5,6.5s-2.92,6.5-6.5,6.5s-6.5-2.92-6.5-6.5S510.23,271.09,513.82,271.09
		 M513.82,270.09c-4.14,0-7.5,3.36-7.5,7.5c0,4.14,3.36,7.5,7.5,7.5c4.14,0,7.5-3.36,7.5-7.5
		C521.32,273.45,517.96,270.09,513.82,270.09L513.82,270.09z"/>
</g>
<line class="st6" x1="513.82" y1="241.28" x2="513.82" y2="266.28"/>
<text transform="matrix(0.6558 0 0 1 502.6657 304.0008)"><tspan x="0" y="0" class="st0 st1 st3">17M-6</tspan><tspan x="5.33" y="14.4" class="st0 st1 st3">/630</tspan><tspan x="7.34" y="28.8" class="st0 st1 st3">KW</tspan></text>
<rect x="533.82" y="252.21" class="st5" width="32" height="100"/>
<g>
	<path class="st12" d="M549.82,267.59c5.51,0,10,4.49,10,10s-4.49,10-10,10s-10-4.49-10-10S544.31,267.59,549.82,267.59
		 M549.82,266.59c-6.08,0-11,4.92-11,11s4.92,11,11,11s11-4.92,11-11S555.89,266.59,549.82,266.59L549.82,266.59z"/>
</g>
<g>
	<path class="st12" d="M549.82,271.09c3.58,0,6.5,2.92,6.5,6.5s-2.92,6.5-6.5,6.5s-6.5-2.92-6.5-6.5S546.24,271.09,549.82,271.09
		 M549.82,270.09c-4.14,0-7.5,3.36-7.5,7.5s3.36,7.5,7.5,7.5s7.5-3.36,7.5-7.5S553.96,270.09,549.82,270.09L549.82,270.09z"/>
</g>
<line class="st6" x1="549.82" y1="241.28" x2="549.82" y2="266.28"/>
<text transform="matrix(0.6558 0 0 1 538.6657 304.0008)"><tspan x="0" y="0" class="st0 st1 st3">47M-2</tspan><tspan x="5.33" y="14.4" class="st0 st1 st3">/630</tspan><tspan x="7.34" y="28.8" class="st0 st1 st3">KW</tspan></text>
<rect x="569.82" y="252.21" class="st5" width="32" height="100"/>
<g>
	<path class="st12" d="M585.82,267.59c5.51,0,10,4.49,10,10s-4.49,10-10,10s-10-4.49-10-10S580.31,267.59,585.82,267.59
		 M585.82,266.59c-6.08,0-11,4.92-11,11s4.92,11,11,11c6.08,0,11-4.92,11-11S591.89,266.59,585.82,266.59L585.82,266.59z"/>
</g>
<g>
	<circle class="st13" cx="585.82" cy="277.59" r="7"/>
	<path class="st12" d="M585.82,271.09c3.58,0,6.5,2.92,6.5,6.5s-2.92,6.5-6.5,6.5s-6.5-2.92-6.5-6.5S582.23,271.09,585.82,271.09
		 M585.82,270.09c-4.14,0-7.5,3.36-7.5,7.5c0,4.14,3.36,7.5,7.5,7.5c4.14,0,7.5-3.36,7.5-7.5
		C593.32,273.45,589.96,270.09,585.82,270.09L585.82,270.09z"/>
</g>
<line class="st6" x1="585.82" y1="240.71" x2="585.82" y2="265.71"/>
<text transform="matrix(0.6558 0 0 1 574.6653 304.2581)"><tspan x="0" y="0" class="st0 st1 st3">10M-4</tspan><tspan x="5.33" y="14.4" class="st0 st1 st3">/630</tspan><tspan x="7.34" y="28.8" class="st0 st1 st3">KW</tspan></text>
<rect x="641.82" y="252.21" class="st5" width="32" height="100"/>
<g>
	<path class="st12" d="M657.82,267.59c5.51,0,10,4.49,10,10s-4.49,10-10,10s-10-4.49-10-10S652.31,267.59,657.82,267.59
		 M657.82,266.59c-6.08,0-11,4.92-11,11s4.92,11,11,11c6.08,0,11-4.92,11-11S663.89,266.59,657.82,266.59L657.82,266.59z"/>
</g>
<g>
	<path class="st12" d="M657.82,271.09c3.58,0,6.5,2.92,6.5,6.5s-2.92,6.5-6.5,6.5s-6.5-2.92-6.5-6.5S654.23,271.09,657.82,271.09
		 M657.82,270.09c-4.14,0-7.5,3.36-7.5,7.5c0,4.14,3.36,7.5,7.5,7.5c4.14,0,7.5-3.36,7.5-7.5
		C665.32,273.45,661.96,270.09,657.82,270.09L657.82,270.09z"/>
</g>
<line class="st6" x1="657.82" y1="241.28" x2="657.82" y2="266.28"/>
<text transform="matrix(0.6558 0 0 1 646.6658 304.0008)"><tspan x="0" y="0" class="st0 st1 st3">10M-6</tspan><tspan x="5.33" y="14.4" class="st0 st1 st3">/630</tspan><tspan x="7.34" y="28.8" class="st0 st1 st3">KW</tspan></text>
<rect x="676.82" y="252.21" class="st5" width="32" height="100"/>
<g>
	<path class="st12" d="M692.82,267.59c5.51,0,10,4.49,10,10s-4.49,10-10,10s-10-4.49-10-10S687.31,267.59,692.82,267.59
		 M692.82,266.59c-6.08,0-11,4.92-11,11s4.92,11,11,11c6.08,0,11-4.92,11-11S698.89,266.59,692.82,266.59L692.82,266.59z"/>
</g>
<g>
	<path class="st12" d="M692.82,271.09c3.58,0,6.5,2.92,6.5,6.5s-2.92,6.5-6.5,6.5s-6.5-2.92-6.5-6.5S689.23,271.09,692.82,271.09
		 M692.82,270.09c-4.14,0-7.5,3.36-7.5,7.5c0,4.14,3.36,7.5,7.5,7.5c4.14,0,7.5-3.36,7.5-7.5
		C700.32,273.45,696.96,270.09,692.82,270.09L692.82,270.09z"/>
</g>
<line class="st6" x1="692.82" y1="241.28" x2="692.82" y2="266.28"/>
<text transform="matrix(0.6558 0 0 1 681.6658 304.0008)"><tspan x="0" y="0" class="st0 st1 st3">51M-2</tspan><tspan x="5.33" y="14.4" class="st0 st1 st3">/400</tspan><tspan x="7.34" y="28.8" class="st0 st1 st3">KW</tspan></text>
</svg>
