<?xml version="1.0" encoding="utf-8"?>
<!-- Generator: Adobe Illustrator 27.1.1, SVG Export Plug-In . SVG Version: 6.00 Build 0)  -->
<svg version="1.1" id="Layer_1" xmlns="http://www.w3.org/2000/svg" xmlns:xlink="http://www.w3.org/1999/xlink" x="0px" y="0px"
	 viewBox="0 0 692 365" style="enable-background:new 0 0 692 365;" xml:space="preserve">
<style type="text/css">
	.st0{fill:#212830;}
	.st1{font-family:'ArialMT';}
	.st2{font-size:21px;}
	.st3{font-size:12px;}
	.st4{fill:none;stroke:#000000;stroke-miterlimit:10;}
	.st5{fill:none;stroke:#212830;stroke-linecap:square;stroke-miterlimit:10;}
	.st6{fill:none;stroke:#FF0000;stroke-linecap:square;stroke-miterlimit:10;}
	.st7{fill:#FF0000;stroke:#FF0000;stroke-linecap:square;stroke-miterlimit:10;}
	.st8{font-family:'Arial-ItalicMT';}
	.st9{fill:#F7931E;}
	.st10{fill:#F15A24;}
	.st11{font-size:14px;}
	.st12{fill:#E6E6E6;stroke:#FF0000;stroke-miterlimit:10;}
	.st13{font-size:9px;}
	.st14{fill:#FF00FF;}
	.st15{fill:#FF0000;}
	.st16{stroke:#000000;stroke-linecap:square;stroke-miterlimit:10;}
</style>
<text transform="matrix(0.7128 0 0 1 327.5436 27.4981)" class="st0 st1 st2">TRẠM RP1</text>
<text transform="matrix(0.6726 0 0 1 66.6386 130.1914)" class="st0 st1 st3">19</text>
<g>
	<rect x="57.84" y="87.46" class="st4" width="9" height="17"/>
	<line class="st5" x1="62.34" y1="86.88" x2="62.34" y2="79.46"/>
	<line class="st5" x1="62.34" y1="112.88" x2="62.34" y2="104.85"/>
	<g>
		<line class="st5" x1="58.59" y1="82.21" x2="62.07" y2="78.71"/>
		<line class="st5" x1="66.09" y1="82.21" x2="62.61" y2="78.71"/>
	</g>
	<g>
		<line class="st6" x1="58.59" y1="78.09" x2="62.07" y2="74.59"/>
		<line class="st6" x1="66.09" y1="78.09" x2="62.61" y2="74.59"/>
	</g>
	<g>
		<line class="st5" x1="66.09" y1="109.59" x2="62.61" y2="113.09"/>
		<line class="st5" x1="58.59" y1="109.59" x2="62.07" y2="113.09"/>
	</g>
	<g>
		<line class="st5" x1="66.09" y1="113.59" x2="62.61" y2="117.09"/>
		<line class="st5" x1="58.59" y1="113.59" x2="62.07" y2="117.09"/>
	</g>
</g>
<g>
	<line class="st5" x1="121.17" y1="112.88" x2="121.17" y2="79.16"/>
	<g>
		<line class="st5" x1="117.42" y1="82.21" x2="120.9" y2="78.71"/>
		<line class="st5" x1="124.92" y1="82.21" x2="121.43" y2="78.71"/>
	</g>
	<g>
		<line class="st6" x1="117.42" y1="78.09" x2="120.9" y2="74.59"/>
		<line class="st6" x1="124.92" y1="78.09" x2="121.43" y2="74.59"/>
	</g>
	<g>
		<line class="st5" x1="124.92" y1="109.59" x2="121.43" y2="113.09"/>
		<line class="st5" x1="117.42" y1="109.59" x2="120.9" y2="113.09"/>
	</g>
	<g>
		<line class="st5" x1="124.92" y1="113.59" x2="121.43" y2="117.09"/>
		<line class="st5" x1="117.42" y1="113.59" x2="120.9" y2="117.09"/>
	</g>
</g>
<line class="st5" x1="120.99" y1="132.52" x2="120.99" y2="117.52"/>
<line class="st5" x1="61.99" y1="132.57" x2="61.99" y2="117.57"/>
<line class="st7" x1="62.45" y1="60.02" x2="121.5" y2="60.02"/>
<line class="st7" x1="62.6" y1="74.94" x2="62.6" y2="59.94"/>
<line class="st7" x1="121.6" y1="74.94" x2="121.6" y2="59.94"/>
<text transform="matrix(0.7096 0 0 1 13.6534 155.4373)" class="st0 st8 st3">PHÂN ĐOẠN 1</text>
<rect x="107.13" y="132.78" class="st9" width="565.37" height="6"/>
<rect x="185.88" y="132.77" class="st10" width="5.41" height="5.5"/>
<rect x="221.93" y="132.77" class="st10" width="5.41" height="5.5"/>
<rect x="118.36" y="132.77" class="st10" width="5.41" height="5.5"/>
<rect x="150.93" y="132.77" class="st10" width="5.41" height="5.5"/>
<text transform="matrix(0.4589 0 0 1 125.7032 129.6183)" class="st0 st1 st3">20</text>
<text transform="matrix(0.6726 0 0 1 151.2746 129.6179)" class="st0 st1 st3">22</text>
<text transform="matrix(0.6726 0 0 1 187.2252 129.6179)" class="st0 st1 st3">23</text>
<text transform="matrix(0.6726 0 0 1 223.2718 129.6179)" class="st0 st1 st3">24</text>
<rect x="258.45" y="132.77" class="st10" width="5.41" height="5.5"/>
<text transform="matrix(0.6726 0 0 1 259.7912 129.6181)" class="st0 st1 st3">25</text>
<rect x="294.87" y="132.77" class="st10" width="5.41" height="5.5"/>
<text transform="matrix(0.6726 0 0 1 295.2153 129.6179)" class="st0 st1 st3">26</text>
<g>
	<rect x="363.8" y="88.02" class="st4" width="9" height="17"/>
	<line class="st5" x1="368.3" y1="87.44" x2="368.3" y2="80.02"/>
	<line class="st5" x1="368.3" y1="113.44" x2="368.3" y2="105.41"/>
	<g>
		<line class="st5" x1="364.55" y1="82.77" x2="368.03" y2="79.27"/>
		<line class="st5" x1="372.05" y1="82.77" x2="368.56" y2="79.27"/>
	</g>
	<g>
		<line class="st6" x1="364.55" y1="78.64" x2="368.03" y2="75.14"/>
		<line class="st6" x1="372.05" y1="78.64" x2="368.56" y2="75.14"/>
	</g>
	<g>
		<line class="st5" x1="372.05" y1="110.14" x2="368.56" y2="113.64"/>
		<line class="st5" x1="364.55" y1="110.14" x2="368.03" y2="113.64"/>
	</g>
	<g>
		<line class="st5" x1="372.05" y1="114.14" x2="368.56" y2="117.64"/>
		<line class="st5" x1="364.55" y1="114.14" x2="368.03" y2="117.64"/>
	</g>
</g>
<line class="st5" x1="368.3" y1="132.4" x2="368.3" y2="117.4"/>
<line class="st6" x1="368.62" y1="75.06" x2="368.62" y2="50.06"/>
<g>
	<polyline class="st7" points="364.91,41.99 368.45,50.54 372.33,41.95 	"/>
</g>
<text transform="matrix(0.7096 0 0 1 341.5984 59.4135)" class="st0 st8 st11">682</text>
<rect x="329.82" y="132.77" class="st10" width="5.41" height="5.5"/>
<text transform="matrix(0.6726 0 0 1 332.1658 129.6179)" class="st0 st1 st3">27</text>
<rect x="365.39" y="132.77" class="st10" width="5.41" height="5.5"/>
<rect x="400.89" y="132.77" class="st10" width="5.41" height="5.5"/>
<text transform="matrix(0.6726 0 0 1 371.7318 129.6181)" class="st0 st1 st3">29</text>
<rect x="436.73" y="132.77" class="st10" width="5.41" height="5.5"/>
<rect x="472.78" y="132.77" class="st10" width="5.41" height="5.5"/>
<text transform="matrix(0.6726 0 0 1 436.0797 129.6177)" class="st0 st1 st3">31</text>
<text transform="matrix(0.6726 0 0 1 471.1263 129.6177)" class="st0 st1 st3">32</text>
<rect x="509.3" y="132.77" class="st10" width="5.41" height="5.5"/>
<rect x="544.8" y="132.77" class="st10" width="5.41" height="5.5"/>
<text transform="matrix(0.6726 0 0 1 507.6458 129.6179)" class="st0 st1 st3">33</text>
<rect x="581.73" y="132.77" class="st10" width="5.41" height="5.5"/>
<rect x="617.78" y="132.77" class="st10" width="5.41" height="5.5"/>
<text transform="matrix(0.6726 0 0 1 581.0797 129.618)" class="st0 st1 st3">35</text>
<text transform="matrix(0.6726 0 0 1 616.1263 129.618)" class="st0 st1 st3">36</text>
<rect x="654.3" y="132.77" class="st10" width="5.41" height="5.5"/>
<text transform="matrix(0.6726 0 0 1 653.6458 129.6182)" class="st0 st1 st3">37</text>
<text transform="matrix(0.6726 0 0 1 399.0322 129.1914)" class="st0 st1 st3">30</text>
<text transform="matrix(0.6726 0 0 1 544.0322 129.1914)" class="st0 st1 st3">34</text>
<g>
	<line class="st6" x1="620.2" y1="240.7" x2="620.2" y2="287"/>
	<g>
		<line class="st6" x1="610.12" y1="306.99" x2="630.03" y2="306.99"/>
		<line class="st6" x1="610.14" y1="306.69" x2="620.1" y2="286.53"/>
		<line class="st6" x1="620.33" y1="286.53" x2="630.28" y2="306.69"/>
		<g>
			<rect x="618.25" y="303" class="st12" width="2.75" height="7.73"/>
			<g>
				<line class="st6" x1="618.5" y1="303.21" x2="618.5" y2="310.61"/>
				<line class="st6" x1="621.1" y1="303.21" x2="621.1" y2="310.61"/>
			</g>
		</g>
		<g>
			<polygon class="st12" points="618.57,295.92 617.17,298.69 611.48,294.77 612.88,292 			"/>
			<g>
				<line class="st6" x1="611.76" y1="294.62" x2="617.22" y2="298.38"/>
				<line class="st6" x1="613.08" y1="292.01" x2="618.53" y2="295.77"/>
			</g>
		</g>
		<g>
			<polygon class="st12" points="627.35,292.93 628.77,295.68 623.11,299.67 621.69,296.92 			"/>
			<g>
				<line class="st6" x1="623.13" y1="299.31" x2="628.55" y2="295.49"/>
				<line class="st6" x1="621.79" y1="296.72" x2="627.21" y2="292.89"/>
			</g>
		</g>
	</g>
	<rect x="604.7" y="275.73" class="st5" width="31" height="67.4"/>
	<text transform="matrix(0.6558 0 0 1 615.2794 320.1124)"><tspan x="0" y="0" class="st0 st1 st13">900</tspan><tspan x="-4.75" y="10.8" class="st0 st1 st13">KVAR</tspan></text>
</g>
<line class="st6" x1="572.71" y1="316.37" x2="572.71" y2="309.28"/>
<rect x="568.44" y="251.42" class="st5" width="31" height="100"/>
<g>
	<line class="st6" x1="573.86" y1="344.96" x2="593.77" y2="344.96"/>
	<line class="st6" x1="573.88" y1="344.66" x2="583.83" y2="324.5"/>
	<line class="st6" x1="584.07" y1="324.5" x2="594.02" y2="344.66"/>
	<g>
		<rect x="581.99" y="340.98" class="st12" width="2.75" height="7.73"/>
		<g>
			<line class="st6" x1="582.24" y1="341.18" x2="582.24" y2="348.58"/>
			<line class="st6" x1="584.83" y1="341.18" x2="584.83" y2="348.58"/>
		</g>
	</g>
	<g>
		<polygon class="st12" points="582.31,333.89 580.91,336.67 575.22,332.74 576.62,329.97 		"/>
		<g>
			<line class="st6" x1="575.5" y1="332.59" x2="580.95" y2="336.35"/>
			<line class="st6" x1="576.82" y1="329.98" x2="582.27" y2="333.74"/>
		</g>
	</g>
	<g>
		<polygon class="st12" points="591.08,330.9 592.51,333.66 586.85,337.65 585.43,334.89 		"/>
		<g>
			<line class="st6" x1="586.87" y1="337.29" x2="592.29" y2="333.46"/>
			<line class="st6" x1="585.53" y1="334.69" x2="590.95" y2="330.87"/>
		</g>
	</g>
</g>
<line class="st6" x1="583.94" y1="299.19" x2="583.94" y2="324.19"/>
<g>
	<g>
		<path class="st14" d="M583.94,286.42c-4.81,0-8.05-1.75-8.05-3.38s3.23-3.38,8.05-3.38c4.81,0,8.05,1.75,8.05,3.38
			S588.75,286.42,583.94,286.42z"/>
		<path class="st14" d="M583.94,280.17c4.61,0,7.55,1.7,7.55,2.88s-2.94,2.88-7.55,2.88s-7.55-1.7-7.55-2.88
			S579.33,280.17,583.94,280.17 M583.94,279.17c-4.72,0-8.55,1.74-8.55,3.88c0,2.14,3.83,3.88,8.55,3.88c4.72,0,8.55-1.74,8.55-3.88
			C592.49,280.9,588.66,279.17,583.94,279.17L583.94,279.17z"/>
	</g>
	<g>
		<path class="st14" d="M583.08,282.98c-3.14,0-5.48-1.1-5.48-2.08c0-0.98,2.34-2.08,5.48-2.08s5.48,1.1,5.48,2.08
			C588.57,281.88,586.22,282.98,583.08,282.98z"/>
		<path class="st14" d="M583.09,279.31c3.24,0,4.98,1.12,4.98,1.58s-1.75,1.58-4.98,1.58s-4.98-1.12-4.98-1.58
			S579.85,279.31,583.09,279.31 M583.09,278.31c-3.3,0-5.98,1.16-5.98,2.58c0,1.43,2.68,2.58,5.98,2.58s5.98-1.16,5.98-2.58
			C589.07,279.46,586.39,278.31,583.09,278.31L583.09,278.31z"/>
	</g>
	<g>
		<path class="st14" d="M583.94,287.28c-3.14,0-5.48-1.1-5.48-2.08c0-0.98,2.34-2.08,5.48-2.08s5.48,1.1,5.48,2.08
			C589.42,286.18,587.08,287.28,583.94,287.28z"/>
		<path class="st14" d="M583.94,283.61c3.24,0,4.98,1.12,4.98,1.58s-1.75,1.58-4.98,1.58s-4.98-1.12-4.98-1.58
			S580.7,283.61,583.94,283.61 M583.94,282.61c-3.3,0-5.98,1.16-5.98,2.58c0,1.43,2.68,2.58,5.98,2.58s5.98-1.16,5.98-2.58
			C589.92,283.77,587.24,282.61,583.94,282.61L583.94,282.61z"/>
	</g>
</g>
<g>
	<path class="st15" d="M583.94,266.84c5.51,0,10,4.49,10,10s-4.49,10-10,10s-10-4.49-10-10S578.43,266.84,583.94,266.84
		 M583.94,265.84c-6.08,0-11,4.92-11,11s4.92,11,11,11c6.08,0,11-4.92,11-11S590.01,265.84,583.94,265.84L583.94,265.84z"/>
</g>
<g>
	<path class="st15" d="M583.94,278.78c5.51,0,10,4.49,10,10s-4.49,10-10,10s-10-4.49-10-10S578.43,278.78,583.94,278.78
		 M583.94,277.78c-6.08,0-11,4.92-11,11s4.92,11,11,11c6.08,0,11-4.92,11-11S590.01,277.78,583.94,277.78L583.94,277.78z"/>
</g>
<line class="st6" x1="594.94" y1="313.12" x2="572.94" y2="313.12"/>
<line class="st6" x1="595.59" y1="316.59" x2="595.59" y2="309.5"/>
<line class="st6" x1="583.94" y1="241.09" x2="583.94" y2="266.09"/>
<text transform="matrix(0.7096 0 0 1 485.8627 98.2204)" class="st0 st8 st3">PHÂN ĐOẠN 2</text>
<rect x="17.62" y="132.74" class="st9" width="52.4" height="6"/>
<rect x="59.3" y="132.76" class="st10" width="5.41" height="5.5"/>
<line class="st6" x1="475.4" y1="316.86" x2="475.4" y2="309.77"/>
<rect x="459.9" y="251.91" class="st5" width="31" height="100"/>
<g>
	<line class="st6" x1="465.32" y1="345.45" x2="485.23" y2="345.45"/>
	<line class="st6" x1="465.34" y1="345.15" x2="475.29" y2="324.99"/>
	<line class="st6" x1="475.53" y1="324.99" x2="485.48" y2="345.15"/>
	<g>
		<rect x="473.45" y="341.46" class="st12" width="2.75" height="7.73"/>
		<g>
			<line class="st6" x1="473.7" y1="341.67" x2="473.7" y2="349.07"/>
			<line class="st6" x1="476.3" y1="341.67" x2="476.3" y2="349.07"/>
		</g>
	</g>
	<g>
		<polygon class="st12" points="473.77,334.38 472.37,337.16 466.68,333.23 468.08,330.46 		"/>
		<g>
			<line class="st6" x1="466.96" y1="333.08" x2="472.41" y2="336.84"/>
			<line class="st6" x1="468.28" y1="330.47" x2="473.73" y2="334.23"/>
		</g>
	</g>
	<g>
		<polygon class="st12" points="482.55,331.39 483.97,334.15 478.31,338.14 476.89,335.38 		"/>
		<g>
			<line class="st6" x1="478.33" y1="337.78" x2="483.75" y2="333.95"/>
			<line class="st6" x1="476.99" y1="335.18" x2="482.41" y2="331.36"/>
		</g>
	</g>
</g>
<line class="st6" x1="475.4" y1="299.68" x2="475.4" y2="324.68"/>
<g>
	<g>
		<path class="st14" d="M475.4,286.91c-4.81,0-8.05-1.75-8.05-3.38s3.23-3.38,8.05-3.38c4.81,0,8.05,1.75,8.05,3.38
			S480.21,286.91,475.4,286.91z"/>
		<path class="st14" d="M475.4,280.66c4.61,0,7.55,1.7,7.55,2.88s-2.94,2.88-7.55,2.88s-7.55-1.7-7.55-2.88
			S470.79,280.66,475.4,280.66 M475.4,279.66c-4.72,0-8.55,1.74-8.55,3.88s3.83,3.88,8.55,3.88s8.55-1.74,8.55-3.88
			S480.12,279.66,475.4,279.66L475.4,279.66z"/>
	</g>
	<g>
		<path class="st14" d="M474.55,283.46c-3.14,0-5.48-1.1-5.48-2.08c0-0.98,2.34-2.08,5.48-2.08s5.48,1.1,5.48,2.08
			C480.03,282.36,477.68,283.46,474.55,283.46z"/>
		<path class="st14" d="M474.55,279.8c3.24,0,4.98,1.12,4.98,1.58s-1.75,1.58-4.98,1.58s-4.98-1.12-4.98-1.58
			S471.31,279.8,474.55,279.8 M474.55,278.8c-3.3,0-5.98,1.16-5.98,2.58c0,1.43,2.68,2.58,5.98,2.58s5.98-1.16,5.98-2.58
			C480.53,279.95,477.85,278.8,474.55,278.8L474.55,278.8z"/>
	</g>
	<g>
		<path class="st14" d="M475.4,287.77c-3.14,0-5.48-1.1-5.48-2.08s2.34-2.08,5.48-2.08s5.48,1.1,5.48,2.08
			S478.54,287.77,475.4,287.77z"/>
		<path class="st14" d="M475.4,284.1c3.24,0,4.98,1.12,4.98,1.58s-1.75,1.58-4.98,1.58s-4.98-1.12-4.98-1.58
			S472.16,284.1,475.4,284.1 M475.4,283.1c-3.3,0-5.98,1.16-5.98,2.58c0,1.43,2.68,2.58,5.98,2.58s5.98-1.16,5.98-2.58
			C481.38,284.26,478.7,283.1,475.4,283.1L475.4,283.1z"/>
	</g>
</g>
<g>
	<path class="st15" d="M475.4,267.33c5.51,0,10,4.49,10,10s-4.49,10-10,10s-10-4.49-10-10S469.89,267.33,475.4,267.33 M475.4,266.33
		c-6.08,0-11,4.92-11,11s4.92,11,11,11s11-4.92,11-11S481.48,266.33,475.4,266.33L475.4,266.33z"/>
</g>
<g>
	<path class="st15" d="M475.4,279.27c5.51,0,10,4.49,10,10s-4.49,10-10,10s-10-4.49-10-10S469.89,279.27,475.4,279.27 M475.4,278.27
		c-6.08,0-11,4.92-11,11s4.92,11,11,11s11-4.92,11-11S481.48,278.27,475.4,278.27L475.4,278.27z"/>
</g>
<line class="st6" x1="486.4" y1="313.61" x2="464.4" y2="313.61"/>
<line class="st6" x1="487.35" y1="317.08" x2="487.35" y2="309.99"/>
<line class="st6" x1="475.4" y1="240.58" x2="475.4" y2="265.58"/>
<line class="st6" x1="500.46" y1="315.86" x2="500.46" y2="308.77"/>
<rect x="496.26" y="250.91" class="st5" width="31" height="100"/>
<g>
	<line class="st6" x1="501.68" y1="344.45" x2="521.59" y2="344.45"/>
	<line class="st6" x1="501.71" y1="344.15" x2="511.66" y2="323.99"/>
	<line class="st6" x1="511.89" y1="323.99" x2="521.84" y2="344.15"/>
	<g>
		<rect x="509.81" y="340.46" class="st12" width="2.75" height="7.73"/>
		<g>
			<line class="st6" x1="510.06" y1="340.67" x2="510.06" y2="348.07"/>
			<line class="st6" x1="512.66" y1="340.67" x2="512.66" y2="348.07"/>
		</g>
	</g>
	<g>
		<polygon class="st12" points="510.13,333.38 508.74,336.16 503.04,332.23 504.44,329.46 		"/>
		<g>
			<line class="st6" x1="503.32" y1="332.08" x2="508.78" y2="335.84"/>
			<line class="st6" x1="504.64" y1="329.47" x2="510.1" y2="333.23"/>
		</g>
	</g>
	<g>
		<polygon class="st12" points="518.91,330.39 520.33,333.15 514.67,337.14 513.25,334.38 		"/>
		<g>
			<line class="st6" x1="514.69" y1="336.78" x2="520.12" y2="332.95"/>
			<line class="st6" x1="513.35" y1="334.18" x2="518.78" y2="330.36"/>
		</g>
	</g>
</g>
<line class="st6" x1="511.76" y1="298.68" x2="511.76" y2="323.68"/>
<g>
	<g>
		<ellipse class="st14" cx="511.76" cy="282.53" rx="8.05" ry="3.38"/>
		<path class="st14" d="M511.76,279.66c4.61,0,7.55,1.7,7.55,2.88s-2.94,2.88-7.55,2.88c-4.61,0-7.55-1.7-7.55-2.88
			S507.16,279.66,511.76,279.66 M511.76,278.66c-4.72,0-8.55,1.74-8.55,3.88s3.83,3.88,8.55,3.88c4.72,0,8.55-1.74,8.55-3.88
			S516.48,278.66,511.76,278.66L511.76,278.66z"/>
	</g>
	<g>
		<path class="st14" d="M510.91,282.46c-3.14,0-5.48-1.1-5.48-2.08c0-0.98,2.34-2.08,5.48-2.08s5.48,1.1,5.48,2.08
			C516.39,281.36,514.05,282.46,510.91,282.46z"/>
		<path class="st14" d="M510.91,278.8c3.24,0,4.98,1.12,4.98,1.58s-1.75,1.58-4.98,1.58c-3.24,0-4.98-1.12-4.98-1.58
			S507.67,278.8,510.91,278.8 M510.91,277.8c-3.3,0-5.98,1.16-5.98,2.58c0,1.43,2.68,2.58,5.98,2.58c3.3,0,5.98-1.16,5.98-2.58
			C516.89,278.95,514.21,277.8,510.91,277.8L510.91,277.8z"/>
	</g>
	<g>
		<ellipse class="st14" cx="511.76" cy="284.69" rx="5.48" ry="2.08"/>
		<path class="st14" d="M511.76,283.1c3.24,0,4.98,1.12,4.98,1.58s-1.75,1.58-4.98,1.58c-3.24,0-4.98-1.12-4.98-1.58
			S508.53,283.1,511.76,283.1 M511.76,282.1c-3.3,0-5.98,1.16-5.98,2.58c0,1.43,2.68,2.58,5.98,2.58c3.3,0,5.98-1.16,5.98-2.58
			C517.75,283.26,515.07,282.1,511.76,282.1L511.76,282.1z"/>
	</g>
</g>
<g>
	<path class="st15" d="M511.76,266.33c5.51,0,10,4.49,10,10s-4.49,10-10,10s-10-4.49-10-10S506.25,266.33,511.76,266.33
		 M511.76,265.33c-6.08,0-11,4.92-11,11s4.92,11,11,11c6.08,0,11-4.92,11-11S517.84,265.33,511.76,265.33L511.76,265.33z"/>
</g>
<g>
	<path class="st15" d="M511.76,278.27c5.51,0,10,4.49,10,10s-4.49,10-10,10s-10-4.49-10-10S506.25,278.27,511.76,278.27
		 M511.76,277.27c-6.08,0-11,4.92-11,11s4.92,11,11,11c6.08,0,11-4.92,11-11S517.84,277.27,511.76,277.27L511.76,277.27z"/>
</g>
<line class="st6" x1="522.76" y1="312.61" x2="500.76" y2="312.61"/>
<line class="st6" x1="523.35" y1="316.08" x2="523.35" y2="308.99"/>
<line class="st6" x1="511.76" y1="240.58" x2="511.76" y2="265.58"/>
<line class="st6" x1="536.46" y1="316.86" x2="536.46" y2="309.77"/>
<rect x="532.11" y="251.91" class="st5" width="31" height="100"/>
<g>
	<line class="st6" x1="537.53" y1="345.45" x2="557.44" y2="345.45"/>
	<line class="st6" x1="537.55" y1="345.15" x2="547.5" y2="324.99"/>
	<line class="st6" x1="547.74" y1="324.99" x2="557.69" y2="345.15"/>
	<g>
		<rect x="545.66" y="341.46" class="st12" width="2.75" height="7.73"/>
		<g>
			<line class="st6" x1="545.91" y1="341.67" x2="545.91" y2="349.07"/>
			<line class="st6" x1="548.51" y1="341.67" x2="548.51" y2="349.07"/>
		</g>
	</g>
	<g>
		<polygon class="st12" points="545.98,334.38 544.58,337.16 538.89,333.23 540.29,330.46 		"/>
		<g>
			<line class="st6" x1="539.17" y1="333.08" x2="544.62" y2="336.84"/>
			<line class="st6" x1="540.49" y1="330.47" x2="545.94" y2="334.23"/>
		</g>
	</g>
	<g>
		<polygon class="st12" points="554.76,331.39 556.18,334.15 550.52,338.14 549.1,335.38 		"/>
		<g>
			<line class="st6" x1="550.54" y1="337.78" x2="555.96" y2="333.95"/>
			<line class="st6" x1="549.2" y1="335.18" x2="554.62" y2="331.36"/>
		</g>
	</g>
</g>
<line class="st6" x1="547.61" y1="299.68" x2="547.61" y2="324.68"/>
<g>
	<g>
		<ellipse class="st14" cx="547.61" cy="283.53" rx="8.05" ry="3.38"/>
		<path class="st14" d="M547.61,280.66c4.61,0,7.55,1.7,7.55,2.88s-2.94,2.88-7.55,2.88s-7.55-1.7-7.55-2.88
			S543,280.66,547.61,280.66 M547.61,279.66c-4.72,0-8.55,1.74-8.55,3.88s3.83,3.88,8.55,3.88c4.72,0,8.55-1.74,8.55-3.88
			S552.33,279.66,547.61,279.66L547.61,279.66z"/>
	</g>
	<g>
		<path class="st14" d="M546.76,283.46c-3.14,0-5.48-1.1-5.48-2.08c0-0.98,2.34-2.08,5.48-2.08s5.48,1.1,5.48,2.08
			C552.24,282.36,549.89,283.46,546.76,283.46z"/>
		<path class="st14" d="M546.76,279.8c3.24,0,4.98,1.12,4.98,1.58s-1.75,1.58-4.98,1.58s-4.98-1.12-4.98-1.58
			S543.52,279.8,546.76,279.8 M546.76,278.8c-3.3,0-5.98,1.16-5.98,2.58c0,1.43,2.68,2.58,5.98,2.58s5.98-1.16,5.98-2.58
			C552.74,279.95,550.06,278.8,546.76,278.8L546.76,278.8z"/>
	</g>
	<g>
		<ellipse class="st14" cx="547.61" cy="285.69" rx="5.48" ry="2.08"/>
		<path class="st14" d="M547.61,284.1c3.24,0,4.98,1.12,4.98,1.58s-1.75,1.58-4.98,1.58s-4.98-1.12-4.98-1.58
			S544.37,284.1,547.61,284.1 M547.61,283.1c-3.3,0-5.98,1.16-5.98,2.58c0,1.43,2.68,2.58,5.98,2.58s5.98-1.16,5.98-2.58
			C553.59,284.26,550.92,283.1,547.61,283.1L547.61,283.1z"/>
	</g>
</g>
<g>
	<path class="st15" d="M547.61,267.33c5.51,0,10,4.49,10,10s-4.49,10-10,10s-10-4.49-10-10S542.1,267.33,547.61,267.33
		 M547.61,266.33c-6.08,0-11,4.92-11,11s4.92,11,11,11c6.08,0,11-4.92,11-11S553.69,266.33,547.61,266.33L547.61,266.33z"/>
</g>
<g>
	<path class="st15" d="M547.61,279.27c5.51,0,10,4.49,10,10s-4.49,10-10,10s-10-4.49-10-10S542.1,279.27,547.61,279.27
		 M547.61,278.27c-6.08,0-11,4.92-11,11s4.92,11,11,11c6.08,0,11-4.92,11-11S553.69,278.27,547.61,278.27L547.61,278.27z"/>
</g>
<line class="st6" x1="558.61" y1="313.61" x2="536.61" y2="313.61"/>
<line class="st6" x1="559.35" y1="317.08" x2="559.35" y2="309.99"/>
<line class="st6" x1="547.61" y1="240.58" x2="547.61" y2="265.58"/>
<g>
	<rect x="245.16" y="251.49" class="st5" width="32" height="100"/>
	<g>
		<path class="st15" d="M261.16,266.88c5.51,0,10,4.49,10,10s-4.49,10-10,10s-10-4.49-10-10S255.64,266.88,261.16,266.88
			 M261.16,265.88c-6.08,0-11,4.92-11,11s4.92,11,11,11s11-4.92,11-11S267.23,265.88,261.16,265.88L261.16,265.88z"/>
	</g>
	<g>
		<circle class="st14" cx="261.16" cy="276.88" r="7"/>
		<path class="st15" d="M261.16,270.38c3.58,0,6.5,2.92,6.5,6.5s-2.92,6.5-6.5,6.5s-6.5-2.92-6.5-6.5S257.57,270.38,261.16,270.38
			 M261.16,269.38c-4.14,0-7.5,3.36-7.5,7.5c0,4.14,3.36,7.5,7.5,7.5c4.14,0,7.5-3.36,7.5-7.5
			C268.66,272.74,265.3,269.38,261.16,269.38L261.16,269.38z"/>
	</g>
	<line class="st6" x1="261.16" y1="240" x2="261.16" y2="265"/>
	<text transform="matrix(0.6558 0 0 1 250.0022 303.5453)"><tspan x="0" y="0" class="st0 st1 st3">52M-6</tspan><tspan x="5.33" y="14.4" class="st0 st1 st3">/400</tspan><tspan x="7.34" y="28.8" class="st0 st1 st3">KW</tspan></text>
</g>
<g>
	<rect x="281.07" y="251.49" class="st5" width="32" height="100"/>
	<g>
		<path class="st15" d="M297.07,266.88c5.51,0,10,4.49,10,10s-4.49,10-10,10s-10-4.49-10-10S291.55,266.88,297.07,266.88
			 M297.07,265.88c-6.08,0-11,4.92-11,11s4.92,11,11,11s11-4.92,11-11S303.14,265.88,297.07,265.88L297.07,265.88z"/>
	</g>
	<g>
		<circle class="st14" cx="297.07" cy="276.88" r="7"/>
		<path class="st15" d="M297.07,270.38c3.58,0,6.5,2.92,6.5,6.5s-2.92,6.5-6.5,6.5s-6.5-2.92-6.5-6.5S293.48,270.38,297.07,270.38
			 M297.07,269.38c-4.14,0-7.5,3.36-7.5,7.5c0,4.14,3.36,7.5,7.5,7.5c4.14,0,7.5-3.36,7.5-7.5
			C304.57,272.74,301.21,269.38,297.07,269.38L297.07,269.38z"/>
	</g>
	<line class="st6" x1="297.07" y1="240" x2="297.07" y2="265"/>
	<text transform="matrix(0.6558 0 0 1 285.9147 303.5453)"><tspan x="0" y="0" class="st0 st1 st3">52M-7</tspan><tspan x="5.33" y="14.4" class="st0 st1 st3">/400</tspan><tspan x="7.34" y="28.8" class="st0 st1 st3">KW</tspan></text>
</g>
<g>
	<rect x="316.23" y="251.49" class="st5" width="32" height="100"/>
	<g>
		<path class="st15" d="M332.23,266.88c5.51,0,10,4.49,10,10s-4.49,10-10,10s-10-4.49-10-10S326.72,266.88,332.23,266.88
			 M332.23,265.88c-6.08,0-11,4.92-11,11s4.92,11,11,11s11-4.92,11-11S338.31,265.88,332.23,265.88L332.23,265.88z"/>
	</g>
	<g>
		<circle class="st14" cx="332.23" cy="276.88" r="7"/>
		<path class="st15" d="M332.23,270.38c3.58,0,6.5,2.92,6.5,6.5s-2.92,6.5-6.5,6.5s-6.5-2.92-6.5-6.5S328.65,270.38,332.23,270.38
			 M332.23,269.38c-4.14,0-7.5,3.36-7.5,7.5c0,4.14,3.36,7.5,7.5,7.5c4.14,0,7.5-3.36,7.5-7.5
			C339.73,272.74,336.37,269.38,332.23,269.38L332.23,269.38z"/>
	</g>
	<line class="st6" x1="332.23" y1="240" x2="332.23" y2="265"/>
	<text transform="matrix(0.6558 0 0 1 321.0762 303.5453)"><tspan x="0" y="0" class="st0 st1 st3">52M-8</tspan><tspan x="5.33" y="14.4" class="st0 st1 st3">/400</tspan><tspan x="7.34" y="28.8" class="st0 st1 st3">KW</tspan></text>
</g>
<g>
	<rect x="387.41" y="251" class="st5" width="32" height="100"/>
	<g>
		<path class="st15" d="M403.41,266.39c5.51,0,10,4.49,10,10s-4.49,10-10,10s-10-4.49-10-10S397.9,266.39,403.41,266.39
			 M403.41,265.39c-6.08,0-11,4.92-11,11s4.92,11,11,11s11-4.92,11-11S409.49,265.39,403.41,265.39L403.41,265.39z"/>
	</g>
	<g>
		<circle class="st14" cx="403.41" cy="276.39" r="7"/>
		<path class="st15" d="M403.41,269.89c3.58,0,6.5,2.92,6.5,6.5s-2.92,6.5-6.5,6.5s-6.5-2.92-6.5-6.5S399.83,269.89,403.41,269.89
			 M403.41,268.89c-4.14,0-7.5,3.36-7.5,7.5c0,4.14,3.36,7.5,7.5,7.5s7.5-3.36,7.5-7.5C410.91,272.25,407.56,268.89,403.41,268.89
			L403.41,268.89z"/>
	</g>
	<line class="st6" x1="403.41" y1="239.51" x2="403.41" y2="264.51"/>
	<text transform="matrix(0.6558 0 0 1 392.2598 303.5453)"><tspan x="0" y="0" class="st0 st1 st3">52M-9</tspan><tspan x="5.33" y="14.4" class="st0 st1 st3">/400</tspan><tspan x="7.34" y="28.8" class="st0 st1 st3">KW</tspan></text>
</g>
<g>
	<rect x="423.71" y="251" class="st5" width="32" height="100"/>
	<g>
		<path class="st15" d="M439.71,266.39c5.51,0,10,4.49,10,10s-4.49,10-10,10s-10-4.49-10-10S434.2,266.39,439.71,266.39
			 M439.71,265.39c-6.08,0-11,4.92-11,11s4.92,11,11,11s11-4.92,11-11S445.79,265.39,439.71,265.39L439.71,265.39z"/>
	</g>
	<g>
		<circle class="st14" cx="439.71" cy="276.39" r="7"/>
		<path class="st15" d="M439.71,269.89c3.58,0,6.5,2.92,6.5,6.5s-2.92,6.5-6.5,6.5s-6.5-2.92-6.5-6.5S436.13,269.89,439.71,269.89
			 M439.71,268.89c-4.14,0-7.5,3.36-7.5,7.5c0,4.14,3.36,7.5,7.5,7.5s7.5-3.36,7.5-7.5C447.21,272.25,443.86,268.89,439.71,268.89
			L439.71,268.89z"/>
	</g>
	<line class="st6" x1="439.71" y1="239.51" x2="439.71" y2="264.51"/>
	<text transform="matrix(0.6558 0 0 1 430.9601 303.5453)"><tspan x="0" y="0" class="st0 st1 st3">1290</tspan><tspan x="3.01" y="14.4" class="st0 st1 st3">M-3</tspan><tspan x="1.67" y="28.8" class="st0 st1 st3">/250</tspan><tspan x="3.68" y="43.2" class="st0 st1 st3">KW</tspan></text>
</g>
<g>
	<line class="st6" x1="153.53" y1="316.37" x2="153.53" y2="309.28"/>
	<rect x="138.03" y="251.42" class="st5" width="31" height="100"/>
	<g>
		<line class="st6" x1="143.45" y1="344.96" x2="163.36" y2="344.96"/>
		<line class="st6" x1="143.47" y1="344.66" x2="153.43" y2="324.5"/>
		<line class="st6" x1="153.66" y1="324.5" x2="163.61" y2="344.66"/>
		<g>
			<rect x="151.58" y="340.98" class="st12" width="2.75" height="7.73"/>
			<g>
				<line class="st6" x1="151.83" y1="341.18" x2="151.83" y2="348.58"/>
				<line class="st6" x1="154.43" y1="341.18" x2="154.43" y2="348.58"/>
			</g>
		</g>
		<g>
			<polygon class="st12" points="151.9,333.89 150.5,336.67 144.81,332.74 146.21,329.97 			"/>
			<g>
				<line class="st6" x1="145.09" y1="332.59" x2="150.55" y2="336.35"/>
				<line class="st6" x1="146.41" y1="329.98" x2="151.86" y2="333.74"/>
			</g>
		</g>
		<g>
			<polygon class="st12" points="160.68,330.9 162.1,333.66 156.44,337.65 155.02,334.89 			"/>
			<g>
				<line class="st6" x1="156.46" y1="337.29" x2="161.88" y2="333.46"/>
				<line class="st6" x1="155.12" y1="334.69" x2="160.54" y2="330.87"/>
			</g>
		</g>
	</g>
	<line class="st6" x1="153.53" y1="299.19" x2="153.53" y2="324.19"/>
	<g>
		<g>
			<path class="st14" d="M153.53,286.42c-4.81,0-8.05-1.75-8.05-3.38s3.23-3.38,8.05-3.38s8.05,1.75,8.05,3.38
				S158.35,286.42,153.53,286.42z"/>
			<path class="st14" d="M153.53,280.17c4.61,0,7.55,1.7,7.55,2.88s-2.94,2.88-7.55,2.88c-4.61,0-7.55-1.7-7.55-2.88
				S148.93,280.17,153.53,280.17 M153.53,279.17c-4.72,0-8.55,1.74-8.55,3.88c0,2.14,3.83,3.88,8.55,3.88s8.55-1.74,8.55-3.88
				C162.08,280.9,158.25,279.17,153.53,279.17L153.53,279.17z"/>
		</g>
		<g>
			<path class="st14" d="M152.68,282.98c-3.14,0-5.48-1.1-5.48-2.08c0-0.98,2.34-2.08,5.48-2.08s5.48,1.1,5.48,2.08
				C158.16,281.88,155.82,282.98,152.68,282.98z"/>
			<path class="st14" d="M152.68,279.31c3.24,0,4.98,1.12,4.98,1.58s-1.75,1.58-4.98,1.58c-3.24,0-4.98-1.12-4.98-1.58
				S149.44,279.31,152.68,279.31 M152.68,278.31c-3.3,0-5.98,1.16-5.98,2.58c0,1.43,2.68,2.58,5.98,2.58c3.3,0,5.98-1.16,5.98-2.58
				C158.66,279.46,155.98,278.31,152.68,278.31L152.68,278.31z"/>
		</g>
		<g>
			<path class="st14" d="M153.53,287.28c-3.14,0-5.48-1.1-5.48-2.08c0-0.98,2.34-2.08,5.48-2.08s5.48,1.1,5.48,2.08
				C159.01,286.18,156.67,287.28,153.53,287.28z"/>
			<path class="st14" d="M153.53,283.61c3.24,0,4.98,1.12,4.98,1.58s-1.75,1.58-4.98,1.58c-3.24,0-4.98-1.12-4.98-1.58
				S150.3,283.61,153.53,283.61 M153.53,282.61c-3.3,0-5.98,1.16-5.98,2.58c0,1.43,2.68,2.58,5.98,2.58c3.3,0,5.98-1.16,5.98-2.58
				C159.51,283.77,156.84,282.61,153.53,282.61L153.53,282.61z"/>
		</g>
	</g>
	<g>
		<path class="st15" d="M153.53,266.84c5.51,0,10,4.49,10,10s-4.49,10-10,10s-10-4.49-10-10S148.02,266.84,153.53,266.84
			 M153.53,265.84c-6.08,0-11,4.92-11,11s4.92,11,11,11s11-4.92,11-11S159.61,265.84,153.53,265.84L153.53,265.84z"/>
	</g>
	<g>
		<path class="st15" d="M153.53,278.78c5.51,0,10,4.49,10,10s-4.49,10-10,10s-10-4.49-10-10S148.02,278.78,153.53,278.78
			 M153.53,277.78c-6.08,0-11,4.92-11,11s4.92,11,11,11s11-4.92,11-11S159.61,277.78,153.53,277.78L153.53,277.78z"/>
	</g>
	<line class="st6" x1="164.53" y1="313.06" x2="142.53" y2="313.06"/>
	<line class="st6" x1="153.53" y1="316.59" x2="153.53" y2="309.5"/>
	<line class="st6" x1="153.53" y1="241.09" x2="153.53" y2="266.09"/>
	<line class="st6" x1="164.43" y1="316.54" x2="164.43" y2="309.46"/>
	<line class="st6" x1="142.43" y1="316.6" x2="142.43" y2="309.52"/>
</g>
<g>
	<line class="st5" x1="121.48" y1="167.4" x2="121.48" y2="138.75"/>
	<g>
		<rect x="116.98" y="180.74" class="st4" width="9" height="17"/>
		<line class="st5" x1="121.48" y1="180.16" x2="121.48" y2="172.74"/>
		<line class="st5" x1="121.48" y1="206.16" x2="121.48" y2="198.13"/>
		<g>
			<line class="st5" x1="117.73" y1="175.49" x2="121.21" y2="171.99"/>
			<line class="st5" x1="125.23" y1="175.49" x2="121.75" y2="171.99"/>
		</g>
		<g>
			<line class="st5" x1="117.73" y1="171.36" x2="121.21" y2="167.86"/>
			<line class="st5" x1="125.23" y1="171.36" x2="121.75" y2="167.86"/>
		</g>
		<g>
			<line class="st5" x1="125.23" y1="202.86" x2="121.75" y2="206.36"/>
			<line class="st5" x1="117.73" y1="202.86" x2="121.21" y2="206.36"/>
		</g>
		<g>
			<line class="st5" x1="125.23" y1="206.86" x2="121.75" y2="210.36"/>
			<line class="st5" x1="117.73" y1="206.86" x2="121.21" y2="210.36"/>
		</g>
	</g>
	<g>
		<g>
			<polyline class="st16" points="117.77,231.94 121.31,240.49 125.19,231.91 			"/>
		</g>
		<line class="st5" x1="121.48" y1="231.97" x2="121.48" y2="211.18"/>
		<line class="st5" x1="125.23" y1="231.56" x2="117.73" y2="231.56"/>
	</g>
</g>
<g>
	<line class="st5" x1="153.53" y1="167.4" x2="153.53" y2="138.75"/>
	<g>
		<rect x="149.03" y="180.74" class="st4" width="9" height="17"/>
		<line class="st5" x1="153.53" y1="180.16" x2="153.53" y2="172.74"/>
		<line class="st5" x1="153.53" y1="206.16" x2="153.53" y2="198.13"/>
		<g>
			<line class="st5" x1="149.78" y1="175.49" x2="153.26" y2="171.99"/>
			<line class="st5" x1="157.28" y1="175.49" x2="153.8" y2="171.99"/>
		</g>
		<g>
			<line class="st5" x1="149.78" y1="171.36" x2="153.26" y2="167.86"/>
			<line class="st5" x1="157.28" y1="171.36" x2="153.8" y2="167.86"/>
		</g>
		<g>
			<line class="st5" x1="157.28" y1="202.86" x2="153.8" y2="206.36"/>
			<line class="st5" x1="149.78" y1="202.86" x2="153.26" y2="206.36"/>
		</g>
		<g>
			<line class="st5" x1="157.28" y1="206.86" x2="153.8" y2="210.36"/>
			<line class="st5" x1="149.78" y1="206.86" x2="153.26" y2="210.36"/>
		</g>
	</g>
	<g>
		<g>
			<polyline class="st16" points="149.82,231.94 153.36,240.49 157.24,231.91 			"/>
		</g>
		<line class="st5" x1="153.53" y1="231.97" x2="153.53" y2="211.18"/>
		<line class="st5" x1="157.28" y1="231.56" x2="149.78" y2="231.56"/>
	</g>
</g>
<g>
	<line class="st5" x1="188.48" y1="167.4" x2="188.48" y2="138.75"/>
	<g>
		<rect x="183.98" y="180.74" class="st4" width="9" height="17"/>
		<line class="st5" x1="188.48" y1="180.16" x2="188.48" y2="172.74"/>
		<line class="st5" x1="188.48" y1="206.16" x2="188.48" y2="198.13"/>
		<g>
			<line class="st5" x1="184.73" y1="175.49" x2="188.21" y2="171.99"/>
			<line class="st5" x1="192.23" y1="175.49" x2="188.75" y2="171.99"/>
		</g>
		<g>
			<line class="st5" x1="184.73" y1="171.36" x2="188.21" y2="167.86"/>
			<line class="st5" x1="192.23" y1="171.36" x2="188.75" y2="167.86"/>
		</g>
		<g>
			<line class="st5" x1="192.23" y1="202.86" x2="188.75" y2="206.36"/>
			<line class="st5" x1="184.73" y1="202.86" x2="188.21" y2="206.36"/>
		</g>
		<g>
			<line class="st5" x1="192.23" y1="206.86" x2="188.75" y2="210.36"/>
			<line class="st5" x1="184.73" y1="206.86" x2="188.21" y2="210.36"/>
		</g>
	</g>
	<g>
		<g>
			<polyline class="st16" points="184.77,231.94 188.31,240.49 192.19,231.91 			"/>
		</g>
		<line class="st5" x1="188.48" y1="231.97" x2="188.48" y2="211.18"/>
		<line class="st5" x1="192.23" y1="231.56" x2="184.73" y2="231.56"/>
	</g>
</g>
<g>
	<line class="st5" x1="224.48" y1="167.4" x2="224.48" y2="138.75"/>
	<g>
		<rect x="219.98" y="180.74" class="st4" width="9" height="17"/>
		<line class="st5" x1="224.48" y1="180.16" x2="224.48" y2="172.74"/>
		<line class="st5" x1="224.48" y1="206.16" x2="224.48" y2="198.13"/>
		<g>
			<line class="st5" x1="220.73" y1="175.49" x2="224.21" y2="171.99"/>
			<line class="st5" x1="228.23" y1="175.49" x2="224.75" y2="171.99"/>
		</g>
		<g>
			<line class="st5" x1="220.73" y1="171.36" x2="224.21" y2="167.86"/>
			<line class="st5" x1="228.23" y1="171.36" x2="224.75" y2="167.86"/>
		</g>
		<g>
			<line class="st5" x1="228.23" y1="202.86" x2="224.75" y2="206.36"/>
			<line class="st5" x1="220.73" y1="202.86" x2="224.21" y2="206.36"/>
		</g>
		<g>
			<line class="st5" x1="228.23" y1="206.86" x2="224.75" y2="210.36"/>
			<line class="st5" x1="220.73" y1="206.86" x2="224.21" y2="210.36"/>
		</g>
	</g>
	<g>
		<g>
			<polyline class="st16" points="220.77,231.94 224.31,240.49 228.19,231.91 			"/>
		</g>
		<line class="st5" x1="224.48" y1="231.97" x2="224.48" y2="211.18"/>
		<line class="st5" x1="228.23" y1="231.56" x2="220.73" y2="231.56"/>
	</g>
</g>
<g>
	<line class="st5" x1="261.16" y1="167.4" x2="261.16" y2="138.75"/>
	<g>
		<rect x="256.66" y="180.74" class="st4" width="9" height="17"/>
		<line class="st5" x1="261.16" y1="180.16" x2="261.16" y2="172.74"/>
		<line class="st5" x1="261.16" y1="206.16" x2="261.16" y2="198.13"/>
		<g>
			<line class="st5" x1="257.41" y1="175.49" x2="260.89" y2="171.99"/>
			<line class="st5" x1="264.91" y1="175.49" x2="261.43" y2="171.99"/>
		</g>
		<g>
			<line class="st5" x1="257.41" y1="171.36" x2="260.89" y2="167.86"/>
			<line class="st5" x1="264.91" y1="171.36" x2="261.43" y2="167.86"/>
		</g>
		<g>
			<line class="st5" x1="264.91" y1="202.86" x2="261.43" y2="206.36"/>
			<line class="st5" x1="257.41" y1="202.86" x2="260.89" y2="206.36"/>
		</g>
		<g>
			<line class="st5" x1="264.91" y1="206.86" x2="261.43" y2="210.36"/>
			<line class="st5" x1="257.41" y1="206.86" x2="260.89" y2="210.36"/>
		</g>
	</g>
	<g>
		<g>
			<polyline class="st16" points="257.45,231.94 260.98,240.49 264.86,231.91 			"/>
		</g>
		<line class="st5" x1="261.16" y1="231.97" x2="261.16" y2="211.18"/>
		<line class="st5" x1="264.91" y1="231.56" x2="257.41" y2="231.56"/>
	</g>
</g>
<g>
	<line class="st5" x1="297.07" y1="167.4" x2="297.07" y2="138.75"/>
	<g>
		<rect x="292.57" y="180.74" class="st4" width="9" height="17"/>
		<line class="st5" x1="297.07" y1="180.16" x2="297.07" y2="172.74"/>
		<line class="st5" x1="297.07" y1="206.16" x2="297.07" y2="198.13"/>
		<g>
			<line class="st5" x1="293.32" y1="175.49" x2="296.8" y2="171.99"/>
			<line class="st5" x1="300.82" y1="175.49" x2="297.34" y2="171.99"/>
		</g>
		<g>
			<line class="st5" x1="293.32" y1="171.36" x2="296.8" y2="167.86"/>
			<line class="st5" x1="300.82" y1="171.36" x2="297.34" y2="167.86"/>
		</g>
		<g>
			<line class="st5" x1="300.82" y1="202.86" x2="297.34" y2="206.36"/>
			<line class="st5" x1="293.32" y1="202.86" x2="296.8" y2="206.36"/>
		</g>
		<g>
			<line class="st5" x1="300.82" y1="206.86" x2="297.34" y2="210.36"/>
			<line class="st5" x1="293.32" y1="206.86" x2="296.8" y2="210.36"/>
		</g>
	</g>
	<g>
		<g>
			<polyline class="st16" points="293.36,231.94 296.9,240.49 300.78,231.91 			"/>
		</g>
		<line class="st5" x1="297.07" y1="231.97" x2="297.07" y2="211.18"/>
		<line class="st5" x1="300.82" y1="231.56" x2="293.32" y2="231.56"/>
	</g>
</g>
<g>
	<line class="st5" x1="332.23" y1="167.4" x2="332.23" y2="138.75"/>
	<g>
		<rect x="327.73" y="180.74" class="st4" width="9" height="17"/>
		<line class="st5" x1="332.23" y1="180.16" x2="332.23" y2="172.74"/>
		<line class="st5" x1="332.23" y1="206.16" x2="332.23" y2="198.13"/>
		<g>
			<line class="st5" x1="328.48" y1="175.49" x2="331.96" y2="171.99"/>
			<line class="st5" x1="335.98" y1="175.49" x2="332.5" y2="171.99"/>
		</g>
		<g>
			<line class="st5" x1="328.48" y1="171.36" x2="331.96" y2="167.86"/>
			<line class="st5" x1="335.98" y1="171.36" x2="332.5" y2="167.86"/>
		</g>
		<g>
			<line class="st5" x1="335.98" y1="202.86" x2="332.5" y2="206.36"/>
			<line class="st5" x1="328.48" y1="202.86" x2="331.96" y2="206.36"/>
		</g>
		<g>
			<line class="st5" x1="335.98" y1="206.86" x2="332.5" y2="210.36"/>
			<line class="st5" x1="328.48" y1="206.86" x2="331.96" y2="210.36"/>
		</g>
	</g>
	<g>
		<g>
			<polyline class="st16" points="328.52,231.94 332.06,240.49 335.94,231.91 			"/>
		</g>
		<line class="st5" x1="332.23" y1="231.97" x2="332.23" y2="211.18"/>
		<line class="st5" x1="335.98" y1="231.56" x2="328.48" y2="231.56"/>
	</g>
</g>
<g>
	<line class="st5" x1="403.41" y1="167.4" x2="403.41" y2="138.75"/>
	<g>
		<rect x="398.91" y="180.74" class="st4" width="9" height="17"/>
		<line class="st5" x1="403.41" y1="180.16" x2="403.41" y2="172.74"/>
		<line class="st5" x1="403.41" y1="206.16" x2="403.41" y2="198.13"/>
		<g>
			<line class="st5" x1="399.66" y1="175.49" x2="403.14" y2="171.99"/>
			<line class="st5" x1="407.16" y1="175.49" x2="403.68" y2="171.99"/>
		</g>
		<g>
			<line class="st5" x1="399.66" y1="171.36" x2="403.14" y2="167.86"/>
			<line class="st5" x1="407.16" y1="171.36" x2="403.68" y2="167.86"/>
		</g>
		<g>
			<line class="st5" x1="407.16" y1="202.86" x2="403.68" y2="206.36"/>
			<line class="st5" x1="399.66" y1="202.86" x2="403.14" y2="206.36"/>
		</g>
		<g>
			<line class="st5" x1="407.16" y1="206.86" x2="403.68" y2="210.36"/>
			<line class="st5" x1="399.66" y1="206.86" x2="403.14" y2="210.36"/>
		</g>
	</g>
	<g>
		<g>
			<polyline class="st16" points="399.71,231.94 403.24,240.49 407.12,231.91 			"/>
		</g>
		<line class="st5" x1="403.41" y1="231.97" x2="403.41" y2="211.18"/>
		<line class="st5" x1="407.16" y1="231.56" x2="399.66" y2="231.56"/>
	</g>
</g>
<g>
	<line class="st5" x1="439.71" y1="167.4" x2="439.71" y2="138.75"/>
	<g>
		<rect x="435.21" y="180.74" class="st4" width="9" height="17"/>
		<line class="st5" x1="439.71" y1="180.16" x2="439.71" y2="172.74"/>
		<line class="st5" x1="439.71" y1="206.16" x2="439.71" y2="198.13"/>
		<g>
			<line class="st5" x1="435.96" y1="175.49" x2="439.44" y2="171.99"/>
			<line class="st5" x1="443.46" y1="175.49" x2="439.98" y2="171.99"/>
		</g>
		<g>
			<line class="st5" x1="435.96" y1="171.36" x2="439.44" y2="167.86"/>
			<line class="st5" x1="443.46" y1="171.36" x2="439.98" y2="167.86"/>
		</g>
		<g>
			<line class="st5" x1="443.46" y1="202.86" x2="439.98" y2="206.36"/>
			<line class="st5" x1="435.96" y1="202.86" x2="439.44" y2="206.36"/>
		</g>
		<g>
			<line class="st5" x1="443.46" y1="206.86" x2="439.98" y2="210.36"/>
			<line class="st5" x1="435.96" y1="206.86" x2="439.44" y2="210.36"/>
		</g>
	</g>
	<g>
		<g>
			<polyline class="st16" points="436.01,231.94 439.54,240.49 443.42,231.91 			"/>
		</g>
		<line class="st5" x1="439.71" y1="231.97" x2="439.71" y2="211.18"/>
		<line class="st5" x1="443.46" y1="231.56" x2="435.96" y2="231.56"/>
	</g>
</g>
<g>
	<line class="st5" x1="475.4" y1="167.4" x2="475.4" y2="138.75"/>
	<g>
		<rect x="470.9" y="180.74" class="st4" width="9" height="17"/>
		<line class="st5" x1="475.4" y1="180.16" x2="475.4" y2="172.74"/>
		<line class="st5" x1="475.4" y1="206.16" x2="475.4" y2="198.13"/>
		<g>
			<line class="st5" x1="471.65" y1="175.49" x2="475.13" y2="171.99"/>
			<line class="st5" x1="479.15" y1="175.49" x2="475.67" y2="171.99"/>
		</g>
		<g>
			<line class="st5" x1="471.65" y1="171.36" x2="475.13" y2="167.86"/>
			<line class="st5" x1="479.15" y1="171.36" x2="475.67" y2="167.86"/>
		</g>
		<g>
			<line class="st5" x1="479.15" y1="202.86" x2="475.67" y2="206.36"/>
			<line class="st5" x1="471.65" y1="202.86" x2="475.13" y2="206.36"/>
		</g>
		<g>
			<line class="st5" x1="479.15" y1="206.86" x2="475.67" y2="210.36"/>
			<line class="st5" x1="471.65" y1="206.86" x2="475.13" y2="210.36"/>
		</g>
	</g>
	<g>
		<g>
			<polyline class="st16" points="471.69,231.94 475.23,240.49 479.11,231.91 			"/>
		</g>
		<line class="st5" x1="475.4" y1="231.97" x2="475.4" y2="211.18"/>
		<line class="st5" x1="479.15" y1="231.56" x2="471.65" y2="231.56"/>
	</g>
</g>
<g>
	<line class="st5" x1="511.76" y1="167.4" x2="511.76" y2="138.75"/>
	<g>
		<rect x="507.26" y="180.74" class="st4" width="9" height="17"/>
		<line class="st5" x1="511.76" y1="180.16" x2="511.76" y2="172.74"/>
		<line class="st5" x1="511.76" y1="206.16" x2="511.76" y2="198.13"/>
		<g>
			<line class="st5" x1="508.01" y1="175.49" x2="511.5" y2="171.99"/>
			<line class="st5" x1="515.51" y1="175.49" x2="512.03" y2="171.99"/>
		</g>
		<g>
			<line class="st5" x1="508.01" y1="171.36" x2="511.5" y2="167.86"/>
			<line class="st5" x1="515.51" y1="171.36" x2="512.03" y2="167.86"/>
		</g>
		<g>
			<line class="st5" x1="515.51" y1="202.86" x2="512.03" y2="206.36"/>
			<line class="st5" x1="508.01" y1="202.86" x2="511.5" y2="206.36"/>
		</g>
		<g>
			<line class="st5" x1="515.51" y1="206.86" x2="512.03" y2="210.36"/>
			<line class="st5" x1="508.01" y1="206.86" x2="511.5" y2="210.36"/>
		</g>
	</g>
	<g>
		<g>
			<polyline class="st16" points="508.06,231.94 511.59,240.49 515.47,231.91 			"/>
		</g>
		<line class="st5" x1="511.76" y1="231.97" x2="511.76" y2="211.18"/>
		<line class="st5" x1="515.51" y1="231.56" x2="508.01" y2="231.56"/>
	</g>
</g>
<g>
	<line class="st5" x1="547.61" y1="167.4" x2="547.61" y2="138.75"/>
	<g>
		<rect x="543.11" y="180.74" class="st4" width="9" height="17"/>
		<line class="st5" x1="547.61" y1="180.16" x2="547.61" y2="172.74"/>
		<line class="st5" x1="547.61" y1="206.16" x2="547.61" y2="198.13"/>
		<g>
			<line class="st5" x1="543.86" y1="175.49" x2="547.34" y2="171.99"/>
			<line class="st5" x1="551.36" y1="175.49" x2="547.88" y2="171.99"/>
		</g>
		<g>
			<line class="st5" x1="543.86" y1="171.36" x2="547.34" y2="167.86"/>
			<line class="st5" x1="551.36" y1="171.36" x2="547.88" y2="167.86"/>
		</g>
		<g>
			<line class="st5" x1="551.36" y1="202.86" x2="547.88" y2="206.36"/>
			<line class="st5" x1="543.86" y1="202.86" x2="547.34" y2="206.36"/>
		</g>
		<g>
			<line class="st5" x1="551.36" y1="206.86" x2="547.88" y2="210.36"/>
			<line class="st5" x1="543.86" y1="206.86" x2="547.34" y2="210.36"/>
		</g>
	</g>
	<g>
		<g>
			<polyline class="st16" points="543.9,231.94 547.44,240.49 551.32,231.91 			"/>
		</g>
		<line class="st5" x1="547.61" y1="231.97" x2="547.61" y2="211.18"/>
		<line class="st5" x1="551.36" y1="231.56" x2="543.86" y2="231.56"/>
	</g>
</g>
<g>
	<line class="st5" x1="583.94" y1="167.4" x2="583.94" y2="138.75"/>
	<g>
		<rect x="579.44" y="180.74" class="st4" width="9" height="17"/>
		<line class="st5" x1="583.94" y1="180.16" x2="583.94" y2="172.74"/>
		<line class="st5" x1="583.94" y1="206.16" x2="583.94" y2="198.13"/>
		<g>
			<line class="st5" x1="580.19" y1="175.49" x2="583.67" y2="171.99"/>
			<line class="st5" x1="587.69" y1="175.49" x2="584.21" y2="171.99"/>
		</g>
		<g>
			<line class="st5" x1="580.19" y1="171.36" x2="583.67" y2="167.86"/>
			<line class="st5" x1="587.69" y1="171.36" x2="584.21" y2="167.86"/>
		</g>
		<g>
			<line class="st5" x1="587.69" y1="202.86" x2="584.21" y2="206.36"/>
			<line class="st5" x1="580.19" y1="202.86" x2="583.67" y2="206.36"/>
		</g>
		<g>
			<line class="st5" x1="587.69" y1="206.86" x2="584.21" y2="210.36"/>
			<line class="st5" x1="580.19" y1="206.86" x2="583.67" y2="210.36"/>
		</g>
	</g>
	<g>
		<g>
			<polyline class="st16" points="580.23,231.94 583.77,240.49 587.65,231.91 			"/>
		</g>
		<line class="st5" x1="583.94" y1="231.97" x2="583.94" y2="211.18"/>
		<line class="st5" x1="587.69" y1="231.56" x2="580.19" y2="231.56"/>
	</g>
</g>
<g>
	<line class="st5" x1="620.2" y1="167.4" x2="620.2" y2="138.75"/>
	<g>
		<rect x="615.7" y="180.74" class="st4" width="9" height="17"/>
		<line class="st5" x1="620.2" y1="180.16" x2="620.2" y2="172.74"/>
		<line class="st5" x1="620.2" y1="206.16" x2="620.2" y2="198.13"/>
		<g>
			<line class="st5" x1="616.45" y1="175.49" x2="619.93" y2="171.99"/>
			<line class="st5" x1="623.95" y1="175.49" x2="620.47" y2="171.99"/>
		</g>
		<g>
			<line class="st5" x1="616.45" y1="171.36" x2="619.93" y2="167.86"/>
			<line class="st5" x1="623.95" y1="171.36" x2="620.47" y2="167.86"/>
		</g>
		<g>
			<line class="st5" x1="623.95" y1="202.86" x2="620.47" y2="206.36"/>
			<line class="st5" x1="616.45" y1="202.86" x2="619.93" y2="206.36"/>
		</g>
		<g>
			<line class="st5" x1="623.95" y1="206.86" x2="620.47" y2="210.36"/>
			<line class="st5" x1="616.45" y1="206.86" x2="619.93" y2="210.36"/>
		</g>
	</g>
	<g>
		<g>
			<polyline class="st16" points="616.5,231.94 620.03,240.49 623.91,231.91 			"/>
		</g>
		<line class="st5" x1="620.2" y1="231.97" x2="620.2" y2="211.18"/>
		<line class="st5" x1="623.95" y1="231.56" x2="616.45" y2="231.56"/>
	</g>
</g>
<g>
	<line class="st5" x1="657.48" y1="167.4" x2="657.48" y2="138.75"/>
	<g>
		<rect x="652.98" y="180.74" class="st4" width="9" height="17"/>
		<line class="st5" x1="657.48" y1="180.16" x2="657.48" y2="172.74"/>
		<line class="st5" x1="657.48" y1="206.16" x2="657.48" y2="198.13"/>
		<g>
			<line class="st5" x1="653.73" y1="175.49" x2="657.21" y2="171.99"/>
			<line class="st5" x1="661.23" y1="175.49" x2="657.75" y2="171.99"/>
		</g>
		<g>
			<line class="st5" x1="653.73" y1="171.36" x2="657.21" y2="167.86"/>
			<line class="st5" x1="661.23" y1="171.36" x2="657.75" y2="167.86"/>
		</g>
		<g>
			<line class="st5" x1="661.23" y1="202.86" x2="657.75" y2="206.36"/>
			<line class="st5" x1="653.73" y1="202.86" x2="657.21" y2="206.36"/>
		</g>
		<g>
			<line class="st5" x1="661.23" y1="206.86" x2="657.75" y2="210.36"/>
			<line class="st5" x1="653.73" y1="206.86" x2="657.21" y2="210.36"/>
		</g>
	</g>
	<g>
		<g>
			<polyline class="st16" points="653.77,231.94 657.31,240.49 661.19,231.91 			"/>
		</g>
		<line class="st5" x1="657.48" y1="231.97" x2="657.48" y2="211.18"/>
		<line class="st5" x1="661.23" y1="231.56" x2="653.73" y2="231.56"/>
	</g>
</g>
</svg>
