<?xml version="1.0" encoding="utf-8"?>
<!-- Generator: Adobe Illustrator 27.1.1, SVG Export Plug-In . SVG Version: 6.00 Build 0)  -->
<svg version="1.1" id="Layer_1" xmlns="http://www.w3.org/2000/svg" xmlns:xlink="http://www.w3.org/1999/xlink" x="0px" y="0px"
	 viewBox="0 0 647 314" style="enable-background:new 0 0 647 314;" xml:space="preserve">
<style type="text/css">
	.st0{fill:#F7931E;}
	.st1{fill:#F15A24;}
	.st2{fill:#212830;}
	.st3{font-family:'ArialMT';}
	.st4{font-size:7.2584px;}
	.st5{fill:none;stroke:#212830;stroke-linecap:square;stroke-miterlimit:10;}
	.st6{fill:none;stroke:#000000;stroke-miterlimit:10;}
	.st7{font-size:7px;}
	.st8{fill:none;stroke:#FF0000;stroke-linecap:square;stroke-miterlimit:10;}
	.st9{font-family:'Arial-ItalicMT';}
	.st10{font-size:14px;}
	.st11{font-size:20px;}
	.st12{fill:#FF0000;stroke:#FF0000;stroke-linecap:square;stroke-miterlimit:10;}
	.st13{stroke:#000000;stroke-linecap:square;stroke-miterlimit:10;}
	.st14{font-size:12px;}
	.st15{font-size:24px;}
</style>
<rect x="98.48" y="178.24" class="st0" width="205" height="4.84"/>
<rect x="173.99" y="177.77" class="st1" width="5.41" height="5.5"/>
<rect x="210.03" y="177.77" class="st1" width="5.41" height="5.5"/>
<rect x="106.46" y="177.77" class="st1" width="5.41" height="5.5"/>
<rect x="139.04" y="177.77" class="st1" width="5.41" height="5.5"/>
<text transform="matrix(0.4589 0 0 1 105.8095 174.6183)" class="st2 st3 st4">305</text>
<text transform="matrix(0.6726 0 0 1 138.381 174.6179)" class="st2 st3 st4">310</text>
<text transform="matrix(0.6726 0 0 1 181.3315 174.6179)" class="st2 st3 st4">308</text>
<text transform="matrix(0.6726 0 0 1 217.3782 174.6179)" class="st2 st3 st4">304</text>
<line class="st5" x1="109.17" y1="212.18" x2="109.17" y2="183.54"/>
<rect x="246.55" y="177.77" class="st1" width="5.41" height="5.5"/>
<rect x="282.05" y="177.77" class="st1" width="5.41" height="5.5"/>
<text transform="matrix(0.6726 0 0 1 253.8976 174.6181)" class="st2 st3 st4">303</text>
<line class="st5" x1="141.74" y1="212.18" x2="141.74" y2="183.54"/>
<line class="st5" x1="176.69" y1="212.18" x2="176.69" y2="183.54"/>
<line class="st5" x1="212.74" y1="212.18" x2="212.74" y2="183.54"/>
<line class="st5" x1="249.26" y1="212.18" x2="249.26" y2="183.54"/>
<g>
	<rect x="104.67" y="225.53" class="st6" width="9" height="17"/>
	<line class="st5" x1="109.17" y1="224.95" x2="109.17" y2="217.53"/>
	<line class="st5" x1="109.17" y1="250.95" x2="109.17" y2="242.92"/>
	<g>
		<line class="st5" x1="105.42" y1="220.28" x2="108.9" y2="216.78"/>
		<line class="st5" x1="112.92" y1="220.28" x2="109.44" y2="216.78"/>
	</g>
	<g>
		<line class="st5" x1="105.42" y1="216.15" x2="108.9" y2="212.65"/>
		<line class="st5" x1="112.92" y1="216.15" x2="109.44" y2="212.65"/>
	</g>
	<g>
		<line class="st5" x1="112.92" y1="247.65" x2="109.44" y2="251.15"/>
		<line class="st5" x1="105.42" y1="247.65" x2="108.9" y2="251.15"/>
	</g>
	<g>
		<line class="st5" x1="112.92" y1="251.65" x2="109.44" y2="255.15"/>
		<line class="st5" x1="105.42" y1="251.65" x2="108.9" y2="255.15"/>
	</g>
</g>
<g>
	<rect x="137.04" y="225.53" class="st6" width="9" height="17"/>
	<line class="st5" x1="141.54" y1="224.95" x2="141.54" y2="217.53"/>
	<line class="st5" x1="141.54" y1="250.95" x2="141.54" y2="242.92"/>
	<g>
		<line class="st5" x1="137.79" y1="220.28" x2="141.27" y2="216.78"/>
		<line class="st5" x1="145.29" y1="220.28" x2="141.81" y2="216.78"/>
	</g>
	<g>
		<line class="st5" x1="137.79" y1="216.15" x2="141.27" y2="212.65"/>
		<line class="st5" x1="145.29" y1="216.15" x2="141.81" y2="212.65"/>
	</g>
	<g>
		<line class="st5" x1="145.29" y1="247.65" x2="141.81" y2="251.15"/>
		<line class="st5" x1="137.79" y1="247.65" x2="141.27" y2="251.15"/>
	</g>
	<g>
		<line class="st5" x1="145.29" y1="251.65" x2="141.81" y2="255.15"/>
		<line class="st5" x1="137.79" y1="251.65" x2="141.27" y2="255.15"/>
	</g>
</g>
<g>
	<rect x="172.01" y="225.53" class="st6" width="9" height="17"/>
	<line class="st5" x1="176.51" y1="224.95" x2="176.51" y2="217.53"/>
	<line class="st5" x1="176.51" y1="250.95" x2="176.51" y2="242.92"/>
	<g>
		<line class="st5" x1="172.76" y1="220.28" x2="176.24" y2="216.78"/>
		<line class="st5" x1="180.26" y1="220.28" x2="176.78" y2="216.78"/>
	</g>
	<g>
		<line class="st5" x1="172.76" y1="216.15" x2="176.24" y2="212.65"/>
		<line class="st5" x1="180.26" y1="216.15" x2="176.78" y2="212.65"/>
	</g>
	<g>
		<line class="st5" x1="180.26" y1="247.65" x2="176.78" y2="251.15"/>
		<line class="st5" x1="172.76" y1="247.65" x2="176.24" y2="251.15"/>
	</g>
	<g>
		<line class="st5" x1="180.26" y1="251.65" x2="176.78" y2="255.15"/>
		<line class="st5" x1="172.76" y1="251.65" x2="176.24" y2="255.15"/>
	</g>
</g>
<g>
	<rect x="208.24" y="225.53" class="st6" width="9" height="17"/>
	<line class="st5" x1="212.74" y1="224.95" x2="212.74" y2="217.53"/>
	<line class="st5" x1="212.74" y1="250.95" x2="212.74" y2="242.92"/>
	<g>
		<line class="st5" x1="208.99" y1="220.28" x2="212.47" y2="216.78"/>
		<line class="st5" x1="216.49" y1="220.28" x2="213.01" y2="216.78"/>
	</g>
	<g>
		<line class="st5" x1="208.99" y1="216.15" x2="212.47" y2="212.65"/>
		<line class="st5" x1="216.49" y1="216.15" x2="213.01" y2="212.65"/>
	</g>
	<g>
		<line class="st5" x1="216.49" y1="247.65" x2="213.01" y2="251.15"/>
		<line class="st5" x1="208.99" y1="247.65" x2="212.47" y2="251.15"/>
	</g>
	<g>
		<line class="st5" x1="216.49" y1="251.65" x2="213.01" y2="255.15"/>
		<line class="st5" x1="208.99" y1="251.65" x2="212.47" y2="255.15"/>
	</g>
</g>
<g>
	<rect x="245" y="225.53" class="st6" width="9" height="17"/>
	<line class="st5" x1="249.5" y1="224.95" x2="249.5" y2="217.53"/>
	<line class="st5" x1="249.5" y1="250.95" x2="249.5" y2="242.92"/>
	<g>
		<line class="st5" x1="245.75" y1="220.28" x2="249.23" y2="216.78"/>
		<line class="st5" x1="253.25" y1="220.28" x2="249.77" y2="216.78"/>
	</g>
	<g>
		<line class="st5" x1="245.75" y1="216.15" x2="249.23" y2="212.65"/>
		<line class="st5" x1="253.25" y1="216.15" x2="249.77" y2="212.65"/>
	</g>
	<g>
		<line class="st5" x1="253.25" y1="247.65" x2="249.77" y2="251.15"/>
		<line class="st5" x1="245.75" y1="247.65" x2="249.23" y2="251.15"/>
	</g>
	<g>
		<line class="st5" x1="253.25" y1="251.65" x2="249.77" y2="255.15"/>
		<line class="st5" x1="245.75" y1="251.65" x2="249.23" y2="255.15"/>
	</g>
</g>
<text transform="matrix(0 -0.7962 1 0 144.3794 238.4855)" class="st2 st3 st7">681</text>
<line class="st8" x1="176.4" y1="117.35" x2="176.4" y2="92.35"/>
<g>
	<rect x="171.9" y="133.02" class="st6" width="9" height="17"/>
	<line class="st5" x1="176.4" y1="132.44" x2="176.4" y2="125.02"/>
	<line class="st5" x1="176.4" y1="158.44" x2="176.4" y2="150.41"/>
	<g>
		<line class="st5" x1="172.65" y1="127.77" x2="176.13" y2="124.27"/>
		<line class="st5" x1="180.15" y1="127.77" x2="176.67" y2="124.27"/>
	</g>
	<g>
		<line class="st8" x1="172.65" y1="123.64" x2="176.13" y2="120.14"/>
		<line class="st8" x1="180.15" y1="123.64" x2="176.67" y2="120.14"/>
	</g>
	<g>
		<line class="st5" x1="180.15" y1="155.14" x2="176.67" y2="158.64"/>
		<line class="st5" x1="172.65" y1="155.14" x2="176.13" y2="158.64"/>
	</g>
	<g>
		<line class="st5" x1="180.15" y1="159.14" x2="176.67" y2="162.64"/>
		<line class="st5" x1="172.65" y1="159.14" x2="176.13" y2="162.64"/>
	</g>
</g>
<line class="st5" x1="176.4" y1="177.4" x2="176.4" y2="162.4"/>
<g>
	<line class="st8" x1="170.44" y1="92.18" x2="176.4" y2="92.18"/>
	<polyline class="st8" points="170.44,92.18 170.41,92.56 170.4,92.94 170.41,93.32 170.45,93.7 170.52,94.08 170.6,94.45 
		170.71,94.82 170.85,95.17 171.01,95.52 171.18,95.86 171.38,96.18 171.6,96.5 171.83,96.8 172.09,97.08 172.36,97.34 
		172.66,97.59 172.96,97.82 173.28,98.03 173.62,98.21 173.96,98.38 174.31,98.53 174.67,98.65 175.04,98.75 175.41,98.82 
		175.8,98.87 176.17,98.9 176.56,98.9 176.93,98.88 177.31,98.83 177.68,98.77 178.06,98.67 178.43,98.55 178.78,98.41 
		179.12,98.25 179.46,98.07 179.78,97.86 180.08,97.64 180.38,97.39 180.66,97.13 180.92,96.85 181.16,96.56 181.38,96.25 
		181.59,95.92 181.76,95.59 181.92,95.25 182.07,94.88 182.18,94.53 182.27,94.15 182.34,93.78 182.38,93.4 182.4,93.02 
		182.39,92.63 182.37,92.26 182.32,91.88 182.23,91.51 182.13,91.13 182.02,90.78 181.87,90.42 181.69,90.08 181.5,89.75 
		181.3,89.43 181.07,89.13 180.82,88.84 180.54,88.57 180.26,88.31 179.97,88.08 179.65,87.86 179.32,87.66 178.99,87.49 
		178.63,87.33 178.28,87.2 177.91,87.1 177.54,87.01 177.16,86.95 176.79,86.91 176.4,86.9 	"/>
</g>
<line class="st8" x1="176.73" y1="87.06" x2="176.73" y2="62.06"/>
<text transform="matrix(0.7096 0 0 1 78.4272 197.8083)" class="st2 st9 st10">C63</text>
<g>
	<rect x="280.73" y="132.02" class="st6" width="9" height="17"/>
	<line class="st5" x1="285.23" y1="131.44" x2="285.23" y2="124.02"/>
	<line class="st5" x1="285.23" y1="157.44" x2="285.23" y2="149.41"/>
	<g>
		<line class="st5" x1="281.48" y1="126.77" x2="284.96" y2="123.27"/>
		<line class="st5" x1="288.98" y1="126.77" x2="285.5" y2="123.27"/>
	</g>
	<g>
		<line class="st8" x1="281.48" y1="122.64" x2="284.96" y2="119.14"/>
		<line class="st8" x1="288.98" y1="122.64" x2="285.5" y2="119.14"/>
	</g>
	<g>
		<line class="st5" x1="288.98" y1="154.14" x2="285.5" y2="157.64"/>
		<line class="st5" x1="281.48" y1="154.14" x2="284.96" y2="157.64"/>
	</g>
	<g>
		<line class="st5" x1="288.98" y1="158.14" x2="285.5" y2="161.64"/>
		<line class="st5" x1="281.48" y1="158.14" x2="284.96" y2="161.64"/>
	</g>
</g>
<g>
	<line class="st5" x1="362.06" y1="157.44" x2="362.06" y2="123.71"/>
	<g>
		<line class="st5" x1="358.31" y1="126.77" x2="361.79" y2="123.27"/>
		<line class="st5" x1="365.81" y1="126.77" x2="362.33" y2="123.27"/>
	</g>
	<g>
		<line class="st8" x1="358.31" y1="122.64" x2="361.79" y2="119.14"/>
		<line class="st8" x1="365.81" y1="122.64" x2="362.33" y2="119.14"/>
	</g>
	<g>
		<line class="st5" x1="365.81" y1="154.14" x2="362.33" y2="157.64"/>
		<line class="st5" x1="358.31" y1="154.14" x2="361.79" y2="157.64"/>
	</g>
	<g>
		<line class="st5" x1="365.81" y1="158.14" x2="362.33" y2="161.64"/>
		<line class="st5" x1="358.31" y1="158.14" x2="361.79" y2="161.64"/>
	</g>
</g>
<text transform="matrix(0.7096 0 0 1 146.7889 61.5743)" class="st2 st9 st11">T1</text>
<g>
	<polyline class="st12" points="173.02,53.99 176.56,62.54 180.43,53.95 	"/>
</g>
<g>
	<g>
		<polyline class="st13" points="105.63,276.5 109.16,285.05 113.04,276.47 		"/>
	</g>
	<line class="st5" x1="109.34" y1="276.53" x2="109.34" y2="255.74"/>
</g>
<g>
	<g>
		<polyline class="st13" points="137.83,276.5 141.37,285.05 145.24,276.47 		"/>
	</g>
	<line class="st5" x1="141.54" y1="276.53" x2="141.54" y2="255.74"/>
</g>
<g>
	<g>
		<polyline class="st13" points="172.8,276.5 176.34,285.05 180.22,276.47 		"/>
	</g>
	<line class="st5" x1="176.52" y1="276.53" x2="176.52" y2="255.74"/>
</g>
<g>
	<g>
		<polyline class="st13" points="209.03,276.5 212.57,285.05 216.45,276.47 		"/>
	</g>
	<line class="st5" x1="212.74" y1="276.53" x2="212.74" y2="255.74"/>
</g>
<g>
	<g>
		<polyline class="st13" points="245.79,276.5 249.33,285.05 253.21,276.47 		"/>
	</g>
	<line class="st5" x1="249.5" y1="276.53" x2="249.5" y2="255.74"/>
</g>
<rect x="351.42" y="178" class="st0" width="206.58" height="5"/>
<rect x="426.93" y="177.77" class="st1" width="5.41" height="5.5"/>
<rect x="462.97" y="177.77" class="st1" width="5.41" height="5.5"/>
<rect x="359.4" y="177.77" class="st1" width="5.41" height="5.5"/>
<rect x="391.98" y="177.77" class="st1" width="5.41" height="5.5"/>
<text transform="matrix(0.6726 0 0 1 391.3216 174.6179)" class="st2 st3 st4">404</text>
<text transform="matrix(0.6726 0 0 1 434.2722 174.6179)" class="st2 st3 st4">405</text>
<text transform="matrix(0.6726 0 0 1 469.3188 174.6179)" class="st2 st3 st4">410</text>
<rect x="499.49" y="177.77" class="st1" width="5.41" height="5.5"/>
<rect x="534.99" y="177.77" class="st1" width="5.41" height="5.5"/>
<text transform="matrix(0.6726 0 0 1 505.8382 174.6181)" class="st2 st3 st4">409</text>
<line class="st5" x1="394.68" y1="212.18" x2="394.68" y2="183.54"/>
<line class="st5" x1="429.63" y1="212.18" x2="429.63" y2="183.54"/>
<line class="st5" x1="465.68" y1="212.18" x2="465.68" y2="183.54"/>
<line class="st5" x1="502.2" y1="212.18" x2="502.2" y2="183.54"/>
<g>
	<rect x="389.98" y="225.53" class="st6" width="9" height="17"/>
	<line class="st5" x1="394.48" y1="224.95" x2="394.48" y2="217.53"/>
	<line class="st5" x1="394.48" y1="250.95" x2="394.48" y2="242.92"/>
	<g>
		<line class="st5" x1="390.73" y1="220.28" x2="394.21" y2="216.78"/>
		<line class="st5" x1="398.23" y1="220.28" x2="394.75" y2="216.78"/>
	</g>
	<g>
		<line class="st5" x1="390.73" y1="216.15" x2="394.21" y2="212.65"/>
		<line class="st5" x1="398.23" y1="216.15" x2="394.75" y2="212.65"/>
	</g>
	<g>
		<line class="st5" x1="398.23" y1="247.65" x2="394.75" y2="251.15"/>
		<line class="st5" x1="390.73" y1="247.65" x2="394.21" y2="251.15"/>
	</g>
	<g>
		<line class="st5" x1="398.23" y1="251.65" x2="394.75" y2="255.15"/>
		<line class="st5" x1="390.73" y1="251.65" x2="394.21" y2="255.15"/>
	</g>
</g>
<g>
	<rect x="424.95" y="225.53" class="st6" width="9" height="17"/>
	<line class="st5" x1="429.45" y1="224.95" x2="429.45" y2="217.53"/>
	<line class="st5" x1="429.45" y1="250.95" x2="429.45" y2="242.92"/>
	<g>
		<line class="st5" x1="425.7" y1="220.28" x2="429.18" y2="216.78"/>
		<line class="st5" x1="433.2" y1="220.28" x2="429.72" y2="216.78"/>
	</g>
	<g>
		<line class="st5" x1="425.7" y1="216.15" x2="429.18" y2="212.65"/>
		<line class="st5" x1="433.2" y1="216.15" x2="429.72" y2="212.65"/>
	</g>
	<g>
		<line class="st5" x1="433.2" y1="247.65" x2="429.72" y2="251.15"/>
		<line class="st5" x1="425.7" y1="247.65" x2="429.18" y2="251.15"/>
	</g>
	<g>
		<line class="st5" x1="433.2" y1="251.65" x2="429.72" y2="255.15"/>
		<line class="st5" x1="425.7" y1="251.65" x2="429.18" y2="255.15"/>
	</g>
</g>
<g>
	<rect x="461.18" y="225.53" class="st6" width="9" height="17"/>
	<line class="st5" x1="465.68" y1="224.95" x2="465.68" y2="217.53"/>
	<line class="st5" x1="465.68" y1="250.95" x2="465.68" y2="242.92"/>
	<g>
		<line class="st5" x1="461.93" y1="220.28" x2="465.41" y2="216.78"/>
		<line class="st5" x1="469.43" y1="220.28" x2="465.95" y2="216.78"/>
	</g>
	<g>
		<line class="st5" x1="461.93" y1="216.15" x2="465.41" y2="212.65"/>
		<line class="st5" x1="469.43" y1="216.15" x2="465.95" y2="212.65"/>
	</g>
	<g>
		<line class="st5" x1="469.43" y1="247.65" x2="465.95" y2="251.15"/>
		<line class="st5" x1="461.93" y1="247.65" x2="465.41" y2="251.15"/>
	</g>
	<g>
		<line class="st5" x1="469.43" y1="251.65" x2="465.95" y2="255.15"/>
		<line class="st5" x1="461.93" y1="251.65" x2="465.41" y2="255.15"/>
	</g>
</g>
<g>
	<rect x="497.94" y="225.53" class="st6" width="9" height="17"/>
	<line class="st5" x1="502.44" y1="224.95" x2="502.44" y2="217.53"/>
	<line class="st5" x1="502.44" y1="250.95" x2="502.44" y2="242.92"/>
	<g>
		<line class="st5" x1="498.69" y1="220.28" x2="502.17" y2="216.78"/>
		<line class="st5" x1="506.19" y1="220.28" x2="502.71" y2="216.78"/>
	</g>
	<g>
		<line class="st5" x1="498.69" y1="216.15" x2="502.17" y2="212.65"/>
		<line class="st5" x1="506.19" y1="216.15" x2="502.71" y2="212.65"/>
	</g>
	<g>
		<line class="st5" x1="506.19" y1="247.65" x2="502.71" y2="251.15"/>
		<line class="st5" x1="498.69" y1="247.65" x2="502.17" y2="251.15"/>
	</g>
	<g>
		<line class="st5" x1="506.19" y1="251.65" x2="502.71" y2="255.15"/>
		<line class="st5" x1="498.69" y1="251.65" x2="502.17" y2="255.15"/>
	</g>
</g>
<line class="st5" x1="537.7" y1="212.18" x2="537.7" y2="183.54"/>
<g>
	<rect x="533.19" y="225.53" class="st6" width="9" height="17"/>
	<line class="st5" x1="537.69" y1="224.95" x2="537.69" y2="217.53"/>
	<line class="st5" x1="537.69" y1="250.95" x2="537.69" y2="242.92"/>
	<g>
		<line class="st5" x1="533.94" y1="220.28" x2="537.42" y2="216.78"/>
		<line class="st5" x1="541.44" y1="220.28" x2="537.96" y2="216.78"/>
	</g>
	<g>
		<line class="st5" x1="533.94" y1="216.15" x2="537.42" y2="212.65"/>
		<line class="st5" x1="541.44" y1="216.15" x2="537.96" y2="212.65"/>
	</g>
	<g>
		<line class="st5" x1="541.44" y1="247.65" x2="537.96" y2="251.15"/>
		<line class="st5" x1="533.94" y1="247.65" x2="537.42" y2="251.15"/>
	</g>
	<g>
		<line class="st5" x1="541.44" y1="251.65" x2="537.96" y2="255.15"/>
		<line class="st5" x1="533.94" y1="251.65" x2="537.42" y2="255.15"/>
	</g>
</g>
<text transform="matrix(0 -0.7962 1 0 397.32 238.4856)" class="st2 st3 st7">692</text>
<text transform="matrix(0 -0.7962 1 0 431.7837 238.4532)" class="st2 st3 st7">686</text>
<line class="st8" x1="466.34" y1="117.35" x2="466.34" y2="92.35"/>
<g>
	<rect x="461.84" y="131.49" class="st6" width="9" height="17"/>
	<line class="st5" x1="466.34" y1="130.91" x2="466.34" y2="123.49"/>
	<line class="st5" x1="466.34" y1="156.91" x2="466.34" y2="148.88"/>
	<g>
		<line class="st5" x1="462.59" y1="126.24" x2="466.07" y2="122.74"/>
		<line class="st5" x1="470.09" y1="126.24" x2="466.61" y2="122.74"/>
	</g>
	<g>
		<line class="st8" x1="462.59" y1="122.12" x2="466.07" y2="118.62"/>
		<line class="st8" x1="470.09" y1="122.12" x2="466.61" y2="118.62"/>
	</g>
	<g>
		<line class="st5" x1="470.09" y1="153.62" x2="466.61" y2="157.12"/>
		<line class="st5" x1="462.59" y1="153.62" x2="466.07" y2="157.12"/>
	</g>
	<g>
		<line class="st5" x1="470.09" y1="157.62" x2="466.61" y2="161.12"/>
		<line class="st5" x1="462.59" y1="157.62" x2="466.07" y2="161.12"/>
	</g>
</g>
<line class="st5" x1="466.34" y1="177.23" x2="466.34" y2="148.58"/>
<g>
	<line class="st8" x1="460.38" y1="92.18" x2="466.34" y2="92.18"/>
	<polyline class="st8" points="460.38,92.18 460.35,92.56 460.34,92.94 460.35,93.32 460.39,93.7 460.46,94.08 460.54,94.45 
		460.66,94.82 460.79,95.17 460.95,95.52 461.12,95.86 461.32,96.18 461.54,96.5 461.77,96.8 462.03,97.08 462.3,97.34 462.6,97.59 
		462.9,97.82 463.22,98.03 463.56,98.21 463.9,98.38 464.26,98.53 464.61,98.65 464.99,98.75 465.35,98.82 465.74,98.87 
		466.11,98.9 466.5,98.9 466.87,98.88 467.25,98.83 467.63,98.77 468,98.67 468.37,98.55 468.72,98.41 469.07,98.25 469.4,98.07 
		469.72,97.86 470.03,97.64 470.32,97.39 470.6,97.13 470.86,96.85 471.1,96.56 471.32,96.25 471.53,95.92 471.71,95.59 
		471.86,95.25 472.01,94.88 472.12,94.53 472.21,94.15 472.28,93.78 472.32,93.4 472.34,93.02 472.33,92.63 472.31,92.26 
		472.26,91.88 472.18,91.51 472.07,91.13 471.96,90.78 471.81,90.42 471.63,90.08 471.44,89.75 471.24,89.43 471.01,89.13 
		470.76,88.84 470.48,88.57 470.2,88.31 469.91,88.08 469.59,87.86 469.26,87.66 468.93,87.49 468.58,87.33 468.22,87.2 
		467.86,87.1 467.48,87.01 467.1,86.95 466.73,86.91 466.34,86.9 	"/>
</g>
<line class="st8" x1="466.67" y1="87.06" x2="466.67" y2="62.06"/>
<text transform="matrix(0.7096 0 0 1 328.3679 197.8083)" class="st2 st9 st10">C64</text>
<text transform="matrix(0.7096 0 0 1 436.7296 61.5743)" class="st2 st9 st11">T2</text>
<g>
	<polyline class="st12" points="462.96,53.99 466.5,62.54 470.38,53.95 	"/>
</g>
<g>
	<g>
		<polyline class="st13" points="390.77,276.5 394.31,285.05 398.19,276.47 		"/>
	</g>
	<line class="st5" x1="394.48" y1="276.53" x2="394.48" y2="255.74"/>
</g>
<g>
	<g>
		<polyline class="st13" points="425.75,276.5 429.28,285.05 433.16,276.47 		"/>
	</g>
	<line class="st5" x1="429.46" y1="276.53" x2="429.46" y2="255.74"/>
</g>
<g>
	<g>
		<polyline class="st13" points="461.97,276.5 465.51,285.05 469.39,276.47 		"/>
	</g>
	<line class="st5" x1="465.69" y1="276.53" x2="465.69" y2="255.74"/>
</g>
<g>
	<g>
		<polyline class="st13" points="498.73,276.5 502.27,285.05 506.15,276.47 		"/>
	</g>
	<line class="st5" x1="502.44" y1="276.53" x2="502.44" y2="255.74"/>
</g>
<g>
	<g>
		<polyline class="st13" points="533.98,276.5 537.52,285.05 541.4,276.47 		"/>
	</g>
	<line class="st5" x1="537.69" y1="276.53" x2="537.69" y2="255.74"/>
</g>
<line class="st5" x1="361.89" y1="177.07" x2="361.89" y2="162.07"/>
<line class="st5" x1="284.89" y1="177.13" x2="284.89" y2="162.13"/>
<line class="st12" x1="285.34" y1="104.57" x2="363" y2="104.57"/>
<line class="st12" x1="285.5" y1="119.5" x2="285.5" y2="104.5"/>
<line class="st12" x1="362.5" y1="119.5" x2="362.5" y2="104.5"/>
<text transform="matrix(0.7096 0 0 1 190.7048 145.4135)" class="st2 st9 st10">633</text>
<text transform="matrix(0.7096 0 0 1 478.5294 145.4132)" class="st2 st9 st10">634</text>
<text transform="matrix(0.7096 0 0 1 100.7048 162.4135)" class="st2 st9 st14">6KV</text>
<text transform="matrix(0.7096 0 0 1 534.0968 162.88)" class="st2 st9 st14">6KV</text>
<text transform="matrix(0.7128 0 0 1 217.0436 27.4981)" class="st2 st3 st15">TRẠM BIẾN ÁP 110KV</text>
<text transform="matrix(0 -0.7962 1 0 178.8459 238.1896)" class="st2 st3 st7">683</text>
</svg>
