<?xml version="1.0" encoding="utf-8"?>
<!-- Generator: Adobe Illustrator 27.1.1, SVG Export Plug-In . SVG Version: 6.00 Build 0)  -->
<svg version="1.1" id="Layer_1" xmlns="http://www.w3.org/2000/svg" xmlns:xlink="http://www.w3.org/1999/xlink" x="0px" y="0px"
	 viewBox="0 0 692 368" style="enable-background:new 0 0 692 368;" xml:space="preserve">
<style type="text/css">
	.st0{fill:none;stroke:#212830;stroke-linecap:square;stroke-miterlimit:10;}
	.st1{fill:none;stroke:#000000;stroke-miterlimit:10;}
	.st2{stroke:#000000;stroke-linecap:square;stroke-miterlimit:10;}
	.st3{fill:#F7931E;}
	.st4{fill:#F15A24;}
	.st5{fill:#212830;}
	.st6{font-family:'ArialMT';}
	.st7{font-size:12px;}
	.st8{font-family:'Arial-ItalicMT';}
	.st9{font-size:14px;}
	.st10{font-size:21px;}
	.st11{fill:none;stroke:#FF0000;stroke-linecap:square;stroke-miterlimit:10;}
	.st12{fill:#E6E6E6;stroke:#FF0000;stroke-miterlimit:10;}
	.st13{fill:#FF00FF;}
	.st14{fill:#FF0000;}
	.st15{fill:#FF0000;stroke:#FF0000;stroke-linecap:square;stroke-miterlimit:10;}
</style>
<g>
	<line class="st0" x1="18.8" y1="167.9" x2="18.8" y2="139.25"/>
	<g>
		<rect x="14.3" y="181.24" class="st1" width="9" height="17"/>
		<line class="st0" x1="18.8" y1="180.66" x2="18.8" y2="173.24"/>
		<line class="st0" x1="18.8" y1="206.66" x2="18.8" y2="198.63"/>
		<g>
			<line class="st0" x1="15.05" y1="175.99" x2="18.53" y2="172.49"/>
			<line class="st0" x1="22.55" y1="175.99" x2="19.07" y2="172.49"/>
		</g>
		<g>
			<line class="st0" x1="15.05" y1="171.86" x2="18.53" y2="168.36"/>
			<line class="st0" x1="22.55" y1="171.86" x2="19.07" y2="168.36"/>
		</g>
		<g>
			<line class="st0" x1="22.55" y1="203.36" x2="19.07" y2="206.86"/>
			<line class="st0" x1="15.05" y1="203.36" x2="18.53" y2="206.86"/>
		</g>
		<g>
			<line class="st0" x1="22.55" y1="207.36" x2="19.07" y2="210.86"/>
			<line class="st0" x1="15.05" y1="207.36" x2="18.53" y2="210.86"/>
		</g>
	</g>
	<g>
		<g>
			<polyline class="st2" points="15.09,232.44 18.63,240.99 22.51,232.41 			"/>
		</g>
		<line class="st0" x1="18.8" y1="232.47" x2="18.8" y2="211.68"/>
		<line class="st0" x1="22.55" y1="232.06" x2="15.05" y2="232.06"/>
	</g>
</g>
<g>
	<line class="st0" x1="52.42" y1="167.9" x2="52.42" y2="139.25"/>
	<g>
		<rect x="47.92" y="181.24" class="st1" width="9" height="17"/>
		<line class="st0" x1="52.42" y1="180.66" x2="52.42" y2="173.24"/>
		<line class="st0" x1="52.42" y1="206.66" x2="52.42" y2="198.63"/>
		<g>
			<line class="st0" x1="48.67" y1="175.99" x2="52.15" y2="172.49"/>
			<line class="st0" x1="56.17" y1="175.99" x2="52.69" y2="172.49"/>
		</g>
		<g>
			<line class="st0" x1="48.67" y1="171.86" x2="52.15" y2="168.36"/>
			<line class="st0" x1="56.17" y1="171.86" x2="52.69" y2="168.36"/>
		</g>
		<g>
			<line class="st0" x1="56.17" y1="203.36" x2="52.69" y2="206.86"/>
			<line class="st0" x1="48.67" y1="203.36" x2="52.15" y2="206.86"/>
		</g>
		<g>
			<line class="st0" x1="56.17" y1="207.36" x2="52.69" y2="210.86"/>
			<line class="st0" x1="48.67" y1="207.36" x2="52.15" y2="210.86"/>
		</g>
	</g>
	<g>
		<g>
			<polyline class="st2" points="48.71,232.44 52.25,240.99 56.13,232.41 			"/>
		</g>
		<line class="st0" x1="52.42" y1="232.47" x2="52.42" y2="211.68"/>
		<line class="st0" x1="56.17" y1="232.06" x2="48.67" y2="232.06"/>
	</g>
</g>
<g>
	<line class="st0" x1="86.59" y1="167.9" x2="86.59" y2="139.25"/>
	<g>
		<rect x="82.09" y="181.24" class="st1" width="9" height="17"/>
		<line class="st0" x1="86.59" y1="180.66" x2="86.59" y2="173.24"/>
		<line class="st0" x1="86.59" y1="206.66" x2="86.59" y2="198.63"/>
		<g>
			<line class="st0" x1="82.84" y1="175.99" x2="86.32" y2="172.49"/>
			<line class="st0" x1="90.34" y1="175.99" x2="86.85" y2="172.49"/>
		</g>
		<g>
			<line class="st0" x1="82.84" y1="171.86" x2="86.32" y2="168.36"/>
			<line class="st0" x1="90.34" y1="171.86" x2="86.85" y2="168.36"/>
		</g>
		<g>
			<line class="st0" x1="90.34" y1="203.36" x2="86.85" y2="206.86"/>
			<line class="st0" x1="82.84" y1="203.36" x2="86.32" y2="206.86"/>
		</g>
		<g>
			<line class="st0" x1="90.34" y1="207.36" x2="86.85" y2="210.86"/>
			<line class="st0" x1="82.84" y1="207.36" x2="86.32" y2="210.86"/>
		</g>
	</g>
	<g>
		<g>
			<polyline class="st2" points="82.88,232.44 86.41,240.99 90.29,232.41 			"/>
		</g>
		<line class="st0" x1="86.59" y1="232.47" x2="86.59" y2="211.68"/>
		<line class="st0" x1="90.34" y1="232.06" x2="82.84" y2="232.06"/>
	</g>
</g>
<g>
	<line class="st0" x1="122.63" y1="167.9" x2="122.63" y2="139.25"/>
	<g>
		<rect x="118.13" y="181.24" class="st1" width="9" height="17"/>
		<line class="st0" x1="122.63" y1="180.66" x2="122.63" y2="173.24"/>
		<line class="st0" x1="122.63" y1="206.66" x2="122.63" y2="198.63"/>
		<g>
			<line class="st0" x1="118.88" y1="175.99" x2="122.36" y2="172.49"/>
			<line class="st0" x1="126.38" y1="175.99" x2="122.9" y2="172.49"/>
		</g>
		<g>
			<line class="st0" x1="118.88" y1="171.86" x2="122.36" y2="168.36"/>
			<line class="st0" x1="126.38" y1="171.86" x2="122.9" y2="168.36"/>
		</g>
		<g>
			<line class="st0" x1="126.38" y1="203.36" x2="122.9" y2="206.86"/>
			<line class="st0" x1="118.88" y1="203.36" x2="122.36" y2="206.86"/>
		</g>
		<g>
			<line class="st0" x1="126.38" y1="207.36" x2="122.9" y2="210.86"/>
			<line class="st0" x1="118.88" y1="207.36" x2="122.36" y2="210.86"/>
		</g>
	</g>
	<g>
		<g>
			<polyline class="st2" points="118.92,232.44 122.46,240.99 126.33,232.41 			"/>
		</g>
		<line class="st0" x1="122.63" y1="232.47" x2="122.63" y2="211.68"/>
		<line class="st0" x1="126.38" y1="232.06" x2="118.88" y2="232.06"/>
	</g>
</g>
<g>
	<line class="st0" x1="159.59" y1="167.9" x2="159.59" y2="139.25"/>
	<g>
		<rect x="155.09" y="181.24" class="st1" width="9" height="17"/>
		<line class="st0" x1="159.59" y1="180.66" x2="159.59" y2="173.24"/>
		<line class="st0" x1="159.59" y1="206.66" x2="159.59" y2="198.63"/>
		<g>
			<line class="st0" x1="155.84" y1="175.99" x2="159.32" y2="172.49"/>
			<line class="st0" x1="163.34" y1="175.99" x2="159.85" y2="172.49"/>
		</g>
		<g>
			<line class="st0" x1="155.84" y1="171.86" x2="159.32" y2="168.36"/>
			<line class="st0" x1="163.34" y1="171.86" x2="159.85" y2="168.36"/>
		</g>
		<g>
			<line class="st0" x1="163.34" y1="203.36" x2="159.85" y2="206.86"/>
			<line class="st0" x1="155.84" y1="203.36" x2="159.32" y2="206.86"/>
		</g>
		<g>
			<line class="st0" x1="163.34" y1="207.36" x2="159.85" y2="210.86"/>
			<line class="st0" x1="155.84" y1="207.36" x2="159.32" y2="210.86"/>
		</g>
	</g>
	<g>
		<g>
			<polyline class="st2" points="155.88,232.44 159.41,240.99 163.29,232.41 			"/>
		</g>
		<line class="st0" x1="159.59" y1="232.47" x2="159.59" y2="211.68"/>
		<line class="st0" x1="163.34" y1="232.06" x2="155.84" y2="232.06"/>
	</g>
</g>
<g>
	<line class="st0" x1="195.7" y1="167.9" x2="195.7" y2="139.25"/>
	<g>
		<rect x="191.2" y="181.24" class="st1" width="9" height="17"/>
		<line class="st0" x1="195.7" y1="180.66" x2="195.7" y2="173.24"/>
		<line class="st0" x1="195.7" y1="206.66" x2="195.7" y2="198.63"/>
		<g>
			<line class="st0" x1="191.95" y1="175.99" x2="195.43" y2="172.49"/>
			<line class="st0" x1="199.45" y1="175.99" x2="195.97" y2="172.49"/>
		</g>
		<g>
			<line class="st0" x1="191.95" y1="171.86" x2="195.43" y2="168.36"/>
			<line class="st0" x1="199.45" y1="171.86" x2="195.97" y2="168.36"/>
		</g>
		<g>
			<line class="st0" x1="199.45" y1="203.36" x2="195.97" y2="206.86"/>
			<line class="st0" x1="191.95" y1="203.36" x2="195.43" y2="206.86"/>
		</g>
		<g>
			<line class="st0" x1="199.45" y1="207.36" x2="195.97" y2="210.86"/>
			<line class="st0" x1="191.95" y1="207.36" x2="195.43" y2="210.86"/>
		</g>
	</g>
	<g>
		<g>
			<polyline class="st2" points="191.99,232.44 195.53,240.99 199.41,232.41 			"/>
		</g>
		<line class="st0" x1="195.7" y1="232.47" x2="195.7" y2="211.68"/>
		<line class="st0" x1="199.45" y1="232.06" x2="191.95" y2="232.06"/>
	</g>
</g>
<g>
	<line class="st0" x1="230.38" y1="167.9" x2="230.38" y2="139.25"/>
	<g>
		<rect x="225.88" y="181.24" class="st1" width="9" height="17"/>
		<line class="st0" x1="230.38" y1="180.66" x2="230.38" y2="173.24"/>
		<line class="st0" x1="230.38" y1="206.66" x2="230.38" y2="198.63"/>
		<g>
			<line class="st0" x1="226.63" y1="175.99" x2="230.12" y2="172.49"/>
			<line class="st0" x1="234.13" y1="175.99" x2="230.65" y2="172.49"/>
		</g>
		<g>
			<line class="st0" x1="226.63" y1="171.86" x2="230.12" y2="168.36"/>
			<line class="st0" x1="234.13" y1="171.86" x2="230.65" y2="168.36"/>
		</g>
		<g>
			<line class="st0" x1="234.13" y1="203.36" x2="230.65" y2="206.86"/>
			<line class="st0" x1="226.63" y1="203.36" x2="230.12" y2="206.86"/>
		</g>
		<g>
			<line class="st0" x1="234.13" y1="207.36" x2="230.65" y2="210.86"/>
			<line class="st0" x1="226.63" y1="207.36" x2="230.12" y2="210.86"/>
		</g>
	</g>
	<g>
		<g>
			<polyline class="st2" points="226.68,232.44 230.21,240.99 234.09,232.41 			"/>
		</g>
		<line class="st0" x1="230.38" y1="232.47" x2="230.38" y2="211.68"/>
		<line class="st0" x1="234.13" y1="232.06" x2="226.63" y2="232.06"/>
	</g>
</g>
<g>
	<line class="st0" x1="301.76" y1="167.9" x2="301.76" y2="139.25"/>
	<g>
		<rect x="297.26" y="181.24" class="st1" width="9" height="17"/>
		<line class="st0" x1="301.76" y1="180.66" x2="301.76" y2="173.24"/>
		<line class="st0" x1="301.76" y1="206.66" x2="301.76" y2="198.63"/>
		<g>
			<line class="st0" x1="298.01" y1="175.99" x2="301.49" y2="172.49"/>
			<line class="st0" x1="305.51" y1="175.99" x2="302.03" y2="172.49"/>
		</g>
		<g>
			<line class="st0" x1="298.01" y1="171.86" x2="301.49" y2="168.36"/>
			<line class="st0" x1="305.51" y1="171.86" x2="302.03" y2="168.36"/>
		</g>
		<g>
			<line class="st0" x1="305.51" y1="203.36" x2="302.03" y2="206.86"/>
			<line class="st0" x1="298.01" y1="203.36" x2="301.49" y2="206.86"/>
		</g>
		<g>
			<line class="st0" x1="305.51" y1="207.36" x2="302.03" y2="210.86"/>
			<line class="st0" x1="298.01" y1="207.36" x2="301.49" y2="210.86"/>
		</g>
	</g>
	<g>
		<g>
			<polyline class="st2" points="298.05,232.44 301.59,240.99 305.46,232.41 			"/>
		</g>
		<line class="st0" x1="301.76" y1="232.47" x2="301.76" y2="211.68"/>
		<line class="st0" x1="305.51" y1="232.06" x2="298.01" y2="232.06"/>
	</g>
</g>
<g>
	<line class="st0" x1="337.59" y1="167.9" x2="337.59" y2="139.25"/>
	<g>
		<rect x="333.09" y="181.24" class="st1" width="9" height="17"/>
		<line class="st0" x1="337.59" y1="180.66" x2="337.59" y2="173.24"/>
		<line class="st0" x1="337.59" y1="206.66" x2="337.59" y2="198.63"/>
		<g>
			<line class="st0" x1="333.84" y1="175.99" x2="337.32" y2="172.49"/>
			<line class="st0" x1="341.34" y1="175.99" x2="337.85" y2="172.49"/>
		</g>
		<g>
			<line class="st0" x1="333.84" y1="171.86" x2="337.32" y2="168.36"/>
			<line class="st0" x1="341.34" y1="171.86" x2="337.85" y2="168.36"/>
		</g>
		<g>
			<line class="st0" x1="341.34" y1="203.36" x2="337.85" y2="206.86"/>
			<line class="st0" x1="333.84" y1="203.36" x2="337.32" y2="206.86"/>
		</g>
		<g>
			<line class="st0" x1="341.34" y1="207.36" x2="337.85" y2="210.86"/>
			<line class="st0" x1="333.84" y1="207.36" x2="337.32" y2="210.86"/>
		</g>
	</g>
	<g>
		<g>
			<polyline class="st2" points="333.88,232.44 337.41,240.99 341.29,232.41 			"/>
		</g>
		<line class="st0" x1="337.59" y1="232.47" x2="337.59" y2="211.68"/>
		<line class="st0" x1="341.34" y1="232.06" x2="333.84" y2="232.06"/>
	</g>
</g>
<g>
	<line class="st0" x1="374.49" y1="167.9" x2="374.49" y2="139.25"/>
	<g>
		<rect x="369.99" y="181.24" class="st1" width="9" height="17"/>
		<line class="st0" x1="374.49" y1="180.66" x2="374.49" y2="173.24"/>
		<line class="st0" x1="374.49" y1="206.66" x2="374.49" y2="198.63"/>
		<g>
			<line class="st0" x1="370.74" y1="175.99" x2="374.22" y2="172.49"/>
			<line class="st0" x1="378.24" y1="175.99" x2="374.76" y2="172.49"/>
		</g>
		<g>
			<line class="st0" x1="370.74" y1="171.86" x2="374.22" y2="168.36"/>
			<line class="st0" x1="378.24" y1="171.86" x2="374.76" y2="168.36"/>
		</g>
		<g>
			<line class="st0" x1="378.24" y1="203.36" x2="374.76" y2="206.86"/>
			<line class="st0" x1="370.74" y1="203.36" x2="374.22" y2="206.86"/>
		</g>
		<g>
			<line class="st0" x1="378.24" y1="207.36" x2="374.76" y2="210.86"/>
			<line class="st0" x1="370.74" y1="207.36" x2="374.22" y2="210.86"/>
		</g>
	</g>
	<g>
		<g>
			<polyline class="st2" points="370.78,232.44 374.32,240.99 378.2,232.41 			"/>
		</g>
		<line class="st0" x1="374.49" y1="232.47" x2="374.49" y2="211.68"/>
		<line class="st0" x1="378.24" y1="232.06" x2="370.74" y2="232.06"/>
	</g>
</g>
<g>
	<line class="st0" x1="410.68" y1="167.9" x2="410.68" y2="139.25"/>
	<g>
		<rect x="406.18" y="181.24" class="st1" width="9" height="17"/>
		<line class="st0" x1="410.68" y1="180.66" x2="410.68" y2="173.24"/>
		<line class="st0" x1="410.68" y1="206.66" x2="410.68" y2="198.63"/>
		<g>
			<line class="st0" x1="406.93" y1="175.99" x2="410.41" y2="172.49"/>
			<line class="st0" x1="414.43" y1="175.99" x2="410.95" y2="172.49"/>
		</g>
		<g>
			<line class="st0" x1="406.93" y1="171.86" x2="410.41" y2="168.36"/>
			<line class="st0" x1="414.43" y1="171.86" x2="410.95" y2="168.36"/>
		</g>
		<g>
			<line class="st0" x1="414.43" y1="203.36" x2="410.95" y2="206.86"/>
			<line class="st0" x1="406.93" y1="203.36" x2="410.41" y2="206.86"/>
		</g>
		<g>
			<line class="st0" x1="414.43" y1="207.36" x2="410.95" y2="210.86"/>
			<line class="st0" x1="406.93" y1="207.36" x2="410.41" y2="210.86"/>
		</g>
	</g>
	<g>
		<g>
			<polyline class="st2" points="406.97,232.44 410.51,240.99 414.39,232.41 			"/>
		</g>
		<line class="st0" x1="410.68" y1="232.47" x2="410.68" y2="211.68"/>
		<line class="st0" x1="414.43" y1="232.06" x2="406.93" y2="232.06"/>
	</g>
</g>
<g>
	<line class="st0" x1="482.59" y1="167.9" x2="482.59" y2="139.25"/>
	<g>
		<rect x="478.09" y="181.24" class="st1" width="9" height="17"/>
		<line class="st0" x1="482.59" y1="180.66" x2="482.59" y2="173.24"/>
		<line class="st0" x1="482.59" y1="206.66" x2="482.59" y2="198.63"/>
		<g>
			<line class="st0" x1="478.84" y1="175.99" x2="482.32" y2="172.49"/>
			<line class="st0" x1="486.34" y1="175.99" x2="482.85" y2="172.49"/>
		</g>
		<g>
			<line class="st0" x1="478.84" y1="171.86" x2="482.32" y2="168.36"/>
			<line class="st0" x1="486.34" y1="171.86" x2="482.85" y2="168.36"/>
		</g>
		<g>
			<line class="st0" x1="486.34" y1="203.36" x2="482.85" y2="206.86"/>
			<line class="st0" x1="478.84" y1="203.36" x2="482.32" y2="206.86"/>
		</g>
		<g>
			<line class="st0" x1="486.34" y1="207.36" x2="482.85" y2="210.86"/>
			<line class="st0" x1="478.84" y1="207.36" x2="482.32" y2="210.86"/>
		</g>
	</g>
	<g>
		<g>
			<polyline class="st2" points="478.88,232.44 482.41,240.99 486.29,232.41 			"/>
		</g>
		<line class="st0" x1="482.59" y1="232.47" x2="482.59" y2="211.68"/>
		<line class="st0" x1="486.34" y1="232.06" x2="478.84" y2="232.06"/>
	</g>
</g>
<rect x="5.74" y="133.06" class="st3" width="602.76" height="6"/>
<rect x="84.49" y="133.27" class="st4" width="5.41" height="5.5"/>
<rect x="120.53" y="133.27" class="st4" width="5.41" height="5.5"/>
<rect x="16.96" y="133.27" class="st4" width="5.41" height="5.5"/>
<rect x="49.54" y="133.27" class="st4" width="5.41" height="5.5"/>
<text transform="matrix(0.4589 0 0 1 18.3095 130.1183)" class="st5 st6 st7">1</text>
<text transform="matrix(0.6726 0 0 1 49.881 130.1179)" class="st5 st6 st7">2</text>
<text transform="matrix(0.6726 0 0 1 85.8315 130.1179)" class="st5 st6 st7">3</text>
<text transform="matrix(0.6726 0 0 1 121.8782 130.1179)" class="st5 st6 st7">4</text>
<rect x="157.05" y="133.27" class="st4" width="5.41" height="5.5"/>
<text transform="matrix(0.6726 0 0 1 158.3976 130.1181)" class="st5 st6 st7">5</text>
<rect x="193.48" y="133.27" class="st4" width="5.41" height="5.5"/>
<text transform="matrix(0.6726 0 0 1 193.8216 130.1179)" class="st5 st6 st7">6</text>
<text transform="matrix(0.7096 0 0 1 240.2048 59.9135)" class="st5 st8 st9">681</text>
<text transform="matrix(0.7096 0 0 1 11.2048 117.9135)" class="st5 st8 st7">6KV</text>
<text transform="matrix(0.7128 0 0 1 284.5436 27.9981)" class="st5 st6 st10">TRẠM RP1</text>
<rect x="228.43" y="133.27" class="st4" width="5.41" height="5.5"/>
<text transform="matrix(0.6726 0 0 1 230.7722 130.1179)" class="st5 st6 st7">7</text>
<rect x="263.99" y="133.27" class="st4" width="5.41" height="5.5"/>
<rect x="299.49" y="133.27" class="st4" width="5.41" height="5.5"/>
<text transform="matrix(0.6726 0 0 1 270.3382 130.1181)" class="st5 st6 st7">9</text>
<rect x="335.34" y="133.27" class="st4" width="5.41" height="5.5"/>
<rect x="371.39" y="133.27" class="st4" width="5.41" height="5.5"/>
<text transform="matrix(0.6726 0 0 1 334.6861 130.1177)" class="st5 st6 st7">11</text>
<text transform="matrix(0.6726 0 0 1 369.7327 130.1177)" class="st5 st6 st7">12</text>
<rect x="407.91" y="133.27" class="st4" width="5.41" height="5.5"/>
<rect x="443.41" y="133.27" class="st4" width="5.41" height="5.5"/>
<text transform="matrix(0.6726 0 0 1 406.2521 130.1179)" class="st5 st6 st7">13</text>
<rect x="480.34" y="133.27" class="st4" width="5.41" height="5.5"/>
<rect x="516.39" y="133.27" class="st4" width="5.41" height="5.5"/>
<text transform="matrix(0.6726 0 0 1 479.6861 130.118)" class="st5 st6 st7">15</text>
<text transform="matrix(0.6726 0 0 1 514.7327 130.118)" class="st5 st6 st7">16</text>
<rect x="552.91" y="133.27" class="st4" width="5.41" height="5.5"/>
<rect x="588.41" y="133.27" class="st4" width="5.41" height="5.5"/>
<text transform="matrix(0.6726 0 0 1 552.2521 130.1182)" class="st5 st6 st7">17</text>
<text transform="matrix(0.6726 0 0 1 297.6386 129.6914)" class="st5 st6 st7">10</text>
<text transform="matrix(0.6726 0 0 1 442.6386 129.6914)" class="st5 st6 st7">14</text>
<text transform="matrix(0.6726 0 0 1 596.6385 130.6914)" class="st5 st6 st7">19</text>
<g>
	<rect x="283.63" y="88.52" class="st1" width="9" height="17"/>
	<line class="st0" x1="288.13" y1="87.94" x2="288.13" y2="80.52"/>
	<line class="st0" x1="288.13" y1="113.94" x2="288.13" y2="105.91"/>
	<g>
		<line class="st0" x1="284.38" y1="83.27" x2="287.86" y2="79.77"/>
		<line class="st0" x1="291.88" y1="83.27" x2="288.4" y2="79.77"/>
	</g>
	<g>
		<line class="st11" x1="284.38" y1="79.14" x2="287.86" y2="75.64"/>
		<line class="st11" x1="291.88" y1="79.14" x2="288.4" y2="75.64"/>
	</g>
	<g>
		<line class="st0" x1="291.88" y1="110.64" x2="288.4" y2="114.14"/>
		<line class="st0" x1="284.38" y1="110.64" x2="287.86" y2="114.14"/>
	</g>
	<g>
		<line class="st0" x1="291.88" y1="114.64" x2="288.4" y2="118.14"/>
		<line class="st0" x1="284.38" y1="114.64" x2="287.86" y2="118.14"/>
	</g>
</g>
<g>
	<line class="st11" x1="18.8" y1="241.2" x2="18.8" y2="287.5"/>
	<g>
		<line class="st11" x1="8.72" y1="307.49" x2="28.63" y2="307.49"/>
		<line class="st11" x1="8.74" y1="307.19" x2="18.69" y2="287.03"/>
		<line class="st11" x1="18.93" y1="287.03" x2="28.88" y2="307.19"/>
		<g>
			<rect x="16.85" y="303.5" class="st12" width="2.75" height="7.73"/>
			<g>
				<line class="st11" x1="17.1" y1="303.71" x2="17.1" y2="311.11"/>
				<line class="st11" x1="19.7" y1="303.71" x2="19.7" y2="311.11"/>
			</g>
		</g>
		<g>
			<polygon class="st12" points="17.17,296.42 15.77,299.19 10.08,295.27 11.48,292.5 			"/>
			<g>
				<line class="st11" x1="10.36" y1="295.12" x2="15.81" y2="298.88"/>
				<line class="st11" x1="11.68" y1="292.51" x2="17.13" y2="296.27"/>
			</g>
		</g>
		<g>
			<polygon class="st12" points="25.95,293.43 27.37,296.18 21.71,300.17 20.29,297.42 			"/>
			<g>
				<line class="st11" x1="21.73" y1="299.81" x2="27.15" y2="295.99"/>
				<line class="st11" x1="20.39" y1="297.22" x2="25.81" y2="293.39"/>
			</g>
		</g>
	</g>
	<rect x="3.3" y="276.23" class="st0" width="31" height="67.4"/>
	<text transform="matrix(0.6558 0 0 1 12.2359 324.6124)"><tspan x="0" y="0" class="st5 st6 st7">900</tspan><tspan x="-6.33" y="14.4" class="st5 st6 st7">KVAR</tspan></text>
</g>
<g>
	<line class="st11" x1="41.26" y1="316.87" x2="41.26" y2="309.78"/>
	<rect x="36.92" y="251.92" class="st0" width="31" height="100"/>
	<g>
		<line class="st11" x1="42.34" y1="345.46" x2="62.25" y2="345.46"/>
		<line class="st11" x1="42.36" y1="345.16" x2="52.31" y2="325"/>
		<line class="st11" x1="52.55" y1="325" x2="62.5" y2="345.16"/>
		<g>
			<rect x="50.47" y="341.48" class="st12" width="2.75" height="7.73"/>
			<g>
				<line class="st11" x1="50.72" y1="341.68" x2="50.72" y2="349.08"/>
				<line class="st11" x1="53.32" y1="341.68" x2="53.32" y2="349.08"/>
			</g>
		</g>
		<g>
			<polygon class="st12" points="50.79,334.39 49.39,337.17 43.7,333.24 45.1,330.47 			"/>
			<g>
				<line class="st11" x1="43.98" y1="333.09" x2="49.44" y2="336.85"/>
				<line class="st11" x1="45.3" y1="330.48" x2="50.75" y2="334.24"/>
			</g>
		</g>
		<g>
			<polygon class="st12" points="59.57,331.4 60.99,334.16 55.33,338.15 53.91,335.39 			"/>
			<g>
				<line class="st11" x1="55.35" y1="337.79" x2="60.77" y2="333.96"/>
				<line class="st11" x1="54.01" y1="335.19" x2="59.43" y2="331.37"/>
			</g>
		</g>
	</g>
	<line class="st11" x1="52.42" y1="299.69" x2="52.42" y2="324.69"/>
	<g>
		<g>
			<path class="st13" d="M52.42,286.92c-4.81,0-8.05-1.75-8.05-3.38s3.23-3.38,8.05-3.38s8.05,1.75,8.05,3.38
				S57.23,286.92,52.42,286.92z"/>
			<path class="st13" d="M52.42,280.67c4.61,0,7.55,1.7,7.55,2.88s-2.94,2.88-7.55,2.88c-4.61,0-7.55-1.7-7.55-2.88
				S47.82,280.67,52.42,280.67 M52.42,279.67c-4.72,0-8.55,1.74-8.55,3.88c0,2.14,3.83,3.88,8.55,3.88s8.55-1.74,8.55-3.88
				C60.97,281.4,57.14,279.67,52.42,279.67L52.42,279.67z"/>
		</g>
		<g>
			<path class="st13" d="M51.57,283.48c-3.14,0-5.48-1.1-5.48-2.08c0-0.98,2.34-2.08,5.48-2.08s5.48,1.1,5.48,2.08
				C57.05,282.38,54.7,283.48,51.57,283.48z"/>
			<path class="st13" d="M51.57,279.81c3.24,0,4.98,1.12,4.98,1.58s-1.75,1.58-4.98,1.58c-3.24,0-4.98-1.12-4.98-1.58
				S48.33,279.81,51.57,279.81 M51.57,278.81c-3.3,0-5.98,1.16-5.98,2.58c0,1.43,2.68,2.58,5.98,2.58s5.98-1.16,5.98-2.58
				C57.55,279.96,54.87,278.81,51.57,278.81L51.57,278.81z"/>
		</g>
		<g>
			<path class="st13" d="M52.42,287.78c-3.14,0-5.48-1.1-5.48-2.08c0-0.98,2.34-2.08,5.48-2.08s5.48,1.1,5.48,2.08
				C57.9,286.68,55.56,287.78,52.42,287.78z"/>
			<path class="st13" d="M52.42,284.11c3.24,0,4.98,1.12,4.98,1.58s-1.75,1.58-4.98,1.58s-4.98-1.12-4.98-1.58
				S49.19,284.11,52.42,284.11 M52.42,283.11c-3.3,0-5.98,1.16-5.98,2.58c0,1.43,2.68,2.58,5.98,2.58s5.98-1.16,5.98-2.58
				C58.4,284.27,55.73,283.11,52.42,283.11L52.42,283.11z"/>
		</g>
	</g>
	<g>
		<path class="st14" d="M52.42,267.34c5.51,0,10,4.49,10,10s-4.49,10-10,10s-10-4.49-10-10S46.91,267.34,52.42,267.34 M52.42,266.34
			c-6.08,0-11,4.92-11,11s4.92,11,11,11s11-4.92,11-11S58.5,266.34,52.42,266.34L52.42,266.34z"/>
	</g>
	<g>
		<path class="st14" d="M52.42,279.28c5.51,0,10,4.49,10,10s-4.49,10-10,10s-10-4.49-10-10S46.91,279.28,52.42,279.28 M52.42,278.28
			c-6.08,0-11,4.92-11,11s4.92,11,11,11s11-4.92,11-11S58.5,278.28,52.42,278.28L52.42,278.28z"/>
	</g>
	<line class="st11" x1="63.42" y1="313.62" x2="41.42" y2="313.62"/>
	<line class="st11" x1="64.14" y1="317.09" x2="64.14" y2="310"/>
	<line class="st11" x1="52.42" y1="241.59" x2="52.42" y2="266.59"/>
</g>
<line class="st11" x1="98.2" y1="317.09" x2="98.2" y2="310"/>
<g>
	<line class="st11" x1="75.42" y1="316.87" x2="75.42" y2="309.78"/>
	<rect x="71.09" y="251.92" class="st0" width="31" height="100"/>
	<g>
		<line class="st11" x1="76.51" y1="345.46" x2="96.41" y2="345.46"/>
		<line class="st11" x1="76.53" y1="345.16" x2="86.48" y2="325"/>
		<line class="st11" x1="86.71" y1="325" x2="96.67" y2="345.16"/>
		<g>
			<rect x="84.63" y="341.48" class="st12" width="2.75" height="7.73"/>
			<g>
				<line class="st11" x1="84.89" y1="341.68" x2="84.89" y2="349.08"/>
				<line class="st11" x1="87.48" y1="341.68" x2="87.48" y2="349.08"/>
			</g>
		</g>
		<g>
			<polygon class="st12" points="84.95,334.39 83.56,337.17 77.86,333.24 79.26,330.47 			"/>
			<g>
				<line class="st11" x1="78.14" y1="333.09" x2="83.6" y2="336.85"/>
				<line class="st11" x1="79.46" y1="330.48" x2="84.92" y2="334.24"/>
			</g>
		</g>
		<g>
			<polygon class="st12" points="93.73,331.4 95.15,334.16 89.49,338.15 88.07,335.39 			"/>
			<g>
				<line class="st11" x1="89.51" y1="337.79" x2="94.94" y2="333.96"/>
				<line class="st11" x1="88.17" y1="335.19" x2="93.6" y2="331.37"/>
			</g>
		</g>
	</g>
	<line class="st11" x1="86.59" y1="299.69" x2="86.59" y2="324.69"/>
	<g>
		<g>
			<path class="st13" d="M86.58,286.92c-4.81,0-8.05-1.75-8.05-3.38s3.23-3.38,8.05-3.38s8.05,1.75,8.05,3.38
				S91.4,286.92,86.58,286.92z"/>
			<path class="st13" d="M86.59,280.67c4.61,0,7.55,1.7,7.55,2.88s-2.94,2.88-7.55,2.88c-4.61,0-7.55-1.7-7.55-2.88
				S81.98,280.67,86.59,280.67 M86.59,279.67c-4.72,0-8.55,1.74-8.55,3.88c0,2.14,3.83,3.88,8.55,3.88s8.55-1.74,8.55-3.88
				C95.13,281.4,91.31,279.67,86.59,279.67L86.59,279.67z"/>
		</g>
		<g>
			<path class="st13" d="M85.73,283.48c-3.14,0-5.48-1.1-5.48-2.08c0-0.98,2.34-2.08,5.48-2.08s5.48,1.1,5.48,2.08
				C91.21,282.38,88.87,283.48,85.73,283.48z"/>
			<path class="st13" d="M85.73,279.81c3.24,0,4.98,1.12,4.98,1.58s-1.75,1.58-4.98,1.58s-4.98-1.12-4.98-1.58
				S82.49,279.81,85.73,279.81 M85.73,278.81c-3.3,0-5.98,1.16-5.98,2.58c0,1.43,2.68,2.58,5.98,2.58s5.98-1.16,5.98-2.58
				C91.71,279.96,89.03,278.81,85.73,278.81L85.73,278.81z"/>
		</g>
		<g>
			<path class="st13" d="M86.58,287.78c-3.14,0-5.48-1.1-5.48-2.08c0-0.98,2.34-2.08,5.48-2.08s5.48,1.1,5.48,2.08
				C92.07,286.68,89.72,287.78,86.58,287.78z"/>
			<path class="st13" d="M86.59,284.11c3.24,0,4.98,1.12,4.98,1.58s-1.75,1.58-4.98,1.58s-4.98-1.12-4.98-1.58
				S83.35,284.11,86.59,284.11 M86.59,283.11c-3.3,0-5.98,1.16-5.98,2.58c0,1.43,2.68,2.58,5.98,2.58s5.98-1.16,5.98-2.58
				C92.57,284.27,89.89,283.11,86.59,283.11L86.59,283.11z"/>
		</g>
	</g>
	<g>
		<path class="st14" d="M86.59,267.34c5.51,0,10,4.49,10,10s-4.49,10-10,10c-5.51,0-10-4.49-10-10S81.07,267.34,86.59,267.34
			 M86.59,266.34c-6.08,0-11,4.92-11,11s4.92,11,11,11s11-4.92,11-11S92.66,266.34,86.59,266.34L86.59,266.34z"/>
	</g>
	<g>
		<path class="st14" d="M86.59,279.28c5.51,0,10,4.49,10,10s-4.49,10-10,10c-5.51,0-10-4.49-10-10S81.07,279.28,86.59,279.28
			 M86.59,278.28c-6.08,0-11,4.92-11,11s4.92,11,11,11s11-4.92,11-11S92.66,278.28,86.59,278.28L86.59,278.28z"/>
	</g>
	<line class="st11" x1="97.59" y1="313.62" x2="75.59" y2="313.62"/>
	<line class="st11" x1="86.59" y1="241.59" x2="86.59" y2="266.59"/>
</g>
<g>
	<line class="st11" x1="111.38" y1="316.87" x2="111.38" y2="309.78"/>
	<rect x="107.13" y="251.92" class="st0" width="31" height="100"/>
	<g>
		<line class="st11" x1="112.55" y1="345.46" x2="132.45" y2="345.46"/>
		<line class="st11" x1="112.57" y1="345.16" x2="122.52" y2="325"/>
		<line class="st11" x1="122.75" y1="325" x2="132.71" y2="345.16"/>
		<g>
			<rect x="120.68" y="341.48" class="st12" width="2.75" height="7.73"/>
			<g>
				<line class="st11" x1="120.93" y1="341.68" x2="120.93" y2="349.08"/>
				<line class="st11" x1="123.52" y1="341.68" x2="123.52" y2="349.08"/>
			</g>
		</g>
		<g>
			<polygon class="st12" points="121,334.39 119.6,337.17 113.91,333.24 115.3,330.47 			"/>
			<g>
				<line class="st11" x1="114.19" y1="333.09" x2="119.64" y2="336.85"/>
				<line class="st11" x1="115.5" y1="330.48" x2="120.96" y2="334.24"/>
			</g>
		</g>
		<g>
			<polygon class="st12" points="129.77,331.4 131.19,334.16 125.54,338.15 124.11,335.39 			"/>
			<g>
				<line class="st11" x1="125.56" y1="337.79" x2="130.98" y2="333.96"/>
				<line class="st11" x1="124.22" y1="335.19" x2="129.64" y2="331.37"/>
			</g>
		</g>
	</g>
	<line class="st11" x1="122.63" y1="299.69" x2="122.63" y2="324.69"/>
	<g>
		<g>
			<path class="st13" d="M122.63,286.92c-4.81,0-8.05-1.75-8.05-3.38s3.23-3.38,8.05-3.38s8.05,1.75,8.05,3.38
				S127.44,286.92,122.63,286.92z"/>
			<path class="st13" d="M122.63,280.67c4.61,0,7.55,1.7,7.55,2.88s-2.94,2.88-7.55,2.88c-4.61,0-7.55-1.7-7.55-2.88
				S118.02,280.67,122.63,280.67 M122.63,279.67c-4.72,0-8.55,1.74-8.55,3.88c0,2.14,3.83,3.88,8.55,3.88s8.55-1.74,8.55-3.88
				C131.17,281.4,127.35,279.67,122.63,279.67L122.63,279.67z"/>
		</g>
		<g>
			<path class="st13" d="M121.77,283.48c-3.14,0-5.48-1.1-5.48-2.08c0-0.98,2.34-2.08,5.48-2.08s5.48,1.1,5.48,2.08
				C127.25,282.38,124.91,283.48,121.77,283.48z"/>
			<path class="st13" d="M121.77,279.81c3.24,0,4.98,1.12,4.98,1.58s-1.75,1.58-4.98,1.58s-4.98-1.12-4.98-1.58
				S118.54,279.81,121.77,279.81 M121.77,278.81c-3.3,0-5.98,1.16-5.98,2.58c0,1.43,2.68,2.58,5.98,2.58c3.3,0,5.98-1.16,5.98-2.58
				C127.75,279.96,125.08,278.81,121.77,278.81L121.77,278.81z"/>
		</g>
		<g>
			<path class="st13" d="M122.63,287.78c-3.14,0-5.48-1.1-5.48-2.08c0-0.98,2.34-2.08,5.48-2.08s5.48,1.1,5.48,2.08
				C128.11,286.68,125.76,287.78,122.63,287.78z"/>
			<path class="st13" d="M122.63,284.11c3.24,0,4.98,1.12,4.98,1.58s-1.75,1.58-4.98,1.58s-4.98-1.12-4.98-1.58
				S119.39,284.11,122.63,284.11 M122.63,283.11c-3.3,0-5.98,1.16-5.98,2.58c0,1.43,2.68,2.58,5.98,2.58c3.3,0,5.98-1.16,5.98-2.58
				C128.61,284.27,125.93,283.11,122.63,283.11L122.63,283.11z"/>
		</g>
	</g>
	<g>
		<path class="st14" d="M122.63,267.34c5.51,0,10,4.49,10,10s-4.49,10-10,10c-5.51,0-10-4.49-10-10S117.11,267.34,122.63,267.34
			 M122.63,266.34c-6.08,0-11,4.92-11,11s4.92,11,11,11s11-4.92,11-11S128.7,266.34,122.63,266.34L122.63,266.34z"/>
	</g>
	<g>
		<path class="st14" d="M122.63,279.28c5.51,0,10,4.49,10,10s-4.49,10-10,10c-5.51,0-10-4.49-10-10S117.11,279.28,122.63,279.28
			 M122.63,278.28c-6.08,0-11,4.92-11,11s4.92,11,11,11s11-4.92,11-11S128.7,278.28,122.63,278.28L122.63,278.28z"/>
	</g>
	<line class="st11" x1="133.63" y1="313.62" x2="111.63" y2="313.62"/>
	<line class="st11" x1="134.26" y1="317.09" x2="134.26" y2="310"/>
	<line class="st11" x1="122.63" y1="241.59" x2="122.63" y2="266.59"/>
</g>
<g>
	<line class="st11" x1="148.42" y1="316.87" x2="148.42" y2="309.78"/>
	<rect x="144.09" y="251.92" class="st0" width="31" height="100"/>
	<g>
		<line class="st11" x1="149.51" y1="345.46" x2="169.41" y2="345.46"/>
		<line class="st11" x1="149.53" y1="345.16" x2="159.48" y2="325"/>
		<line class="st11" x1="159.71" y1="325" x2="169.67" y2="345.16"/>
		<g>
			<rect x="157.63" y="341.48" class="st12" width="2.75" height="7.73"/>
			<g>
				<line class="st11" x1="157.89" y1="341.68" x2="157.89" y2="349.08"/>
				<line class="st11" x1="160.48" y1="341.68" x2="160.48" y2="349.08"/>
			</g>
		</g>
		<g>
			<polygon class="st12" points="157.95,334.39 156.56,337.17 150.86,333.24 152.26,330.47 			"/>
			<g>
				<line class="st11" x1="151.14" y1="333.09" x2="156.6" y2="336.85"/>
				<line class="st11" x1="152.46" y1="330.48" x2="157.92" y2="334.24"/>
			</g>
		</g>
		<g>
			<polygon class="st12" points="166.73,331.4 168.15,334.16 162.49,338.15 161.07,335.39 			"/>
			<g>
				<line class="st11" x1="162.51" y1="337.79" x2="167.94" y2="333.96"/>
				<line class="st11" x1="161.17" y1="335.19" x2="166.6" y2="331.37"/>
			</g>
		</g>
	</g>
	<line class="st11" x1="159.59" y1="299.69" x2="159.59" y2="324.69"/>
	<g>
		<g>
			<path class="st13" d="M159.58,286.92c-4.81,0-8.05-1.75-8.05-3.38s3.23-3.38,8.05-3.38s8.05,1.75,8.05,3.38
				S164.4,286.92,159.58,286.92z"/>
			<path class="st13" d="M159.59,280.67c4.61,0,7.55,1.7,7.55,2.88s-2.94,2.88-7.55,2.88c-4.61,0-7.55-1.7-7.55-2.88
				S154.98,280.67,159.59,280.67 M159.59,279.67c-4.72,0-8.55,1.74-8.55,3.88c0,2.14,3.83,3.88,8.55,3.88
				c4.72,0,8.55-1.74,8.55-3.88C168.13,281.4,164.31,279.67,159.59,279.67L159.59,279.67z"/>
		</g>
		<g>
			<path class="st13" d="M158.73,283.48c-3.14,0-5.48-1.1-5.48-2.08c0-0.98,2.34-2.08,5.48-2.08s5.48,1.1,5.48,2.08
				C164.21,282.38,161.87,283.48,158.73,283.48z"/>
			<path class="st13" d="M158.73,279.81c3.24,0,4.98,1.12,4.98,1.58s-1.75,1.58-4.98,1.58s-4.98-1.12-4.98-1.58
				S155.49,279.81,158.73,279.81 M158.73,278.81c-3.3,0-5.98,1.16-5.98,2.58c0,1.43,2.68,2.58,5.98,2.58c3.3,0,5.98-1.16,5.98-2.58
				C164.71,279.96,162.03,278.81,158.73,278.81L158.73,278.81z"/>
		</g>
		<g>
			<path class="st13" d="M159.58,287.78c-3.14,0-5.48-1.1-5.48-2.08c0-0.98,2.34-2.08,5.48-2.08s5.48,1.1,5.48,2.08
				C165.07,286.68,162.72,287.78,159.58,287.78z"/>
			<path class="st13" d="M159.59,284.11c3.24,0,4.98,1.12,4.98,1.58s-1.75,1.58-4.98,1.58c-3.24,0-4.98-1.12-4.98-1.58
				S156.35,284.11,159.59,284.11 M159.59,283.11c-3.3,0-5.98,1.16-5.98,2.58c0,1.43,2.68,2.58,5.98,2.58c3.3,0,5.98-1.16,5.98-2.58
				C165.57,284.27,162.89,283.11,159.59,283.11L159.59,283.11z"/>
		</g>
	</g>
	<g>
		<path class="st14" d="M159.59,267.34c5.51,0,10,4.49,10,10s-4.49,10-10,10s-10-4.49-10-10S154.07,267.34,159.59,267.34
			 M159.59,266.34c-6.08,0-11,4.92-11,11s4.92,11,11,11c6.08,0,11-4.92,11-11S165.66,266.34,159.59,266.34L159.59,266.34z"/>
	</g>
	<g>
		<path class="st14" d="M159.59,279.28c5.51,0,10,4.49,10,10s-4.49,10-10,10s-10-4.49-10-10S154.07,279.28,159.59,279.28
			 M159.59,278.28c-6.08,0-11,4.92-11,11s4.92,11,11,11c6.08,0,11-4.92,11-11S165.66,278.28,159.59,278.28L159.59,278.28z"/>
	</g>
	<line class="st11" x1="170.59" y1="313.62" x2="148.59" y2="313.62"/>
	<line class="st11" x1="171.31" y1="317.09" x2="171.31" y2="310"/>
	<line class="st11" x1="159.59" y1="241.59" x2="159.59" y2="266.59"/>
</g>
<line class="st11" x1="471.31" y1="316.87" x2="471.31" y2="309.78"/>
<g>
	<rect x="467.09" y="251.92" class="st0" width="31" height="100"/>
	<g>
		<line class="st11" x1="472.51" y1="345.46" x2="492.41" y2="345.46"/>
		<line class="st11" x1="472.53" y1="345.16" x2="482.48" y2="325"/>
		<line class="st11" x1="482.71" y1="325" x2="492.67" y2="345.16"/>
		<g>
			<rect x="480.63" y="341.48" class="st12" width="2.75" height="7.73"/>
			<g>
				<line class="st11" x1="480.89" y1="341.68" x2="480.89" y2="349.08"/>
				<line class="st11" x1="483.48" y1="341.68" x2="483.48" y2="349.08"/>
			</g>
		</g>
		<g>
			<polygon class="st12" points="480.95,334.39 479.56,337.17 473.86,333.24 475.26,330.47 			"/>
			<g>
				<line class="st11" x1="474.14" y1="333.09" x2="479.6" y2="336.85"/>
				<line class="st11" x1="475.46" y1="330.48" x2="480.92" y2="334.24"/>
			</g>
		</g>
		<g>
			<polygon class="st12" points="489.73,331.4 491.15,334.16 485.49,338.15 484.07,335.39 			"/>
			<g>
				<line class="st11" x1="485.51" y1="337.79" x2="490.94" y2="333.96"/>
				<line class="st11" x1="484.17" y1="335.19" x2="489.6" y2="331.37"/>
			</g>
		</g>
	</g>
	<line class="st11" x1="482.59" y1="299.69" x2="482.59" y2="324.69"/>
	<g>
		<g>
			<path class="st13" d="M482.58,286.92c-4.81,0-8.05-1.75-8.05-3.38s3.23-3.38,8.05-3.38s8.05,1.75,8.05,3.38
				S487.4,286.92,482.58,286.92z"/>
			<path class="st13" d="M482.59,280.67c4.61,0,7.55,1.7,7.55,2.88s-2.94,2.88-7.55,2.88s-7.55-1.7-7.55-2.88
				S477.98,280.67,482.59,280.67 M482.59,279.67c-4.72,0-8.55,1.74-8.55,3.88c0,2.14,3.83,3.88,8.55,3.88s8.55-1.74,8.55-3.88
				C491.13,281.4,487.31,279.67,482.59,279.67L482.59,279.67z"/>
		</g>
		<g>
			<path class="st13" d="M481.73,283.48c-3.14,0-5.48-1.1-5.48-2.08c0-0.98,2.34-2.08,5.48-2.08s5.48,1.1,5.48,2.08
				C487.21,282.38,484.87,283.48,481.73,283.48z"/>
			<path class="st13" d="M481.73,279.81c3.24,0,4.98,1.12,4.98,1.58s-1.75,1.58-4.98,1.58s-4.98-1.12-4.98-1.58
				S478.49,279.81,481.73,279.81 M481.73,278.81c-3.3,0-5.98,1.16-5.98,2.58c0,1.43,2.68,2.58,5.98,2.58c3.3,0,5.98-1.16,5.98-2.58
				C487.71,279.96,485.03,278.81,481.73,278.81L481.73,278.81z"/>
		</g>
		<g>
			<path class="st13" d="M482.58,287.78c-3.14,0-5.48-1.1-5.48-2.08c0-0.98,2.34-2.08,5.48-2.08s5.48,1.1,5.48,2.08
				C488.07,286.68,485.72,287.78,482.58,287.78z"/>
			<path class="st13" d="M482.59,284.11c3.24,0,4.98,1.12,4.98,1.58s-1.75,1.58-4.98,1.58s-4.98-1.12-4.98-1.58
				S479.35,284.11,482.59,284.11 M482.59,283.11c-3.3,0-5.98,1.16-5.98,2.58c0,1.43,2.68,2.58,5.98,2.58c3.3,0,5.98-1.16,5.98-2.58
				C488.57,284.27,485.89,283.11,482.59,283.11L482.59,283.11z"/>
		</g>
	</g>
	<g>
		<path class="st14" d="M482.59,267.34c5.51,0,10,4.49,10,10s-4.49,10-10,10s-10-4.49-10-10S477.07,267.34,482.59,267.34
			 M482.59,266.34c-6.08,0-11,4.92-11,11s4.92,11,11,11s11-4.92,11-11S488.66,266.34,482.59,266.34L482.59,266.34z"/>
	</g>
	<g>
		<path class="st14" d="M482.59,279.28c5.51,0,10,4.49,10,10s-4.49,10-10,10s-10-4.49-10-10S477.07,279.28,482.59,279.28
			 M482.59,278.28c-6.08,0-11,4.92-11,11s4.92,11,11,11s11-4.92,11-11S488.66,278.28,482.59,278.28L482.59,278.28z"/>
	</g>
	<line class="st11" x1="493.59" y1="313.62" x2="471.59" y2="313.62"/>
	<line class="st11" x1="494.31" y1="317.09" x2="494.31" y2="310"/>
	<line class="st11" x1="482.59" y1="241.59" x2="482.59" y2="266.59"/>
</g>
<g>
	<rect x="587.84" y="87.96" class="st1" width="9" height="17"/>
	<line class="st0" x1="592.34" y1="87.38" x2="592.34" y2="79.96"/>
	<line class="st0" x1="592.34" y1="113.38" x2="592.34" y2="105.35"/>
	<g>
		<line class="st0" x1="588.59" y1="82.71" x2="592.07" y2="79.21"/>
		<line class="st0" x1="596.09" y1="82.71" x2="592.61" y2="79.21"/>
	</g>
	<g>
		<line class="st11" x1="588.59" y1="78.59" x2="592.07" y2="75.09"/>
		<line class="st11" x1="596.09" y1="78.59" x2="592.61" y2="75.09"/>
	</g>
	<g>
		<line class="st0" x1="596.09" y1="110.09" x2="592.61" y2="113.59"/>
		<line class="st0" x1="588.59" y1="110.09" x2="592.07" y2="113.59"/>
	</g>
	<g>
		<line class="st0" x1="596.09" y1="114.09" x2="592.61" y2="117.59"/>
		<line class="st0" x1="588.59" y1="114.09" x2="592.07" y2="117.59"/>
	</g>
</g>
<g>
	<line class="st0" x1="651.17" y1="113.38" x2="651.17" y2="79.66"/>
	<g>
		<line class="st0" x1="647.42" y1="82.71" x2="650.9" y2="79.21"/>
		<line class="st0" x1="654.92" y1="82.71" x2="651.43" y2="79.21"/>
	</g>
	<g>
		<line class="st11" x1="647.42" y1="78.59" x2="650.9" y2="75.09"/>
		<line class="st11" x1="654.92" y1="78.59" x2="651.43" y2="75.09"/>
	</g>
	<g>
		<line class="st0" x1="654.92" y1="110.09" x2="651.43" y2="113.59"/>
		<line class="st0" x1="647.42" y1="110.09" x2="650.9" y2="113.59"/>
	</g>
	<g>
		<line class="st0" x1="654.92" y1="114.09" x2="651.43" y2="117.59"/>
		<line class="st0" x1="647.42" y1="114.09" x2="650.9" y2="117.59"/>
	</g>
</g>
<line class="st0" x1="650.99" y1="133.02" x2="650.99" y2="118.02"/>
<line class="st0" x1="591.99" y1="133.07" x2="591.99" y2="118.07"/>
<line class="st15" x1="592.45" y1="60.52" x2="651.5" y2="60.52"/>
<line class="st15" x1="592.6" y1="75.44" x2="592.6" y2="60.44"/>
<line class="st15" x1="651.6" y1="75.44" x2="651.6" y2="60.44"/>
<rect x="633.1" y="132.76" class="st3" width="52.4" height="6"/>
<text transform="matrix(0.7096 0 0 1 346.4691 109.7204)" class="st5 st8 st7">PHÂN ĐOẠN 1</text>
<text transform="matrix(0.7096 0 0 1 631.6534 152.9373)" class="st5 st8 st7">PHÂN ĐOẠN 2</text>
<rect x="648.78" y="132.77" class="st4" width="5.41" height="5.5"/>
<text transform="matrix(0.6726 0 0 1 659.1295 129.2326)" class="st5 st6 st7">20</text>
<g>
	<rect x="179.7" y="251.22" class="st0" width="32" height="100"/>
	<g>
		<path class="st14" d="M195.7,266.6c5.51,0,10,4.49,10,10s-4.49,10-10,10s-10-4.49-10-10S190.19,266.6,195.7,266.6 M195.7,265.6
			c-6.08,0-11,4.92-11,11s4.92,11,11,11s11-4.92,11-11S201.77,265.6,195.7,265.6L195.7,265.6z"/>
	</g>
	<g>
		<path class="st14" d="M195.7,270.1c3.58,0,6.5,2.92,6.5,6.5s-2.92,6.5-6.5,6.5s-6.5-2.92-6.5-6.5S192.12,270.1,195.7,270.1
			 M195.7,269.1c-4.14,0-7.5,3.36-7.5,7.5c0,4.14,3.36,7.5,7.5,7.5s7.5-3.36,7.5-7.5C203.2,272.46,199.84,269.1,195.7,269.1
			L195.7,269.1z"/>
	</g>
	<line class="st11" x1="195.7" y1="240.29" x2="195.7" y2="265.29"/>
	<text transform="matrix(0.6558 0 0 1 184.5458 303.0114)"><tspan x="0" y="0" class="st5 st6 st7">52M-1</tspan><tspan x="5.33" y="14.4" class="st5 st6 st7">/400</tspan><tspan x="7.34" y="28.8" class="st5 st6 st7">KW</tspan></text>
</g>
<g>
	<rect x="214.38" y="251.22" class="st0" width="32" height="100"/>
	<g>
		<path class="st14" d="M230.38,266.6c5.51,0,10,4.49,10,10s-4.49,10-10,10s-10-4.49-10-10S224.87,266.6,230.38,266.6 M230.38,265.6
			c-6.08,0-11,4.92-11,11s4.92,11,11,11s11-4.92,11-11S236.46,265.6,230.38,265.6L230.38,265.6z"/>
	</g>
	<g>
		<path class="st14" d="M230.38,270.1c3.58,0,6.5,2.92,6.5,6.5s-2.92,6.5-6.5,6.5s-6.5-2.92-6.5-6.5S226.8,270.1,230.38,270.1
			 M230.38,269.1c-4.14,0-7.5,3.36-7.5,7.5c0,4.14,3.36,7.5,7.5,7.5s7.5-3.36,7.5-7.5C237.88,272.46,234.53,269.1,230.38,269.1
			L230.38,269.1z"/>
	</g>
	<line class="st11" x1="230.38" y1="240.29" x2="230.38" y2="265.29"/>
	<text transform="matrix(0.6558 0 0 1 219.2313 303.7903)"><tspan x="0" y="0" class="st5 st6 st7">52M-2</tspan><tspan x="5.33" y="14.4" class="st5 st6 st7">/400</tspan><tspan x="7.34" y="28.8" class="st5 st6 st7">KW</tspan></text>
</g>
<g>
	<rect x="285.76" y="251.5" class="st0" width="32" height="100"/>
	<g>
		<path class="st14" d="M301.76,266.89c5.51,0,10,4.49,10,10s-4.49,10-10,10s-10-4.49-10-10S296.24,266.89,301.76,266.89
			 M301.76,265.89c-6.08,0-11,4.92-11,11s4.92,11,11,11s11-4.92,11-11S307.83,265.89,301.76,265.89L301.76,265.89z"/>
	</g>
	<g>
		<circle class="st13" cx="301.76" cy="276.89" r="7"/>
		<path class="st14" d="M301.76,270.39c3.58,0,6.5,2.92,6.5,6.5s-2.92,6.5-6.5,6.5s-6.5-2.92-6.5-6.5S298.17,270.39,301.76,270.39
			 M301.76,269.39c-4.14,0-7.5,3.36-7.5,7.5c0,4.14,3.36,7.5,7.5,7.5c4.14,0,7.5-3.36,7.5-7.5
			C309.26,272.75,305.9,269.39,301.76,269.39L301.76,269.39z"/>
	</g>
	<line class="st11" x1="301.76" y1="240.01" x2="301.76" y2="265.01"/>
	<text transform="matrix(0.6558 0 0 1 290.6038 303.7899)"><tspan x="0" y="0" class="st5 st6 st7">52M-3</tspan><tspan x="5.33" y="14.4" class="st5 st6 st7">/400</tspan><tspan x="7.34" y="28.8" class="st5 st6 st7">KW</tspan></text>
</g>
<g>
	<rect x="321.59" y="251.5" class="st0" width="32" height="100"/>
	<g>
		<path class="st14" d="M337.59,266.89c5.51,0,10,4.49,10,10s-4.49,10-10,10s-10-4.49-10-10S332.07,266.89,337.59,266.89
			 M337.59,265.89c-6.08,0-11,4.92-11,11s4.92,11,11,11s11-4.92,11-11S343.66,265.89,337.59,265.89L337.59,265.89z"/>
	</g>
	<g>
		<circle class="st13" cx="337.58" cy="276.89" r="7"/>
		<path class="st14" d="M337.59,270.39c3.58,0,6.5,2.92,6.5,6.5s-2.92,6.5-6.5,6.5s-6.5-2.92-6.5-6.5S334,270.39,337.59,270.39
			 M337.59,269.39c-4.14,0-7.5,3.36-7.5,7.5c0,4.14,3.36,7.5,7.5,7.5c4.14,0,7.5-3.36,7.5-7.5
			C345.09,272.75,341.73,269.39,337.59,269.39L337.59,269.39z"/>
	</g>
	<line class="st11" x1="337.59" y1="240.01" x2="337.59" y2="265.01"/>
	<text transform="matrix(0.6558 0 0 1 326.7554 303.7899)"><tspan x="0" y="0" class="st5 st6 st7">52M-4</tspan><tspan x="5.33" y="14.4" class="st5 st6 st7">/400</tspan><tspan x="7.34" y="28.8" class="st5 st6 st7">KW</tspan></text>
</g>
<g>
	<rect x="358.49" y="251.5" class="st0" width="32" height="100"/>
	<g>
		<path class="st14" d="M374.49,266.89c5.51,0,10,4.49,10,10s-4.49,10-10,10s-10-4.49-10-10S368.97,266.89,374.49,266.89
			 M374.49,265.89c-6.08,0-11,4.92-11,11s4.92,11,11,11s11-4.92,11-11S380.56,265.89,374.49,265.89L374.49,265.89z"/>
	</g>
	<g>
		<circle class="st13" cx="374.49" cy="276.89" r="7"/>
		<path class="st14" d="M374.49,270.39c3.58,0,6.5,2.92,6.5,6.5s-2.92,6.5-6.5,6.5s-6.5-2.92-6.5-6.5S370.9,270.39,374.49,270.39
			 M374.49,269.39c-4.14,0-7.5,3.36-7.5,7.5c0,4.14,3.36,7.5,7.5,7.5c4.14,0,7.5-3.36,7.5-7.5
			C381.99,272.75,378.63,269.39,374.49,269.39L374.49,269.39z"/>
	</g>
	<line class="st11" x1="374.49" y1="240.01" x2="374.49" y2="265.01"/>
	<text transform="matrix(0.6558 0 0 1 363.8525 303.7899)"><tspan x="0" y="0" class="st5 st6 st7">52M-5</tspan><tspan x="5.33" y="14.4" class="st5 st6 st7">/400</tspan><tspan x="7.34" y="28.8" class="st5 st6 st7">KW</tspan></text>
</g>
<g>
	<rect x="394.68" y="251.5" class="st0" width="32" height="100"/>
	<g>
		<path class="st14" d="M410.68,266.89c5.51,0,10,4.49,10,10s-4.49,10-10,10s-10-4.49-10-10S405.16,266.89,410.68,266.89
			 M410.68,265.89c-6.08,0-11,4.92-11,11s4.92,11,11,11s11-4.92,11-11S416.75,265.89,410.68,265.89L410.68,265.89z"/>
	</g>
	<g>
		<circle class="st13" cx="410.68" cy="276.89" r="7"/>
		<path class="st14" d="M410.68,270.39c3.58,0,6.5,2.92,6.5,6.5s-2.92,6.5-6.5,6.5s-6.5-2.92-6.5-6.5S407.09,270.39,410.68,270.39
			 M410.68,269.39c-4.14,0-7.5,3.36-7.5,7.5c0,4.14,3.36,7.5,7.5,7.5c4.14,0,7.5-3.36,7.5-7.5
			C418.18,272.75,414.82,269.39,410.68,269.39L410.68,269.39z"/>
	</g>
	<line class="st11" x1="410.68" y1="240.01" x2="410.68" y2="265.01"/>
	<text transform="matrix(0.6558 0 0 1 399.8733 302.79)"><tspan x="0" y="0" class="st5 st6 st7">12190</tspan><tspan x="6.35" y="14.4" class="st5 st6 st7">M-5</tspan><tspan x="5.01" y="28.8" class="st5 st6 st7">/400</tspan><tspan x="7.02" y="43.2" class="st5 st6 st7">KW</tspan></text>
</g>
<g>
	<g>
		<rect x="262.68" y="88.52" class="st1" width="9" height="17"/>
		<line class="st0" x1="267.18" y1="87.94" x2="267.18" y2="80.52"/>
		<line class="st0" x1="267.18" y1="113.94" x2="267.18" y2="105.91"/>
		<g>
			<line class="st0" x1="263.43" y1="83.27" x2="266.91" y2="79.77"/>
			<line class="st0" x1="270.93" y1="83.27" x2="267.45" y2="79.77"/>
		</g>
		<g>
			<line class="st11" x1="263.43" y1="79.14" x2="266.91" y2="75.64"/>
			<line class="st11" x1="270.93" y1="79.14" x2="267.45" y2="75.64"/>
		</g>
		<g>
			<line class="st0" x1="270.93" y1="110.64" x2="267.45" y2="114.14"/>
			<line class="st0" x1="263.43" y1="110.64" x2="266.91" y2="114.14"/>
		</g>
		<g>
			<line class="st0" x1="270.93" y1="114.64" x2="267.45" y2="118.14"/>
			<line class="st0" x1="263.43" y1="114.64" x2="266.91" y2="118.14"/>
		</g>
	</g>
	<line class="st0" x1="267.18" y1="132.9" x2="267.18" y2="117.9"/>
	<line class="st11" x1="267.18" y1="75.56" x2="267.18" y2="50.56"/>
	<g>
		<g>
			<polyline class="st15" points="263.47,42.03 267.01,50.58 270.89,42 			"/>
		</g>
		<line class="st15" x1="270.93" y1="41.66" x2="263.43" y2="41.66"/>
	</g>
</g>
</svg>
